<svg viewBox="0 0 481 341" fill="none" xmlns="http://www.w3.org/2000/svg">
<rect x="0.658691" y="0.759766" width="479" height="339" fill="#FF6F6F"/>
<rect x="0.658691" y="0.759766" width="479" height="339" stroke="black"/>
<path d="M165.65 166.564C165.65 163.385 166.29 160.974 167.57 159.332C168.85 157.668 170.78 156.836 173.362 156.836C175.943 156.836 177.874 157.668 179.154 159.332C180.434 160.974 181.074 163.385 181.074 166.564C181.074 169.742 180.434 172.164 179.154 173.828C177.874 175.47 175.943 176.292 173.362 176.292C170.78 176.292 168.85 175.47 167.57 173.828C166.29 172.164 165.65 169.742 165.65 166.564ZM177.138 166.564C177.138 164.537 176.86 163.001 176.306 161.956C175.751 160.91 174.77 160.388 173.362 160.388C171.954 160.388 170.972 160.91 170.418 161.956C169.863 163.001 169.586 164.537 169.586 166.564C169.586 168.59 169.863 170.126 170.418 171.172C170.972 172.217 171.954 172.74 173.362 172.74C174.77 172.74 175.751 172.217 176.306 171.172C176.86 170.126 177.138 168.59 177.138 166.564ZM189.202 181.444C189.202 182.041 188.988 182.478 188.562 182.756C188.156 183.033 187.676 183.172 187.122 183.172C186.588 183.172 186.108 183.033 185.682 182.756C185.276 182.478 185.074 182.041 185.074 181.444V156.932C185.074 156.334 185.276 155.897 185.682 155.62C186.108 155.342 186.588 155.204 187.122 155.204C187.676 155.204 188.156 155.342 188.562 155.62C188.988 155.897 189.202 156.334 189.202 156.932V181.444ZM209.335 173.156C209.335 174.158 209.132 174.852 208.727 175.236C208.343 175.62 207.639 175.812 206.615 175.812H197.751C196.727 175.812 196.012 175.62 195.607 175.236C195.223 174.852 195.031 174.158 195.031 173.156V159.972C195.031 158.969 195.223 158.276 195.607 157.892C196.012 157.508 196.727 157.316 197.751 157.316H206.615C207.639 157.316 208.343 157.508 208.727 157.892C209.132 158.276 209.335 158.969 209.335 159.972V173.156ZM205.271 161.508C205.271 161.017 205.025 160.772 204.535 160.772H199.831C199.34 160.772 199.095 161.017 199.095 161.508V171.62C199.095 172.11 199.34 172.356 199.831 172.356H204.535C205.025 172.356 205.271 172.11 205.271 171.62V161.508ZM218.007 181.444C218.007 182.041 217.793 182.478 217.367 182.756C216.961 183.033 216.481 183.172 215.927 183.172C215.393 183.172 214.913 183.033 214.487 182.756C214.081 182.478 213.879 182.041 213.879 181.444V156.932C213.879 156.334 214.081 155.897 214.487 155.62C214.913 155.342 215.393 155.204 215.927 155.204C216.481 155.204 216.961 155.342 217.367 155.62C217.793 155.897 218.007 156.334 218.007 156.932V181.444ZM233.884 160.868V163.3C233.884 163.982 233.926 164.601 234.012 165.156C234.097 165.71 234.225 166.222 234.396 166.692C234.588 167.161 234.833 167.62 235.132 168.068C235.43 168.494 235.804 168.932 236.252 169.38C236.87 169.998 237.468 170.585 238.044 171.14C238.62 171.694 239.153 172.185 239.644 172.612C240.049 172.974 240.209 173.401 240.124 173.892C240.06 174.382 239.868 174.798 239.548 175.14C239.228 175.46 238.833 175.673 238.364 175.78C237.894 175.865 237.468 175.737 237.084 175.396C236.657 175.033 236.188 174.606 235.676 174.116C235.164 173.604 234.62 173.06 234.044 172.484C233.212 171.652 232.646 171.022 232.348 170.596C232.07 170.148 231.9 169.774 231.836 169.476H231.804C231.718 169.838 231.526 170.244 231.228 170.692C230.95 171.118 230.396 171.748 229.564 172.58C228.988 173.156 228.412 173.721 227.836 174.276C227.26 174.83 226.662 175.374 226.044 175.908C225.83 176.078 225.606 176.185 225.372 176.228C225.137 176.27 224.902 176.27 224.668 176.228C224.454 176.164 224.241 176.078 224.028 175.972C223.836 175.844 223.665 175.694 223.516 175.524C223.196 175.161 223.025 174.734 223.004 174.244C222.982 173.753 223.174 173.326 223.58 172.964C224.924 171.79 226.182 170.596 227.356 169.38C227.804 168.932 228.177 168.494 228.476 168.068C228.774 167.62 229.009 167.161 229.18 166.692C229.372 166.222 229.51 165.71 229.596 165.156C229.681 164.601 229.724 163.982 229.724 163.3V160.868H224.956C224.465 160.868 224.102 160.697 223.868 160.356C223.633 160.014 223.516 159.609 223.516 159.14C223.516 158.649 223.633 158.233 223.868 157.892C224.102 157.55 224.465 157.38 224.956 157.38H238.396C238.886 157.38 239.249 157.55 239.484 157.892C239.718 158.233 239.836 158.649 239.836 159.14C239.836 159.609 239.718 160.014 239.484 160.356C239.249 160.697 238.886 160.868 238.396 160.868H233.884ZM246.812 181.444C246.812 182.041 246.598 182.478 246.172 182.756C245.766 183.033 245.286 183.172 244.732 183.172C244.198 183.172 243.718 183.033 243.292 182.756C242.886 182.478 242.684 182.041 242.684 181.444V156.932C242.684 156.334 242.886 155.897 243.292 155.62C243.718 155.342 244.198 155.204 244.732 155.204C245.286 155.204 245.766 155.342 246.172 155.62C246.598 155.897 246.812 156.334 246.812 156.932V181.444ZM271.169 157.508C271.595 157.785 271.873 158.148 272.001 158.596C272.15 159.044 272.043 159.534 271.681 160.068L263.329 172.132H269.953V166.884C269.953 166.286 270.155 165.849 270.561 165.572C270.966 165.294 271.435 165.156 271.969 165.156C272.502 165.156 272.971 165.294 273.377 165.572C273.782 165.849 273.985 166.286 273.985 166.884V172.132H275.937C276.427 172.132 276.779 172.302 276.993 172.644C277.206 172.964 277.313 173.348 277.313 173.796C277.313 174.222 277.206 174.606 276.993 174.948C276.779 175.268 276.427 175.428 275.937 175.428H273.985V178.596C273.985 179.193 273.782 179.63 273.377 179.908C272.971 180.185 272.502 180.324 271.969 180.324C271.435 180.324 270.966 180.185 270.561 179.908C270.155 179.63 269.953 179.193 269.953 178.596V175.428H260.993C260.097 175.428 259.446 175.268 259.041 174.948C258.657 174.628 258.465 174.126 258.465 173.444C258.465 173.337 258.475 173.23 258.497 173.124C258.518 172.996 258.561 172.857 258.625 172.708C258.689 172.537 258.785 172.345 258.913 172.132C259.041 171.897 259.222 171.609 259.457 171.268L268.641 157.988C268.961 157.518 269.355 157.262 269.825 157.22C270.294 157.156 270.742 157.252 271.169 157.508ZM287.204 160.58C286.308 160.58 285.551 160.836 284.932 161.348C284.314 161.838 284.004 162.585 284.004 163.588V163.748C284.004 164.26 284.1 164.708 284.292 165.092C284.484 165.454 284.73 165.764 285.028 166.02C285.348 166.254 285.7 166.436 286.084 166.564C286.468 166.67 286.852 166.724 287.236 166.724C287.642 166.724 288.026 166.67 288.388 166.564C288.772 166.436 289.114 166.254 289.412 166.02C289.711 165.764 289.946 165.454 290.116 165.092C290.308 164.708 290.404 164.26 290.404 163.748V163.588C290.404 162.585 290.106 161.838 289.508 161.348C288.932 160.836 288.164 160.58 287.204 160.58ZM287.268 170.308C286.756 170.308 286.266 170.372 285.796 170.5C285.348 170.628 284.943 170.83 284.58 171.108C284.239 171.364 283.962 171.705 283.748 172.132C283.535 172.537 283.428 173.028 283.428 173.604V173.764C283.428 174.766 283.78 175.545 284.484 176.1C285.188 176.633 286.116 176.9 287.268 176.9C288.42 176.9 289.327 176.633 289.988 176.1C290.65 175.545 290.98 174.766 290.98 173.764V173.604C290.98 173.028 290.874 172.537 290.66 172.132C290.468 171.726 290.202 171.385 289.86 171.108C289.54 170.83 289.156 170.628 288.708 170.5C288.26 170.372 287.78 170.308 287.268 170.308ZM287.172 157.028C288.41 157.028 289.487 157.209 290.404 157.572C291.343 157.913 292.122 158.382 292.74 158.98C293.359 159.556 293.818 160.228 294.116 160.996C294.436 161.742 294.596 162.532 294.596 163.364V163.588C294.596 163.972 294.532 164.377 294.404 164.804C294.298 165.23 294.116 165.657 293.86 166.084C293.604 166.51 293.274 166.926 292.868 167.332C292.484 167.737 292.015 168.1 291.46 168.42C291.951 168.569 292.42 168.814 292.868 169.156C293.338 169.476 293.743 169.86 294.084 170.308C294.426 170.756 294.692 171.268 294.884 171.844C295.098 172.398 295.204 172.996 295.204 173.636V174.02C295.204 174.937 295.034 175.79 294.692 176.58C294.351 177.369 293.839 178.052 293.156 178.628C292.495 179.204 291.674 179.662 290.692 180.004C289.711 180.324 288.58 180.484 287.3 180.484C285.978 180.484 284.804 180.324 283.78 180.004C282.778 179.662 281.935 179.204 281.252 178.628C280.57 178.052 280.058 177.369 279.716 176.58C279.375 175.79 279.204 174.937 279.204 174.02V173.636C279.204 172.996 279.311 172.398 279.524 171.844C279.738 171.268 280.015 170.756 280.356 170.308C280.719 169.838 281.124 169.444 281.572 169.124C282.02 168.804 282.49 168.569 282.98 168.42C282.426 168.142 281.946 167.812 281.54 167.428C281.156 167.022 280.836 166.606 280.58 166.18C280.324 165.732 280.132 165.284 280.004 164.836C279.876 164.388 279.812 163.972 279.812 163.588V163.364C279.812 162.532 279.951 161.742 280.228 160.996C280.527 160.228 280.975 159.556 281.572 158.98C282.191 158.382 282.959 157.913 283.876 157.572C284.815 157.209 285.914 157.028 287.172 157.028ZM306.728 157.028C309.693 157.028 311.848 157.988 313.192 159.908C314.557 161.828 315.24 164.548 315.24 168.068V169.444C315.24 172.964 314.557 175.684 313.192 177.604C311.848 179.524 309.693 180.484 306.728 180.484C303.763 180.484 301.597 179.524 300.232 177.604C298.888 175.684 298.216 172.964 298.216 169.444V168.068C298.216 164.548 298.888 161.828 300.232 159.908C301.597 157.988 303.763 157.028 306.728 157.028ZM306.728 160.9C305.896 160.9 305.192 161.038 304.616 161.316C304.061 161.593 303.613 162.041 303.272 162.66C302.952 163.257 302.717 164.025 302.568 164.964C302.419 165.902 302.344 167.033 302.344 168.356V169.156C302.344 170.478 302.419 171.609 302.568 172.548C302.717 173.486 302.952 174.265 303.272 174.884C303.613 175.481 304.061 175.918 304.616 176.196C305.192 176.473 305.896 176.612 306.728 176.612C307.56 176.612 308.253 176.473 308.808 176.196C309.384 175.918 309.832 175.481 310.152 174.884C310.493 174.265 310.739 173.486 310.888 172.548C311.037 171.609 311.112 170.478 311.112 169.156V168.356C311.112 167.033 311.037 165.902 310.888 164.964C310.739 164.025 310.493 163.257 310.152 162.66C309.832 162.041 309.384 161.593 308.808 161.316C308.253 161.038 307.56 160.9 306.728 160.9Z" fill="black"/>
</svg>
