<svg width="360" height="340" viewBox="0 0 360 340" fill="none" xmlns="http://www.w3.org/2000/svg">
<g clip-path="url(#clip0_1913_3273)">
<mask id="path-1-inside-1_1913_3273" fill="white">
<path d="M0 0H360V340H0V0Z"/>
</mask>
<path d="M0 0H360V340H0V0Z" fill="#EAF4FF"/>
<rect x="276.458" y="-90.0876" width="343.909" height="459.492" rx="100" transform="rotate(38.874 276.458 -90.0876)" fill="#D6EBFE"/>
<rect x="29.668" y="-24.5021" width="149.594" height="149.594" rx="5" fill="#72B6F9"/>
<rect x="29.668" y="-28.08" width="149.594" height="149.594" rx="5" fill="#A6D3FD"/>
<rect x="225.337" y="28.4048" width="97.7002" height="97.7002" rx="48.8501" fill="#72B6F9"/>
<rect x="-0.864258" y="195.86" width="361.729" height="108" fill="#C1E1FE"/>
<rect x="-0.864258" y="195.86" width="361.729" height="2" fill="#A6D3FD"/>
<rect x="-1.14111" y="211.86" width="361.729" height="2" fill="#A6D3FD"/>
<rect x="-1.60254" y="231.86" width="361.729" height="2" fill="#A6D3FD"/>
<rect x="-1.97168" y="247.86" width="361.729" height="2" fill="#A6D3FD"/>
<rect x="-2.34082" y="263.86" width="361.729" height="2" fill="#A6D3FD"/>
<rect x="-2.70996" y="279.86" width="361.729" height="2" fill="#A6D3FD"/>
<rect x="-3.0791" y="295.86" width="361.729" height="2" fill="#A6D3FD"/>
<path d="M341.628 217.563C344.389 217.563 346.628 219.801 346.628 222.563V241.616C346.628 244.378 344.389 246.616 341.628 246.616H335.697V339.861H148.117V246.616H142.188C139.426 246.616 137.188 244.378 137.188 241.616V222.563C137.188 219.801 139.426 217.563 142.188 217.563H341.628Z" fill="#72B6F9"/>
<path d="M43.7957 169.861C43.7957 167.099 46.0342 164.861 48.7957 164.861H86.7957C89.5571 164.861 91.7957 167.099 91.7957 169.861V223.861C91.7957 226.622 89.5571 228.861 86.7957 228.861H43.7957V169.861Z" fill="#72B6F9"/>
<rect x="241.28" y="170.771" width="12.2119" height="41.0898" fill="#8BC4FC"/>
<rect x="24.4551" y="167.126" width="14.54" height="14.5376" rx="7.2688" fill="#72B6F9"/>
<rect x="93.3955" y="167.126" width="14.54" height="14.5376" rx="7.2688" fill="#72B6F9"/>
<rect x="-3.26367" y="303.861" width="361.729" height="2" fill="#906969"/>
<rect x="143.81" y="223.514" width="187.58" height="116.347" fill="#A6D3FD"/>
<rect x="29.8533" y="169.75" width="72.6841" height="9.29138" rx="4.64569" fill="#8BC4FC"/>
<rect x="132.88" y="217.563" width="209.44" height="29.0537" rx="5" fill="#A6D3FD"/>
<path d="M132.88 238.303H342.32V241.616C342.32 244.378 340.082 246.616 337.32 246.616H137.88C135.118 246.616 132.88 244.378 132.88 241.616V238.303Z" fill="#8BC4FC"/>
<rect width="54" height="8.61597" transform="matrix(0 1 1 0 233.292 249.861)" fill="#8BC4FC"/>
<rect width="71.2443" height="8.61597" transform="matrix(0 1 1 0 151.558 246.616)" fill="#8BC4FC"/>
<rect width="67.8155" height="8.61597" transform="matrix(0 1 1 0 314.421 247.861)" fill="#8BC4FC"/>
<rect x="225.337" y="23.8136" width="97.7002" height="97.7002" rx="48.8501" fill="#A6D3FD"/>
<rect x="238.192" y="36.6689" width="71.989" height="71.989" rx="35.9945" fill="#EAF4FF" stroke="#8BC4FC" stroke-width="4"/>
<path d="M264.442 158.559C271.187 158.559 276.654 164.026 276.654 170.771V170.771H241.28V170.771C241.28 164.026 246.748 158.559 253.492 158.559H264.442Z" fill="#8BC4FC"/>
<rect x="278.619" y="169.502" width="6.10596" height="14.749" rx="2" transform="rotate(90 278.619 169.502)" fill="#72B6F9"/>
<rect x="234.725" y="187.832" width="12.2119" height="40.0049" rx="6.10596" transform="rotate(180 234.725 187.832)" fill="#8BC4FC"/>
<circle cx="264.629" cy="303.861" r="6.87024" fill="#8BC4FC"/>
<circle cx="210.571" cy="303.861" r="6.87024" fill="#8BC4FC"/>
<rect x="-1.72852" y="303.861" width="361.729" height="36" fill="#A7BED2"/>
<rect x="-0.864258" y="303.86" width="361.729" height="8" fill="#BBCCDB"/>
<rect x="-0.864258" y="335.86" width="361.729" height="8" fill="#BBCCDB"/>
<rect x="-0.864258" y="319.86" width="361.729" height="8" fill="#BBCCDB"/>
<path d="M40.5955 169.861C40.5955 167.099 42.834 164.861 45.5955 164.861H83.5955C86.3569 164.861 88.5955 167.099 88.5955 169.861V223.861C88.5955 226.622 86.3569 228.861 83.5955 228.861H40.5955V169.861Z" fill="#A6D3FD"/>
<path d="M35.6387 222.208H79.4624C81.2997 222.208 82.7891 223.697 82.7891 225.534V225.534C82.7891 227.371 81.2997 228.861 79.4624 228.861H42.292C38.6175 228.861 35.6387 225.882 35.6387 222.208V222.208Z" fill="#A6D3FD"/>
<rect x="40.5955" y="216.256" width="48" height="5.95117" fill="#8BC4FC"/>
<rect x="182.5" y="217.563" width="129.682" height="14.5269" rx="7.26343" fill="#72B6F9"/>
<path d="M170.816 187.005C170.816 185.924 171.692 185.048 172.773 185.048H302.426C303.507 185.048 304.383 185.924 304.383 187.005V187.005C304.383 208.618 286.863 226.138 265.25 226.138H209.949C188.337 226.138 170.816 208.618 170.816 187.005V187.005Z" fill="#A6D3FD"/>
<rect width="187.58" height="8.61597" transform="matrix(1 0 0 -1 143.81 255.232)" fill="#72B6F9"/>
<rect x="111.808" y="54.0595" width="54.7686" height="54.7686" rx="3" fill="#D6EBFE" stroke="#8BC4FC" stroke-width="4"/>
<rect x="111.808" y="-15.709" width="54.7686" height="54.7686" rx="3" fill="#D6EBFE" stroke="#8BC4FC" stroke-width="4"/>
<rect x="42.3535" y="54.0596" width="54.7686" height="54.7686" rx="3" fill="#D6EBFE" stroke="#8BC4FC" stroke-width="4"/>
<rect x="42.3535" y="-15.709" width="54.7686" height="54.7686" rx="3" fill="#D6EBFE" stroke="#8BC4FC" stroke-width="4"/>
<rect x="71.9447" y="-14.9902" width="12.1149" height="38.1225" rx="6.05744" transform="rotate(38.874 71.9447 -14.9902)" fill="#EAF4FF"/>
<rect x="72.3296" y="11.9156" width="5.96624" height="21.8484" rx="2.98312" transform="rotate(38.874 72.3296 11.9156)" fill="#EAF4FF"/>
<path d="M273.969 38.9263L248.325 70.7368C245.874 73.7778 246.352 78.2306 249.393 80.6821C252.434 83.1337 256.886 82.6558 259.338 79.6147L284.98 47.8042C286.627 45.7623 286.95 43.0849 286.065 40.8032C289.07 41.9238 291.872 43.4564 294.405 45.3335L275.224 69.1284C274.036 70.6014 274.267 72.7582 275.74 73.9458C277.213 75.1333 279.37 74.9022 280.558 73.4292L299.481 49.9546C304.889 55.9746 308.182 63.9343 308.182 72.6636C308.182 91.4381 292.961 106.659 274.187 106.659C255.412 106.659 240.193 91.438 240.192 72.6636C240.192 53.8891 255.412 38.6686 274.187 38.6685H274.188C274.113 38.7524 274.04 38.8381 273.969 38.9263Z" fill="#D6EBFE"/>
<path d="M237.6 226.138H265.25C286.863 226.138 304.383 208.618 304.383 187.005C304.383 185.925 303.507 185.048 302.426 185.048H237.6V226.138Z" fill="#8BC4FC"/>
<rect width="133.567" height="8.82129" rx="4.41064" transform="matrix(1 0 0 -1 170.816 190.051)" fill="#72B6F9"/>
<rect opacity="0.3" y="-1.3501" width="360" height="305.21" fill="#FAFBFC"/>
</g>
<path d="M0 0V4H360V0V-4H0V0ZM360 340V336H0V340V344H360V340Z" fill="#72B6F9" mask="url(#path-1-inside-1_1913_3273)"/>
<defs>
<clipPath id="clip0_1913_3273">
<path d="M0 0H360V340H0V0Z" fill="white"/>
</clipPath>
</defs>
</svg>
