<svg width="360" height="221" viewBox="0 0 360 221" fill="none" xmlns="http://www.w3.org/2000/svg">
<g clip-path="url(#clip0_1494_5146)">
<mask id="path-1-inside-1_1494_5146" fill="white">
<path d="M0 0.257324H360V220.257H0V0.257324Z"/>
</mask>
<path d="M0 0.257324H360V220.257H0V0.257324Z" fill="#EBF9FF"/>
<rect x="276.458" y="-89.8303" width="343.909" height="459.492" rx="100" transform="rotate(38.874 276.458 -89.8303)" fill="#D6EBFE"/>
<rect x="29.668" y="-24.2449" width="149.594" height="149.594" rx="5" fill="#72B6F9"/>
<rect x="29.668" y="-27.8228" width="149.594" height="149.594" rx="5" fill="#A6D3FD"/>
<rect x="225.337" y="28.6621" width="97.7002" height="97.7002" rx="48.8501" fill="#72B6F9"/>
<rect x="-0.864258" y="196.118" width="361.729" height="108" fill="#C1E1FE"/>
<rect x="-0.864258" y="196.118" width="361.729" height="2" fill="#A6D3FD"/>
<rect x="-1.14111" y="212.118" width="361.729" height="2" fill="#A6D3FD"/>
<path d="M341.628 217.82C344.389 217.82 346.628 220.059 346.628 222.82V241.874C346.628 244.635 344.389 246.874 341.628 246.874H335.697V340.118H148.117V246.874H142.188C139.426 246.874 137.188 244.635 137.188 241.874V222.82C137.188 220.059 139.426 217.82 142.188 217.82H341.628Z" fill="#72B6F9"/>
<path d="M43.7959 170.118C43.7959 167.356 46.0345 165.118 48.7959 165.118H86.7959C89.5573 165.118 91.7959 167.356 91.7959 170.118V224.118C91.7959 226.879 89.5573 229.118 86.7959 229.118H43.7959V170.118Z" fill="#72B6F9"/>
<rect x="241.28" y="171.028" width="12.2119" height="41.0898" fill="#8BC4FC"/>
<rect x="24.4551" y="167.384" width="14.54" height="14.5376" rx="7.2688" fill="#72B6F9"/>
<rect x="93.3955" y="167.384" width="14.54" height="14.5376" rx="7.2688" fill="#72B6F9"/>
<rect x="29.8535" y="170.007" width="72.6841" height="9.29138" rx="4.64569" fill="#8BC4FC"/>
<rect x="132.88" y="217.82" width="209.44" height="29.0537" rx="5" fill="#A6D3FD"/>
<rect x="225.337" y="24.0708" width="97.7002" height="97.7002" rx="48.8501" fill="#A6D3FD"/>
<rect x="238.192" y="36.9263" width="71.989" height="71.989" rx="35.9945" fill="#EAF4FF" stroke="#8BC4FC" stroke-width="4"/>
<path d="M264.442 158.816C271.187 158.816 276.654 164.284 276.654 171.028H241.28C241.28 164.284 246.748 158.816 253.492 158.816H264.442Z" fill="#8BC4FC"/>
<rect x="278.619" y="169.76" width="6.10596" height="14.749" rx="2" transform="rotate(90 278.619 169.76)" fill="#72B6F9"/>
<rect x="234.725" y="188.089" width="12.2119" height="40.0049" rx="6.10596" transform="rotate(180 234.725 188.089)" fill="#8BC4FC"/>
<path d="M40.5957 170.118C40.5957 167.356 42.8343 165.118 45.5957 165.118H83.5957C86.3571 165.118 88.5957 167.356 88.5957 170.118V224.118C88.5957 226.879 86.3571 229.118 83.5957 229.118H40.5957V170.118Z" fill="#A6D3FD"/>
<rect x="40.5957" y="216.514" width="48" height="5.95117" fill="#8BC4FC"/>
<rect x="182.5" y="217.82" width="129.682" height="14.5269" rx="7.26343" fill="#72B6F9"/>
<path d="M170.816 187.262C170.816 186.182 171.692 185.306 172.773 185.306H302.427C303.507 185.306 304.383 186.182 304.383 187.262C304.383 208.875 286.863 226.396 265.25 226.396H209.95C188.337 226.396 170.816 208.875 170.816 187.262Z" fill="#A6D3FD"/>
<rect x="111.808" y="54.3169" width="54.7686" height="54.7686" rx="3" fill="#D6EBFE" stroke="#8BC4FC" stroke-width="4"/>
<rect x="111.808" y="-15.4517" width="54.7686" height="54.7686" rx="3" fill="#D6EBFE" stroke="#8BC4FC" stroke-width="4"/>
<rect x="42.3535" y="54.3169" width="54.7686" height="54.7686" rx="3" fill="#D6EBFE" stroke="#8BC4FC" stroke-width="4"/>
<rect x="42.3535" y="-15.4517" width="54.7686" height="54.7686" rx="3" fill="#D6EBFE" stroke="#8BC4FC" stroke-width="4"/>
<rect x="71.9448" y="-14.7329" width="12.1149" height="38.1225" rx="6.05744" transform="rotate(38.874 71.9448 -14.7329)" fill="#EAF4FF"/>
<rect x="72.3296" y="12.1729" width="5.96624" height="21.8484" rx="2.98312" transform="rotate(38.874 72.3296 12.1729)" fill="#EAF4FF"/>
<path d="M273.969 39.1836L248.325 70.9941C245.874 74.0351 246.352 78.4879 249.393 80.9395C252.434 83.391 256.886 82.9131 259.338 79.8721L284.98 48.0615C286.627 46.0196 286.95 43.3422 286.065 41.0605C289.07 42.1811 291.872 43.7138 294.405 45.5908L275.224 69.3857C274.036 70.8587 274.267 73.0155 275.74 74.2031C277.213 75.3906 279.37 75.1595 280.558 73.6865L299.481 50.2119C304.889 56.232 308.182 64.1917 308.182 72.9209C308.182 91.6954 292.961 106.916 274.187 106.916C255.412 106.916 240.193 91.6953 240.192 72.9209C240.192 54.1464 255.412 38.9259 274.187 38.9258H274.188C274.113 39.0097 274.04 39.0954 273.969 39.1836Z" fill="#D6EBFE"/>
<path d="M237.6 226.396H265.25C286.863 226.395 304.383 208.875 304.383 187.263C304.383 186.182 303.507 185.306 302.426 185.306H237.6V226.396Z" fill="#8BC4FC"/>
<rect width="133.567" height="8.82129" rx="4.41064" transform="matrix(1 0 0 -1 170.816 190.308)" fill="#72B6F9"/>
<rect opacity="0.85" y="-61.0928" width="360" height="305.21" fill="#EBF9FF"/>
<path d="M151.41 181.573C152.037 181.573 152.545 182.082 152.545 182.709C152.545 195.251 142.378 205.418 129.837 205.418H110.225C109.598 205.418 109.09 204.909 109.09 204.282C109.09 191.74 119.257 181.573 131.799 181.573H151.41Z" fill="#FFE1EA"/>
<path d="M110.226 157.729C109.599 157.729 109.09 158.237 109.09 158.864C109.09 171.406 119.257 181.573 131.799 181.573H151.411C152.038 181.573 152.546 181.065 152.546 180.438C152.546 167.896 142.379 157.729 129.837 157.729H110.226Z" fill="#FFE1EA"/>
<rect x="113.227" y="147.184" width="52.8298" height="20.9889" rx="10.4944" transform="rotate(42.9753 113.227 147.184)" fill="#FF7F9D"/>
<path d="M208.082 181.572C207.455 181.572 206.947 182.081 206.947 182.708C206.947 195.25 217.114 205.417 229.656 205.417H249.267C249.894 205.417 250.403 204.908 250.403 204.281C250.403 191.74 240.235 181.572 227.694 181.572H208.082Z" fill="#FFE1EA"/>
<path d="M249.266 157.728C249.893 157.728 250.402 158.236 250.402 158.863C250.402 171.405 240.235 181.572 227.693 181.572H208.082C207.454 181.572 206.946 181.064 206.946 180.437C206.946 167.895 217.113 157.728 229.655 157.728H249.266Z" fill="#FFE1EA"/>
<path d="M183.318 42.8188C199.448 42.8188 212.524 55.8949 212.524 72.0251V109.199C212.524 117.667 205.659 124.532 197.191 124.532C188.723 124.532 181.858 117.667 181.858 109.199V44.2792C181.858 43.4726 182.512 42.8188 183.318 42.8188Z" fill="#FFA1B8"/>
<path d="M182.818 69.8936C193.434 69.8936 202.041 78.4997 202.041 89.116V114.44C202.041 120.014 197.522 124.532 191.949 124.532C186.375 124.532 181.857 120.014 181.857 114.44V70.8547C181.857 70.3239 182.287 69.8936 182.818 69.8936Z" fill="#F05F83"/>
<path d="M148.428 42.8188C164.558 42.8188 177.634 55.8949 177.634 72.0251V99.7039C177.634 108.172 170.769 115.037 162.301 115.037C153.832 115.037 146.967 108.172 146.967 99.7039V44.2792C146.967 43.4727 147.621 42.8188 148.428 42.8188Z" fill="#FFA1B8"/>
<path d="M147.928 69.8936C158.544 69.8936 167.15 78.4997 167.15 89.116V114.44C167.15 120.014 162.632 124.532 157.059 124.532C151.485 124.532 146.967 120.014 146.967 114.44V70.8547C146.967 70.3239 147.397 69.8936 147.928 69.8936Z" fill="#F05F83"/>
<path d="M179.745 99.2917C203.866 99.2917 223.42 118.845 223.42 142.967V247.408H197.196V242.534C197.196 232.896 189.382 225.083 179.745 225.083C170.107 225.083 162.293 232.896 162.293 242.534V247.408H136.07V142.967C136.07 118.845 155.624 99.2919 179.745 99.2917Z" fill="#FFA1B8"/>
<ellipse cx="227.518" cy="231.497" rx="12.7255" ry="12.723" transform="rotate(-17.159 227.518 231.497)" fill="#FFA1B8"/>
<path d="M179.746 187.933C194.83 187.933 207.059 200.162 207.059 215.246V251.571H197.104C195.401 243.719 188.414 237.837 180.051 237.837C171.689 237.837 164.702 243.719 162.999 251.571H152.433V215.246C152.433 200.162 164.661 187.934 179.746 187.933Z" fill="#F05F83"/>
<rect x="217.553" y="170.265" width="52.8298" height="20.9889" rx="10.4944" transform="rotate(90 217.553 170.265)" fill="#FF7F9D"/>
<path d="M165.87 109.061C165.87 105.598 168.677 102.791 172.139 102.791H187.355C190.818 102.791 193.625 105.598 193.625 109.061H165.87Z" fill="#7FD8FF"/>
<path d="M178.841 92.4106C179.305 91.6695 180.205 91.6695 180.668 92.4106L189.658 106.787C190.25 107.734 189.708 109.114 188.745 109.114H170.764C169.801 109.114 169.259 107.734 169.851 106.787L178.841 92.4106Z" fill="#7FD8FF"/>
<path d="M193.624 109.062H184.635C183.672 109.062 183.13 107.865 183.722 107.044L192.712 94.568C192.943 94.247 193.284 94.086 193.624 94.0856V109.062Z" fill="#7FD8FF"/>
<path d="M165.866 94.0865V109.062H174.858C175.821 109.062 176.363 107.865 175.771 107.044L166.781 94.569C166.549 94.2472 166.208 94.0864 165.866 94.0865Z" fill="#7FD8FF"/>
<path d="M187.264 142.507C200.707 139.231 214.316 147.46 217.661 160.886C221.005 174.313 212.819 187.852 199.376 191.128L131.139 207.754C129.859 208.066 128.563 207.282 128.244 206.004C121.874 180.43 137.467 154.641 163.073 148.401L187.264 142.507Z" fill="#4C98F5"/>
<rect x="121.936" y="178.505" width="48.583" height="115.62" rx="24.2915" transform="rotate(-90 121.936 178.505)" fill="#FFA1B8"/>
<path d="M193.988 138.548C193.988 145.043 188.723 150.308 182.228 150.308H177.264C170.77 150.308 165.505 145.043 165.505 138.548C165.505 138.223 165.768 137.96 166.093 137.96H193.4C193.725 137.96 193.988 138.223 193.988 138.548Z" fill="#F05F83"/>
<path d="M175.569 136.587C175.569 134.28 177.439 132.41 179.746 132.41C182.052 132.41 183.922 134.28 183.922 136.587V137.98H175.569V136.587Z" fill="#3D4650"/>
<path d="M169.451 137.979H180.816V152.213C180.816 153.317 179.92 154.213 178.816 154.213H171.451C170.347 154.213 169.451 153.317 169.451 152.213V137.979Z" fill="#EBF9FF"/>
<rect x="185.655" y="178.505" width="48.583" height="51.9015" rx="24.2915" transform="rotate(-90 185.655 178.505)" fill="#FFA1B8"/>
<path d="M185.874 128.682C186.066 126.39 188.079 124.688 190.37 124.88C192.662 125.071 194.364 127.084 194.173 129.376L194.109 130.137C194.098 130.273 193.979 130.373 193.843 130.362L186.036 129.709C185.9 129.698 185.799 129.579 185.811 129.443L185.874 128.682Z" fill="#3D4650"/>
<path d="M165.318 129.376C165.127 127.085 166.829 125.072 169.12 124.88C171.412 124.688 173.425 126.391 173.617 128.682L173.68 129.444C173.692 129.579 173.591 129.698 173.455 129.71L165.648 130.363C165.512 130.374 165.393 130.273 165.382 130.138L165.318 129.376Z" fill="#3D4650"/>
<rect x="158.66" y="144.884" width="29.591" height="17.8501" transform="rotate(4.09417 158.66 144.884)" fill="#A6D3FD"/>
<rect x="162.422" y="145.153" width="4.72491" height="17.8501" transform="rotate(4.09417 162.422 145.153)" fill="#EAF4FF"/>
<rect x="171.061" y="145.771" width="4.72491" height="17.8501" transform="rotate(4.09417 171.061 145.771)" fill="#EAF4FF"/>
<rect x="179.7" y="146.39" width="4.72491" height="17.8501" transform="rotate(4.09417 179.7 146.39)" fill="#EAF4FF"/>
<rect x="84.6592" y="154.208" width="105.579" height="10.3709" transform="rotate(4.09417 84.6592 154.208)" fill="#72B6F9"/>
<path d="M154.043 169.572C153.855 172.193 155.829 174.471 158.45 174.659L184.141 176.498C186.763 176.685 189.041 174.712 189.229 172.09L154.043 169.572Z" fill="#72B6F9"/>
<rect x="200.598" y="169.189" width="15.2961" height="2.9604" transform="rotate(-175.906 200.598 169.189)" fill="#72B6F9"/>
<path d="M209.478 167.387C210.376 167.752 210.283 169.052 209.343 169.285L205.887 170.14C205.467 170.244 205.161 170.607 205.13 171.039L204.876 174.59C204.807 175.556 203.542 175.87 203.03 175.047L201.148 172.025C200.919 171.658 200.48 171.479 200.059 171.583L196.604 172.439C195.663 172.671 194.975 171.565 195.598 170.824L197.891 168.101C198.17 167.769 198.204 167.296 197.975 166.928L196.094 163.906C195.582 163.084 196.421 162.087 197.319 162.451L200.617 163.79C201.018 163.953 201.479 163.839 201.758 163.508L204.051 160.785C204.674 160.044 205.882 160.534 205.813 161.5L205.559 165.051C205.528 165.483 205.779 165.886 206.18 166.049L209.478 167.387Z" fill="#FFB67A"/>
<circle cx="123.127" cy="126.587" r="7.8981" fill="#94E0FF"/>
<circle cx="129.224" cy="120.317" r="3.82314" fill="#94E0FF"/>
<circle cx="140.295" cy="128.423" r="2.45039" fill="#94E0FF"/>
<circle cx="120.916" cy="125.017" r="3.4057" fill="#D6F3FF"/>
<circle cx="250.34" cy="85.1515" r="5.6746" fill="#94E0FF"/>
<circle cx="254.72" cy="80.646" r="2.74684" fill="#94E0FF"/>
<circle cx="262.675" cy="86.4701" r="1.76055" fill="#94E0FF"/>
<circle cx="248.751" cy="84.023" r="2.44692" fill="#D6F3FF"/>
<circle cx="187.577" cy="148.541" r="6.27402" fill="#94E0FF"/>
<circle cx="182.873" cy="150.019" r="5.23315" fill="#94E0FF"/>
<circle cx="192.168" cy="153.644" r="4.06331" fill="#94E0FF"/>
<circle cx="198.896" cy="138.809" r="2.66471" fill="#94E0FF"/>
<circle cx="199.925" cy="141.52" r="1.36971" fill="#94E0FF"/>
<circle cx="204.067" cy="135.856" r="1.36971" fill="#94E0FF"/>
<circle cx="177.26" cy="146.554" r="2.39875" fill="#94E0FF"/>
<circle cx="189.307" cy="147.185" r="2.39875" fill="#D6F3FF"/>
<circle cx="181.211" cy="148.028" r="1.55264" fill="#D6F3FF"/>
<circle cx="198.247" cy="138.243" r="1.01822" fill="#D6F3FF"/>
<path d="M242.28 102.349C242.967 107.978 247.756 112.339 253.568 112.349C247.756 112.359 242.968 116.72 242.28 122.349C241.593 116.72 236.805 112.358 230.992 112.349C236.805 112.34 241.593 107.978 242.28 102.349ZM230.957 112.349C230.933 112.349 230.909 112.351 230.886 112.351V112.347C230.909 112.347 230.933 112.349 230.957 112.349ZM253.676 112.351C253.652 112.351 253.628 112.349 253.604 112.349C253.628 112.349 253.652 112.347 253.676 112.347V112.351Z" fill="#FFB67A"/>
<path d="M253.732 125.44C254.177 128.513 256.821 130.874 260.018 130.875C260.039 130.875 260.061 130.873 260.083 130.873V130.875C260.061 130.875 260.039 130.875 260.018 130.875C256.822 130.875 254.177 133.235 253.732 136.308C253.288 133.235 250.644 130.875 247.448 130.875C247.426 130.875 247.403 130.875 247.381 130.875V130.873C247.403 130.873 247.426 130.875 247.448 130.875C250.645 130.874 253.288 128.513 253.732 125.44Z" fill="#FFB67A"/>
<path d="M77.2402 34.2424C77.2402 42.9684 84.04 50.0948 92.5904 50.5319L93.3955 50.5515C84.4708 50.5669 77.2402 57.8638 77.2402 66.8619H77.2388C77.2388 57.8634 70.0086 50.5663 61.0835 50.5515C70.0086 50.5367 77.2388 43.241 77.2388 34.2424H77.2402Z" fill="#FFB67A"/>
</g>
<path d="M0 0.257324V4.25732H360V0.257324V-3.74268H0V0.257324ZM360 220.257V216.257H0V220.257V224.257H360V220.257Z" fill="#72B6F9" mask="url(#path-1-inside-1_1494_5146)"/>
<defs>
<clipPath id="clip0_1494_5146">
<path d="M0 0.257324H360V220.257H0V0.257324Z" fill="white"/>
</clipPath>
</defs>
</svg>
