<svg width="480" height="454" viewBox="0 0 480 454" fill="none" xmlns="http://www.w3.org/2000/svg">
<g clip-path="url(#clip0_2386_12485)">
<mask id="path-1-inside-1_2386_12485" fill="white">
<path d="M0 0.333344H480V453.667H0V0.333344Z"/>
</mask>
<path d="M0 0.333344H480V453.667H0V0.333344Z" fill="#EAF4FF"/>
<rect x="368.611" y="-119.783" width="458.545" height="612.656" rx="133.333" transform="rotate(38.874 368.611 -119.783)" fill="#D6EBFE"/>
<rect x="39.5573" y="-32.3362" width="199.458" height="199.458" rx="6.66667" fill="#72B6F9"/>
<rect x="39.5573" y="-37.1066" width="199.458" height="199.458" rx="6.66667" fill="#A6D3FD"/>
<rect x="300.449" y="38.2064" width="130.267" height="130.267" rx="65.1335" fill="#72B6F9"/>
<rect x="-1.15234" y="261.48" width="482.305" height="144" fill="#C1E1FE"/>
<rect x="-1.15234" y="261.48" width="482.305" height="2.66667" fill="#A6D3FD"/>
<rect x="-1.52148" y="282.814" width="482.305" height="2.66667" fill="#A6D3FD"/>
<rect x="-2.13672" y="309.48" width="482.305" height="2.66667" fill="#A6D3FD"/>
<rect x="-2.62891" y="330.814" width="482.305" height="2.66667" fill="#A6D3FD"/>
<rect x="-3.12109" y="352.147" width="482.305" height="2.66667" fill="#A6D3FD"/>
<rect x="-3.61328" y="373.48" width="482.305" height="2.66667" fill="#A6D3FD"/>
<rect x="-4.10547" y="394.814" width="482.305" height="2.66667" fill="#A6D3FD"/>
<path d="M455.504 290.417C459.185 290.417 462.171 293.402 462.171 297.084V322.489C462.17 326.171 459.185 329.155 455.504 329.155H447.595V453.481H197.49V329.155H189.584C185.902 329.155 182.917 326.171 182.917 322.489V297.084C182.917 293.402 185.902 290.417 189.584 290.417H455.504Z" fill="#72B6F9"/>
<path d="M58.3942 226.814C58.3942 223.132 61.379 220.147 65.0609 220.147H115.728C119.409 220.147 122.394 223.132 122.394 226.814V298.814C122.394 302.496 119.409 305.481 115.728 305.481H58.3942V226.814Z" fill="#72B6F9"/>
<rect x="321.707" y="228.028" width="16.2826" height="54.7865" fill="#8BC4FC"/>
<rect x="32.6068" y="223.169" width="19.3867" height="19.3835" rx="9.69173" fill="#72B6F9"/>
<rect x="124.527" y="223.169" width="19.3867" height="19.3835" rx="9.69173" fill="#72B6F9"/>
<rect x="-4.35156" y="405.481" width="482.305" height="2.66667" fill="#906969"/>
<rect x="191.747" y="298.352" width="250.106" height="155.129" fill="#A6D3FD"/>
<rect x="39.8044" y="226.666" width="96.9121" height="12.3885" rx="6.19425" fill="#8BC4FC"/>
<rect x="177.173" y="290.417" width="279.254" height="38.7383" rx="6.66667" fill="#A6D3FD"/>
<path d="M177.173 318.07H456.427V322.488C456.427 326.17 453.442 329.155 449.76 329.155H183.84C180.158 329.155 177.173 326.17 177.173 322.488V318.07Z" fill="#8BC4FC"/>
<rect width="72" height="11.488" transform="matrix(0 1 1 0 311.056 333.481)" fill="#8BC4FC"/>
<rect width="94.9924" height="11.488" transform="matrix(0 1 1 0 202.077 329.155)" fill="#8BC4FC"/>
<rect width="90.4206" height="11.488" transform="matrix(0 1 1 0 419.229 330.814)" fill="#8BC4FC"/>
<rect x="300.45" y="32.0848" width="130.267" height="130.267" rx="65.1335" fill="#A6D3FD"/>
<rect x="317.59" y="49.2253" width="95.9854" height="95.9854" rx="47.9927" fill="#EAF4FF" stroke="#8BC4FC" stroke-width="5.33333"/>
<path d="M352.59 211.745C361.582 211.745 368.872 219.035 368.872 228.028V228.028H321.707V228.028C321.707 219.035 328.997 211.745 337.99 211.745H352.59Z" fill="#8BC4FC"/>
<rect x="371.492" y="226.336" width="8.14128" height="19.6654" rx="2.66667" transform="rotate(90 371.492 226.336)" fill="#72B6F9"/>
<rect x="312.966" y="250.776" width="16.2826" height="53.3398" rx="8.14128" transform="rotate(180 312.966 250.776)" fill="#8BC4FC"/>
<circle cx="352.839" cy="405.481" r="9.16032" fill="#8BC4FC"/>
<circle cx="280.761" cy="405.481" r="9.16032" fill="#8BC4FC"/>
<rect x="-2.30469" y="405.481" width="482.305" height="48" fill="#A7BED2"/>
<rect x="-1.15234" y="405.48" width="482.305" height="10.6667" fill="#BBCCDB"/>
<rect x="-1.15234" y="448.147" width="482.305" height="10.6667" fill="#BBCCDB"/>
<rect x="-1.15234" y="426.814" width="482.305" height="10.6667" fill="#BBCCDB"/>
<path d="M54.1273 226.814C54.1273 223.132 57.112 220.147 60.7939 220.147H111.461C115.142 220.147 118.127 223.132 118.127 226.814V298.814C118.127 302.496 115.142 305.481 111.461 305.481H54.1273V226.814Z" fill="#A6D3FD"/>
<path d="M47.5182 296.61H105.95C108.4 296.61 110.385 298.596 110.385 301.046V301.046C110.385 303.495 108.4 305.481 105.95 305.481H56.3893C51.49 305.481 47.5182 301.509 47.5182 296.61V296.61Z" fill="#A6D3FD"/>
<rect x="54.1273" y="288.675" width="64" height="7.9349" fill="#8BC4FC"/>
<rect x="243.333" y="290.417" width="172.909" height="19.3691" rx="9.68457" fill="#72B6F9"/>
<path d="M227.755 249.674C227.755 248.233 228.923 247.065 230.364 247.065H403.235C404.676 247.065 405.844 248.233 405.844 249.674V249.674C405.844 278.49 382.483 301.851 353.666 301.851H279.932C251.116 301.851 227.755 278.49 227.755 249.674V249.674Z" fill="#A6D3FD"/>
<rect width="250.106" height="11.488" transform="matrix(1 0 0 -1 191.747 340.643)" fill="#72B6F9"/>
<rect x="149.077" y="72.4127" width="73.0247" height="73.0247" rx="4" fill="#D6EBFE" stroke="#8BC4FC" stroke-width="5.33333"/>
<rect x="149.077" y="-20.612" width="73.0247" height="73.0247" rx="4" fill="#D6EBFE" stroke="#8BC4FC" stroke-width="5.33333"/>
<rect x="56.4714" y="72.4128" width="73.0247" height="73.0247" rx="4" fill="#D6EBFE" stroke="#8BC4FC" stroke-width="5.33333"/>
<rect x="56.4714" y="-20.612" width="73.0247" height="73.0247" rx="4" fill="#D6EBFE" stroke="#8BC4FC" stroke-width="5.33333"/>
<rect x="95.9263" y="-19.6537" width="16.1532" height="50.83" rx="8.07659" transform="rotate(38.874 95.9263 -19.6537)" fill="#EAF4FF"/>
<rect x="96.4395" y="16.2207" width="7.95498" height="29.1312" rx="3.97749" transform="rotate(38.874 96.4395 16.2207)" fill="#EAF4FF"/>
<path d="M365.292 52.235L331.1 94.6491C327.832 98.7037 328.469 104.641 332.523 107.91C336.578 111.179 342.514 110.541 345.783 106.486L379.974 64.0719C382.169 61.3496 382.601 57.7799 381.422 54.7379C385.426 56.232 389.163 58.2756 392.54 60.778L366.965 92.5045C365.381 94.4687 365.69 97.345 367.654 98.9284C369.618 100.512 372.493 100.203 374.077 98.2389L399.308 66.9391C406.519 74.9658 410.908 85.5784 410.908 97.2174C410.908 122.25 390.615 142.544 365.583 142.545C340.55 142.545 320.257 122.25 320.257 97.2174C320.257 72.1849 340.55 51.8913 365.583 51.8913C365.484 52.003 365.386 52.1175 365.292 52.235Z" fill="#D6EBFE"/>
<path d="M316.8 301.851H353.667C382.484 301.851 405.844 278.49 405.844 249.673C405.844 248.232 404.676 247.065 403.236 247.064H316.8V301.851Z" fill="#8BC4FC"/>
<rect width="178.089" height="11.7617" rx="5.88086" transform="matrix(1 0 0 -1 227.755 253.735)" fill="#72B6F9"/>
<rect opacity="0.3" y="-1.4668" width="480" height="406.947" fill="#FAFBFC"/>
</g>
<path d="M0 0.333344V5.66668H480V0.333344V-4.99999H0V0.333344ZM480 453.667V448.333H0V453.667V459H480V453.667Z" fill="#72B6F9" mask="url(#path-1-inside-1_2386_12485)"/>
<defs>
<clipPath id="clip0_2386_12485">
<path d="M0 0.333344H480V453.667H0V0.333344Z" fill="white"/>
</clipPath>
</defs>
</svg>
