<svg width="360" height="340" viewBox="0 0 360 340" fill="none" xmlns="http://www.w3.org/2000/svg">
<g clip-path="url(#clip0_1090_5019)">
<mask id="path-1-inside-1_1090_5019" fill="white">
<path d="M0 0H360V340H0V0Z"/>
</mask>
<path d="M0 0H360V340H0V0Z" fill="#EAF4FF"/>
<rect x="276.458" y="-90.0876" width="343.909" height="459.492" rx="100" transform="rotate(38.874 276.458 -90.0876)" fill="#D6EBFE"/>
<rect x="29.668" y="-24.5021" width="149.594" height="149.594" rx="5" fill="#72B6F9"/>
<rect x="29.668" y="-28.08" width="149.594" height="149.594" rx="5" fill="#A6D3FD"/>
<rect x="225.337" y="28.4048" width="97.7002" height="97.7002" rx="48.8501" fill="#72B6F9"/>
<rect x="-0.864258" y="195.86" width="361.729" height="108" fill="#C1E1FE"/>
<rect x="-0.864258" y="195.86" width="361.729" height="2" fill="#A6D3FD"/>
<rect x="-1.14111" y="211.86" width="361.729" height="2" fill="#A6D3FD"/>
<rect x="-1.60254" y="231.86" width="361.729" height="2" fill="#A6D3FD"/>
<rect x="-1.97168" y="247.86" width="361.729" height="2" fill="#A6D3FD"/>
<rect x="-2.34082" y="263.86" width="361.729" height="2" fill="#A6D3FD"/>
<rect x="-2.70996" y="279.86" width="361.729" height="2" fill="#A6D3FD"/>
<rect x="-3.0791" y="295.86" width="361.729" height="2" fill="#A6D3FD"/>
<path d="M341.628 217.563C344.389 217.563 346.628 219.801 346.628 222.563V241.616C346.628 244.378 344.389 246.616 341.628 246.616H335.697V339.861H148.117V246.616H142.188C139.426 246.616 137.188 244.378 137.188 241.616V222.563C137.188 219.801 139.426 217.563 142.188 217.563H341.628Z" fill="#72B6F9"/>
<path d="M43.7957 169.861C43.7957 167.099 46.0342 164.861 48.7957 164.861H86.7957C89.5571 164.861 91.7957 167.099 91.7957 169.861V223.861C91.7957 226.622 89.5571 228.861 86.7957 228.861H43.7957V169.861Z" fill="#72B6F9"/>
<rect x="241.28" y="170.771" width="12.2119" height="41.0898" fill="#8BC4FC"/>
<rect x="24.4551" y="167.127" width="14.54" height="14.5376" rx="7.2688" fill="#72B6F9"/>
<rect x="93.3955" y="167.127" width="14.54" height="14.5376" rx="7.2688" fill="#72B6F9"/>
<rect x="-3.26367" y="303.861" width="361.729" height="2" fill="#906969"/>
<rect x="143.81" y="223.514" width="187.58" height="116.347" fill="#A6D3FD"/>
<rect x="29.8533" y="169.75" width="72.6841" height="9.29138" rx="4.64569" fill="#8BC4FC"/>
<rect x="132.88" y="217.563" width="209.44" height="29.0537" rx="5" fill="#A6D3FD"/>
<path d="M132.88 238.303H342.32V241.616C342.32 244.378 340.082 246.616 337.32 246.616H137.88C135.118 246.616 132.88 244.378 132.88 241.616V238.303Z" fill="#8BC4FC"/>
<rect width="54" height="8.61597" transform="matrix(0 1 1 0 233.292 249.861)" fill="#8BC4FC"/>
<rect width="71.2443" height="8.61597" transform="matrix(0 1 1 0 151.558 246.616)" fill="#8BC4FC"/>
<rect width="67.8155" height="8.61597" transform="matrix(0 1 1 0 314.421 247.861)" fill="#8BC4FC"/>
<rect x="225.337" y="23.8136" width="97.7002" height="97.7002" rx="48.8501" fill="#A6D3FD"/>
<rect x="238.192" y="36.6689" width="71.989" height="71.989" rx="35.9945" fill="#EAF4FF" stroke="#8BC4FC" stroke-width="4"/>
<path d="M264.442 158.559C271.187 158.559 276.654 164.026 276.654 170.771H241.28C241.28 164.026 246.748 158.559 253.492 158.559H264.442Z" fill="#8BC4FC"/>
<rect x="278.619" y="169.502" width="6.10596" height="14.749" rx="2" transform="rotate(90 278.619 169.502)" fill="#72B6F9"/>
<rect x="234.725" y="187.832" width="12.2119" height="40.0049" rx="6.10596" transform="rotate(180 234.725 187.832)" fill="#8BC4FC"/>
<circle cx="264.629" cy="303.861" r="6.87024" fill="#8BC4FC"/>
<circle cx="210.571" cy="303.861" r="6.87024" fill="#8BC4FC"/>
<rect x="-1.72852" y="303.861" width="361.729" height="36" fill="#A7BED2"/>
<rect x="-0.864258" y="303.86" width="361.729" height="8" fill="#BBCCDB"/>
<rect x="-0.864258" y="335.86" width="361.729" height="8" fill="#BBCCDB"/>
<rect x="-0.864258" y="319.86" width="361.729" height="8" fill="#BBCCDB"/>
<path d="M40.5955 169.861C40.5955 167.099 42.834 164.861 45.5955 164.861H83.5955C86.3569 164.861 88.5955 167.099 88.5955 169.861V223.861C88.5955 226.622 86.3569 228.861 83.5955 228.861H40.5955V169.861Z" fill="#A6D3FD"/>
<path d="M35.6387 222.208H79.4624C81.2997 222.208 82.7891 223.697 82.7891 225.534C82.7891 227.371 81.2997 228.861 79.4624 228.861H42.292C38.6175 228.861 35.6387 225.882 35.6387 222.208Z" fill="#A6D3FD"/>
<rect x="40.5955" y="216.256" width="48" height="5.95117" fill="#8BC4FC"/>
<rect x="182.5" y="217.563" width="129.682" height="14.5269" rx="7.26343" fill="#72B6F9"/>
<path d="M170.816 187.005C170.816 185.924 171.692 185.048 172.773 185.048H302.426C303.507 185.048 304.383 185.924 304.383 187.005C304.383 208.618 286.863 226.138 265.25 226.138H209.949C188.337 226.138 170.816 208.618 170.816 187.005Z" fill="#A6D3FD"/>
<rect width="187.58" height="8.61597" transform="matrix(1 0 0 -1 143.81 255.232)" fill="#72B6F9"/>
<rect x="111.808" y="54.0595" width="54.7686" height="54.7686" rx="3" fill="#D6EBFE" stroke="#8BC4FC" stroke-width="4"/>
<rect x="111.808" y="-15.709" width="54.7686" height="54.7686" rx="3" fill="#D6EBFE" stroke="#8BC4FC" stroke-width="4"/>
<rect x="42.3535" y="54.0596" width="54.7686" height="54.7686" rx="3" fill="#D6EBFE" stroke="#8BC4FC" stroke-width="4"/>
<rect x="42.3535" y="-15.709" width="54.7686" height="54.7686" rx="3" fill="#D6EBFE" stroke="#8BC4FC" stroke-width="4"/>
<rect x="71.9447" y="-14.9902" width="12.1149" height="38.1225" rx="6.05744" transform="rotate(38.874 71.9447 -14.9902)" fill="#EAF4FF"/>
<rect x="72.3296" y="11.9156" width="5.96624" height="21.8484" rx="2.98312" transform="rotate(38.874 72.3296 11.9156)" fill="#EAF4FF"/>
<path d="M273.969 38.9263L248.325 70.7368C245.874 73.7778 246.352 78.2306 249.393 80.6821C252.434 83.1337 256.886 82.6558 259.338 79.6147L284.98 47.8042C286.627 45.7623 286.95 43.0849 286.065 40.8032C289.07 41.9238 291.872 43.4564 294.405 45.3335L275.224 69.1284C274.036 70.6014 274.267 72.7582 275.74 73.9458C277.213 75.1333 279.37 74.9022 280.558 73.4292L299.481 49.9546C304.889 55.9746 308.182 63.9343 308.182 72.6636C308.182 91.4381 292.961 106.659 274.187 106.659C255.412 106.659 240.193 91.438 240.192 72.6636C240.192 53.8891 255.412 38.6686 274.187 38.6685H274.188C274.113 38.7524 274.04 38.8381 273.969 38.9263Z" fill="#D6EBFE"/>
<path d="M237.6 226.138H265.25C286.863 226.138 304.383 208.618 304.383 187.005C304.383 185.925 303.507 185.048 302.426 185.048H237.6V226.138Z" fill="#8BC4FC"/>
<rect width="133.567" height="8.82129" rx="4.41064" transform="matrix(1 0 0 -1 170.816 190.051)" fill="#72B6F9"/>
<rect opacity="0.3" y="-1.3501" width="360" height="305.21" fill="#FAFBFC"/>
<path d="M214.721 325.551C214.721 327.188 213.394 328.515 211.757 328.515H150.244C148.607 328.515 147.28 327.188 147.28 325.551C147.28 323.915 148.607 322.588 150.244 322.588H211.757C213.394 322.588 214.721 323.915 214.721 325.551Z" fill="#72B6F9"/>
<path d="M195.261 278.347C194.945 278.347 194.69 278.603 194.69 278.918C194.69 285.23 199.806 290.347 206.119 290.347H215.989C216.304 290.347 216.56 290.091 216.56 289.776C216.56 283.464 211.443 278.347 205.131 278.347H195.261Z" fill="#FFF5F8"/>
<path d="M215.988 266.346C216.304 266.346 216.56 266.602 216.56 266.918C216.56 273.23 211.443 278.347 205.131 278.347H195.26C194.945 278.347 194.689 278.091 194.689 277.776C194.689 271.463 199.806 266.346 206.118 266.346H215.988Z" fill="#FFF5F8"/>
<path d="M166.741 278.347C167.056 278.347 167.312 278.602 167.312 278.918C167.312 285.23 162.195 290.347 155.883 290.347H146.013C145.697 290.347 145.441 290.091 145.441 289.776C145.441 283.464 150.558 278.347 156.871 278.347H166.741Z" fill="#FFF5F8"/>
<path d="M146.012 266.347C145.697 266.347 145.441 266.603 145.441 266.918C145.441 273.23 150.558 278.347 156.87 278.347H166.74C167.056 278.347 167.311 278.091 167.311 277.776C167.311 271.464 162.194 266.347 155.882 266.347H146.012Z" fill="#FFF5F8"/>
<path d="M182.799 208.515C190.918 208.515 197.499 215.096 197.499 223.214V241.923C197.499 246.185 194.044 249.64 189.782 249.64C185.52 249.64 182.065 246.185 182.065 241.923V209.25C182.065 208.844 182.394 208.515 182.799 208.515Z" fill="#FFA1B8"/>
<path d="M182.548 222.141C187.891 222.141 192.222 226.472 192.222 231.815V244.56C192.222 247.366 189.948 249.64 187.143 249.64C184.338 249.64 182.064 247.366 182.064 244.56V222.624C182.064 222.357 182.28 222.141 182.548 222.141Z" fill="#F05F83"/>
<path d="M165.239 208.515C173.357 208.515 179.938 215.096 179.938 223.214V237.144C179.938 241.406 176.483 244.861 172.221 244.861C167.959 244.861 164.504 241.406 164.504 237.144V209.25C164.504 208.844 164.833 208.515 165.239 208.515Z" fill="#FFA1B8"/>
<path d="M164.502 222.141C170.112 222.141 174.66 226.689 174.66 232.299V244.56C174.66 247.366 172.386 249.64 169.581 249.64C166.776 249.64 164.502 247.366 164.502 244.56V222.141Z" fill="#F05F83"/>
<path d="M181.002 236.936C193.142 236.936 202.982 246.778 202.982 258.917V311.481H189.784V309.028C189.784 304.177 185.851 300.246 181.001 300.246C176.151 300.246 172.219 304.178 172.219 309.028V311.481H159.02V258.917C159.02 246.778 168.862 236.936 181.002 236.936Z" fill="#FFA1B8"/>
<ellipse cx="205.042" cy="303.473" rx="6.40457" ry="6.40332" transform="rotate(-17.159 205.042 303.473)" fill="#FFA1B8"/>
<path d="M172.218 315.206H161.811C157.519 315.206 154.04 318.685 154.04 322.977H172.218V315.206Z" fill="#FFA1B8"/>
<path d="M189.783 315.206H200.19C204.482 315.206 207.961 318.685 207.961 322.977H189.783V315.206Z" fill="#FFA1B8"/>
<rect width="13.1984" height="7.45087" transform="matrix(-1 0 0 1 172.218 311.481)" fill="#FFA1B8"/>
<rect width="13.1984" height="7.45087" transform="matrix(-1 0 0 1 202.981 311.481)" fill="#FFA1B8"/>
<path d="M181.001 281.548C188.593 281.548 194.747 287.703 194.747 295.294V313.577H189.736C188.879 309.625 185.364 306.664 181.155 306.664C176.947 306.664 173.43 309.625 172.573 313.577H167.255V295.294C167.255 287.703 173.409 281.549 181.001 281.548Z" fill="#F05F83"/>
<rect x="172.537" y="272.656" width="26.5885" height="10.5634" rx="5.2817" transform="rotate(90 172.537 272.656)" fill="#FF7F9D"/>
<rect x="200.027" y="272.656" width="26.5885" height="10.5634" rx="5.2817" transform="rotate(90 200.027 272.656)" fill="#FF7F9D"/>
<path d="M174.017 241.853C174.017 240.111 175.429 238.698 177.172 238.698H184.83C186.573 238.698 187.985 240.111 187.985 241.853H174.017Z" fill="#7FD8FF"/>
<path d="M180.546 233.474C180.779 233.101 181.232 233.101 181.465 233.474L185.99 240.709C186.288 241.186 186.015 241.88 185.53 241.88H176.481C175.996 241.88 175.723 241.186 176.021 240.709L180.546 233.474Z" fill="#7FD8FF"/>
<path d="M187.985 241.854H183.462C182.977 241.853 182.705 241.251 183.003 240.838L187.527 234.56C187.644 234.398 187.814 234.317 187.985 234.316V241.854Z" fill="#7FD8FF"/>
<path d="M174.017 241.854H178.541C179.026 241.854 179.298 241.251 179.001 240.838L174.476 234.56C174.36 234.398 174.188 234.317 174.017 234.316V241.854Z" fill="#7FD8FF"/>
<rect width="5.31949" height="11.4961" transform="matrix(-1 0 0 1 172.575 311.481)" fill="#F05F83"/>
<rect width="4.96354" height="11.4958" transform="matrix(-1 0 0 1 194.745 311.481)" fill="#F05F83"/>
<path d="M184.783 258.686C191.549 257.037 198.398 261.179 200.081 267.936C201.765 274.693 197.644 281.507 190.879 283.156L156.536 291.524C155.892 291.681 155.24 291.286 155.079 290.643C151.873 277.772 159.721 264.792 172.608 261.652L184.783 258.686Z" fill="#4C98F5"/>
<rect x="151.907" y="277.823" width="24.4511" height="58.1898" rx="12.2256" transform="rotate(-90 151.907 277.823)" fill="#FFA1B8"/>
<path d="M188.17 257.714C188.17 260.983 185.521 263.633 182.252 263.633H179.754C176.485 263.633 173.835 260.983 173.835 257.714C173.835 257.551 173.968 257.418 174.131 257.418H187.874C188.038 257.418 188.17 257.551 188.17 257.714Z" fill="#F05F83"/>
<path d="M178.9 256.726C178.9 255.565 179.841 254.624 181.002 254.624C182.163 254.624 183.104 255.565 183.104 256.726V257.428H178.9V256.726Z" fill="#3D4650"/>
<path d="M175.82 257.427H181.54V263.597C181.54 264.702 180.644 265.597 179.54 265.597H177.82C176.715 265.597 175.82 264.702 175.82 263.597V257.427Z" fill="#EBF9FF"/>
<rect x="183.976" y="277.823" width="24.4511" height="26.1213" rx="12.2256" transform="rotate(-90 183.976 277.823)" fill="#FFA1B8"/>
<path d="M177.793 252.671C177.793 253.75 176.918 254.625 175.839 254.625C174.76 254.625 173.885 253.75 173.885 252.671C173.885 251.591 174.76 250.717 175.839 250.717C176.918 250.717 177.793 251.591 177.793 252.671Z" fill="#3D4650"/>
<path d="M188.169 252.671C188.169 253.75 187.294 254.625 186.215 254.625C185.136 254.625 184.261 253.75 184.261 252.671C184.261 251.591 185.136 250.717 186.215 250.717C187.294 250.717 188.169 251.591 188.169 252.671Z" fill="#3D4650"/>
<rect width="15.4624" height="2.99258" transform="matrix(-0.431499 0.902113 0.902113 0.431499 144.061 177.122)" fill="#4C98F5"/>
<rect width="29.9127" height="18.0441" transform="matrix(0.431499 -0.902113 -0.902113 -0.431499 144.435 226.12)" fill="#A6D3FD"/>
<rect width="4.77627" height="18.0441" transform="matrix(0.431499 -0.902113 -0.902113 -0.431499 146.08 222.681)" fill="#EAF4FF"/>
<rect width="4.77627" height="18.0441" transform="matrix(0.431499 -0.902113 -0.902113 -0.431499 149.858 214.782)" fill="#EAF4FF"/>
<rect width="4.77627" height="18.0441" transform="matrix(0.431499 -0.902113 -0.902113 -0.431499 153.635 206.885)" fill="#EAF4FF"/>
<rect width="106.727" height="10.4837" transform="matrix(0.431499 -0.902113 -0.902113 -0.431499 99.231 286.463)" fill="#72B6F9"/>
<path d="M120.438 217.828C118.041 216.682 117.027 213.809 118.174 211.412L129.409 187.924C130.555 185.527 133.428 184.513 135.825 185.66L120.438 217.828Z" fill="#72B6F9"/>
<path d="M149.985 170.963C150.145 169.76 148.671 169.055 147.834 169.935L145.991 171.873C145.616 172.266 145.031 172.374 144.541 172.14L142.128 170.986C141.033 170.462 139.907 171.646 140.485 172.713L141.759 175.066C142.017 175.543 141.939 176.133 141.565 176.527L139.721 178.465C138.884 179.345 139.663 180.782 140.857 180.562L143.488 180.077C144.022 179.979 144.558 180.235 144.817 180.713L146.091 183.065C146.669 184.133 148.276 183.837 148.436 182.633L148.788 179.981C148.859 179.443 149.269 179.012 149.803 178.914L152.434 178.429C153.628 178.209 153.844 176.589 152.748 176.065L150.335 174.911C149.845 174.677 149.562 174.154 149.633 173.615L149.985 170.963Z" fill="#FFB67A"/>
<rect x="255.669" y="22.7681" width="84" height="32" rx="16" fill="#2C6EB5"/>
<path d="M301.784 33.5745C302.055 33.5745 302.279 33.6351 302.456 33.7565C302.634 33.8778 302.722 34.0738 302.722 34.3445V42.9265C302.722 43.1971 302.634 43.3931 302.456 43.5145C302.279 43.6358 302.069 43.6965 301.826 43.6965C301.584 43.6965 301.374 43.6358 301.196 43.5145C301.019 43.3931 300.93 43.1971 300.93 42.9265V35.6745L299.124 36.7105C298.891 36.8411 298.672 36.8691 298.466 36.7945C298.261 36.7105 298.102 36.5658 297.99 36.3605C297.888 36.1738 297.855 35.9731 297.892 35.7585C297.93 35.5438 298.056 35.3758 298.27 35.2545L300.636 33.9385C300.879 33.8078 301.089 33.7145 301.266 33.6585C301.444 33.6025 301.616 33.5745 301.784 33.5745ZM309.514 33.5045C310.811 33.5045 311.754 33.9245 312.342 34.7645C312.939 35.6045 313.238 36.7945 313.238 38.3345V38.9365C313.238 40.4765 312.939 41.6665 312.342 42.5065C311.754 43.3465 310.811 43.7665 309.514 43.7665C308.216 43.7665 307.269 43.3465 306.672 42.5065C306.084 41.6665 305.79 40.4765 305.79 38.9365V38.3345C305.79 36.7945 306.084 35.6045 306.672 34.7645C307.269 33.9245 308.216 33.5045 309.514 33.5045ZM309.514 35.1985C309.15 35.1985 308.842 35.2591 308.59 35.3805C308.347 35.5018 308.151 35.6978 308.002 35.9685C307.862 36.2298 307.759 36.5658 307.694 36.9765C307.628 37.3871 307.596 37.8818 307.596 38.4605V38.8105C307.596 39.3891 307.628 39.8838 307.694 40.2945C307.759 40.7051 307.862 41.0458 308.002 41.3165C308.151 41.5778 308.347 41.7691 308.59 41.8905C308.842 42.0118 309.15 42.0725 309.514 42.0725C309.878 42.0725 310.181 42.0118 310.424 41.8905C310.676 41.7691 310.872 41.5778 311.012 41.3165C311.161 41.0458 311.268 40.7051 311.334 40.2945C311.399 39.8838 311.432 39.3891 311.432 38.8105V38.4605C311.432 37.8818 311.399 37.3871 311.334 36.9765C311.268 36.5658 311.161 36.2298 311.012 35.9685C310.872 35.6978 310.676 35.5018 310.424 35.3805C310.181 35.2591 309.878 35.1985 309.514 35.1985ZM318.195 33.5045C319.493 33.5045 320.435 33.9245 321.023 34.7645C321.621 35.6045 321.919 36.7945 321.919 38.3345V38.9365C321.919 40.4765 321.621 41.6665 321.023 42.5065C320.435 43.3465 319.493 43.7665 318.195 43.7665C316.898 43.7665 315.951 43.3465 315.353 42.5065C314.765 41.6665 314.471 40.4765 314.471 38.9365V38.3345C314.471 36.7945 314.765 35.6045 315.353 34.7645C315.951 33.9245 316.898 33.5045 318.195 33.5045ZM318.195 35.1985C317.831 35.1985 317.523 35.2591 317.271 35.3805C317.029 35.5018 316.833 35.6978 316.683 35.9685C316.543 36.2298 316.441 36.5658 316.375 36.9765C316.31 37.3871 316.277 37.8818 316.277 38.4605V38.8105C316.277 39.3891 316.31 39.8838 316.375 40.2945C316.441 40.7051 316.543 41.0458 316.683 41.3165C316.833 41.5778 317.029 41.7691 317.271 41.8905C317.523 42.0118 317.831 42.0725 318.195 42.0725C318.559 42.0725 318.863 42.0118 319.105 41.8905C319.357 41.7691 319.553 41.5778 319.693 41.3165C319.843 41.0458 319.95 40.7051 320.015 40.2945C320.081 39.8838 320.113 39.3891 320.113 38.8105V38.4605C320.113 37.8818 320.081 37.3871 320.015 36.9765C319.95 36.5658 319.843 36.2298 319.693 35.9685C319.553 35.6978 319.357 35.5018 319.105 35.3805C318.863 35.2591 318.559 35.1985 318.195 35.1985Z" fill="white"/>
<g filter="url(#filter0_i_1090_5019)">
<circle cx="271.492" cy="38.6684" r="13.95" transform="rotate(1.14589 271.492 38.6684)" fill="url(#paint0_linear_1090_5019)"/>
<circle cx="271.492" cy="38.6684" r="13.95" transform="rotate(1.14589 271.492 38.6684)" fill="black" fill-opacity="0.05"/>
</g>
<g filter="url(#filter1_d_1090_5019)">
<path d="M271.492 20.6685C281.433 20.6685 289.492 28.7273 289.492 38.6685C289.492 48.6096 281.433 56.6685 271.492 56.6685C261.551 56.6685 253.492 48.6096 253.492 38.6685C253.492 28.7273 261.551 20.6685 271.492 20.6685ZM271.492 24.7185C263.788 24.7185 257.542 30.9641 257.542 38.6685C257.542 46.3728 263.788 52.6185 271.492 52.6185C279.197 52.6185 285.442 46.3728 285.442 38.6685C285.442 30.9641 279.197 24.7185 271.492 24.7185Z" fill="url(#paint1_linear_1090_5019)"/>
</g>
<g filter="url(#filter2_d_1090_5019)">
<path d="M272.985 30.3318C273.965 30.0666 275.206 29.9407 276.536 30.6142L276.665 30.6819L276.672 30.6859C278.943 31.9497 279.294 34.1666 279.094 35.9876C278.897 37.7856 278.145 39.4371 277.973 39.8776L277.973 39.8796C277.85 40.1914 277.761 40.7041 277.669 41.4168C277.582 42.0866 277.495 42.9028 277.355 43.6756C277.216 44.4482 277.011 45.2603 276.654 45.9432C276.293 46.6356 275.738 47.2607 274.884 47.5206L274.885 47.521C274.884 47.5212 274.883 47.5211 274.882 47.5214C274.88 47.5219 274.879 47.5229 274.877 47.5234L274.877 47.523C274.427 47.6623 273.99 47.7114 273.576 47.6269C273.146 47.5391 272.805 47.3204 272.546 47.0343C272.076 46.5149 271.879 45.7659 271.748 45.2172C271.594 44.5726 271.507 44.0964 271.34 43.7301C271.265 43.565 271.201 43.4899 271.161 43.4578C271.137 43.4383 271.104 43.4162 271.014 43.4147C270.904 43.413 270.871 43.438 270.861 43.4454C270.838 43.462 270.787 43.5107 270.723 43.6453C270.573 43.9582 270.498 44.379 270.355 45.0001C270.232 45.5335 270.048 46.2499 269.606 46.7878C269.369 47.0759 269.058 47.3152 268.657 47.4545C268.265 47.5911 267.832 47.6153 267.368 47.5497V47.5501L267.368 47.5497C267.367 47.5496 267.366 47.5498 267.365 47.5497V47.5493C266.412 47.4162 265.78 46.8155 265.376 46.1013C264.986 45.4115 264.77 44.5582 264.625 43.7445C264.479 42.9287 264.387 42.0466 264.293 41.318C264.193 40.5447 264.091 39.9676 263.945 39.606C263.178 37.7055 262.418 35.453 263.428 33.0482C263.94 31.8281 264.737 31.0758 265.646 30.6644C266.531 30.2637 267.464 30.2117 268.235 30.2701L268.235 30.2705C268.82 30.3143 269.436 30.5221 269.904 30.6711C270.437 30.8412 270.791 30.9394 271.048 30.9352L271.061 30.9348L271.073 30.9352C271.152 30.9362 271.324 30.8974 271.707 30.7603C272.04 30.6417 272.496 30.4643 272.985 30.3318ZM275.888 32.1131C275.008 31.638 274.188 31.6955 273.406 31.9073C272.997 32.0179 272.635 32.1596 272.249 32.2975C271.915 32.4169 271.468 32.5722 271.05 32.5663V32.5655C270.485 32.569 269.876 32.3734 269.415 32.2262C268.881 32.0559 268.468 31.9234 268.114 31.8969H268.114C267.494 31.85 266.86 31.9034 266.31 32.1522C265.784 32.3903 265.277 32.8323 264.92 33.6834C264.191 35.4211 264.683 37.1009 265.446 38.9919C265.683 39.5782 265.803 40.362 265.899 41.107C266.002 41.8967 266.082 42.6913 266.219 43.4554C266.356 44.2213 266.534 44.8516 266.784 45.294C267.02 45.711 267.275 45.8905 267.589 45.934L267.592 45.9344C267.866 45.9734 268.031 45.9466 268.128 45.9129C268.219 45.8815 268.29 45.8305 268.358 45.7472C268.527 45.5424 268.648 45.1903 268.777 44.631C268.886 44.1594 269.011 43.4629 269.263 42.9365C269.4 42.6519 269.6 42.3503 269.912 42.1237C270.235 41.888 270.619 41.7766 271.04 41.7836C271.48 41.7908 271.867 41.9337 272.182 42.1918C272.483 42.4373 272.678 42.7536 272.813 43.0496C273.066 43.6059 273.204 44.3346 273.324 44.8353C273.466 45.4316 273.594 45.7689 273.744 45.9352C273.795 45.9918 273.839 46.0162 273.898 46.0284C273.972 46.0434 274.127 46.05 274.405 45.9631L274.409 45.9619L274.412 45.9607C274.72 45.8681 274.985 45.6351 275.221 45.1841C275.462 44.7216 275.631 44.1031 275.761 43.3837C275.891 42.6645 275.969 41.927 276.063 41.2057C276.151 40.5274 276.258 39.811 276.466 39.2802C276.678 38.7361 277.316 37.3348 277.484 35.8084C277.649 34.3029 277.339 32.9211 275.888 32.1135V32.1131Z" fill="url(#paint2_linear_1090_5019)"/>
</g>
</g>
<path d="M0 0V4H360V0V-4H0V0ZM360 340V336H0V340V344H360V340Z" fill="#72B6F9" mask="url(#path-1-inside-1_1090_5019)"/>
<defs>
<filter id="filter0_i_1090_5019" x="257.542" y="24.7184" width="27.9001" height="27.9001" filterUnits="userSpaceOnUse" color-interpolation-filters="sRGB">
<feFlood flood-opacity="0" result="BackgroundImageFix"/>
<feBlend mode="normal" in="SourceGraphic" in2="BackgroundImageFix" result="shape"/>
<feColorMatrix in="SourceAlpha" type="matrix" values="0 0 0 0 0 0 0 0 0 0 0 0 0 0 0 0 0 0 127 0" result="hardAlpha"/>
<feOffset dx="-0.9" dy="-0.9"/>
<feComposite in2="hardAlpha" operator="arithmetic" k2="-1" k3="1"/>
<feColorMatrix type="matrix" values="0 0 0 0 0.662009 0 0 0 0 0.835991 0 0 0 0 0.944373 0 0 0 0.6 0"/>
<feBlend mode="normal" in2="shape" result="effect1_innerShadow_1090_5019"/>
</filter>
<filter id="filter1_d_1090_5019" x="253.492" y="20.6685" width="36.9" height="37.35" filterUnits="userSpaceOnUse" color-interpolation-filters="sRGB">
<feFlood flood-opacity="0" result="BackgroundImageFix"/>
<feColorMatrix in="SourceAlpha" type="matrix" values="0 0 0 0 0 0 0 0 0 0 0 0 0 0 0 0 0 0 127 0" result="hardAlpha"/>
<feOffset dx="0.9" dy="1.35"/>
<feComposite in2="hardAlpha" operator="out"/>
<feColorMatrix type="matrix" values="0 0 0 0 0.145098 0 0 0 0 0.576471 0 0 0 0 0.741176 0 0 0 1 0"/>
<feBlend mode="normal" in2="BackgroundImageFix" result="effect1_dropShadow_1090_5019"/>
<feBlend mode="normal" in="SourceGraphic" in2="effect1_dropShadow_1090_5019" result="shape"/>
</filter>
<filter id="filter2_d_1090_5019" x="262.942" y="30.1185" width="17.1" height="18.45" filterUnits="userSpaceOnUse" color-interpolation-filters="sRGB">
<feFlood flood-opacity="0" result="BackgroundImageFix"/>
<feColorMatrix in="SourceAlpha" type="matrix" values="0 0 0 0 0 0 0 0 0 0 0 0 0 0 0 0 0 0 127 0" result="hardAlpha"/>
<feOffset dx="0.9" dy="0.9"/>
<feComposite in2="hardAlpha" operator="out"/>
<feColorMatrix type="matrix" values="0 0 0 0 0.145098 0 0 0 0 0.576471 0 0 0 0 0.741176 0 0 0 1 0"/>
<feBlend mode="normal" in2="BackgroundImageFix" result="effect1_dropShadow_1090_5019"/>
<feBlend mode="normal" in="SourceGraphic" in2="effect1_dropShadow_1090_5019" result="shape"/>
</filter>
<linearGradient id="paint0_linear_1090_5019" x1="263.297" y1="26.9853" x2="279.513" y2="50.7003" gradientUnits="userSpaceOnUse">
<stop offset="0.0192308" stop-color="#5FC6F0"/>
<stop offset="0.195198" stop-color="#C5E9FF"/>
<stop offset="0.663462" stop-color="#5FC6F0"/>
</linearGradient>
<linearGradient id="paint1_linear_1090_5019" x1="260.917" y1="23.5935" x2="281.842" y2="54.1935" gradientUnits="userSpaceOnUse">
<stop offset="0.0192308" stop-color="#5FC6F0"/>
<stop offset="0.195198" stop-color="#C5E9FF"/>
<stop offset="0.663462" stop-color="#5FC6F0"/>
</linearGradient>
<linearGradient id="paint2_linear_1090_5019" x1="264.742" y1="30.5685" x2="278.242" y2="46.7685" gradientUnits="userSpaceOnUse">
<stop offset="0.0523674" stop-color="#5FC6F0"/>
<stop offset="0.176117" stop-color="#C2E7FD"/>
<stop offset="0.663462" stop-color="#5FC6F0"/>
</linearGradient>
<clipPath id="clip0_1090_5019">
<path d="M0 0H360V340H0V0Z" fill="white"/>
</clipPath>
</defs>
</svg>
