<svg width="360" height="220" viewBox="0 0 360 220" fill="none" xmlns="http://www.w3.org/2000/svg">
<g clip-path="url(#clip0_1494_4687)">
<mask id="path-1-inside-1_1494_4687" fill="white">
<path d="M0.332031 0H360.332V220H0.332031V0Z"/>
</mask>
<path d="M0.332031 0H360.332V220H0.332031V0Z" fill="#EBF9FF"/>
<rect x="276.79" y="-90.0879" width="343.909" height="459.492" rx="100" transform="rotate(38.874 276.79 -90.0879)" fill="#D6EBFE"/>
<rect x="30" y="-24.502" width="149.594" height="149.594" rx="5" fill="#72B6F9"/>
<rect x="30" y="-28.0801" width="149.594" height="149.594" rx="5" fill="#A6D3FD"/>
<rect x="225.669" y="28.4043" width="97.7002" height="97.7002" rx="48.8501" fill="#72B6F9"/>
<rect x="-0.532227" y="195.86" width="361.729" height="108" fill="#C1E1FE"/>
<rect x="-0.532227" y="195.86" width="361.729" height="2" fill="#A6D3FD"/>
<rect x="-0.809082" y="211.86" width="361.729" height="2" fill="#A6D3FD"/>
<path d="M341.96 217.562C344.721 217.563 346.96 219.801 346.96 222.562V241.616C346.96 244.378 344.721 246.616 341.96 246.616H336.029V339.86H148.449V246.616H142.52C139.758 246.616 137.52 244.378 137.52 241.616V222.562C137.52 219.801 139.758 217.563 142.52 217.562H341.96Z" fill="#72B6F9"/>
<path d="M44.1277 169.86C44.1277 167.099 46.3663 164.86 49.1277 164.86H87.1277C89.8891 164.86 92.1277 167.099 92.1277 169.86V223.86C92.1277 226.622 89.8891 228.86 87.1277 228.86H44.1277V169.86Z" fill="#72B6F9"/>
<rect x="241.612" y="170.771" width="12.2119" height="41.0898" fill="#8BC4FC"/>
<rect x="24.7871" y="167.127" width="14.54" height="14.5376" rx="7.2688" fill="#72B6F9"/>
<rect x="93.7276" y="167.127" width="14.54" height="14.5376" rx="7.2688" fill="#72B6F9"/>
<rect x="30.1853" y="169.75" width="72.6841" height="9.29138" rx="4.64569" fill="#8BC4FC"/>
<rect x="133.212" y="217.562" width="209.44" height="29.0537" rx="5" fill="#A6D3FD"/>
<rect x="225.669" y="23.8135" width="97.7002" height="97.7002" rx="48.8501" fill="#A6D3FD"/>
<rect x="238.524" y="36.6689" width="71.989" height="71.989" rx="35.9945" fill="#EAF4FF" stroke="#8BC4FC" stroke-width="4"/>
<path d="M264.774 158.559C271.519 158.559 276.986 164.026 276.986 170.771H241.612C241.612 164.026 247.08 158.559 253.824 158.559H264.774Z" fill="#8BC4FC"/>
<rect x="278.951" y="169.502" width="6.10596" height="14.749" rx="2" transform="rotate(90 278.951 169.502)" fill="#72B6F9"/>
<rect x="235.057" y="187.832" width="12.2119" height="40.0049" rx="6.10596" transform="rotate(180 235.057 187.832)" fill="#8BC4FC"/>
<path d="M40.9275 169.86C40.9275 167.099 43.1661 164.86 45.9275 164.86H83.9275C86.6889 164.86 88.9275 167.099 88.9275 169.86V223.86C88.9275 226.622 86.6889 228.86 83.9275 228.86H40.9275V169.86Z" fill="#A6D3FD"/>
<rect x="40.9275" y="216.256" width="48" height="5.95117" fill="#8BC4FC"/>
<rect x="182.832" y="217.562" width="129.682" height="14.5269" rx="7.26343" fill="#72B6F9"/>
<path d="M171.148 187.005C171.148 185.925 172.024 185.049 173.105 185.049H302.758C303.839 185.049 304.715 185.925 304.715 187.005C304.715 208.618 287.195 226.139 265.582 226.139H210.281C188.669 226.139 171.148 208.618 171.148 187.005Z" fill="#A6D3FD"/>
<rect x="112.14" y="54.0596" width="54.7686" height="54.7686" rx="3" fill="#D6EBFE" stroke="#8BC4FC" stroke-width="4"/>
<rect x="112.14" y="-15.709" width="54.7686" height="54.7686" rx="3" fill="#D6EBFE" stroke="#8BC4FC" stroke-width="4"/>
<rect x="42.6855" y="54.0596" width="54.7686" height="54.7686" rx="3" fill="#D6EBFE" stroke="#8BC4FC" stroke-width="4"/>
<rect x="42.6855" y="-15.709" width="54.7686" height="54.7686" rx="3" fill="#D6EBFE" stroke="#8BC4FC" stroke-width="4"/>
<rect x="72.2767" y="-14.9902" width="12.1149" height="38.1225" rx="6.05744" transform="rotate(38.874 72.2767 -14.9902)" fill="#EAF4FF"/>
<rect x="72.6616" y="11.916" width="5.96624" height="21.8484" rx="2.98312" transform="rotate(38.874 72.6616 11.916)" fill="#EAF4FF"/>
<path d="M274.301 38.9268L248.657 70.7373C246.206 73.7783 246.684 78.2311 249.725 80.6826C252.766 83.1341 257.218 82.6562 259.67 79.6152L285.313 47.8047C286.959 45.7628 287.282 43.0854 286.397 40.8037C289.402 41.9243 292.204 43.4569 294.737 45.334L275.556 69.1289C274.368 70.6019 274.6 72.7587 276.072 73.9463C277.545 75.1338 279.702 74.9027 280.89 73.4297L299.813 49.9551C305.221 55.9751 308.514 63.9348 308.514 72.6641C308.514 91.4385 293.293 106.659 274.519 106.659C255.744 106.659 240.525 91.4384 240.524 72.6641C240.524 53.8896 255.744 38.6691 274.519 38.6689H274.52C274.445 38.7528 274.372 38.8385 274.301 38.9268Z" fill="#D6EBFE"/>
<path d="M237.932 226.139H265.583C287.195 226.138 304.715 208.618 304.715 187.006C304.715 185.925 303.839 185.049 302.758 185.049H237.932V226.139Z" fill="#8BC4FC"/>
<rect width="133.567" height="8.82129" rx="4.41064" transform="matrix(1 0 0 -1 171.148 190.051)" fill="#72B6F9"/>
<rect opacity="0.85" x="0.332031" y="-61.3496" width="360" height="305.21" fill="#EBF9FF"/>
<path d="M276.723 178.923C276.065 179.022 275.451 178.568 275.353 177.91C273.379 164.743 282.452 152.469 295.619 150.495L316.207 147.408C316.865 147.31 317.479 147.763 317.578 148.422C319.552 161.588 310.478 173.862 297.312 175.836L276.723 178.923Z" fill="#FFE1EA"/>
<path d="M323.713 197.473C324.372 197.374 324.825 196.76 324.727 196.102C322.753 182.935 310.479 173.862 297.312 175.836L276.724 178.923C276.066 179.021 275.612 179.635 275.711 180.293C277.685 193.46 289.958 202.533 303.125 200.559L323.713 197.473Z" fill="#FFE1EA"/>
<path d="M211.58 178.927C212.239 179.025 212.692 179.639 212.594 180.297C210.619 193.464 198.344 202.537 185.178 200.562L164.59 197.474C163.931 197.375 163.478 196.761 163.577 196.103C165.551 182.937 177.826 173.864 190.992 175.839L211.58 178.927Z" fill="#FFE1EA"/>
<path d="M172.099 147.409C171.441 147.311 170.827 147.764 170.728 148.422C168.753 161.589 177.826 173.863 190.992 175.838L211.581 178.926C212.239 179.025 212.853 178.571 212.951 177.913C214.926 164.746 205.853 152.472 192.687 150.497L172.099 147.409Z" fill="#FFE1EA"/>
<path d="M264.758 32.7417C281.281 37.2357 291.032 54.2732 286.538 70.7959L276.181 108.874C273.822 117.549 264.877 122.668 256.203 120.309C247.528 117.949 242.409 109.005 244.768 100.33L262.856 33.8307C263.08 33.0045 263.932 32.517 264.758 32.7417Z" fill="#FFA1B8"/>
<path d="M256.704 60.3368C267.578 63.2946 273.996 74.508 271.038 85.3826L263.983 111.323C262.43 117.032 256.543 120.402 250.834 118.849C245.125 117.296 241.755 111.409 243.308 105.7L255.452 61.0535C255.599 60.5098 256.16 60.1889 256.704 60.3368Z" fill="#F05F83"/>
<path d="M195.124 40.4753C211.647 35.98 228.685 45.73 233.18 62.2523L240.894 90.6042C243.254 99.2784 238.135 108.223 229.461 110.583C220.786 112.943 211.841 107.825 209.481 99.1504L194.035 42.378C193.811 41.5519 194.298 40.7 195.124 40.4753Z" fill="#FFA1B8"/>
<path d="M202.158 68.3472C213.032 65.3886 224.246 71.8057 227.205 82.6801L234.262 108.62C235.815 114.329 232.446 120.216 226.737 121.77C221.028 123.323 215.141 119.954 213.588 114.245L201.441 69.5996C201.293 69.0559 201.614 68.4952 202.158 68.3472Z" fill="#F05F83"/>
<path d="M244.153 93.8877C269.758 93.8879 290.516 114.645 290.516 140.251V251.12H262.678V245.946C262.678 235.715 254.384 227.421 244.153 227.421C233.922 227.421 225.628 235.715 225.628 245.946V251.12H197.788V140.251C197.788 114.645 218.547 93.8877 244.153 93.8877Z" fill="#FFA1B8"/>
<path d="M244.153 187.986C260.166 187.986 273.148 200.968 273.148 216.98V255.541H262.581C260.773 247.205 253.355 240.961 244.478 240.961C235.601 240.961 228.183 247.205 226.375 255.541H215.159V216.98C215.159 200.968 228.14 187.986 244.153 187.986Z" fill="#F05F83"/>
<rect x="220.103" y="224.518" width="56.0815" height="22.2807" rx="11.1404" transform="rotate(-113.16 220.103 224.518)" fill="#FF7F9D"/>
<rect x="290.259" y="172.024" width="56.0815" height="22.2807" rx="11.1404" transform="rotate(113.161 290.259 172.024)" fill="#FF7F9D"/>
<path d="M229.423 104.259C229.423 100.583 232.403 97.6035 236.079 97.6035H252.231C255.907 97.6035 258.887 100.583 258.887 104.259H229.423Z" fill="#7FD8FF"/>
<path d="M243.193 86.5842C243.685 85.7975 244.64 85.7975 245.132 86.5842L254.676 101.846C255.304 102.851 254.729 104.316 253.706 104.316H234.619C233.596 104.316 233.021 102.851 233.649 101.846L243.193 86.5842Z" fill="#7FD8FF"/>
<path d="M258.885 104.261H249.343C248.32 104.26 247.746 102.989 248.374 102.117L257.917 88.875C258.163 88.5343 258.524 88.363 258.885 88.3623V104.261Z" fill="#7FD8FF"/>
<path d="M229.421 104.261H238.965C239.988 104.26 240.562 102.989 239.934 102.117L230.391 88.875C230.145 88.5337 229.783 88.3624 229.421 88.3623V104.261Z" fill="#7FD8FF"/>
<path d="M254.249 141.065C268.723 138.564 282.543 148.26 285.118 162.72C287.693 177.181 278.047 190.931 263.573 193.432L190.106 206.125C188.728 206.363 187.412 205.439 187.167 204.062C182.262 176.518 200.635 150.328 228.204 145.565L254.249 141.065Z" fill="#4C98F5"/>
<rect x="182.784" y="173.514" width="51.5732" height="122.736" rx="25.7866" transform="rotate(-90 182.784 173.514)" fill="#FFA1B8"/>
<path d="M259.271 130.473C259.271 137.712 253.402 143.581 246.163 143.581H241.518C234.624 143.581 229.035 137.992 229.035 131.097C229.035 130.753 229.314 130.473 229.659 130.473H259.271Z" fill="#F05F83"/>
<path d="M239.719 129.015C239.719 126.566 241.704 124.581 244.152 124.581C246.601 124.581 248.586 126.566 248.586 129.015V130.494H239.719V129.015Z" fill="#3D4650"/>
<path d="M250.667 120.624C250.871 118.192 253.008 116.385 255.44 116.588C257.873 116.791 259.68 118.928 259.477 121.361L259.409 122.169C259.397 122.313 259.271 122.42 259.127 122.408L250.839 121.715C250.695 121.703 250.588 121.577 250.6 121.433L250.667 120.624Z" fill="#3D4650"/>
<path d="M228.847 121.361C228.643 118.928 230.451 116.791 232.883 116.588C235.316 116.384 237.453 118.191 237.656 120.624L237.724 121.432C237.736 121.576 237.629 121.703 237.485 121.715L229.197 122.408C229.053 122.42 228.926 122.313 228.914 122.169L228.847 121.361Z" fill="#3D4650"/>
<path d="M233.224 130.494H245.288V145.727C245.288 146.831 244.392 147.727 243.288 147.727H235.224C234.119 147.727 233.224 146.831 233.224 145.727V130.494Z" fill="#EBF9FF"/>
<rect x="249.036" y="175.608" width="51.5732" height="56.9348" rx="25.7866" transform="rotate(-90 249.036 175.608)" fill="#FFA1B8"/>
<path d="M306.559 115.426C309.302 114.549 310.815 111.614 309.938 108.87C309.061 106.127 306.126 104.614 303.382 105.491C300.639 106.368 299.126 109.303 300.003 112.047C300.88 114.79 303.815 116.303 306.559 115.426Z" fill="#94E0FF"/>
<path d="M296.443 112.271C295.927 112.849 296.221 113.769 296.977 113.941L304.465 115.643C305.233 115.818 305.9 115.091 305.66 114.341L303.284 106.907C303.044 106.157 302.079 105.952 301.554 106.54L296.443 112.271Z" fill="#94E0FF"/>
<path d="M304.015 98.6199C304.977 96.9615 304.412 94.8376 302.753 93.8761C301.095 92.9145 298.971 93.4794 298.009 95.1378C297.048 96.7962 297.613 98.9201 299.271 99.8817C300.93 100.843 303.053 100.278 304.015 98.6199Z" fill="#94E0FF"/>
<path d="M297.614 101.582C297.618 102.098 298.174 102.421 298.624 102.168L303.079 99.6622C303.536 99.4051 303.54 98.7486 303.087 98.4855L298.593 95.8802C298.139 95.6172 297.572 95.9471 297.576 96.4715L297.614 101.582Z" fill="#94E0FF"/>
<path d="M36.025 54.6837C34.4463 54.6837 33.0703 54.4597 31.897 54.0117C30.7237 53.5424 29.7423 52.9237 28.953 52.1557C28.1637 51.3664 27.577 50.449 27.193 49.4037C26.809 48.3584 26.617 47.2384 26.617 46.0437C26.617 44.8704 26.809 43.761 27.193 42.7157C27.577 41.649 28.1637 40.7317 28.953 39.9637C29.7423 39.1744 30.7237 38.5557 31.897 38.1077C33.0703 37.6384 34.4463 37.4037 36.025 37.4037C37.6037 37.4037 38.9797 37.6384 40.153 38.1077C41.3263 38.5557 42.3077 39.1744 43.097 39.9637C43.8863 40.7317 44.473 41.649 44.857 42.7157C45.241 43.761 45.433 44.8704 45.433 46.0437C45.433 47.2384 45.241 48.3584 44.857 49.4037C44.473 50.449 43.8863 51.3664 43.097 52.1557C42.3077 52.9237 41.3263 53.5424 40.153 54.0117C38.9797 54.4597 37.6037 54.6837 36.025 54.6837ZM43.417 68.7637C42.0943 68.7637 40.8783 68.6037 39.769 68.2837C38.681 67.985 37.7423 67.5477 36.953 66.9717C36.185 66.3957 35.5877 65.6917 35.161 64.8597C34.7343 64.049 34.521 63.121 34.521 62.0757C34.521 61.0304 34.7343 60.1024 35.161 59.2917C35.5877 58.4597 36.185 57.7557 36.953 57.1797C37.7423 56.6037 38.681 56.1664 39.769 55.8677C40.8783 55.5477 42.0943 55.3877 43.417 55.3877C44.7397 55.3877 45.945 55.5477 47.033 55.8677C48.1423 56.1664 49.081 56.6037 49.849 57.1797C50.6383 57.7557 51.2463 58.4597 51.673 59.2917C52.0997 60.1024 52.313 61.0304 52.313 62.0757C52.313 63.121 52.0997 64.049 51.673 64.8597C51.2463 65.6917 50.6383 66.3957 49.849 66.9717C49.081 67.5477 48.1423 67.985 47.033 68.2837C45.945 68.6037 44.7397 68.7637 43.417 68.7637ZM46.553 39.6437C46.553 38.577 47.0117 38.0437 47.929 38.0437H52.217C53.1343 38.0437 53.593 38.577 53.593 39.6437V39.9637L55.257 39.8997C56.0677 39.857 56.473 40.2197 56.473 40.9877V44.3157C56.473 44.9984 56.0677 45.361 55.257 45.4037L53.593 45.4677V46.6837L55.257 46.6197C56.0677 46.577 56.473 46.9397 56.473 47.7077V51.0357C56.473 51.7184 56.0677 52.081 55.257 52.1237L53.593 52.1877V52.9557C53.593 54.0224 53.1343 54.5557 52.217 54.5557H47.929C47.0117 54.5557 46.553 54.0224 46.553 52.9557V39.6437ZM36.025 48.5397C36.985 48.5397 37.6783 48.2837 38.105 47.7717C38.5317 47.2597 38.745 46.6837 38.745 46.0437C38.745 45.4037 38.5317 44.8277 38.105 44.3157C37.6783 43.8037 36.985 43.5477 36.025 43.5477C35.065 43.5477 34.3717 43.8037 33.945 44.3157C33.5183 44.8277 33.305 45.4037 33.305 46.0437C33.305 46.6837 33.5183 47.2597 33.945 47.7717C34.3717 48.2837 35.065 48.5397 36.025 48.5397ZM43.417 63.7717C44.2063 63.7717 44.7823 63.601 45.145 63.2597C45.529 62.9397 45.721 62.545 45.721 62.0757C45.721 61.6064 45.529 61.2117 45.145 60.8917C44.7823 60.5504 44.2063 60.3797 43.417 60.3797C42.6277 60.3797 42.041 60.5504 41.657 60.8917C41.2943 61.2117 41.113 61.6064 41.113 62.0757C41.113 62.545 41.2943 62.9397 41.657 63.2597C42.041 63.601 42.6277 63.7717 43.417 63.7717ZM76.0495 44.4117C76.0495 44.9664 75.9748 45.329 75.8255 45.4997C75.6762 45.6704 75.3668 45.7664 74.8975 45.7877L71.0895 45.8837V49.0837C71.0895 49.4677 71.1215 49.8197 71.1855 50.1397C71.2495 50.4597 71.3882 50.769 71.6015 51.0677L76.4335 57.7237C76.6468 58.0224 76.7535 58.2997 76.7535 58.5557C76.7535 58.7904 76.6042 59.025 76.3055 59.2597L72.6895 61.9477C72.1775 62.3104 71.7295 62.2144 71.3455 61.6597L67.5695 56.6677L63.7295 62.4277C63.5375 62.7264 63.3242 62.8757 63.0895 62.8757C62.8548 62.897 62.5988 62.801 62.3215 62.5877L58.7695 59.8997C58.1508 59.4517 58.0548 58.9077 58.4815 58.2677L63.5375 50.9077C63.7295 50.609 63.8575 50.2997 63.9215 49.9797C64.0068 49.6597 64.0495 49.3077 64.0495 48.9237V46.0437L60.1775 46.1077C59.7295 46.129 59.4202 46.0437 59.2495 45.8517C59.1002 45.6597 59.0255 45.2864 59.0255 44.7317V41.0197C59.0255 40.465 59.1002 40.1024 59.2495 39.9317C59.4202 39.761 59.7295 39.665 60.1775 39.6437L64.0495 39.5797V37.8517C64.0495 37.297 64.1562 36.9024 64.3695 36.6677C64.5828 36.433 64.9135 36.3157 65.3615 36.3157H69.7775C70.2255 36.3157 70.5562 36.433 70.7695 36.6677C70.9828 36.9024 71.0895 37.297 71.0895 37.8517V39.4197L74.8975 39.3237C75.3668 39.3024 75.6762 39.3877 75.8255 39.5797C75.9748 39.7717 76.0495 40.145 76.0495 40.6997V44.4117ZM77.5855 40.2837C77.5855 39.217 78.0442 38.6837 78.9615 38.6837H83.2495C84.1668 38.6837 84.6255 39.217 84.6255 40.2837V60.3157C84.6255 61.3824 84.1668 61.9157 83.2495 61.9157H78.9615C78.0442 61.9157 77.5855 61.3824 77.5855 60.3157V40.2837ZM112.679 38.0437C113.169 38.0224 113.521 38.1397 113.735 38.3957C113.948 38.6304 114.033 39.025 113.991 39.5797L113.287 51.9637C113.244 52.4757 113.127 52.8277 112.935 53.0197C112.764 53.1904 112.444 53.2757 111.975 53.2757H107.591C107.164 53.2757 106.855 53.1904 106.663 53.0197C106.492 52.849 106.428 52.5397 106.471 52.0917L106.503 51.5477L98.5347 51.7397C97.7667 51.7824 97.3827 51.441 97.3827 50.7157V46.9397C97.3827 46.577 97.4787 46.321 97.6707 46.1717C97.8627 46.0224 98.1507 45.937 98.5347 45.9157L106.887 45.6597L106.983 44.2197L97.7987 44.4437C97.0307 44.4864 96.6467 44.145 96.6467 43.4197V39.3877C96.6467 39.025 96.7427 38.769 96.9347 38.6197C97.1267 38.4704 97.4147 38.385 97.7987 38.3637L112.679 38.0437ZM115.367 40.2837C115.367 39.217 115.825 38.6837 116.743 38.6837H121.031C121.948 38.6837 122.407 39.217 122.407 40.2837V60.9557C122.407 62.0224 121.948 62.5557 121.031 62.5557H116.743C115.825 62.5557 115.367 62.0224 115.367 60.9557V40.2837ZM109.223 60.1557V64.8597C109.223 65.4144 109.127 65.809 108.935 66.0437C108.743 66.2784 108.401 66.3957 107.911 66.3957H103.495C103.004 66.3957 102.663 66.2784 102.471 66.0437C102.279 65.809 102.183 65.4144 102.183 64.8597V60.2837L97.9587 60.3797C97.1907 60.3797 96.8067 60.0384 96.8067 59.3557V55.5797C96.8067 54.897 97.1907 54.5557 97.9587 54.5557L112.935 54.2357C113.703 54.2357 114.087 54.577 114.087 55.2597V59.0357C114.087 59.7184 113.703 60.0597 112.935 60.0597L109.223 60.1557ZM137.235 52.1877L129.075 55.9637C128.691 56.1344 128.371 56.2197 128.115 56.2197C127.859 56.1984 127.635 56.0064 127.443 55.6437L125.523 51.8677C125.203 51.249 125.363 50.801 126.003 50.5237L132.563 47.5797C132.926 47.409 133.193 47.1957 133.363 46.9397C133.555 46.6837 133.651 46.2464 133.651 45.6277V44.7317L127.347 44.8277C126.579 44.8277 126.195 44.4864 126.195 43.8037V39.3877C126.195 38.705 126.579 38.3637 127.347 38.3637L147.059 38.0437C147.827 38.0437 148.211 38.385 148.211 39.0677V43.4837C148.211 44.1664 147.827 44.5077 147.059 44.5077L140.755 44.6357V45.4677C140.755 46.0864 140.83 46.5237 140.979 46.7797C141.15 47.0357 141.438 47.249 141.843 47.4197L148.403 50.2997C149.065 50.577 149.235 51.0357 148.915 51.6757L147.059 55.3877C146.889 55.7504 146.665 55.9424 146.387 55.9637C146.131 55.9637 145.801 55.8784 145.395 55.7077L137.235 52.1877ZM127.539 63.5797C126.771 63.5797 126.387 63.2384 126.387 62.5557V58.7797C126.387 58.097 126.771 57.7557 127.539 57.7557L146.931 57.4357C147.699 57.4357 148.083 57.777 148.083 58.4597V62.2357C148.083 62.9184 147.699 63.2597 146.931 63.2597L127.539 63.5797Z" fill="#4C98F5"/>
<path d="M153.334 15.8867C153.334 20.5791 157.02 24.4106 161.653 24.6455L162.104 24.6572C157.261 24.6573 153.335 28.584 153.335 33.4277H153.334C153.334 28.584 149.408 24.6573 144.564 24.6572C149.408 24.6572 153.334 20.7305 153.334 15.8867Z" fill="#FFB985"/>
<path d="M167.123 29.4648C167.59 31.7038 169.575 33.3857 171.953 33.3857C171.988 33.3857 172.023 33.3835 172.058 33.3828V33.3877C172.023 33.387 171.988 33.3857 171.953 33.3857C169.576 33.3857 167.591 35.067 167.123 37.3057C166.655 35.0671 164.671 33.3857 162.294 33.3857C162.259 33.3857 162.224 33.387 162.189 33.3877V33.3828C162.224 33.3835 162.259 33.3857 162.294 33.3857C164.672 33.3857 166.656 31.7037 167.123 29.4648Z" fill="#FFB985"/>
<path d="M24.7871 85.2355C24.7871 83.2944 26.3608 81.7207 28.302 81.7207H49.3915C51.3327 81.7207 52.9064 83.2944 52.9064 85.2355V106.325C52.9064 108.266 51.3327 109.839 49.3915 109.839H28.302C26.3608 109.839 24.7871 108.266 24.7871 106.325V85.2355Z" fill="#D6F3FF"/>
<path d="M52.9059 106.324C52.9059 108.265 51.3323 109.839 49.3911 109.839H28.302C26.3608 109.839 24.7871 108.265 24.7871 106.324C24.7871 107.295 26.3608 108.082 28.302 108.082H49.3911C51.3323 108.082 52.9059 107.295 52.9059 106.324Z" fill="#3DAFD9"/>
<path d="M45.8765 95.7797C45.8765 99.6621 42.7292 102.809 38.8467 102.809C34.9642 102.809 31.8169 99.6621 31.8169 95.7797C31.8169 91.8973 34.9642 88.75 38.8467 88.75C42.7292 88.75 45.8765 91.8973 45.8765 95.7797Z" fill="#3DAFD9"/>
<path d="M44.1094 95.7791C44.1094 98.6909 41.7488 101.051 38.837 101.051C35.9252 101.051 33.5646 98.6909 33.5646 95.7791C33.5646 92.8673 35.9252 90.5068 38.837 90.5068C41.7488 90.5068 44.1094 92.8673 44.1094 95.7791Z" fill="#D6F3FF"/>
<path d="M52.905 84.9582C52.905 83.017 54.4787 81.4434 56.4199 81.4434H77.5094C79.4506 81.4434 81.0243 83.017 81.0243 84.9582V106.047C81.0243 107.988 79.4506 109.562 77.5094 109.562H56.4199C54.4787 109.562 52.905 107.988 52.905 106.047V84.9582Z" fill="#FCAFB2"/>
<path d="M81.0242 106.048C81.0242 107.989 79.4506 109.563 77.5095 109.563H56.4207C54.4796 109.563 52.9059 107.989 52.9059 106.048C52.9059 107.018 54.4796 107.805 56.4207 107.805H77.5095C79.4506 107.805 81.0242 107.018 81.0242 106.048Z" fill="#D8444A"/>
<path d="M72.1835 88.4202C72.6982 87.9055 73.5326 87.9055 74.0473 88.4202C74.5621 88.935 74.5621 89.7693 74.0473 90.2841L61.7452 102.586C61.2304 103.101 60.396 103.101 59.8813 102.586C59.3666 102.071 59.3666 101.237 59.8813 100.722L72.1835 88.4202Z" fill="#D8444A"/>
<path d="M59.8813 88.4202C60.396 87.9055 61.2304 87.9055 61.7452 88.4202L74.0473 100.722L74.0941 100.771C74.5617 101.288 74.546 102.087 74.0473 102.586C73.5486 103.085 72.7498 103.1 72.2324 102.633L72.1835 102.586L59.8813 90.2841C59.3666 89.7693 59.3666 88.935 59.8813 88.4202Z" fill="#D8444A"/>
</g>
<path d="M0.332031 0V4H360.332V0V-4H0.332031V0ZM360.332 220V216H0.332031V220V224H360.332V220Z" fill="#72B6F9" mask="url(#path-1-inside-1_1494_4687)"/>
<defs>
<clipPath id="clip0_1494_4687">
<path d="M0.332031 0H360.332V220H0.332031V0Z" fill="white"/>
</clipPath>
</defs>
</svg>
