<svg width="72" height="24" viewBox="0 0 72 24" fill="none" xmlns="http://www.w3.org/2000/svg">
<path d="M6.384 4.868C6.58667 4.868 6.73067 4.93733 6.816 5.076C6.912 5.204 6.96 5.35867 6.96 5.54C6.96 5.72133 6.912 5.88133 6.816 6.02C6.73067 6.148 6.58667 6.212 6.384 6.212H2.88C2.656 6.212 2.544 6.324 2.544 6.548V7.876H5.632C5.81333 7.876 5.94667 7.94 6.032 8.068C6.128 8.196 6.176 8.35067 6.176 8.532C6.176 8.70267 6.128 8.852 6.032 8.98C5.94667 9.108 5.81333 9.172 5.632 9.172H2.544V10.564C2.544 10.788 2.656 10.9 2.88 10.9C3.21067 10.9 3.55733 10.8947 3.92 10.884C4.28267 10.8733 4.64 10.8573 4.992 10.836C5.344 10.8147 5.68533 10.788 6.016 10.756C6.35733 10.724 6.66667 10.6867 6.944 10.644C7.12533 10.6227 7.26933 10.6707 7.376 10.788C7.48267 10.8947 7.54667 11.0387 7.568 11.22C7.58933 11.412 7.56267 11.5827 7.488 11.732C7.424 11.8707 7.30133 11.9507 7.12 11.972C6.71467 12.0467 6.09067 12.1107 5.248 12.164C4.40533 12.2067 3.39733 12.228 2.224 12.228C1.75467 12.228 1.42933 12.1427 1.248 11.972C1.07733 11.8013 0.992 11.492 0.992 11.044V6.068C0.992 5.60933 1.07733 5.29467 1.248 5.124C1.42933 4.95333 1.75467 4.868 2.224 4.868H6.384ZM12.336 4.052C12.528 4.052 12.6987 4.10533 12.848 4.212C13.008 4.308 13.088 4.46267 13.088 4.676V12.404C13.088 12.6173 13.008 12.7773 12.848 12.884C12.6987 12.98 12.528 13.028 12.336 13.028C12.1547 13.028 11.984 12.98 11.824 12.884C11.6747 12.7773 11.6 12.6173 11.6 12.404V4.676C11.6 4.46267 11.6747 4.308 11.824 4.212C11.984 4.10533 12.1547 4.052 12.336 4.052ZM9.472 4.132C9.65333 4.132 9.81867 4.18533 9.968 4.292C10.128 4.388 10.208 4.54267 10.208 4.756V12.324C10.208 12.5373 10.128 12.6973 9.968 12.804C9.81867 12.9 9.65333 12.948 9.472 12.948C9.28 12.948 9.104 12.9 8.944 12.804C8.79467 12.6973 8.72 12.5373 8.72 12.324V8.964H7.392C7.21067 8.964 7.072 8.9 6.976 8.772C6.89067 8.63333 6.848 8.468 6.848 8.276C6.848 8.084 6.89067 7.924 6.976 7.796C7.072 7.65733 7.21067 7.588 7.392 7.588H8.72V4.756C8.72 4.54267 8.79467 4.388 8.944 4.292C9.104 4.18533 9.28 4.132 9.472 4.132ZM11.856 13.716C12.3253 13.716 12.6453 13.8013 12.816 13.972C12.9973 14.1427 13.088 14.4573 13.088 14.916V18.26C13.088 18.4947 13.008 18.6653 12.848 18.772C12.688 18.8787 12.5013 18.932 12.288 18.932C12.0747 18.932 11.888 18.8787 11.728 18.772C11.568 18.6653 11.488 18.4947 11.488 18.26V15.412C11.488 15.1987 11.376 15.092 11.152 15.092H3.632C3.42933 15.092 3.28 15.0227 3.184 14.884C3.09867 14.7453 3.056 14.5853 3.056 14.404C3.056 14.2227 3.09867 14.0627 3.184 13.924C3.28 13.7853 3.42933 13.716 3.632 13.716H11.856ZM21.6825 4.724C21.8958 4.724 22.0825 4.77733 22.2425 4.884C22.4132 4.99067 22.4985 5.16667 22.4985 5.412V6.34C22.4985 6.68133 22.5252 6.98533 22.5785 7.252C22.6318 7.51867 22.7172 7.76933 22.8345 8.004C22.9625 8.228 23.1225 8.44133 23.3145 8.644C23.5172 8.836 23.7678 9.028 24.0665 9.22C24.5465 9.52933 25.0372 9.83333 25.5385 10.132C26.0398 10.42 26.5518 10.7133 27.0745 11.012C27.2345 11.0973 27.3198 11.2413 27.3305 11.444C27.3412 11.636 27.3038 11.8067 27.2185 11.956C27.1118 12.1267 26.9732 12.244 26.8025 12.308C26.6318 12.372 26.4558 12.3613 26.2745 12.276C25.7625 11.9987 25.2558 11.7107 24.7545 11.412C24.2532 11.1133 23.7785 10.8147 23.3305 10.516C22.7865 10.1747 22.3918 9.87067 22.1465 9.604C21.9012 9.32667 21.7518 9.08667 21.6985 8.884H21.6825C21.6292 9.09733 21.4745 9.34267 21.2185 9.62C20.9732 9.89733 20.5785 10.2067 20.0345 10.548C19.5865 10.836 19.1118 11.1347 18.6105 11.444C18.1092 11.7427 17.6025 12.0307 17.0905 12.308C16.9198 12.3933 16.7438 12.404 16.5625 12.34C16.3918 12.276 16.2532 12.1587 16.1465 11.988C16.0505 11.828 16.0078 11.6467 16.0185 11.444C16.0398 11.2413 16.1305 11.0973 16.2905 11.012C16.8132 10.7133 17.3252 10.42 17.8265 10.132C18.3278 9.83333 18.8185 9.52933 19.2985 9.22C19.5972 9.028 19.8425 8.836 20.0345 8.644C20.2372 8.44133 20.3972 8.228 20.5145 8.004C20.6425 7.76933 20.7332 7.51867 20.7865 7.252C20.8398 6.98533 20.8665 6.68133 20.8665 6.34V5.412C20.8665 5.16667 20.9465 4.99067 21.1065 4.884C21.2772 4.77733 21.4692 4.724 21.6825 4.724ZM27.8425 15.108C28.0345 15.108 28.1732 15.1773 28.2585 15.316C28.3545 15.444 28.4025 15.604 28.4025 15.796C28.4025 15.9773 28.3545 16.1373 28.2585 16.276C28.1732 16.4147 28.0345 16.484 27.8425 16.484H15.5225C15.3305 16.484 15.1865 16.4147 15.0905 16.276C15.0052 16.1373 14.9625 15.9773 14.9625 15.796C14.9625 15.604 15.0052 15.444 15.0905 15.316C15.1865 15.1773 15.3305 15.108 15.5225 15.108H27.8425ZM40.389 4.948C40.581 4.948 40.7197 5.01733 40.805 5.156C40.901 5.29467 40.949 5.45467 40.949 5.636C40.949 5.81733 40.901 5.97733 40.805 6.116C40.7197 6.244 40.581 6.308 40.389 6.308H33.093C32.965 6.308 32.8743 6.33467 32.821 6.388C32.7783 6.44133 32.757 6.52667 32.757 6.644V8.196H40.229C40.421 8.196 40.5597 8.26533 40.645 8.404C40.741 8.532 40.789 8.68133 40.789 8.852C40.789 9.03333 40.741 9.188 40.645 9.316C40.5597 9.444 40.421 9.508 40.229 9.508H32.757V11.076C32.757 11.1933 32.7783 11.2787 32.821 11.332C32.8743 11.3853 32.965 11.412 33.093 11.412H40.661C40.853 11.412 40.9917 11.4813 41.077 11.62C41.173 11.748 41.221 11.9027 41.221 12.084C41.221 12.2653 41.173 12.4253 41.077 12.564C40.9917 12.692 40.853 12.756 40.661 12.756H32.421C31.9517 12.756 31.6263 12.676 31.445 12.516C31.2743 12.3453 31.189 12.0307 31.189 11.572V6.148C31.189 5.68933 31.2743 5.37467 31.445 5.204C31.6263 5.03333 31.9517 4.948 32.421 4.948H40.389ZM42.245 15.108C42.437 15.108 42.5757 15.1773 42.661 15.316C42.757 15.444 42.805 15.604 42.805 15.796C42.805 15.9773 42.757 16.1373 42.661 16.276C42.5757 16.4147 42.437 16.484 42.245 16.484H29.925C29.733 16.484 29.589 16.4147 29.493 16.276C29.4077 16.1373 29.365 15.9773 29.365 15.796C29.365 15.604 29.4077 15.444 29.493 15.316C29.589 15.1773 29.733 15.108 29.925 15.108H42.245Z" fill="#BAC3CB"/>
<path d="M57 18L63 12L57 6" stroke="#BAC3CB" stroke-width="2" stroke-linecap="round" stroke-linejoin="round"/>
</svg>
