<svg width="128" height="220" viewBox="0 0 128 220" fill="none" xmlns="http://www.w3.org/2000/svg">
<path d="M89.3688 115.515C88.8521 115.592 88.3704 115.236 88.293 114.719C86.7437 104.385 93.8649 94.7522 104.199 93.2029L120.358 90.7803C120.874 90.7028 121.356 91.0589 121.433 91.5756C122.983 101.909 115.861 111.543 105.528 113.092L89.3688 115.515Z" fill="#FFE1EA"/>
<path d="M126.249 130.073C126.765 129.996 127.121 129.514 127.044 128.998C125.495 118.664 115.861 111.542 105.528 113.092L89.3688 115.514C88.8521 115.592 88.4961 116.074 88.5735 116.59C90.1228 126.924 99.756 134.045 110.09 132.496L126.249 130.073Z" fill="#FFE1EA"/>
<path d="M38.2417 115.516C38.7584 115.594 39.1144 116.076 39.0369 116.592C37.487 126.926 27.8534 134.047 17.5197 132.497L1.361 130.073C0.844318 129.996 0.488284 129.514 0.56578 128.997C2.1157 118.664 11.7493 111.543 22.083 113.093L38.2417 115.516Z" fill="#FFE1EA"/>
<path d="M7.25476 90.78C6.73807 90.7025 6.25639 91.0585 6.1789 91.5752C4.62898 101.909 11.7497 111.543 22.0834 113.092L38.2421 115.516C38.7588 115.594 39.2404 115.237 39.3179 114.721C40.8678 104.387 33.7472 94.7535 23.4134 93.2035L7.25476 90.78Z" fill="#FFE1EA"/>
<path d="M79.9786 0.782409C92.9464 4.3096 100.6 17.6815 97.0724 30.6494L88.9436 60.5353C87.0919 67.3435 80.0716 71.3614 73.2635 69.5096C66.4554 67.6578 62.4374 60.6376 64.2892 53.8295L78.4852 1.6371C78.6616 0.988708 79.3302 0.60605 79.9786 0.782409Z" fill="#FFA1B8"/>
<path d="M73.6565 22.4402C82.1915 24.7616 87.2286 33.5625 84.9071 42.0975L79.3694 62.457C78.1507 66.9378 73.5302 69.5823 69.0493 68.3635C64.5685 67.1448 61.924 62.5243 63.1428 58.0434L72.6737 23.0027C72.7897 22.576 73.2298 22.3241 73.6565 22.4402Z" fill="#F05F83"/>
<path d="M25.3251 6.85106C38.2927 3.32297 51.6651 10.9752 55.1932 23.9429L61.2473 46.1949C63.0996 53.0029 59.0821 60.0234 52.2741 61.8757C45.4661 63.7279 38.4456 59.7105 36.5933 52.9025L24.4705 8.34447C24.2941 7.69609 24.6767 7.02746 25.3251 6.85106Z" fill="#FFA1B8"/>
<path d="M30.8455 28.7269C39.3804 26.4049 48.1816 31.4413 50.5037 39.9761L56.0427 60.3352C57.2618 64.816 54.6177 69.4366 50.1369 70.6557C45.6561 71.8748 41.0355 69.2307 39.8164 64.7499L30.2831 29.7098C30.167 29.2831 30.4188 28.843 30.8455 28.7269Z" fill="#F05F83"/>
<path d="M63.8051 48.7729C83.9018 48.773 100.194 65.0648 100.194 85.1616V172.178H78.3441V168.117C78.3439 160.087 71.8346 153.578 63.8051 153.578C55.7753 153.578 49.2652 160.087 49.265 168.117V172.178H27.4164V85.1616C27.4164 65.0648 43.7082 48.7729 63.8051 48.7729Z" fill="#FFA1B8"/>
<ellipse cx="63.8054" cy="168.024" rx="10.6024" ry="10.6003" transform="rotate(-17.159 63.8054 168.024)" fill="#FFA1B8"/>
<rect width="21.8492" height="12.3345" transform="matrix(-1 0 0 1 49.2661 172.178)" fill="#FFA1B8"/>
<rect width="21.8492" height="12.3345" transform="matrix(-1 0 0 1 100.194 172.178)" fill="#FFA1B8"/>
<path d="M63.8063 122.627C76.3738 122.627 86.562 132.815 86.5621 145.383V175.647H78.2672C76.8482 169.105 71.0273 164.204 64.0602 164.204C57.0929 164.204 51.2712 169.105 49.8522 175.647H41.0494V145.383C41.0495 132.815 51.2385 122.627 63.8063 122.627Z" fill="#F05F83"/>
<path d="M119.628 214.323C119.628 217.032 117.431 219.229 114.721 219.229H12.8894C10.1795 219.229 7.98265 217.032 7.98265 214.323C7.98265 211.614 10.1795 209.417 12.8894 209.417H114.721C117.431 209.417 119.628 211.614 119.628 214.323Z" fill="#72B6F9"/>
<rect x="44.9293" y="151.298" width="44.0157" height="17.4871" rx="8.74354" transform="rotate(-113.16 44.9293 151.298)" fill="#FF7F9D"/>
<rect x="99.9916" y="110.099" width="44.0157" height="17.4871" rx="8.74354" transform="rotate(113.161 99.9916 110.099)" fill="#FF7F9D"/>
<path d="M52.2438 56.9137C52.2438 54.0287 54.5825 51.6899 57.4675 51.6899H70.1447C73.0297 51.6899 75.3684 54.0287 75.3684 56.9137H52.2438Z" fill="#7FD8FF"/>
<path d="M63.0515 43.0412C63.4376 42.4238 64.1874 42.4238 64.5735 43.0412L72.0639 55.0194C72.5571 55.8081 72.1057 56.9579 71.3029 56.9579H56.3221C55.5193 56.9579 55.0679 55.8081 55.5611 55.0194L63.0515 43.0412Z" fill="#7FD8FF"/>
<path d="M75.3673 56.9141H67.8791C67.0763 56.9141 66.6244 55.9167 67.1173 55.2324L74.6076 44.8389C74.8003 44.5715 75.0839 44.437 75.3673 44.4365V56.9141Z" fill="#7FD8FF"/>
<path d="M52.2432 56.9141H59.7334C60.5358 56.9137 60.9869 55.9166 60.4942 55.2324L53.004 44.8389C52.811 44.5712 52.527 44.4367 52.2432 44.4365V56.9141Z" fill="#7FD8FF"/>
<rect width="8.75084" height="8.86539" transform="matrix(-1 0 0 1 49.8002 175.647)" fill="#F05F83"/>
<rect width="8.21685" height="8.86539" transform="matrix(-1 0 0 1 86.5618 175.647)" fill="#F05F83"/>
<path d="M71.7297 85.8007C83.0894 83.8381 93.9366 91.4477 95.9575 102.797C97.9784 114.147 90.4078 124.938 79.048 126.901L21.3873 136.863C20.3054 137.05 19.2723 136.325 19.0799 135.244C15.2305 113.626 29.6508 93.0707 51.2884 89.3324L71.7297 85.8007Z" fill="#4C98F5"/>
<rect x="15.6401" y="111.268" width="40.4774" height="96.3298" rx="20.2387" transform="rotate(-90 15.6401 111.268)" fill="#FFA1B8"/>
<path d="M75.6707 77.4881C75.6707 83.1699 71.0647 87.7759 65.3829 87.7759H61.7374C56.3262 87.7759 51.9395 83.3892 51.9395 77.978C51.9395 77.7074 52.1589 77.4881 52.4294 77.4881H75.6707Z" fill="#F05F83"/>
<path d="M60.3248 76.3432C60.3248 74.4213 61.8828 72.8633 63.8047 72.8633C65.7266 72.8633 67.2846 74.4213 67.2846 76.3432V77.504H60.3248V76.3432Z" fill="#3D4650"/>
<path d="M68.9182 69.7573C69.0779 67.8481 70.755 66.4297 72.6643 66.5893C74.5736 66.749 75.9919 68.4261 75.8323 70.3354L75.7792 70.9697C75.7698 71.0827 75.6706 71.1667 75.5576 71.1572L69.0527 70.6133C68.9397 70.6039 68.8558 70.5046 68.8652 70.3917L68.9182 69.7573Z" fill="#3D4650"/>
<path d="M51.7921 70.3354C51.6325 68.4262 53.0508 66.749 54.9601 66.5893C56.8693 66.4297 58.5465 67.848 58.7062 69.7573L58.7592 70.3916C58.7687 70.5046 58.6847 70.6038 58.5718 70.6133L52.0668 71.1572C51.9539 71.1667 51.8546 71.0828 51.8452 70.9698L51.7921 70.3354Z" fill="#3D4650"/>
<path d="M55.228 77.5039H64.6964V89.0289C64.6964 90.1334 63.801 91.0289 62.6964 91.0289H57.228C56.1235 91.0289 55.228 90.1334 55.228 89.0289V77.5039Z" fill="#EBF9FF"/>
<rect x="67.2847" y="111.268" width="40.4774" height="44.6854" rx="20.2387" transform="rotate(-90 67.2847 111.268)" fill="#FFA1B8"/>
<path d="M112.784 65.6771C114.938 64.9887 116.125 62.6851 115.437 60.5319C114.748 58.3787 112.445 57.1912 110.292 57.8796C108.138 58.5679 106.951 60.8715 107.639 63.0247C108.328 65.178 110.631 66.3654 112.784 65.6771Z" fill="#94E0FF"/>
<path d="M104.844 63.2C104.439 63.6541 104.67 64.3761 105.264 64.511L111.141 65.8473C111.744 65.9844 112.267 65.4139 112.079 64.8249L110.214 58.9907C110.026 58.4017 109.268 58.2407 108.857 58.7021L104.844 63.2Z" fill="#94E0FF"/>
<path d="M110.789 52.486C111.543 51.1844 111.1 49.5175 109.799 48.7628C108.497 48.0081 106.83 48.4515 106.075 49.7531C105.321 51.0547 105.764 52.7216 107.066 53.4763C108.367 54.231 110.034 53.7876 110.789 52.486Z" fill="#94E0FF"/>
<path d="M105.765 54.8115C105.768 55.2165 106.205 55.4695 106.558 55.271L110.054 53.3044C110.413 53.1026 110.416 52.5873 110.06 52.3809L106.534 50.3361C106.177 50.1296 105.732 50.3886 105.735 50.8001L105.765 54.8115Z" fill="#94E0FF"/>
<path d="M76.1 184.174C75.6651 183.321 76.0041 182.277 76.857 181.842L94.5407 172.826C101.833 169.109 110.758 172.006 114.476 179.299C114.662 179.663 114.517 180.11 114.153 180.295L86.8353 194.222C84.3752 195.477 81.3641 194.499 80.1098 192.039L76.1 184.174Z" fill="#FF7F9D"/>
<path d="M52.6966 181.324C53.0624 180.439 52.6416 179.426 51.7569 179.06L33.4132 171.477C25.8488 168.35 17.1816 171.947 14.0545 179.511C13.8981 179.889 14.078 180.323 14.4562 180.479L42.7929 192.193C45.3449 193.248 48.2689 192.035 49.3239 189.483L52.6966 181.324Z" fill="#FF7F9D"/>
</svg>
