<svg width="219" height="211" viewBox="0 0 219 211" fill="none" xmlns="http://www.w3.org/2000/svg">
<rect x="135.364" y="193.522" width="97.5539" height="8.57489" rx="4.28745" transform="rotate(180 135.364 193.522)" fill="#FFC3D3"/>
<path d="M100.197 134.905C108.536 139.859 122.992 156.033 114.107 181.101" stroke="#3D4650" stroke-width="12" stroke-linecap="round"/>
<path d="M111.06 140.714C103.162 135.085 82.5292 128.387 63.1803 146.634" stroke="#3D4650" stroke-width="12" stroke-linecap="round"/>
<rect x="145.832" y="50.7236" width="31.3413" height="4.6195" rx="2.30975" transform="rotate(123.65 145.832 50.7236)" fill="#3D4650"/>
<rect x="177.779" y="71.9883" width="31.3413" height="4.6195" rx="2.30975" transform="rotate(123.65 177.779 71.9883)" fill="#3D4650"/>
<rect x="174.898" y="105.084" width="10.675" height="4.6195" rx="2.30975" transform="rotate(168.074 174.898 105.084)" fill="#3D4650"/>
<rect x="123.532" y="69.1416" width="10.675" height="4.6195" rx="2.30975" transform="rotate(-101.926 123.532 69.1416)" fill="#3D4650"/>
<path d="M154.024 46.1211L144.608 60.2663L133.656 52.9757L135.781 49.7831C139.807 43.7342 147.975 42.0946 154.024 46.1211Z" fill="#3D4650"/>
<path d="M185.969 67.3857L176.554 81.5309L165.601 74.2404L167.726 71.0477C171.753 64.9988 179.92 63.3593 185.969 67.3857Z" fill="#3D4650"/>
<rect x="158.418" y="200.911" width="95.2852" height="8.37547" rx="4.18774" transform="rotate(180 158.418 200.911)" fill="#FAFBFC"/>
<rect x="183.975" y="89.9111" width="105.745" height="73.1742" rx="36.5871" transform="rotate(123.65 183.975 89.9111)" fill="#3D4650"/>
<path d="M148.403 123.823C150.272 131.335 159.31 146.102 180.512 145.074" stroke="#3D4650" stroke-width="8" stroke-linecap="round"/>
<path d="M106.937 100.819C99.2506 99.898 83.475 92.7647 81.8603 71.5994" stroke="#3D4650" stroke-width="8" stroke-linecap="round"/>
<rect width="17.8249" height="17.6949" rx="4" transform="matrix(0.997617 -0.068988 -0.068988 -0.997617 180.906 152.153)" fill="#3D4650"/>
<rect x="74.7867" y="72.0879" width="17.8249" height="17.6949" rx="4" transform="rotate(-93.1818 74.7867 72.0879)" fill="#3D4650"/>
<path d="M128.044 197.091C131.147 187.405 125.811 177.037 116.125 173.934L110.237 172.047L104.618 189.585L128.044 197.091Z" fill="#3D4650"/>
<path d="M42.9262 140.337C50.5353 133.588 62.1748 134.286 68.9238 141.895L73.0262 146.52L59.2486 158.74L42.9262 140.337Z" fill="#3D4650"/>
<rect x="136.156" y="101.406" width="12.3847" height="3.59919" rx="1.7996" transform="rotate(169.105 136.156 101.406)" fill="#FAFBFC"/>
<rect x="117.418" y="89.043" width="12.3847" height="3.59919" rx="1.7996" transform="rotate(169.105 117.418 89.043)" fill="#FAFBFC"/>
<rect x="129.223" y="107.237" width="12.3847" height="3.59919" rx="1.7996" transform="rotate(-100.895 129.223 107.237)" fill="#FAFBFC"/>
<rect x="110.487" y="94.874" width="12.3847" height="3.59919" rx="1.7996" transform="rotate(-100.895 110.487 94.874)" fill="#FAFBFC"/>
<path d="M95.6138 112.553C99.4113 106.847 107.115 105.301 112.82 109.099L113.847 109.783C119.552 113.58 121.099 121.284 117.301 126.989L95.6138 112.553Z" fill="#E04D73"/>
<path d="M121.436 118.491C122.962 116.199 122.341 113.104 120.049 111.578L103.565 100.606L100.803 104.756L121.436 118.491Z" fill="#EBF9FF"/>
<path d="M110.018 116.66C112.311 118.186 115.405 117.565 116.931 115.273L119.593 111.274L115.442 108.512L110.018 116.66Z" fill="#EBF9FF"/>
<rect width="40.231" height="24.2684" transform="matrix(0.943116 0.332465 0.332465 -0.943116 94.5681 71.8926)" fill="#A6D3FD"/>
<rect width="6.42383" height="24.2684" transform="matrix(0.943116 0.332465 0.332465 -0.943116 99.4045 73.5977)" fill="#EAF4FF"/>
<rect width="6.42383" height="24.2684" transform="matrix(0.943116 0.332465 0.332465 -0.943116 110.51 77.5127)" fill="#EAF4FF"/>
<rect width="6.42383" height="24.2684" transform="matrix(0.943116 0.332465 0.332465 -0.943116 121.616 81.4277)" fill="#EAF4FF"/>
<rect width="143.542" height="14.1" transform="matrix(0.943116 0.332465 0.332465 -0.943116 7.37036 20.1309)" fill="#4C98F5"/>
<path d="M102.203 38.611C103.392 35.2406 107.087 33.4715 110.457 34.6596L143.483 46.3019C146.854 47.49 148.623 51.1854 147.435 54.5558L102.203 38.611Z" fill="#4C98F5"/>
<path d="M206.232 51.8686C212.783 49.7743 216.395 42.7663 214.301 36.2156C212.207 29.665 205.199 26.0523 198.648 28.1466C192.097 30.2408 188.485 37.2488 190.579 43.7995C192.673 50.3501 199.681 53.9628 206.232 51.8686Z" fill="#7FD8FF"/>
<path d="M182.076 44.3327C180.844 45.714 181.546 47.9106 183.351 48.321L201.231 52.3863C203.066 52.8034 204.658 51.0679 204.085 49.2758L198.411 31.5268C197.838 29.7348 195.534 29.245 194.282 30.649L182.076 44.3327Z" fill="#7FD8FF"/>
<circle cx="92.5882" cy="179.729" r="20.0416" fill="#94E0FF"/>
<circle cx="77.5579" cy="184.446" r="16.7166" fill="#94E0FF"/>
<circle cx="107.254" cy="196.033" r="12.9797" fill="#94E0FF"/>
<circle cx="128.746" cy="148.642" r="8.51209" fill="#94E0FF"/>
<circle cx="132.03" cy="157.299" r="4.37536" fill="#94E0FF"/>
<circle cx="145.262" cy="139.206" r="4.37536" fill="#94E0FF"/>
<circle cx="59.6308" cy="173.381" r="7.66251" fill="#94E0FF"/>
<circle cx="98.1147" cy="175.392" r="7.66251" fill="#D6F3FF"/>
<circle cx="72.2527" cy="178.094" r="4.95972" fill="#D6F3FF"/>
<circle cx="126.669" cy="146.835" r="3.25257" fill="#D6F3FF"/>
<circle cx="132.278" cy="193.298" r="17.501" fill="#94E0FF"/>
<circle cx="145.788" cy="179.403" r="8.4715" fill="#94E0FF"/>
<circle cx="170.317" cy="197.365" r="5.42969" fill="#94E0FF"/>
<circle cx="127.377" cy="189.818" r="7.54651" fill="#D6F3FF"/>
</svg>
