<svg width="24" height="24" viewBox="0 0 24 24" fill="none" xmlns="http://www.w3.org/2000/svg">
<path d="M16.5 9C16.5 7.67392 15.9732 6.40215 15.0355 5.46447C14.0979 4.52678 12.8261 4 11.5 4C10.1739 4 8.90215 4.52678 7.96447 5.46447C7.02678 6.40215 6.5 7.67392 6.5 9C6.5 14.8333 4 16.5 4 16.5H19C19 16.5 16.5 14.8333 16.5 9Z" stroke="currentColor" stroke-width="1.5" stroke-linecap="round" stroke-linejoin="round"/>
<path d="M12.9419 18.5C12.7954 18.7526 12.5851 18.9622 12.3321 19.1079C12.0791 19.2537 11.7922 19.3304 11.5003 19.3304C11.2083 19.3304 10.9214 19.2537 10.6684 19.1079C10.4154 18.9622 10.2051 18.7526 10.0586 18.5" stroke="currentColor" stroke-width="1.5" stroke-linecap="round" stroke-linejoin="round"/>
</svg>
