<svg width="320" height="67" viewBox="0 0 320 67" fill="none" xmlns="http://www.w3.org/2000/svg">
<g filter="url(#filter0_d_862_7831)">
<rect width="320" height="64" rx="8" fill="#D6F3FF" shape-rendering="crispEdges"/>
<rect x="1" y="1" width="318" height="62" rx="7" stroke="#3DAFD9" stroke-width="2" shape-rendering="crispEdges"/>
<rect x="28" y="13" width="8" height="8" fill="#CC8753"/>
<rect x="26" y="11" width="12" height="4" fill="#CC8753"/>
<path d="M17.171 25.4857C15.6089 23.9236 15.6089 21.3909 17.171 19.8288C18.7331 18.2667 21.2657 18.2667 22.8278 19.8288L25.6562 22.6572L19.9994 28.3141L17.171 25.4857Z" fill="#FFB67A"/>
<path d="M46.8284 25.4853C48.3905 23.9232 48.3905 21.3905 46.8284 19.8284C45.2663 18.2663 42.7337 18.2663 41.1716 19.8284L38.3432 22.6569L44 28.3137L46.8284 25.4853Z" fill="#FFB67A"/>
<circle cx="32" cy="35" r="18" fill="#FFB67A"/>
<circle cx="32" cy="35" r="14" fill="#E69F66"/>
<circle cx="32" cy="35" r="12" fill="#FFE8D7"/>
<path d="M23.5146 26.5147C28.2009 21.8284 35.7988 21.8284 40.4851 26.5147L23.5146 43.4853C18.8283 38.799 18.8283 31.201 23.5146 26.5147Z" fill="#FFD0AE"/>
<circle cx="32" cy="35" r="3" fill="#854D33"/>
<path d="M33 23V26C33 26.5523 32.5523 27 32 27C31.4477 27 31 26.5523 31 26V23H33Z" fill="#CC8753"/>
<path d="M32 43C32.5523 43 33 43.4477 33 44V47H31V44C31 43.4477 31.4477 43 32 43Z" fill="#CC8753"/>
<path d="M44 36H41C40.4477 36 40 35.5523 40 35C40 34.4477 40.4477 34 41 34H44V36Z" fill="#CC8753"/>
<path d="M24 35C24 35.5523 23.5523 36 23 36H20V34H23C23.5523 34 24 34.4477 24 35Z" fill="#CC8753"/>
<path d="M64.84 27.14C64.84 26.4867 64.94 25.88 65.14 25.32C65.34 24.76 65.64 24.28 66.04 23.88C66.44 23.4667 66.94 23.1467 67.54 22.92C68.14 22.6933 68.8333 22.58 69.62 22.58C70.4067 22.58 71.1 22.6933 71.7 22.92C72.3 23.1467 72.8 23.4667 73.2 23.88C73.6 24.28 73.9 24.76 74.1 25.32C74.3 25.88 74.4 26.4867 74.4 27.14C74.4 27.8067 74.3 28.42 74.1 28.98C73.9 29.5267 73.6 30.0067 73.2 30.42C72.8 30.82 72.3 31.1333 71.7 31.36C71.1 31.5867 70.4067 31.7 69.62 31.7C68.8333 31.7 68.14 31.5867 67.54 31.36C66.94 31.1333 66.44 30.82 66.04 30.42C65.64 30.0067 65.34 29.5267 65.14 28.98C64.94 28.42 64.84 27.8067 64.84 27.14ZM71.96 27.14C71.96 26.8067 71.9133 26.4933 71.82 26.2C71.74 25.8933 71.6067 25.6333 71.42 25.42C71.2333 25.1933 70.9933 25.02 70.7 24.9C70.4067 24.7667 70.0467 24.7 69.62 24.7C69.1933 24.7 68.8333 24.7667 68.54 24.9C68.2467 25.02 68.0067 25.1933 67.82 25.42C67.6333 25.6333 67.4933 25.8933 67.4 26.2C67.32 26.4933 67.28 26.8067 67.28 27.14C67.28 27.4867 67.32 27.8067 67.4 28.1C67.4933 28.3933 67.6333 28.6533 67.82 28.88C68.0067 29.0933 68.2467 29.2667 68.54 29.4C68.8333 29.52 69.1933 29.58 69.62 29.58C70.0467 29.58 70.4067 29.52 70.7 29.4C70.9933 29.2667 71.2333 29.0933 71.42 28.88C71.6067 28.6533 71.74 28.3933 71.82 28.1C71.9133 27.8067 71.96 27.4867 71.96 27.14ZM79.1 24.42H80.82C81.1267 24.42 81.3533 24.5267 81.5 24.74C81.6467 24.9533 81.72 25.2133 81.72 25.52C81.72 25.8133 81.6467 26.0667 81.5 26.28C81.3533 26.4933 81.1267 26.6 80.82 26.6H79.1V27.82H80.82C81.1267 27.82 81.3533 27.9267 81.5 28.14C81.6467 28.3533 81.72 28.6133 81.72 28.92C81.72 29.2133 81.6467 29.4667 81.5 29.68C81.3533 29.8933 81.1267 30 80.82 30H79.1V31.78C79.1 32.1533 78.9667 32.4267 78.7 32.6C78.4467 32.7733 78.1533 32.86 77.82 32.86C77.4867 32.86 77.1867 32.7733 76.92 32.6C76.6667 32.4267 76.54 32.1533 76.54 31.78V22.92C76.54 22.5467 76.6667 22.2733 76.92 22.1C77.1867 21.9267 77.4867 21.84 77.82 21.84C78.1533 21.84 78.4467 21.9267 78.7 22.1C78.9667 22.2733 79.1 22.5467 79.1 22.92V24.42ZM67.36 36.86C67.36 35.5667 67.88 34.6 68.92 33.96C69.9733 33.3067 71.42 32.98 73.26 32.98C75.1 32.98 76.54 33.3067 77.58 33.96C78.6333 34.6 79.16 35.5667 79.16 36.86C79.16 38.1667 78.6333 39.14 77.58 39.78C76.54 40.42 75.1 40.74 73.26 40.74C71.42 40.74 69.9733 40.42 68.92 39.78C67.88 39.14 67.36 38.1667 67.36 36.86ZM76.62 36.86C76.62 36.3133 76.36 35.8733 75.84 35.54C75.3333 35.1933 74.4733 35.02 73.26 35.02C72.6467 35.02 72.1267 35.0667 71.7 35.16C71.2733 35.24 70.9267 35.36 70.66 35.52C70.3933 35.68 70.2 35.8733 70.08 36.1C69.96 36.3267 69.9 36.58 69.9 36.86C69.9 37.14 69.96 37.3933 70.08 37.62C70.2 37.8467 70.3933 38.04 70.66 38.2C70.9267 38.36 71.2733 38.48 71.7 38.56C72.1267 38.6533 72.6467 38.7 73.26 38.7C74.4733 38.7 75.3333 38.5267 75.84 38.18C76.36 37.8467 76.62 37.4067 76.62 36.86ZM89.9031 26.46V27.46C89.9031 27.8733 89.9231 28.2333 89.9631 28.54C90.0165 28.8467 90.0965 29.1333 90.2031 29.4C90.3098 29.6533 90.4565 29.9067 90.6431 30.16C90.8298 30.4 91.0631 30.66 91.3431 30.94C91.7431 31.34 92.1231 31.7067 92.4831 32.04C92.8431 32.3733 93.1831 32.68 93.5031 32.96C93.7431 33.1733 93.8365 33.44 93.7831 33.76C93.7431 34.0667 93.6231 34.32 93.4231 34.52C93.2231 34.72 92.9765 34.8467 92.6831 34.9C92.3898 34.9533 92.1231 34.8733 91.8831 34.66C91.6165 34.4333 91.3298 34.1733 91.0231 33.88C90.7165 33.5733 90.3831 33.24 90.0231 32.88C89.7565 32.6267 89.5365 32.4067 89.3631 32.22C89.2031 32.0333 89.0698 31.88 88.9631 31.76C88.8698 31.6267 88.7965 31.5133 88.7431 31.42C88.6898 31.3133 88.6565 31.2133 88.6431 31.12H88.6231C88.5965 31.24 88.5565 31.3533 88.5031 31.46C88.4631 31.5667 88.3898 31.6933 88.2831 31.84C88.1898 31.9733 88.0565 32.1333 87.8831 32.32C87.7231 32.4933 87.5098 32.7067 87.2431 32.96C86.8831 33.3067 86.5231 33.6467 86.1631 33.98C85.8165 34.3133 85.4498 34.64 85.0631 34.96C84.7965 35.1733 84.5098 35.24 84.2031 35.16C83.8965 35.0667 83.6498 34.9133 83.4631 34.7C83.2765 34.4733 83.1765 34.2133 83.1631 33.92C83.1498 33.6133 83.2698 33.3533 83.5231 33.14C83.9498 32.78 84.3498 32.4267 84.7231 32.08C85.1098 31.72 85.5031 31.34 85.9031 30.94C86.1831 30.66 86.4165 30.4 86.6031 30.16C86.7898 29.9067 86.9365 29.6533 87.0431 29.4C87.1498 29.1333 87.2231 28.8467 87.2631 28.54C87.3165 28.2333 87.3431 27.8733 87.3431 27.46V26.46H84.2231C83.9165 26.46 83.6898 26.3533 83.5431 26.14C83.3965 25.9267 83.3231 25.6733 83.3231 25.38C83.3231 25.0733 83.3965 24.8133 83.5431 24.6C83.6898 24.3867 83.9165 24.28 84.2231 24.28H87.3431V22.86C87.3431 22.4867 87.4698 22.2133 87.7231 22.04C87.9898 21.8667 88.2898 21.78 88.6231 21.78C88.9565 21.78 89.2498 21.8667 89.5031 22.04C89.7698 22.2133 89.9031 22.4867 89.9031 22.86V24.28H92.8631C93.1698 24.28 93.3965 24.3867 93.5431 24.6C93.6898 24.8133 93.7631 25.0733 93.7631 25.38C93.7631 25.6733 93.6898 25.9267 93.5431 26.14C93.3965 26.3533 93.1698 26.46 92.8631 26.46H89.9031ZM97.9631 38.24C97.9631 38.6133 97.8298 38.8867 97.5631 39.06C97.3098 39.2333 97.0098 39.32 96.6631 39.32C96.3298 39.32 96.0298 39.2333 95.7631 39.06C95.5098 38.8867 95.3831 38.6133 95.3831 38.24V22.92C95.3831 22.5467 95.5098 22.2733 95.7631 22.1C96.0298 21.9267 96.3298 21.84 96.6631 21.84C97.0098 21.84 97.3098 21.9267 97.5631 22.1C97.8298 22.2733 97.9631 22.5467 97.9631 22.92V38.24ZM105.646 26.6C105.646 25.9867 105.746 25.42 105.946 24.9C106.16 24.38 106.466 23.9333 106.866 23.56C107.28 23.1867 107.78 22.9 108.366 22.7C108.966 22.4867 109.653 22.38 110.426 22.38C111.2 22.38 111.88 22.4867 112.466 22.7C113.066 22.9 113.566 23.1867 113.966 23.56C114.38 23.9333 114.686 24.38 114.886 24.9C115.1 25.42 115.206 25.9867 115.206 26.6C115.206 27.2133 115.1 27.78 114.886 28.3C114.686 28.82 114.38 29.2667 113.966 29.64C113.566 30.0133 113.066 30.3067 112.466 30.52C111.88 30.72 111.2 30.82 110.426 30.82C109.653 30.82 108.966 30.72 108.366 30.52C107.78 30.3067 107.28 30.0133 106.866 29.64C106.466 29.2667 106.16 28.82 105.946 28.3C105.746 27.78 105.646 27.2133 105.646 26.6ZM112.766 26.6C112.766 26.3067 112.72 26.0333 112.626 25.78C112.546 25.5133 112.406 25.28 112.206 25.08C112.02 24.88 111.78 24.7267 111.486 24.62C111.193 24.5 110.84 24.44 110.426 24.44C110.013 24.44 109.66 24.5 109.366 24.62C109.073 24.7267 108.826 24.88 108.626 25.08C108.44 25.28 108.3 25.5133 108.206 25.78C108.126 26.0333 108.086 26.3067 108.086 26.6C108.086 26.8933 108.126 27.1733 108.206 27.44C108.3 27.6933 108.44 27.92 108.626 28.12C108.826 28.32 109.073 28.48 109.366 28.6C109.66 28.7067 110.013 28.76 110.426 28.76C110.84 28.76 111.193 28.7067 111.486 28.6C111.78 28.48 112.02 28.32 112.206 28.12C112.406 27.92 112.546 27.6933 112.626 27.44C112.72 27.1733 112.766 26.8933 112.766 26.6ZM121.786 25.5C122.106 25.5 122.34 25.6067 122.486 25.82C122.633 26.0333 122.706 26.2933 122.706 26.6C122.706 26.9067 122.633 27.1733 122.486 27.4C122.34 27.6133 122.106 27.72 121.786 27.72H119.906V30.3C119.906 30.6733 119.773 30.9467 119.506 31.12C119.253 31.2933 118.96 31.38 118.626 31.38C118.293 31.38 117.993 31.2933 117.726 31.12C117.473 30.9467 117.346 30.6733 117.346 30.3V22.92C117.346 22.5467 117.473 22.2733 117.726 22.1C117.993 21.9267 118.293 21.84 118.626 21.84C118.96 21.84 119.253 21.9267 119.506 22.1C119.773 22.2733 119.906 22.5467 119.906 22.92V25.5H121.786ZM116.946 35.34C117.253 35.34 117.406 35.1867 117.406 34.88V34.6C117.406 34.2933 117.253 34.14 116.946 34.14H108.906C108.613 34.14 108.4 34.04 108.266 33.84C108.133 33.6267 108.066 33.3867 108.066 33.12C108.066 32.8533 108.133 32.62 108.266 32.42C108.4 32.22 108.613 32.12 108.906 32.12H118.206C118.846 32.12 119.286 32.24 119.526 32.48C119.78 32.72 119.906 33.1533 119.906 33.78V35.62C119.906 36.2467 119.78 36.68 119.526 36.92C119.286 37.16 118.846 37.28 118.206 37.28H111.066C110.76 37.28 110.606 37.4333 110.606 37.74V38.02C110.606 38.3267 110.76 38.48 111.066 38.48H119.466C119.76 38.48 119.973 38.58 120.106 38.78C120.24 38.9933 120.306 39.2333 120.306 39.5C120.306 39.7667 120.24 40 120.106 40.2C119.973 40.4 119.76 40.5 119.466 40.5H109.806C109.166 40.5 108.72 40.38 108.466 40.14C108.226 39.9 108.106 39.4667 108.106 38.84V37C108.106 36.3733 108.226 35.94 108.466 35.7C108.72 35.46 109.166 35.34 109.806 35.34H116.946ZM131.289 22.74C131.929 22.74 132.369 22.86 132.609 23.1C132.863 23.34 132.989 23.7733 132.989 24.4V26.88C132.989 27.5067 132.863 27.94 132.609 28.18C132.369 28.42 131.929 28.54 131.289 28.54H127.449C127.143 28.54 126.989 28.6933 126.989 29V29.78C126.989 30.0867 127.143 30.24 127.449 30.24C128.716 30.24 129.876 30.2133 130.929 30.16C131.983 30.0933 132.996 29.9933 133.969 29.86C134.276 29.82 134.516 29.8933 134.689 30.08C134.876 30.2667 134.983 30.4933 135.009 30.76C135.036 31.0533 134.996 31.32 134.889 31.56C134.783 31.7867 134.583 31.92 134.289 31.96C133.876 32.0133 133.416 32.0667 132.909 32.12C132.403 32.16 131.823 32.2 131.169 32.24C130.529 32.28 129.796 32.3133 128.969 32.34C128.156 32.3533 127.229 32.36 126.189 32.36C125.549 32.36 125.103 32.24 124.849 32C124.609 31.76 124.489 31.3267 124.489 30.7V28.2C124.489 27.5733 124.609 27.14 124.849 26.9C125.103 26.66 125.549 26.54 126.189 26.54H130.029C130.336 26.54 130.489 26.3867 130.489 26.08V25.32C130.489 25.0133 130.336 24.86 130.029 24.86H125.329C125.023 24.86 124.803 24.7533 124.669 24.54C124.536 24.3267 124.469 24.08 124.469 23.8C124.469 23.52 124.536 23.2733 124.669 23.06C124.803 22.8467 125.023 22.74 125.329 22.74H131.289ZM138.769 31.9C138.769 32.2733 138.636 32.5467 138.369 32.72C138.116 32.8933 137.823 32.98 137.489 32.98C137.156 32.98 136.856 32.8933 136.589 32.72C136.336 32.5467 136.209 32.2733 136.209 31.9V22.92C136.209 22.5467 136.336 22.2733 136.589 22.1C136.856 21.9267 137.156 21.84 137.489 21.84C137.823 21.84 138.116 21.9267 138.369 22.1C138.636 22.2733 138.769 22.5467 138.769 22.92V31.9ZM128.429 40.38C127.789 40.38 127.343 40.26 127.089 40.02C126.849 39.78 126.729 39.3467 126.729 38.72V35.38C126.729 34.7533 126.849 34.32 127.089 34.08C127.343 33.84 127.789 33.72 128.429 33.72H137.069C137.709 33.72 138.149 33.84 138.389 34.08C138.643 34.32 138.769 34.7533 138.769 35.38V38.72C138.769 39.3467 138.643 39.78 138.389 40.02C138.149 40.26 137.709 40.38 137.069 40.38H128.429ZM135.769 38.3C136.076 38.3 136.229 38.1467 136.229 37.84V36.26C136.229 35.9533 136.076 35.8 135.769 35.8H129.729C129.423 35.8 129.269 35.9533 129.269 36.26V37.84C129.269 38.1467 129.423 38.3 129.729 38.3H135.769Z" fill="#3DAFD9"/>
<path d="M297 38L303 32L297 26" stroke="#3DAFD9" stroke-width="2" stroke-linecap="round" stroke-linejoin="round"/>
</g>
<defs>
<filter id="filter0_d_862_7831" x="0" y="0" width="320" height="67" filterUnits="userSpaceOnUse" color-interpolation-filters="sRGB">
<feFlood flood-opacity="0" result="BackgroundImageFix"/>
<feColorMatrix in="SourceAlpha" type="matrix" values="0 0 0 0 0 0 0 0 0 0 0 0 0 0 0 0 0 0 127 0" result="hardAlpha"/>
<feOffset dy="3"/>
<feComposite in2="hardAlpha" operator="out"/>
<feColorMatrix type="matrix" values="0 0 0 0 0.239216 0 0 0 0 0.686275 0 0 0 0 0.85098 0 0 0 1 0"/>
<feBlend mode="normal" in2="BackgroundImageFix" result="effect1_dropShadow_862_7831"/>
<feBlend mode="normal" in="SourceGraphic" in2="effect1_dropShadow_862_7831" result="shape"/>
</filter>
</defs>
</svg>
