<svg width="28" height="28" viewBox="0 0 28 28" fill="none" xmlns="http://www.w3.org/2000/svg">
<circle cx="14" cy="14" r="14" fill="#FFB67A"/>
<path fill-rule="evenodd" clip-rule="evenodd" d="M15.9007 8.4342C15.958 8.43423 16.0144 8.44841 16.0649 8.47548C16.1154 8.50254 16.1584 8.54166 16.1902 8.58935L17.4786 10.5214H20.2615C20.4461 10.5214 20.623 10.5947 20.7535 10.7252C20.884 10.8556 20.9573 11.0326 20.9573 11.2171V18.8701C20.9573 19.0546 20.884 19.2316 20.7535 19.3621C20.623 19.4925 20.4461 19.5658 20.2615 19.5658H7.73845C7.55393 19.5658 7.37697 19.4925 7.2465 19.3621C7.11602 19.2316 7.04272 19.0546 7.04272 18.8701V11.2171C7.04272 11.0326 7.11602 10.8556 7.2465 10.7252C7.37697 10.5947 7.55393 10.5214 7.73845 10.5214H10.5214L11.8098 8.58935C11.8416 8.54166 11.8846 8.50254 11.9351 8.47548C11.9856 8.44841 12.042 8.43423 12.0993 8.4342H15.9007ZM14 17.1308C14.6458 17.1308 15.2652 16.8742 15.7218 16.4176C16.1785 15.9609 16.435 15.3416 16.435 14.6958C16.435 14.0499 16.1785 13.4306 15.7218 12.9739C15.2652 12.5173 14.6458 12.2607 14 12.2607C13.3542 12.2607 12.7348 12.5173 12.2782 12.9739C11.8215 13.4306 11.565 14.0499 11.565 14.6958C11.565 15.3416 11.8215 15.9609 12.2782 16.4176C12.7348 16.8742 13.3542 17.1308 14 17.1308Z" fill="#FFF4EC"/>
</svg>
