<svg width="14" height="12" viewBox="0 0 14 12" fill="none" xmlns="http://www.w3.org/2000/svg">
<path fill-rule="evenodd" clip-rule="evenodd" d="M8.90073 0.434204C8.95801 0.434234 9.01441 0.448411 9.0649 0.475477C9.11539 0.502542 9.15841 0.541659 9.19015 0.589351L10.4786 2.52139H13.2615C13.4461 2.52139 13.623 2.59469 13.7535 2.72516C13.884 2.85563 13.9573 3.0326 13.9573 3.21711V10.8701C13.9573 11.0546 13.884 11.2316 13.7535 11.3621C13.623 11.4925 13.4461 11.5658 13.2615 11.5658H0.738452C0.553934 11.5658 0.376973 11.4925 0.246498 11.3621C0.116024 11.2316 0.0427246 11.0546 0.0427246 10.8701V3.21711C0.0427246 3.0326 0.116024 2.85563 0.246498 2.72516C0.376973 2.59469 0.553934 2.52139 0.738452 2.52139H3.52136L4.80985 0.589351C4.84159 0.541659 4.88461 0.502542 4.9351 0.475477C4.98559 0.448411 5.04199 0.434234 5.09927 0.434204H8.90073ZM7 9.1308C7.64581 9.1308 8.26518 8.87425 8.72184 8.41759C9.1785 7.96093 9.43505 7.34157 9.43505 6.69575C9.43505 6.04994 9.1785 5.43057 8.72184 4.97391C8.26518 4.51725 7.64581 4.26071 7 4.26071C6.35419 4.26071 5.73482 4.51725 5.27816 4.97391C4.8215 5.43057 4.56495 6.04994 4.56495 6.69575C4.56495 7.34157 4.8215 7.96093 5.27816 8.41759C5.73482 8.87425 6.35419 9.1308 7 9.1308Z" fill="#FFF4EC"/>
</svg>
