<svg width="16" height="17" viewBox="0 0 16 17" fill="none" xmlns="http://www.w3.org/2000/svg">
<path d="M8 1.95449C11.5288 1.95449 14.4 4.82569 14.4 8.35449C14.4 11.8833 11.5288 14.7545 8 14.7545C4.4712 14.7545 1.6 11.8833 1.6 8.35449C1.6 4.82569 4.4712 1.95449 8 1.95449ZM8 0.354492C3.5816 0.354492 0 3.93609 0 8.35449C0 12.7729 3.5816 16.3545 8 16.3545C12.4184 16.3545 16 12.7729 16 8.35449C16 3.93609 12.4184 0.354492 8 0.354492ZM8.8 10.7545H7.2V12.3545H8.8V10.7545ZM7.2 9.15449H8.8L9.2 4.35449H6.8L7.2 9.15449Z" fill="#D9D9D9"/>
</svg>
