<?xml version="1.0" encoding="UTF-8"?>
<svg id="layer2" xmlns="http://www.w3.org/2000/svg" xmlns:xlink="http://www.w3.org/1999/xlink" version="1.1" viewBox="0 0 108.2 108.2">
  <!-- Generator: Adobe Illustrator 29.2.0, SVG Export Plug-In . SVG Version: 2.1.0 Build 108)  -->
  <defs>
    <style>
      .st0 {
        fill: #37688f;
        isolation: isolate;
        opacity: .1;
      }

      .st1 {
        fill: #e1f9ff;
      }

      .st1, .st2, .st3, .st4, .st5 {
        stroke-width: .5px;
      }

      .st1, .st3, .st5 {
        stroke: #2092c4;
      }

      .st6 {
        fill: #3ba4d4;
      }

      .st2 {
        fill: #fec4b4;
        stroke: #f4aea6;
        stroke-miterlimit: 10;
      }

      .st3 {
        fill: url(#gradient2);
      }

      .st7 {
        fill: #2092c4;
      }

      .st8 {
        fill: #1f6084;
      }

      .st9 {
        fill: #3a99d6;
      }

      .st4 {
        fill: none;
        stroke: #1f6084;
        stroke-linecap: round;
        stroke-linejoin: round;
      }

      .st5 {
        fill: url(#gradient);
      }
    </style>
    <linearGradient id="gradient" data-name="무제 그라디언트" x1="49.6" y1="110.5" x2="58.5" y2="3.1" gradientTransform="translate(0 110.6) scale(1 -1)" gradientUnits="userSpaceOnUse">
      <stop offset="0" stop-color="#c0edff"/>
      <stop offset="1" stop-color="#aae6ff"/>
    </linearGradient>
    <linearGradient id="gradient2" data-name="무제 그라디언트 2" x1="31.6" y1="82.1" x2="77.1" y2="30.2" gradientTransform="translate(0 110.6) scale(1 -1)" gradientUnits="userSpaceOnUse">
      <stop offset="0" stop-color="#abddf4"/>
      <stop offset="1" stop-color="#7cccea"/>
    </linearGradient>
  </defs>
  <circle class="st5" cx="54.1" cy="54.1" r="53.9"/>
  <circle class="st3" cx="54.1" cy="54.1" r="35.5"/>
  <path class="st1" d="M54.2,35.2c-2.5.1-5.8-1.7-8.5-1.9-4-.3-9,.6-11.5,6.5s-.7,11.5,1.5,16.9.7,20.2,8,21.2c8.5,1.2,4.1-11.9,10.2-11.8s2,14.4,10.4,11.8c6.7-2,5.5-15.6,7.4-20.4,1.1-2.8,8-17.4-2.7-23.3-6.5-3.5-12.2,1.3-15,1h0Z"/>
  <path class="st6" d="M54.3,92h-.5s0-.5,0-.5h.5v.5ZM55.8,92v-.5c.1,0,.3,0,.5,0v.5c-.1,0-.3,0-.5,0ZM52.2,91.9h-.5s0-.5,0-.5h.5s0,.5,0,.5ZM57.8,91.8v-.5c0,0,.5,0,.5,0v.5c0,0-.5,0-.5,0ZM50.2,91.8c-.2,0-.3,0-.5,0v-.5c.2,0,.4,0,.6,0v.5ZM59.9,91.6v-.5c0,0,.3,0,.4,0v.5c0,0-.3,0-.4,0ZM48.2,91.5c-.2,0-.3,0-.5,0v-.5c.3,0,.4,0,.6,0v.5ZM61.9,91.2v-.5c0,0,.2,0,.4-.1v.5c0,0-.2,0-.4.1ZM46.2,91.1h-.5c0-.1.1-.6.1-.6h.5c0,.1-.1.6-.1.6ZM63.9,90.7v-.5s.2,0,.4-.1v.5s-.2,0-.4.1ZM44.2,90.7h-.5c0-.1.1-.6.1-.6h.5c0,.1-.1.6-.1.6ZM65.8,90.1l-.2-.5c.2,0,.3-.1.5-.2l.2.5c-.2,0-.3.1-.5.2ZM42.2,90.1l-.5-.2.2-.5.5.2-.2.5ZM67.7,89.5l-.2-.5c.2,0,.3-.1.5-.2l.2.5c-.2,0-.3.1-.5.2ZM40.3,89.4c-.2,0-.3-.1-.5-.2l.2-.5c.2,0,.3.1.5.2l-.2.5ZM69.6,88.7l-.2-.5.5-.2.2.5-.5.2ZM38.4,88.6c-.2,0-.3-.1-.5-.2l.2-.5c.2,0,.3.1.5.2l-.2.5ZM71.5,87.8l-.2-.4c.1,0,.3-.2.4-.2l.2.4c-.2,0-.3.2-.5.2ZM36.6,87.7c-.2,0-.3-.2-.5-.2l.2-.4c.1,0,.3.2.4.2l-.2.4ZM73.2,86.8l-.3-.4c.1,0,.3-.2.4-.3l.3.4c-.1,0-.3.2-.4.3ZM34.8,86.7c-.1,0-.3-.2-.4-.3l.3-.4c.1,0,.3.2.4.3l-.3.4ZM75,85.7l-.3-.4c.1,0,.3-.2.4-.3l.3.4c-.1,0-.3.2-.4.3ZM33.1,85.6c-.1,0-.3-.2-.4-.3l.3-.4c.1,0,.3.2.4.3l-.3.4ZM76.7,84.6l-.3-.4.4-.3.3.4-.4.3ZM31.4,84.4l-.4-.3.3-.4.4.3-.3.4ZM78.3,83.3l-.3-.4c.1-.1.3-.2.4-.3l.3.4c-.1.1-.3.2-.4.3ZM29.8,83.2c-.1-.1-.3-.2-.4-.3l.3-.4c.1.1.3.2.4.3l-.3.4ZM79.8,81.9l-.3-.4c.1-.1.2-.2.4-.3l.3.4c-.1.1-.2.2-.4.4ZM28.3,81.8l-.4-.4.3-.4.4.3-.3.4ZM81.3,80.5l-.4-.3c.1-.1.2-.2.4-.4l.4.3c-.1.1-.2.2-.4.4ZM26.8,80.4l-.4-.4.4-.3.4.4-.4.3ZM82.7,79l-.4-.3c.1-.1.2-.3.3-.4l.4.3c-.1.1-.2.3-.3.4ZM25.4,78.8l-.3-.4.4-.3.3.4-.4.3ZM84,77.4l-.4-.3.3-.4.4.3-.3.4ZM24.1,77.3c-.1-.1-.2-.3-.3-.4l.4-.3c.1.1.2.3.3.4l-.4.3ZM85.2,75.8l-.4-.3c0-.1.2-.3.3-.4l.4.3c0,.1-.2.3-.3.4ZM22.9,75.6c0-.1-.2-.3-.3-.4l.4-.3c0,.1.2.3.3.4l-.4.3ZM86.3,74.1l-.4-.3c0-.1.2-.3.3-.4l.4.3c0,.1-.2.3-.3.4ZM21.8,73.9c0-.1-.2-.3-.3-.4l.4-.3c0,.1.2.3.3.4l-.4.3ZM87.3,72.3l-.4-.2c0-.1.2-.3.2-.4l.4.2c0,.2-.2.3-.2.5ZM20.8,72.1c0-.2-.2-.3-.2-.5l.4-.2c0,.1.2.3.2.4l-.4.2ZM88.3,70.5l-.5-.2c0-.2.1-.3.2-.5l.5.2c0,.2-.1.3-.2.5ZM19.9,70.3c0-.2-.1-.3-.2-.5l.5-.2c0,.2.1.3.2.5l-.5.2ZM89.1,68.6l-.5-.2c0-.2.1-.3.2-.5l.5.2c0,.2-.1.3-.2.5ZM19,68.4c0-.2-.1-.3-.2-.5l.5-.2c0,.2.1.3.2.5l-.5.2ZM89.8,66.7l-.5-.2.2-.5.5.2-.2.5ZM18.3,66.5c0-.2-.1-.3-.2-.5l.5-.2c0,.2.1.3.2.5l-.5.2ZM90.5,64.8h-.5c0-.1.1-.6.1-.6h.5c0,.1-.1.6-.1.6ZM17.7,64.6v-.5c-.1,0,.3-.1.3-.1v.5c.1,0-.3.1-.3.1ZM91,62.8h-.5c0-.3,0-.4.1-.6h.5c0,.3,0,.4-.1.6ZM17.2,62.6c0-.2,0-.3-.1-.5h.5c0,0,0,.2.1.4h-.5ZM91.4,60.8h-.5c0,0,0-.6,0-.6h.5c0,0,0,.6,0,.6ZM16.8,60.6c0-.2,0-.3,0-.5h.5c0,0,0,.3,0,.4h-.5ZM91.7,58.8h-.5c0-.2,0-.4,0-.6h.5c0,.2,0,.4,0,.6ZM16.5,58.6c0-.2,0-.3,0-.5h.5c0,.1,0,.3,0,.5h-.5ZM91.9,56.8h-.5c0-.2,0-.4,0-.5h.5c0,.2,0,.4,0,.5ZM16.3,56.6v-.5s.5,0,.5,0v.5s-.5,0-.5,0ZM92,54.7h-.5s0-.5,0-.5h.5s0,.5,0,.5ZM16.2,54.5v-.5s.5,0,.5,0v.5s-.5,0-.5,0ZM91.5,52.7c0-.2,0-.3,0-.5h.5c0,.1,0,.3,0,.5h-.5ZM16.8,52.5h-.5c0-.2,0-.4,0-.5h.5c0,.2,0,.4,0,.5ZM91.3,50.7v-.5c0,0,.4,0,.4,0v.5c0,0-.4,0-.4,0ZM16.9,50.5h-.5c0-.2,0-.4,0-.6h.5c0,.2,0,.4,0,.6ZM91.1,48.7v-.5c0,0,.4,0,.4,0,0,.2,0,.3,0,.5h-.5ZM17.2,48.5h-.5c0,0,0-.6,0-.6h.5c0,0,0,.6,0,.6ZM90.8,46.7c0-.2,0-.3-.1-.5h.5c0,0,0,.2.1.4h-.5ZM17.6,46h-.5c0-.1.1-.6.1-.6h.5c0,.1-.1.6-.1.6ZM90.3,44.7v-.5c-.1,0,.4-.1.4-.1v.5c.1,0-.4.1-.4.1ZM18.2,43.6h-.5c0-.3,0-.5.1-.6h.5c0,.3,0,.5-.1.6ZM89.8,42.8c0-.2-.1-.3-.2-.5l.5-.2c0,.2.1.3.2.5l-.5.2ZM18.9,41.7l-.5-.2.2-.5.5.2-.2.5ZM89.1,40.9c0-.2-.1-.3-.2-.5l.5-.2c0,.2.1.3.2.5l-.5.2ZM19.6,39.8l-.5-.2c0-.2.1-.3.2-.5l.5.2c0,.2-.1.3-.2.5ZM88.3,39l-.2-.5.5-.2.2.5-.5.2ZM20.4,37.9l-.5-.2c0-.2.1-.3.2-.5l.4.2c0,.2-.1.3-.2.5ZM87.5,37.2c0-.1-.2-.3-.2-.4l.4-.2c0,.2.2.3.2.5l-.4.2ZM21.3,36.1l-.4-.2c0-.2.2-.3.3-.5l.4.2c0,.1-.2.3-.2.4ZM86.5,35.4c0-.1-.2-.3-.3-.4l.4-.3c0,.1.2.3.3.4l-.4.2ZM22.3,34.4l-.4-.3c0-.1.2-.3.3-.4l.4.3c0,.1-.2.3-.3.4ZM85.4,33.7c0-.1-.2-.3-.3-.4l.4-.3c0,.1.2.3.3.4l-.4.3ZM23.5,32.7l-.4-.3c0-.1.2-.3.3-.4l.4.3c0,.1-.2.3-.3.4ZM84.3,32.1c0-.1-.2-.3-.3-.4l.4-.3c.1.1.2.3.3.4l-.4.3ZM24.7,31.1l-.4-.3c.1-.1.2-.3.3-.4l.4.3c-.1.1-.2.3-.3.4ZM83.1,30.5c-.1-.1-.2-.3-.3-.4l.4-.3c.1.1.2.3.3.4l-.4.3ZM25.9,29.5l-.4-.3c.1-.1.2-.3.3-.4l.4.3c-.1.1-.2.3-.3.4ZM81.8,28.9c-.1-.1-.2-.2-.3-.4l.4-.3c.1.1.2.3.3.4l-.4.3ZM27.3,28l-.4-.3c.1-.1.2-.2.4-.4l.4.4c-.1.1-.2.2-.4.4ZM80.4,27.5c-.1-.1-.2-.2-.4-.4l.3-.4c.1.1.2.2.4.4l-.4.4ZM28.8,26.6l-.3-.4c.1-.1.3-.2.4-.3l.3.4c-.1.1-.3.2-.4.3ZM78.9,26.1l-.4-.3.3-.4.4.3-.3.4ZM30.3,25.3l-.3-.4c.1-.1.3-.2.4-.3l.3.4c-.1.1-.3.2-.4.3ZM77.3,24.8l-.4-.3.3-.4.4.3-.3.4ZM31.9,24.1l-.3-.4c.1-.1.3-.2.4-.3l.3.4c-.1,0-.3.2-.4.3ZM75.7,23.6c-.1,0-.3-.2-.4-.3l.3-.4c.1,0,.3.2.4.3l-.3.4ZM33.5,22.9l-.3-.4c.1,0,.3-.2.4-.3l.3.4c-.1,0-.3.2-.4.3ZM74,22.5c-.1,0-.3-.2-.4-.3l.3-.4c.1,0,.3.2.4.3l-.3.4ZM35.2,21.8l-.3-.4c.1,0,.3-.2.4-.3l.2.4c-.1,0-.3.2-.4.3ZM72.3,21.4c-.1,0-.3-.2-.4-.2l.2-.4c.2,0,.3.2.5.2l-.2.4ZM37,20.9l-.2-.4.5-.2.2.4-.5.2ZM70.5,20.5c-.2,0-.3-.1-.5-.2l.2-.5c.2,0,.3.1.5.2l-.2.4ZM38.8,20l-.2-.5c.2,0,.3-.1.5-.2l.2.5c-.2,0-.3.1-.5.2ZM68.7,19.7c-.2,0-.3-.1-.5-.2l.2-.5c.2,0,.3.1.5.2l-.2.5ZM40.7,19.2l-.2-.5.5-.2.2.5-.5.2ZM66.8,18.9c-.2,0-.3-.1-.5-.2l.2-.5c.2,0,.3.1.5.2l-.2.5ZM42.6,18.5l-.2-.5c.2,0,.3-.1.5-.2v.5s-.2.1-.3.2ZM64.9,18.3h-.5c0-.1.1-.6.1-.6h.5c0,.1-.1.6-.1.6ZM44.5,18v-.5s.2,0,.4-.1v.5s-.2,0-.4.1ZM62.9,17.8h-.5c0-.1.1-.6.1-.6h.5c0,.1-.1.6-.1.6ZM46.5,17.5v-.5c-.1,0,.4-.1.4-.1v.5c0,0-.4.1-.4.1ZM61,17.4c-.2,0-.3,0-.5,0v-.5c.3,0,.4,0,.6,0v.5ZM48.4,17.1v-.5c0,0,.3,0,.4,0v.5c0,0-.3,0-.4,0ZM59,17c-.2,0-.3,0-.5,0v-.5c.2,0,.4,0,.6,0v.5ZM50.4,16.9v-.5s.5,0,.5,0v.5s-.5,0-.5,0ZM57,16.8c-.2,0-.3,0-.5,0v-.5c.2,0,.4,0,.5,0v.5ZM52.4,16.8v-.5s.5,0,.5,0v.5s-.5,0-.5,0ZM55,16.7h-.5s0-.5,0-.5h.5s0,.5,0,.5Z"/>
  <g>
    <path class="st9" d="M29.1,22.5c.2.2.2.3,0,.5-1.3,1.7-2.8,2.8-4.4,3-1.5.3-3-.2-4.4-1.6-1-1-1.4-2-1.5-3,0-1,.2-2,.7-2.9.5-.9,1.3-1.7,2.1-2.5.2-.2.3-.2.5,0l1.5,1.5c.2.2.1.3,0,.5-.9.8-1.4,1.5-1.5,2.1-.2.7,0,1.4.8,2,.5.5,1.1.8,1.8.7.7-.1,1.4-.6,2.3-1.8.2-.3.3-.2.5,0l1.6,1.4h0Z"/>
    <path class="st9" d="M24.6,14.3c-.3-.4-.2-.6.1-.8l1.7-1.1c.3-.2.5-.2.8.2l1.7,2.5,1.6-1-1.6-2.6c-.3-.4-.2-.6.1-.8l1.7-1.1c.3-.2.5-.2.8.2l4.9,7.6c.3.4.2.6-.1.8l-1.7,1.1c-.3.2-.5.2-.8-.2l-1.7-2.7-1.6,1,1.8,2.6c.3.4.2.6-.1.8l-1.7,1.1c-.3.2-.5.2-.8-.2,0,0-5-7.5-5-7.5Z"/>
    <path class="st9" d="M34,8.9c-.2-.4-.1-.6.2-.8l1.9-.8c.4-.2.5,0,.7.4l3.6,8.3c.2.4.1.6-.2.8l-1.9.8c-.4.1-.5,0-.7-.4,0,0-3.6-8.3-3.6-8.3Z"/>
    <path class="st9" d="M39.3,6.7c-.1-.5,0-.7.4-.7l2-.5c.4,0,.5,0,.7.5l.6,2.3,1.6-3.3c.2-.3.4-.4.7-.3l1.6.7c.5.2.5.4.4.8l-1.5,3.2,3.3,3.5c.3.4.3.6,0,.8l-1.4,1c-.3.2-.6.3-.8,0l-2.8-3,.8,3c.1.5,0,.6-.4.7l-2,.5c-.4,0-.5,0-.7-.5l-2.2-8.8h0Z"/>
    <path class="st9" d="M49.4,13.9c-.3,0-.4-.2-.3-.6l2.8-8.7c.2-.5.3-.6.8-.6h2c.5,0,.6.1.8.6l3,8.6c.1.4,0,.5-.3.6l-1.7.5c-.3,0-.5,0-.5-.3l-.5-1.4h-3.3c0,0-.4,1.5-.4,1.5,0,.3-.3.4-.5.3l-1.7-.5h0ZM53.6,7.2l-.8,2.8h1.7s-.9-2.8-.9-2.8Z"/>
    <path class="st9" d="M65.7,15.2c0,.3,0,.4-.4.3-2.2-.1-3.9-.8-4.9-1.9-1.1-1.1-1.5-2.6-1.2-4.6.2-1.3.8-2.3,1.6-2.9.8-.6,1.7-1,2.8-1.1,1,0,2.2,0,3.2.3.2,0,.3.2.3.4l-.4,2.1c0,.2-.2.3-.4.2-1.1-.3-2-.3-2.6,0-.7.3-1.1.8-1.2,1.8-.1.8,0,1.4.5,1.9.5.5,1.3.8,2.7.9.3,0,.4.2.3.4l-.2,2.1h0Z"/>
    <path class="st9" d="M73.4,17.6c-1.2.5-2.4.4-3.6-.1s-2.1-1.4-2.5-2.5c-.5-1.2-.5-2.6.2-4.2.7-1.6,1.7-2.6,2.9-3.1,1.1-.5,2.4-.4,3.5,0,1.1.5,2.1,1.4,2.5,2.5.4,1.1.4,2.6-.3,4.2-.7,1.6-1.8,2.6-2.9,3.1h0ZM72.8,10.5c-.9-.4-1.6.1-2.3,1.6-.6,1.5-.5,2.3.4,2.7.9.4,1.6,0,2.2-1.6s.5-2.4-.4-2.7Z"/>
    <path class="st9" d="M80,11.8c.3-.4.5-.4.8-.2l1.7,1.1c.3.2.3.4,0,.8l-4.9,7.6c-.3.4-.4.5-.8.2l-1.7-1.1c-.3-.2-.3-.4,0-.8,0,0,4.9-7.6,4.9-7.6Z"/>
    <path class="st9" d="M83.6,20.7l-2.7,3c-.3.3-.5.4-.8.1l-1.5-1.4c-.3-.3-.3-.5,0-.8l6-6.6c.4-.4.6-.4,1,0l1.3,1.2c.4.4.5.5.3.9l-1.4,4.7,2.8-3c.4-.4.6-.4,1,0l1.3,1.2c.4.3.3.6,0,1l-6,6.4c-.4.4-.6.5-1,.1l-1-.9c-.4-.4-.4-.6-.3-1.2l1.2-4.4h0Z"/>
  </g>
  <g>
    <path class="st9" d="M80.4,84.8c-.2-.2-.2-.3,0-.5,1.2-1.8,2.7-2.9,4.2-3.2,1.5-.3,3.1,0,4.5,1.4,1,.9,1.5,1.9,1.6,2.9.1,1,0,2-.6,2.9-.5.9-1.2,1.8-2,2.5-.2.2-.3.2-.5,0l-1.6-1.5c-.2-.2-.2-.3,0-.5.8-.8,1.3-1.5,1.4-2.2.1-.7-.1-1.3-.8-2-.6-.5-1.2-.8-1.9-.6-.7.1-1.4.7-2.2,1.8-.2.3-.3.2-.5,0l-1.7-1.3h0Z"/>
    <path class="st9" d="M85.2,92.8c.3.4.2.6,0,.8l-1.7,1.2c-.3.2-.5.2-.8-.2l-1.8-2.5-1.6,1.1,1.7,2.5c.3.4.2.6,0,.8l-1.7,1.2c-.3.2-.5.2-.8-.2l-5.2-7.4c-.3-.4-.3-.6,0-.8l1.7-1.2c.3-.2.5-.2.8.2l1.8,2.6,1.5-1.1-1.9-2.6c-.3-.4-.3-.6,0-.8l1.7-1.2c.3-.2.5-.2.8.2l5.3,7.3h0Z"/>
    <path class="st9" d="M76,98.6c.2.4.1.6-.2.8l-1.8.8c-.4.2-.5,0-.8-.3l-3.9-8.1c-.2-.4-.2-.6.2-.8l1.8-.8c.4-.2.5,0,.8.3l3.9,8.1Z"/>
    <path class="st9" d="M70.9,101c.1.5,0,.6-.3.8l-1.9.6c-.4.1-.5,0-.7-.5l-.7-2.3-1.4,3.3c-.1.3-.4.4-.7.3l-1.6-.6c-.5-.2-.5-.4-.4-.7l1.4-3.3-3.4-3.3c-.3-.3-.3-.6,0-.8l1.4-1.1c.3-.2.5-.3.8,0l2.9,2.8-.9-3c-.2-.5,0-.6.3-.8l1.9-.6c.4-.1.5,0,.7.5l2.6,8.6h0Z"/>
    <path class="st9" d="M60.5,94.2c.3,0,.5.2.3.6l-2.4,8.8c-.1.5-.3.7-.7.7h-2c-.5.1-.6,0-.8-.5l-3.4-8.5c-.2-.4,0-.5.3-.7l1.7-.6c.3,0,.5,0,.6.3l.5,1.4,3.3-.2.3-1.4c0-.3.3-.4.5-.3l1.8.4h0ZM56.5,101.2l.7-2.8h-1.7c0,0,1,2.8,1,2.8Z"/>
    <path class="st9" d="M44.2,93.6c0-.3,0-.4.4-.3,2.2,0,3.9.7,5,1.7,1.1,1.1,1.6,2.6,1.3,4.5-.2,1.3-.7,2.3-1.5,3-.7.7-1.7,1-2.8,1.2-1,.1-2.2,0-3.2-.2-.3,0-.4-.2-.3-.4l.3-2.1c0-.2.1-.3.4-.2,1.1.2,2,.2,2.6,0,.7-.3,1-.9,1.2-1.8.1-.8,0-1.4-.5-1.9-.5-.5-1.4-.8-2.8-.8-.3,0-.4-.1-.4-.3l.2-2.1h0Z"/>
    <path class="st9" d="M36.4,91.4c1.1-.5,2.4-.5,3.6,0,1.2.4,2.1,1.3,2.6,2.4.5,1.1.5,2.6-.1,4.2s-1.7,2.7-2.8,3.2c-1.1.5-2.4.5-3.5,0s-2.1-1.3-2.6-2.4c-.5-1.1-.5-2.6.1-4.2s1.7-2.7,2.8-3.2h0ZM37.2,98.5c.9.3,1.6-.2,2.2-1.7s.4-2.4-.5-2.7c-.9-.3-1.6.1-2.2,1.7-.6,1.5-.4,2.4.5,2.7h0Z"/>
    <path class="st9" d="M30,97.4c-.3.4-.5.5-.8.3l-1.7-1.1c-.4-.2-.4-.4-.1-.8l4.6-7.8c.2-.4.4-.5.8-.3l1.7,1.1c.3.2.4.4.1.8l-4.6,7.8h0Z"/>
    <path class="st9" d="M26.1,88.7l2.6-3.1c.3-.3.5-.4.8-.1l1.6,1.4c.4.3.3.5,0,.8l-5.8,6.8c-.4.4-.6.4-1,.1l-1.3-1.1c-.4-.4-.5-.5-.4-.9l1.3-4.7-2.7,3.1c-.4.4-.6.4-1,.1l-1.3-1.1c-.4-.3-.4-.6,0-1l5.8-6.6c.4-.4.6-.5,1-.1l1,.9c.4.4.5.6.3,1.2l-1,4.5h0Z"/>
  </g>
  <g>
    <ellipse class="st8" cx="48.7" cy="44.7" rx="1.7" ry="2.5"/>
    <ellipse class="st8" cx="59.6" cy="44.7" rx="1.7" ry="2.5"/>
    <path class="st4" d="M50.6,49c-.1,1.9,7.4,2,7.4-.1"/>
  </g>
  <circle class="st2" cx="46" cy="50.3" r="2"/>
  <circle class="st2" cx="62.5" cy="50.3" r="2"/>
  <path class="st7" d="M103.6,54c-1.3-.4-3.3-1.5-3.8-4.6,0-.2-.3-.2-.3,0-.2,1-.6,2.2-1.4,3.2-.6.7-1.4,1.2-2.5,1.4-.2,0-.2.3,0,.3,1.3.4,3.3,1.5,3.8,4.6,0,.2.3.2.3,0,.2-1,.6-2.2,1.4-3.2.6-.7,1.4-1.2,2.5-1.4.2,0,.2-.3,0-.3Z"/>
  <path class="st7" d="M13.4,54c-1.3-.4-3.3-1.5-3.8-4.6,0-.2-.3-.2-.3,0-.2,1-.6,2.2-1.4,3.2-.6.7-1.4,1.2-2.5,1.4-.2,0-.2.3,0,.3,1.3.4,3.3,1.5,3.8,4.6,0,.2.3.2.3,0,.2-1,.6-2.2,1.4-3.2.6-.7,1.4-1.2,2.5-1.4.2,0,.2-.3,0-.3Z"/>
  <path class="st0" d="M3.1,71.2c9.4,28.2,40,43.4,68.2,34,28.2-9.4,43.4-40,33.9-68.2L3.1,71.2Z"/>
</svg>