<svg width="24" height="25" viewBox="0 0 24 25" fill="none" xmlns="http://www.w3.org/2000/svg">
<rect x="11.5" y="3.5" width="18" height="3" transform="rotate(90 11.5 3.5)" fill="currentColor"/>
<rect width="9" height="1" transform="matrix(0 -1 -1 0 15.5 12.5)" fill="currentColor"/>
<rect width="9" height="3" transform="matrix(0 -1 -1 0 14.5 12.5)" fill="currentColor"/>
<rect width="7" height="3" transform="matrix(0 -1 -1 0 14.5 11.5)" fill="white"/>
<path d="M13 6.5C12.7239 6.5 12.5 6.27614 12.5 6C12.5 5.72386 12.7239 5.5 13 5.5H14.5V6.5H13Z" fill="currentColor"/>
<path d="M13 10.5C12.7239 10.5 12.5 10.2761 12.5 10C12.5 9.72386 12.7239 9.5 13 9.5H14.5V10.5H13Z" fill="currentColor"/>
<path d="M13 8.5C12.7239 8.5 12.5 8.27614 12.5 8C12.5 7.72386 12.7239 7.5 13 7.5H14.5V8.5H13Z" fill="currentColor"/>
</svg>
