<svg width="25" height="24" viewBox="0 0 25 24" fill="none" xmlns="http://www.w3.org/2000/svg">
<rect width="24" height="24" transform="matrix(0 -1 -1 0 24.6904 24)" fill="white"/>
<rect x="12.1904" y="3" width="18" height="3" transform="rotate(90 12.1904 3)" fill="#BAC3CB"/>
<rect width="9" height="1" transform="matrix(0 -1 -1 0 16.1904 12)" fill="#BAC3CB"/>
<rect width="9" height="3" transform="matrix(0 -1 -1 0 15.1904 12)" fill="#BAC3CB"/>
<rect width="7" height="3" transform="matrix(0 -1 -1 0 15.1904 11)" fill="white"/>
<path d="M13.6904 6C13.4143 6 13.1904 5.77614 13.1904 5.5C13.1904 5.22386 13.4143 5 13.6904 5H15.1904V6H13.6904Z" fill="#BAC3CB"/>
<path d="M13.6904 10C13.4143 10 13.1904 9.77614 13.1904 9.5C13.1904 9.22386 13.4143 9 13.6904 9H15.1904V10H13.6904Z" fill="#BAC3CB"/>
<path d="M13.6904 8C13.4143 8 13.1904 7.77614 13.1904 7.5C13.1904 7.22386 13.4143 7 13.6904 7H15.1904V8H13.6904Z" fill="#BAC3CB"/>
</svg>
