<svg viewBox="0 0 48 48" fill="none" xmlns="http://www.w3.org/2000/svg">
<path d="M18.3956 21.227C18.3956 19.2231 20.0201 17.5986 22.024 17.5986V17.5986C24.0278 17.5986 25.6523 19.2231 25.6523 21.227V42H18.3956V21.227Z" fill="#3D83D6"/>
<path d="M13.9426 14.0812C13.9426 9.61795 17.5608 5.99976 22.0241 5.99976V5.99976C26.4873 5.99976 30.1055 9.61795 30.1055 14.0812V22.8874C30.1055 27.3507 26.4873 30.9689 22.0241 30.9689V30.9689C17.5608 30.9689 13.9426 27.3507 13.9426 22.8874V14.0812Z" fill="#3D83D6"/>
<path d="M16.4524 14.0812C16.4524 9.61795 20.0706 5.99976 24.5338 5.99976V5.99976C28.9971 5.99976 32.6153 9.61795 32.6153 14.0812V22.8874C32.6153 27.3507 28.9971 30.9689 24.5338 30.9689V30.9689C20.0706 30.9689 16.4524 27.3507 16.4524 22.8874V14.0812Z" fill="#72B6F9"/>
<path d="M20.9054 21.227C20.9054 19.2231 22.5299 17.5986 24.5337 17.5986V17.5986C26.5376 17.5986 28.1621 19.2231 28.1621 21.227V42H20.9054V21.227Z" fill="#72B6F9"/>
<path d="M20.9054 12.0882C20.9054 10.4411 22.2406 9.10596 23.8876 9.10596H34.0574V27.8635H23.8876C22.2406 27.8635 20.9054 26.5283 20.9054 24.8813V12.0882Z" fill="#EAF4FF"/>
<path d="M20.9054 12.0882C20.9054 10.4411 22.2406 9.10596 23.8876 9.10596H34.0574V12.3885H20.9054V12.0882Z" fill="#A6D3FD"/>
<path d="M20.9054 15.4253H34.0574V18.7078H20.9054V15.4253Z" fill="#A6D3FD"/>
<path d="M20.9054 21.7449H34.0574V25.0274H20.9054V21.7449Z" fill="#A6D3FD"/>
</svg>
