<svg width="37" height="43" viewBox="0 0 37 43" fill="none" xmlns="http://www.w3.org/2000/svg">
<rect x="14.5137" y="2.91504" width="8" height="8" fill="#CC8753"/>
<rect x="12.5137" y="0.915039" width="12" height="4" fill="#CC8753"/>
<path d="M3.68463 15.4007C2.12253 13.8386 2.12253 11.3059 3.68463 9.74384C5.24673 8.18174 7.77939 8.18174 9.34148 9.74384L12.1699 12.5723L6.51306 18.2291L3.68463 15.4007Z" fill="#FFB67A"/>
<path d="M33.3421 15.4002C34.9042 13.8381 34.9042 11.3054 33.3421 9.74335C31.78 8.18125 29.2473 8.18125 27.6853 9.74335L24.8568 12.5718L30.5137 18.2286L33.3421 15.4002Z" fill="#FFB67A"/>
<circle cx="18.5137" cy="24.915" r="18" fill="#FFB67A"/>
<circle cx="18.5137" cy="24.915" r="14" fill="#E69F66"/>
<circle cx="18.5137" cy="24.915" r="12" fill="#FFE8D7"/>
<path d="M10.0282 16.4298C14.7145 11.7435 22.3125 11.7435 26.9988 16.4298L10.0282 33.4003C5.34196 28.714 5.34196 21.116 10.0282 16.4298Z" fill="#FFD0AE"/>
<circle cx="18.5137" cy="24.915" r="3" fill="#854D33"/>
<path d="M19.5137 12.915V15.915C19.5137 16.4673 19.066 16.915 18.5137 16.915C17.9614 16.915 17.5137 16.4673 17.5137 15.915V12.915H19.5137Z" fill="#CC8753"/>
<path d="M18.5137 32.915C19.066 32.915 19.5137 33.3628 19.5137 33.915V36.915H17.5137V33.915C17.5137 33.3628 17.9614 32.915 18.5137 32.915Z" fill="#CC8753"/>
<path d="M30.5137 25.915H27.5137C26.9614 25.915 26.5137 25.4673 26.5137 24.915C26.5137 24.3628 26.9614 23.915 27.5137 23.915H30.5137V25.915Z" fill="#CC8753"/>
<path d="M10.5137 24.915C10.5137 25.4673 10.066 25.915 9.51367 25.915H6.51367V23.915H9.51367C10.066 23.915 10.5137 24.3628 10.5137 24.915Z" fill="#CC8753"/>
</svg>
