<?xml version="1.0" encoding="UTF-8"?>
<svg id="layer" xmlns="http://www.w3.org/2000/svg" xmlns:xlink="http://www.w3.org/1999/xlink" version="1.1" viewBox="0 0 36.7 37.4" preserveAspectRatio="xMidYMid meet">
  <!-- Generator: Adobe Illustrator 29.2.0, SVG Export Plug-In . SVG Version: 2.1.0 Build 108)  -->
  <defs>
    <style>
      .st0 {
        fill: url(#gradient1);
      }

      .st1 {
        fill: #177591;
      }

      .st2 {
        fill: url(#gradient2);
      }

      .st3 {
        fill: url(#gradient3);
      }

      .st4 {
        fill: #a9d5f1;
      }

      .st5 {
        fill: #3c7c9b;
      }
    </style>
    <linearGradient id="gradient1" data-name="무제 그라디언트" x1="4.6" y1="20.5" x2="31.4" y2="20.5" gradientTransform="translate(0 38.6) scale(1 -1)" gradientUnits="userSpaceOnUse">
      <stop offset="0" stop-color="#5fc6f0"/>
      <stop offset=".2" stop-color="#e8f4fc"/>
      <stop offset=".7" stop-color="#00acdf"/>
    </linearGradient>
    <linearGradient id="gradient2" data-name="무제 그라디언트 2" x1="8" y1="1155.4" x2="28.1" y2="1184.8" gradientTransform="translate(0 -1152)" gradientUnits="userSpaceOnUse">
      <stop offset="0" stop-color="#5fc6f0"/>
      <stop offset=".2" stop-color="#e8f4fc"/>
      <stop offset=".7" stop-color="#00acdf"/>
    </linearGradient>
    <linearGradient id="gradient3" data-name="무제 그라디언트 3" x1="11.5" y1="1162.3" x2="24.5" y2="1177.9" gradientTransform="translate(0 -1152)" gradientUnits="userSpaceOnUse">
      <stop offset=".2" stop-color="#5fc6f0"/>
      <stop offset=".3" stop-color="#e8f4fc"/>
      <stop offset=".4" stop-color="#dbf0fa"/>
      <stop offset=".8" stop-color="#00acdf"/>
    </linearGradient>
  </defs>
  <g id="layer">
    <g>
      <circle class="st0" cx="18" cy="18" r="13.4"/>
      <path class="st4" d="M17.9,1c9.2,0,16.7,7.5,16.7,16.7s-7.5,16.7-16.7,16.7S1.2,27,1.2,17.8,8.7,1,17.9,1ZM17.9,4.8c-7.2,0-13,5.8-13,13s5.8,13,13,13,13-5.8,13-13-5.8-13-13-13Z"/>
      <path class="st5" d="M18.6,1.8c9.6,0,17.4,7.8,17.4,17.4s-7.8,17.4-17.4,17.4S1.2,28.9,1.2,19.3,9,1.8,18.6,1.8ZM18.6,5.8c-7.5,0-13.5,6-13.5,13.5s6,13.5,13.5,13.5,13.5-6,13.5-13.5-6-13.5-13.5-13.5Z"/>
      <path class="st2" d="M18,.7c9.6,0,17.3,7.8,17.3,17.3s-7.8,17.3-17.3,17.3S.7,27.6.7,18,8.5.7,18,.7ZM18,4.6c-7.4,0-13.4,6-13.4,13.4s6,13.4,13.4,13.4,13.4-6,13.4-13.4-6-13.4-13.4-13.4Z"/>
      <path class="st1" d="M20.2,10.7c.9-.3,2.1-.4,3.4.3h.1c2.2,1.3,2.5,3.4,2.3,5.2-.2,1.7-.9,3.3-1.1,3.7h0c-.1.3-.2.8-.3,1.5,0,.6-.2,1.4-.3,2.2s-.3,1.5-.7,2.2-.9,1.3-1.7,1.5h0c-.4.1-.9.2-1.3,0-.4,0-.7-.3-1-.6-.5-.5-.6-1.2-.8-1.8-.1-.6-.2-1.1-.4-1.4,0-.2-.1-.2-.2-.3,0,0,0,0-.1,0s-.1,0-.1,0c0,0,0,0-.1.2-.1.3-.2.7-.4,1.3-.1.5-.3,1.2-.7,1.7-.2.3-.5.5-.9.6-.4.1-.8.2-1.2,0h0c-.9-.1-1.5-.7-1.9-1.4-.4-.7-.6-1.5-.7-2.3-.1-.8-.2-1.6-.3-2.3,0-.7-.2-1.3-.3-1.6-.7-1.8-1.5-4-.5-6.3.5-1.2,1.3-1.9,2.1-2.3.9-.4,1.8-.4,2.5-.4h0c.6,0,1.2.2,1.6.4.5.2.9.3,1.1.3h0c0,0,.2,0,.6-.2.3-.1.8-.3,1.2-.4h0ZM22.9,12.4c-.8-.5-1.6-.4-2.4-.2-.4.1-.7.2-1.1.4-.3.1-.8.3-1.2.3h0c-.5,0-1.1-.2-1.6-.3-.5-.2-.9-.3-1.3-.3h0c-.6,0-1.2,0-1.7.3-.5.2-1,.7-1.3,1.5-.7,1.7-.2,3.3.5,5.1.2.6.3,1.3.4,2,0,.8.2,1.5.3,2.3.1.7.3,1.3.5,1.8.2.4.5.6.8.6h0c.3,0,.4,0,.5,0,0,0,.2,0,.2-.2.2-.2.3-.5.4-1.1.1-.5.2-1.1.5-1.6.1-.3.3-.6.6-.8.3-.2.7-.3,1.1-.3.4,0,.8.1,1.1.4.3.2.5.5.6.8.2.5.4,1.2.5,1.7.1.6.3.9.4,1.1,0,0,0,0,.1,0,0,0,.2,0,.5,0h0c.3,0,.5-.3.8-.8.2-.4.4-1,.5-1.7.1-.7.2-1.4.3-2.1,0-.7.2-1.3.4-1.9s.8-1.9,1-3.3c.2-1.5-.1-2.8-1.5-3.5h0Z"/>
      <path class="st3" d="M19.4,10c.9-.3,2.1-.4,3.4.3h.1c2.2,1.3,2.5,3.4,2.3,5.2-.2,1.7-.9,3.3-1.1,3.7h0c-.1.3-.2.8-.3,1.5,0,.6-.2,1.4-.3,2.2s-.3,1.5-.7,2.2-.9,1.3-1.7,1.5h0c-.4.1-.9.2-1.3,0-.4,0-.7-.3-1-.6-.5-.5-.6-1.2-.8-1.8-.1-.6-.2-1.1-.4-1.4,0-.2-.1-.2-.2-.3,0,0,0,0-.1,0s-.1,0-.1,0c0,0,0,0-.1.2-.1.3-.2.7-.4,1.3-.1.5-.3,1.2-.7,1.7-.2.3-.5.5-.9.6-.4.1-.8.2-1.2,0h0c-.9-.1-1.5-.7-1.9-1.4-.4-.7-.6-1.5-.7-2.3-.1-.8-.2-1.6-.3-2.3,0-.7-.2-1.3-.3-1.6-.7-1.8-1.5-4-.5-6.3.5-1.2,1.3-1.9,2.1-2.3.9-.4,1.8-.4,2.5-.4h0c.6,0,1.2.2,1.6.4.5.2.9.3,1.1.3h0c0,0,.2,0,.6-.2.3-.1.8-.3,1.2-.4h0ZM22.2,11.7c-.8-.5-1.6-.4-2.4-.2-.4.1-.7.2-1.1.4-.3.1-.8.3-1.2.3h0c-.5,0-1.1-.2-1.6-.3-.5-.2-.9-.3-1.3-.3h0c-.6,0-1.2,0-1.7.3-.5.2-1,.7-1.3,1.5-.7,1.7-.2,3.3.5,5.1.2.6.3,1.3.4,2,0,.8.2,1.5.3,2.3.1.7.3,1.3.5,1.8.2.4.5.6.8.6h0c.3,0,.4,0,.5,0,0,0,.2,0,.2-.2.2-.2.3-.5.4-1.1.1-.5.2-1.1.5-1.6s.3-.6.6-.8c.3-.2.7-.3,1.1-.3.4,0,.8.1,1.1.4.3.2.5.5.6.8.2.5.4,1.2.5,1.7.1.6.3.9.4,1.1,0,0,0,0,.1,0,0,0,.2,0,.5,0h0c.3,0,.5-.3.8-.8.2-.4.4-1,.5-1.7.1-.7.2-1.4.3-2.1,0-.7.2-1.3.4-1.9s.8-1.9,1-3.3c.2-1.5-.1-2.8-1.5-3.5h0Z"/>
    </g>
  </g>
</svg>