<svg width="180" height="124" viewBox="0 0 180 124" fill="none" xmlns="http://www.w3.org/2000/svg">
<g filter="url(#filter0_d_1181_3752)">
<g clip-path="url(#clip0_1181_3752)">
<rect width="180" height="120" rx="8" fill="#EBF9FF"/>
<g filter="url(#filter1_d_1181_3752)">
<path d="M41 63C54.8071 63 66 51.8071 66 38C66 24.1929 54.8071 13 41 13C27.1929 13 16 24.1929 16 38C16 51.8071 27.1929 63 41 63Z" fill="url(#paint0_linear_1181_3752)" stroke="#2092C4" stroke-width="0.231911"/>
<path d="M41.0371 54.5028C50.1309 54.5028 57.5028 47.1308 57.5028 38.0371C57.5028 28.9433 50.1309 21.5714 41.0371 21.5714C31.9434 21.5714 24.5714 28.9433 24.5714 38.0371C24.5714 47.1308 31.9434 54.5028 41.0371 54.5028Z" fill="url(#paint1_linear_1181_3752)" stroke="#2092C4" stroke-width="0.231911"/>
<path d="M41 55.1429C50.4677 55.1429 58.1429 47.4678 58.1429 38C58.1429 28.5323 50.4677 20.8572 41 20.8572C31.5323 20.8572 23.8571 28.5323 23.8571 38C23.8571 47.4678 31.5323 55.1429 41 55.1429Z" stroke="#2092C4" stroke-width="0.231911" stroke-linecap="round" stroke-linejoin="round" stroke-dasharray="0.21 0.71"/>
<path d="M41.0805 29.2695C39.921 29.3159 38.3903 28.481 37.138 28.3882C35.2827 28.2491 32.9636 28.6665 31.8041 31.4031C30.6445 34.1396 31.4794 36.737 32.4998 39.2417C33.5202 41.7463 32.8245 48.6109 36.2104 49.0747C40.1529 49.6313 38.1121 43.5552 40.9414 43.6016C43.7707 43.648 41.869 50.2806 45.7651 49.0747C48.8727 48.147 48.3161 41.8391 49.1974 39.6127C49.7076 38.314 52.908 31.5422 47.9451 28.8057C44.9302 27.1823 42.2865 29.4086 40.9878 29.2695H41.0805Z" fill="#E1F9FF" stroke="#2092C4" stroke-width="0.231911"/>
<path d="M38.5295 34.8353C38.965 34.8353 39.318 34.3162 39.318 33.6758C39.318 33.0354 38.965 32.5162 38.5295 32.5162C38.094 32.5162 37.741 33.0354 37.741 33.6758C37.741 34.3162 38.094 34.8353 38.5295 34.8353Z" fill="#1F6084"/>
<path d="M43.5852 34.8353C44.0206 34.8353 44.3737 34.3162 44.3737 33.6758C44.3737 33.0354 44.0206 32.5162 43.5852 32.5162C43.1497 32.5162 42.7967 33.0354 42.7967 33.6758C42.7967 34.3162 43.1497 34.8353 43.5852 34.8353Z" fill="#1F6084"/>
<path d="M39.4107 35.6702C39.3644 36.5514 42.843 36.5978 42.843 35.6238" stroke="#1F6084" stroke-width="0.231911" stroke-linecap="round" stroke-linejoin="round"/>
<path d="M37.2772 37.2009C37.7895 37.2009 38.2048 36.7855 38.2048 36.2732C38.2048 35.7609 37.7895 35.3456 37.2772 35.3456C36.7648 35.3456 36.3495 35.7609 36.3495 36.2732C36.3495 36.7855 36.7648 37.2009 37.2772 37.2009Z" fill="#FEC4B4" stroke="#F4AEA6" stroke-width="0.231911" stroke-miterlimit="10"/>
<path d="M44.9302 37.2009C45.4426 37.2009 45.8579 36.7855 45.8579 36.2732C45.8579 35.7609 45.4426 35.3456 44.9302 35.3456C44.4179 35.3456 44.0026 35.7609 44.0026 36.2732C44.0026 36.7855 44.4179 37.2009 44.9302 37.2009Z" fill="#FEC4B4" stroke="#F4AEA6" stroke-width="0.231911" stroke-miterlimit="10"/>
<path d="M52.9991 52.2751C52.9063 52.1823 52.9063 52.1359 52.9991 52.0431C53.5557 51.2083 54.2514 50.6981 54.9471 50.5589C55.6429 50.4198 56.385 50.5589 57.0343 51.2083C57.4981 51.6257 57.7301 52.0895 57.7764 52.5534C57.8228 53.0172 57.7764 53.481 57.4981 53.8984C57.2662 54.3159 56.9416 54.7333 56.5705 55.058C56.4777 55.1508 56.4314 55.1508 56.3386 55.058L55.5965 54.3623C55.5037 54.2695 55.5037 54.2231 55.5965 54.1303C55.9675 53.7593 56.1994 53.4346 56.2458 53.1099C56.2922 52.7853 56.1994 52.507 55.8748 52.1823C55.5965 51.9504 55.3182 51.8112 54.9935 51.904C54.6688 51.9504 54.3442 52.2287 53.9731 52.7389C53.8803 52.878 53.834 52.8316 53.7412 52.7389L52.9527 52.1359L52.9991 52.2751Z" fill="#3A99D6"/>
<path d="M55.2254 55.9856C55.3645 56.1712 55.3182 56.2639 55.2254 56.3567L54.4369 56.9133C54.2978 57.006 54.205 57.006 54.0658 56.8205L53.231 55.661L52.4889 56.1712L53.2773 57.3307C53.4165 57.5162 53.3701 57.609 53.2773 57.7018L52.4889 58.2584C52.3497 58.3511 52.2569 58.3511 52.1178 58.1656L49.7059 54.7333C49.5668 54.5478 49.5668 54.455 49.7059 54.3623L50.4944 53.8057C50.6336 53.7129 50.7263 53.7129 50.8655 53.8984L51.7004 55.1044L52.3961 54.5942L51.5148 53.3882C51.3757 53.2027 51.3757 53.1099 51.5148 53.0172L52.3033 52.4606C52.4425 52.3678 52.5352 52.3678 52.6744 52.5534L55.1326 55.9393L55.2254 55.9856Z" fill="#3A99D6"/>
<path d="M50.9582 58.6759C51.051 58.8614 51.0046 58.9542 50.8655 59.0469L50.0306 59.418C49.8451 59.5108 49.7987 59.418 49.6595 59.2788L47.8506 55.5219C47.7579 55.3364 47.7579 55.2436 47.9434 55.1508L48.7783 54.7798C48.9638 54.687 49.0102 54.7798 49.1493 54.9189L50.9582 58.6759Z" fill="#3A99D6"/>
<path d="M48.5928 59.7889C48.6391 60.0208 48.5928 60.0672 48.4536 60.16L47.5723 60.4383C47.3868 60.4847 47.3404 60.4383 47.2477 60.2064L46.923 59.1396L46.2736 60.6702C46.2273 60.8093 46.0881 60.8557 45.949 60.8093L45.2069 60.5311C44.9749 60.4383 44.9749 60.3455 45.0213 60.2064L45.6707 58.6758L44.0937 57.1452C43.9545 57.006 43.9545 56.8669 44.0937 56.7741L44.743 56.2639C44.8822 56.1711 44.9749 56.1247 45.1141 56.2639L46.4592 57.5626L46.0417 56.1711C45.949 55.9392 46.0417 55.8928 46.1809 55.8001L47.0621 55.5218C47.2477 55.4754 47.2941 55.5218 47.3868 55.7537L48.5928 59.7426V59.7889Z" fill="#3A99D6"/>
<path d="M43.769 56.6349C43.9082 56.6349 44.0009 56.7277 43.9082 56.9132L42.795 60.9949C42.7486 61.2268 42.6558 61.3195 42.4703 61.3195H41.5427C41.3108 61.3659 41.2644 61.3195 41.1716 61.0876L39.5946 57.1451C39.5019 56.9596 39.5946 56.9132 39.7338 56.8205L40.5223 56.5422C40.6614 56.5422 40.7542 56.5422 40.8006 56.6813L41.0325 57.3307L42.5631 57.2379L42.7022 56.5885C42.7022 56.4494 42.8414 56.403 42.9341 56.4494L43.769 56.6349ZM41.9137 59.8817L42.2384 58.583H41.4499L41.9137 59.8817Z" fill="#3A99D6"/>
<path d="M36.2087 56.3566C36.2087 56.2175 36.2087 56.1711 36.3942 56.2175C37.4147 56.2175 38.2032 56.5421 38.7134 57.006C39.2236 57.5162 39.4555 58.2119 39.3163 59.0932C39.2236 59.6961 38.9917 60.16 38.6206 60.4846C38.2959 60.8093 37.8321 60.9484 37.3219 61.0412C36.8581 61.0876 36.3015 61.0412 35.8377 60.9484C35.6985 60.9484 35.6521 60.8557 35.6985 60.7629L35.8377 59.7889C35.8377 59.6961 35.884 59.6497 36.0232 59.6961C36.5334 59.7889 36.9508 59.7889 37.2291 59.6961C37.5538 59.557 37.6929 59.2787 37.7857 58.8612C37.8321 58.4902 37.7857 58.2119 37.5538 57.98C37.3219 57.7481 36.9045 57.6089 36.2551 57.6089C36.116 57.6089 36.0696 57.5625 36.0696 57.4698L36.1623 56.4958L36.2087 56.3566Z" fill="#3A99D6"/>
<path d="M32.5909 55.3363C33.1011 55.1044 33.7041 55.1044 34.2606 55.3363C34.8172 55.5218 35.2347 55.9393 35.4666 56.4495C35.6985 56.9597 35.6985 57.6554 35.4202 58.3975C35.1419 59.1396 34.6317 59.6498 34.1215 59.8817C33.6113 60.1136 33.0083 60.1136 32.4981 59.8817C31.9879 59.6498 31.5241 59.2788 31.2922 58.7686C31.0603 58.2584 31.0603 57.5626 31.3386 56.8205C31.6169 56.0784 32.1271 55.5682 32.6373 55.3363H32.5909ZM32.9619 58.6294C33.3794 58.7686 33.7041 58.5367 33.9824 57.8409C34.2606 57.1452 34.1679 56.7278 33.7504 56.5886C33.333 56.4495 33.0083 56.635 32.73 57.3771C32.4517 58.0728 32.5445 58.4903 32.9619 58.6294Z" fill="#3A99D6"/>
<path d="M29.6224 58.1192C29.4833 58.3047 29.3905 58.3511 29.2514 58.2583L28.4629 57.7481C28.2774 57.6554 28.2774 57.5626 28.4165 57.3771L30.5501 53.7593C30.6429 53.5737 30.7356 53.5273 30.9211 53.6201L31.7096 54.1303C31.8488 54.2231 31.8952 54.3158 31.756 54.5014L29.6224 58.1192Z" fill="#3A99D6"/>
<path d="M27.8135 54.0839L29.0195 52.646C29.1586 52.5069 29.2514 52.4605 29.3905 52.5997L30.1326 53.249C30.3182 53.3881 30.2718 53.4809 30.1326 53.6201L27.4425 56.774C27.2569 56.9596 27.1642 56.9596 26.9787 56.8204L26.3757 56.3102C26.1902 56.1247 26.1438 56.0783 26.1902 55.8928L26.7931 53.7128L25.5408 55.1507C25.3553 55.3362 25.2625 55.3362 25.077 55.1971L24.474 54.6868C24.2885 54.5477 24.2885 54.4086 24.474 54.223L27.1642 51.1618C27.3497 50.9763 27.4425 50.9299 27.628 51.1154L28.0918 51.5329C28.2774 51.7184 28.3237 51.8112 28.231 52.0894L27.7672 54.1766L27.8135 54.0839Z" fill="#3A99D6"/>
<path d="M28.7737 23.8464C28.8665 23.9392 28.8665 23.9855 28.7737 24.0783C28.2172 24.9132 27.5214 25.4234 26.8257 25.5625C26.13 25.7017 25.3879 25.5625 24.7385 24.9132C24.2747 24.4958 24.0428 24.0319 23.9964 23.5681C23.95 23.1043 23.9964 22.6405 24.2747 22.223C24.5066 21.8056 24.8313 21.3881 25.2023 21.0635C25.2951 20.9707 25.3415 20.9707 25.4342 21.0635L26.1763 21.7592C26.2691 21.852 26.2691 21.8984 26.1763 21.9911C25.8053 22.3622 25.5734 22.6868 25.527 23.0115C25.4806 23.3362 25.5734 23.6145 25.8981 23.9392C26.1763 24.1711 26.4546 24.3102 26.7793 24.2175C27.104 24.1711 27.4287 23.8928 27.7997 23.3826C27.8925 23.2434 27.9389 23.2898 28.0316 23.3826L28.8201 23.9856L28.7737 23.8464Z" fill="#3A99D6"/>
<path d="M26.5474 20.1358C26.4083 19.9503 26.4546 19.8575 26.5474 19.7648L27.3359 19.2082C27.475 19.1154 27.5678 19.1154 27.707 19.3009L28.5418 20.4605L29.2839 19.9503L28.4954 18.7907C28.3563 18.6052 28.4027 18.5124 28.4954 18.4197L29.2839 17.8631C29.4231 17.7703 29.5159 17.7703 29.655 17.9559L32.0669 21.3881C32.206 21.5737 32.206 21.6664 32.0669 21.7592L31.2784 22.3158C31.1392 22.4086 31.0465 22.4085 30.9073 22.223L30.0724 21.0171L29.3767 21.5273L30.258 22.7332C30.3971 22.9188 30.3971 23.0115 30.258 23.1043L29.4695 23.6609C29.3303 23.7536 29.2376 23.7536 29.0984 23.5681L26.6402 20.1822L26.5474 20.1358Z" fill="#3A99D6"/>
<path d="M30.8146 17.4456C30.7218 17.2601 30.7682 17.1673 30.9073 17.0745L31.7422 16.7035C31.9278 16.6107 31.9741 16.7035 32.1133 16.8426L33.9222 20.5996C34.015 20.7851 34.015 20.8779 33.8294 20.9706L32.9945 21.3417C32.809 21.4345 32.7626 21.3417 32.6235 21.2025L30.8146 17.4456Z" fill="#3A99D6"/>
<path d="M33.18 16.3325C33.1337 16.1006 33.18 16.0542 33.3192 15.9615L34.2005 15.6832C34.386 15.6368 34.4324 15.6832 34.5251 15.9151L34.8498 16.9819L35.4992 15.4513C35.5455 15.3121 35.6847 15.2657 35.8238 15.3121L36.5659 15.5904C36.7979 15.6832 36.7979 15.7759 36.7515 15.9151L36.1021 17.4457L37.6791 18.9763C37.8183 19.1155 37.8183 19.2546 37.6791 19.3474L37.0298 19.8576C36.8906 19.9503 36.7979 19.9967 36.6587 19.8576L35.3136 18.5589L35.7311 19.9503C35.8238 20.1822 35.7311 20.2286 35.5919 20.3214L34.7107 20.5997C34.5251 20.6461 34.4787 20.5997 34.386 20.3678L33.18 16.3789V16.3325Z" fill="#3A99D6"/>
<path d="M38.0038 19.4864C37.8646 19.4864 37.7719 19.3936 37.8646 19.2081L38.9778 15.1265C39.0242 14.8946 39.117 14.8018 39.3025 14.8018H40.2301C40.462 14.7554 40.5084 14.8018 40.6012 15.0337L42.1782 18.9762C42.2709 19.1617 42.1782 19.2081 42.039 19.3009L41.2505 19.5792C41.1114 19.5792 41.0186 19.5792 40.9722 19.44L40.7403 18.7907L39.2097 18.8834L39.0706 19.5328C39.0706 19.6719 38.9314 19.7183 38.8387 19.6719L38.0038 19.4864ZM39.8591 16.2397L39.5344 17.5384H40.3229L39.8591 16.2397Z" fill="#3A99D6"/>
<path d="M45.5641 19.7647C45.5641 19.9039 45.5641 19.9503 45.3785 19.9039C44.3581 19.9039 43.5696 19.5792 43.0594 19.1154C42.5492 18.6052 42.3173 17.9094 42.4565 17.0282C42.5492 16.4252 42.7811 15.9614 43.1522 15.6367C43.4769 15.312 43.9407 15.1729 44.4509 15.0801C44.9147 15.0337 45.4713 15.0801 45.9351 15.1729C46.0743 15.1729 46.1207 15.2657 46.0743 15.3584L45.9351 16.3324C45.9351 16.4252 45.8888 16.4716 45.7496 16.4252C45.2394 16.3324 44.822 16.3324 44.5437 16.4252C44.219 16.5644 44.0798 16.8426 43.9871 17.2601C43.9407 17.6311 43.9871 17.9094 44.219 18.1414C44.4509 18.3733 44.8683 18.5124 45.5177 18.5124C45.6568 18.5124 45.7032 18.5588 45.7032 18.6516L45.6105 19.6256L45.5641 19.7647Z" fill="#3A99D6"/>
<path d="M49.1819 20.7852C48.6717 21.0171 48.0687 21.0171 47.5121 20.7852C46.9556 20.5996 46.5381 20.1822 46.3062 19.672C46.0743 19.1618 46.0743 18.4661 46.3526 17.7239C46.6309 16.9818 47.1411 16.4716 47.6513 16.2397C48.1615 16.0078 48.7645 16.0078 49.2747 16.2397C49.7849 16.4716 50.2487 16.8427 50.4806 17.3529C50.7125 17.8631 50.7125 18.5588 50.4342 19.3009C50.1559 20.0431 49.6457 20.5533 49.1355 20.7852H49.1819ZM48.8108 17.492C48.3934 17.3529 48.0687 17.5848 47.7904 18.2805C47.5121 18.9763 47.6049 19.3937 48.0224 19.5329C48.4398 19.672 48.7645 19.4865 49.0428 18.7444C49.3211 18.0486 49.2283 17.6312 48.8108 17.492Z" fill="#3A99D6"/>
<path d="M52.1504 18.0023C52.2895 17.8167 52.3823 17.7704 52.5214 17.8631L53.3099 18.3733C53.4954 18.4661 53.4954 18.5589 53.3563 18.7444L51.2227 22.3622C51.1299 22.5477 51.0372 22.5941 50.8517 22.5013L50.0632 21.9911C49.924 21.8984 49.8776 21.8056 50.0168 21.6201L52.1504 18.0023Z" fill="#3A99D6"/>
<path d="M53.9593 22.0375L52.7533 23.4753C52.6142 23.6145 52.5214 23.6608 52.3823 23.5217L51.6402 22.8723C51.4546 22.7332 51.501 22.6404 51.6402 22.5013L54.3303 19.3473C54.5158 19.1618 54.6086 19.1618 54.7941 19.3009L55.3971 19.8111C55.5826 19.9966 55.629 20.043 55.5826 20.2286L54.9797 22.4085L56.232 20.9707C56.4175 20.7851 56.5103 20.7851 56.6958 20.9243L57.2988 21.4345C57.4843 21.5736 57.4843 21.7128 57.2988 21.8983L54.6086 24.9595C54.4231 25.1451 54.3303 25.1914 54.1448 25.0059L53.681 24.5885C53.4954 24.403 53.4491 24.3102 53.5418 24.0319L54.0056 21.9447L53.9593 22.0375Z" fill="#3A99D6"/>
<path d="M63.7598 37.9893C63.1568 37.8038 62.2292 37.2936 61.9972 35.8557C61.9972 35.7629 61.8581 35.7629 61.8581 35.8557C61.7653 36.3195 61.5798 36.8761 61.2087 37.3399C60.9304 37.6646 60.5594 37.8965 60.0492 37.9893C59.9564 37.9893 59.9564 38.1284 60.0492 38.1284C60.6522 38.314 61.5798 38.8242 61.8117 40.262C61.8117 40.3548 61.9509 40.3548 61.9509 40.262C62.0436 39.7982 62.2292 39.2416 62.6002 38.7778C62.8785 38.4531 63.2496 38.2212 63.7598 38.1284C63.8525 38.1284 63.8525 37.9893 63.7598 37.9893Z" fill="#2092C4"/>
<path d="M21.923 37.9893C21.32 37.8038 20.3924 37.2936 20.1605 35.8557C20.1605 35.7629 20.0213 35.7629 20.0213 35.8557C19.9286 36.3195 19.743 36.8761 19.372 37.3399C19.0937 37.6646 18.7226 37.8965 18.2124 37.9893C18.1197 37.9893 18.1197 38.1284 18.2124 38.1284C18.8154 38.314 19.743 38.8242 19.9749 40.262C19.9749 40.3548 20.1141 40.3548 20.1141 40.262C20.2069 39.7982 20.3924 39.2416 20.7634 38.7778C21.0417 38.4531 21.4128 38.2212 21.923 38.1284C22.0158 38.1284 22.0158 37.9893 21.923 37.9893Z" fill="#2092C4"/>
<path d="M53.3649 59.6506C65.3222 52.7471 69.4191 37.4573 62.5156 25.5L19.2143 50.5C26.1179 62.4573 41.4076 66.5542 53.3649 59.6506Z" fill="#3DAFD9" fill-opacity="0.1"/>
</g>
<path d="M74.588 27.008C74.588 25.6173 74.868 24.5627 75.428 23.844C75.988 23.1253 76.828 22.766 77.948 22.766C79.068 22.766 79.908 23.1253 80.468 23.844C81.028 24.5627 81.308 25.6173 81.308 27.008C81.308 28.3987 81.028 29.4533 80.468 30.172C79.908 30.8907 79.068 31.25 77.948 31.25C76.828 31.25 75.988 30.8907 75.428 30.172C74.868 29.4533 74.588 28.3987 74.588 27.008ZM79.586 27.008C79.586 26.1213 79.4647 25.454 79.222 25.006C78.9793 24.5487 78.5547 24.32 77.948 24.32C77.3413 24.32 76.9167 24.5487 76.674 25.006C76.4313 25.454 76.31 26.1213 76.31 27.008C76.31 27.8947 76.4313 28.5667 76.674 29.024C76.9167 29.472 77.3413 29.696 77.948 29.696C78.5547 29.696 78.9793 29.472 79.222 29.024C79.4647 28.5667 79.586 27.8947 79.586 27.008ZM85.886 26.168C86.11 26.168 86.2733 26.2427 86.376 26.392C86.4787 26.5413 86.53 26.7233 86.53 26.938C86.53 27.1527 86.4787 27.3393 86.376 27.498C86.2733 27.6473 86.11 27.722 85.886 27.722H84.57V33.518C84.57 33.7793 84.4767 33.9707 84.29 34.092C84.1127 34.2133 83.9073 34.274 83.674 34.274C83.4407 34.274 83.2307 34.2133 83.044 34.092C82.8667 33.9707 82.778 33.7793 82.778 33.518V22.794C82.778 22.5327 82.8667 22.3413 83.044 22.22C83.2307 22.0987 83.4407 22.038 83.674 22.038C83.9073 22.038 84.1127 22.0987 84.29 22.22C84.4767 22.3413 84.57 22.5327 84.57 22.794V26.168H85.886ZM88.1562 25.02C87.9415 25.02 87.7829 24.9453 87.6802 24.796C87.5775 24.6467 87.5262 24.4693 87.5262 24.264C87.5262 24.0587 87.5775 23.8813 87.6802 23.732C87.7829 23.5827 87.9415 23.508 88.1562 23.508H90.3402V22.654C90.3402 22.3927 90.4289 22.2013 90.6062 22.08C90.7929 21.9587 91.0029 21.898 91.2362 21.898C91.4695 21.898 91.6749 21.9587 91.8522 22.08C92.0389 22.2013 92.1322 22.3927 92.1322 22.654V23.508H94.1762C94.3909 23.508 94.5495 23.5827 94.6522 23.732C94.7549 23.8813 94.8062 24.0587 94.8062 24.264C94.8062 24.4693 94.7549 24.6467 94.6522 24.796C94.5495 24.9453 94.3909 25.02 94.1762 25.02H92.1322V25.342C92.1322 25.6967 92.1975 25.9907 92.3282 26.224C92.4589 26.4573 92.6595 26.672 92.9302 26.868C93.2569 27.1013 93.5555 27.3067 93.8262 27.484C94.0969 27.6613 94.3162 27.8013 94.4842 27.904C94.6802 28.0253 94.7922 28.1933 94.8202 28.408C94.8482 28.6133 94.8062 28.8047 94.6942 28.982C94.5915 29.1313 94.4375 29.248 94.2322 29.332C94.0362 29.4067 93.8262 29.374 93.6022 29.234C93.4155 29.1127 93.2055 28.9773 92.9722 28.828C92.7389 28.6787 92.5102 28.5247 92.2862 28.366C91.9315 28.1233 91.6795 27.9273 91.5302 27.778C91.3902 27.6287 91.3015 27.4933 91.2642 27.372H91.2502C91.2129 27.5307 91.1149 27.694 90.9562 27.862C90.7975 28.0207 90.5409 28.2213 90.1862 28.464C89.9062 28.6507 89.6402 28.828 89.3882 28.996C89.1362 29.164 88.8655 29.3367 88.5762 29.514C88.4735 29.5793 88.3709 29.6167 88.2682 29.626C88.1655 29.626 88.0675 29.6073 87.9742 29.57C87.8809 29.5327 87.7969 29.4813 87.7222 29.416C87.6475 29.3507 87.5869 29.2807 87.5402 29.206C87.4375 29.0287 87.3909 28.8373 87.4002 28.632C87.4095 28.4173 87.5215 28.2447 87.7362 28.114C88.0349 27.9273 88.3289 27.7407 88.6182 27.554C88.9075 27.3673 89.2155 27.1573 89.5422 26.924C89.8129 26.728 90.0135 26.5133 90.1442 26.28C90.2749 26.0467 90.3402 25.7527 90.3402 25.398V25.02H88.1562ZM97.7742 28.94C97.7742 29.2013 97.6809 29.3927 97.4942 29.514C97.3169 29.6353 97.1115 29.696 96.8782 29.696C96.6449 29.696 96.4349 29.6353 96.2482 29.514C96.0709 29.3927 95.9822 29.2013 95.9822 28.94V22.794C95.9822 22.5327 96.0709 22.3413 96.2482 22.22C96.4349 22.0987 96.6449 22.038 96.8782 22.038C97.1115 22.038 97.3169 22.0987 97.4942 22.22C97.6809 22.3413 97.7742 22.5327 97.7742 22.794V28.94ZM90.5362 35.016C90.0882 35.016 89.7755 34.932 89.5982 34.764C89.4302 34.596 89.3462 34.2927 89.3462 33.854V31.376C89.3462 30.9373 89.4302 30.634 89.5982 30.466C89.7755 30.298 90.0882 30.214 90.5362 30.214H96.5842C97.0322 30.214 97.3402 30.298 97.5082 30.466C97.6855 30.634 97.7742 30.9373 97.7742 31.376V33.854C97.7742 34.2927 97.6855 34.596 97.5082 34.764C97.3402 34.932 97.0322 35.016 96.5842 35.016H90.5362ZM95.6742 33.546C95.8889 33.546 95.9962 33.4387 95.9962 33.224V32.006C95.9962 31.7913 95.8889 31.684 95.6742 31.684H91.4462C91.2315 31.684 91.1242 31.7913 91.1242 32.006V33.224C91.1242 33.4387 91.2315 33.546 91.4462 33.546H95.6742ZM103.152 25.748C103.152 25.2907 103.222 24.866 103.362 24.474C103.502 24.082 103.712 23.746 103.992 23.466C104.272 23.1767 104.622 22.9527 105.042 22.794C105.462 22.6353 105.948 22.556 106.498 22.556C107.049 22.556 107.534 22.6353 107.954 22.794C108.374 22.9527 108.724 23.1767 109.004 23.466C109.284 23.746 109.494 24.082 109.634 24.474C109.774 24.866 109.844 25.2907 109.844 25.748C109.844 26.2147 109.774 26.644 109.634 27.036C109.494 27.4187 109.284 27.7547 109.004 28.044C108.724 28.324 108.374 28.5433 107.954 28.702C107.534 28.8607 107.049 28.94 106.498 28.94C105.948 28.94 105.462 28.8607 105.042 28.702C104.622 28.5433 104.272 28.324 103.992 28.044C103.712 27.7547 103.502 27.4187 103.362 27.036C103.222 26.644 103.152 26.2147 103.152 25.748ZM108.136 25.748C108.136 25.5147 108.104 25.2953 108.038 25.09C107.982 24.8753 107.889 24.6933 107.758 24.544C107.628 24.3853 107.46 24.264 107.254 24.18C107.049 24.0867 106.797 24.04 106.498 24.04C106.2 24.04 105.948 24.0867 105.742 24.18C105.537 24.264 105.369 24.3853 105.238 24.544C105.108 24.6933 105.01 24.8753 104.944 25.09C104.888 25.2953 104.86 25.5147 104.86 25.748C104.86 25.9907 104.888 26.2147 104.944 26.42C105.01 26.6253 105.108 26.8073 105.238 26.966C105.369 27.1153 105.537 27.2367 105.742 27.33C105.948 27.414 106.2 27.456 106.498 27.456C106.797 27.456 107.049 27.414 107.254 27.33C107.46 27.2367 107.628 27.1153 107.758 26.966C107.889 26.8073 107.982 26.6253 108.038 26.42C108.104 26.2147 108.136 25.9907 108.136 25.748ZM113.134 23.844H114.338C114.553 23.844 114.712 23.9187 114.814 24.068C114.917 24.2173 114.968 24.3993 114.968 24.614C114.968 24.8193 114.917 24.9967 114.814 25.146C114.712 25.2953 114.553 25.37 114.338 25.37H113.134V26.224H114.338C114.553 26.224 114.712 26.2987 114.814 26.448C114.917 26.5973 114.968 26.7793 114.968 26.994C114.968 27.1993 114.917 27.3767 114.814 27.526C114.712 27.6753 114.553 27.75 114.338 27.75H113.134V28.996C113.134 29.2573 113.041 29.4487 112.854 29.57C112.677 29.6913 112.472 29.752 112.238 29.752C112.005 29.752 111.795 29.6913 111.608 29.57C111.431 29.4487 111.342 29.2573 111.342 28.996V22.794C111.342 22.5327 111.431 22.3413 111.608 22.22C111.795 22.0987 112.005 22.038 112.238 22.038C112.472 22.038 112.677 22.0987 112.854 22.22C113.041 22.3413 113.134 22.5327 113.134 22.794V23.844ZM104.916 32.552C104.916 31.6467 105.28 30.97 106.008 30.522C106.746 30.0647 107.758 29.836 109.046 29.836C110.334 29.836 111.342 30.0647 112.07 30.522C112.808 30.97 113.176 31.6467 113.176 32.552C113.176 33.4667 112.808 34.148 112.07 34.596C111.342 35.044 110.334 35.268 109.046 35.268C107.758 35.268 106.746 35.044 106.008 34.596C105.28 34.148 104.916 33.4667 104.916 32.552ZM111.398 32.552C111.398 32.1693 111.216 31.8613 110.852 31.628C110.498 31.3853 109.896 31.264 109.046 31.264C108.617 31.264 108.253 31.2967 107.954 31.362C107.656 31.418 107.413 31.502 107.226 31.614C107.04 31.726 106.904 31.8613 106.82 32.02C106.736 32.1787 106.694 32.356 106.694 32.552C106.694 32.748 106.736 32.9253 106.82 33.084C106.904 33.2427 107.04 33.378 107.226 33.49C107.413 33.602 107.656 33.686 107.954 33.742C108.253 33.8073 108.617 33.84 109.046 33.84C109.896 33.84 110.498 33.7187 110.852 33.476C111.216 33.2427 111.398 32.9347 111.398 32.552ZM120.697 25.272V25.972C120.697 26.2613 120.711 26.5133 120.739 26.728C120.776 26.9427 120.832 27.1433 120.907 27.33C120.981 27.5073 121.084 27.6847 121.215 27.862C121.345 28.03 121.509 28.212 121.705 28.408C121.985 28.688 122.251 28.9447 122.503 29.178C122.755 29.4113 122.993 29.626 123.217 29.822C123.385 29.9713 123.45 30.158 123.413 30.382C123.385 30.5967 123.301 30.774 123.161 30.914C123.021 31.054 122.848 31.1427 122.643 31.18C122.437 31.2173 122.251 31.1613 122.083 31.012C121.896 30.8533 121.695 30.6713 121.481 30.466C121.266 30.2513 121.033 30.018 120.781 29.766C120.594 29.5887 120.44 29.4347 120.319 29.304C120.207 29.1733 120.113 29.066 120.039 28.982C119.973 28.8887 119.922 28.8093 119.885 28.744C119.847 28.6693 119.824 28.5993 119.815 28.534H119.801C119.782 28.618 119.754 28.6973 119.717 28.772C119.689 28.8467 119.637 28.9353 119.563 29.038C119.497 29.1313 119.404 29.2433 119.283 29.374C119.171 29.4953 119.021 29.6447 118.835 29.822C118.583 30.0647 118.331 30.3027 118.079 30.536C117.836 30.7693 117.579 30.998 117.309 31.222C117.122 31.3713 116.921 31.418 116.707 31.362C116.492 31.2967 116.319 31.1893 116.189 31.04C116.058 30.8813 115.988 30.6993 115.979 30.494C115.969 30.2793 116.053 30.0973 116.231 29.948C116.529 29.696 116.809 29.4487 117.071 29.206C117.341 28.954 117.617 28.688 117.897 28.408C118.093 28.212 118.256 28.03 118.387 27.862C118.517 27.6847 118.62 27.5073 118.695 27.33C118.769 27.1433 118.821 26.9427 118.849 26.728C118.886 26.5133 118.905 26.2613 118.905 25.972V25.272H116.721C116.506 25.272 116.347 25.1973 116.245 25.048C116.142 24.8987 116.091 24.7213 116.091 24.516C116.091 24.3013 116.142 24.1193 116.245 23.97C116.347 23.8207 116.506 23.746 116.721 23.746H118.905V22.752C118.905 22.4907 118.993 22.2993 119.171 22.178C119.357 22.0567 119.567 21.996 119.801 21.996C120.034 21.996 120.239 22.0567 120.417 22.178C120.603 22.2993 120.697 22.4907 120.697 22.752V23.746H122.769C122.983 23.746 123.142 23.8207 123.245 23.97C123.347 24.1193 123.399 24.3013 123.399 24.516C123.399 24.7213 123.347 24.8987 123.245 25.048C123.142 25.1973 122.983 25.272 122.769 25.272H120.697ZM126.339 33.518C126.339 33.7793 126.245 33.9707 126.059 34.092C125.881 34.2133 125.671 34.274 125.429 34.274C125.195 34.274 124.985 34.2133 124.799 34.092C124.621 33.9707 124.533 33.7793 124.533 33.518V22.794C124.533 22.5327 124.621 22.3413 124.799 22.22C124.985 22.0987 125.195 22.038 125.429 22.038C125.671 22.038 125.881 22.0987 126.059 22.22C126.245 22.3413 126.339 22.5327 126.339 22.794V33.518ZM132.039 25.944C132.515 25.944 132.944 26.014 133.327 26.154C133.719 26.2847 134.045 26.4713 134.307 26.714C134.577 26.9567 134.783 27.2553 134.923 27.61C135.072 27.9553 135.147 28.338 135.147 28.758C135.147 29.178 135.072 29.5653 134.923 29.92C134.783 30.2653 134.577 30.5593 134.307 30.802C134.045 31.0447 133.719 31.236 133.327 31.376C132.944 31.5067 132.515 31.572 132.039 31.572C131.563 31.572 131.129 31.5067 130.737 31.376C130.354 31.236 130.027 31.0447 129.757 30.802C129.495 30.5593 129.29 30.2653 129.141 29.92C129.001 29.5653 128.931 29.178 128.931 28.758C128.931 28.338 129.001 27.9553 129.141 27.61C129.29 27.2553 129.495 26.9567 129.757 26.714C130.027 26.4713 130.354 26.2847 130.737 26.154C131.129 26.014 131.563 25.944 132.039 25.944ZM131.143 23.732V22.766C131.143 22.5047 131.231 22.3133 131.409 22.192C131.595 22.0707 131.805 22.01 132.039 22.01C132.272 22.01 132.477 22.0707 132.655 22.192C132.841 22.3133 132.935 22.5047 132.935 22.766V23.732H135.133C135.347 23.732 135.506 23.8067 135.609 23.956C135.711 24.1053 135.763 24.2827 135.763 24.488C135.763 24.6933 135.711 24.8707 135.609 25.02C135.506 25.1693 135.347 25.244 135.133 25.244H128.777C128.562 25.244 128.403 25.1693 128.301 25.02C128.198 24.8707 128.147 24.6933 128.147 24.488C128.147 24.2827 128.198 24.1053 128.301 23.956C128.403 23.8067 128.562 23.732 128.777 23.732H131.143ZM132.039 30.144C132.487 30.144 132.846 30.0227 133.117 29.78C133.387 29.528 133.523 29.1873 133.523 28.758C133.523 28.3287 133.387 27.9927 133.117 27.75C132.846 27.498 132.487 27.372 132.039 27.372C131.591 27.372 131.231 27.498 130.961 27.75C130.69 27.9927 130.555 28.3287 130.555 28.758C130.555 29.1873 130.69 29.528 130.961 29.78C131.231 30.0227 131.591 30.144 132.039 30.144ZM138.339 26.308H139.655C139.879 26.308 140.042 26.3827 140.145 26.532C140.247 26.6813 140.299 26.8633 140.299 27.078C140.299 27.2927 140.247 27.4793 140.145 27.638C140.042 27.7873 139.879 27.862 139.655 27.862H138.339V33.518C138.339 33.7793 138.245 33.9707 138.059 34.092C137.881 34.2133 137.681 34.274 137.457 34.274C137.223 34.274 137.013 34.2133 136.827 34.092C136.649 33.9707 136.561 33.7793 136.561 33.518V22.794C136.561 22.5327 136.649 22.3413 136.827 22.22C137.013 22.0987 137.223 22.038 137.457 22.038C137.681 22.038 137.881 22.0987 138.059 22.22C138.245 22.3413 138.339 22.5327 138.339 22.794V26.308ZM142.121 24.516C141.906 24.516 141.748 24.4413 141.645 24.292C141.542 24.1427 141.491 23.9653 141.491 23.76C141.491 23.5453 141.542 23.3633 141.645 23.214C141.748 23.0647 141.906 22.99 142.121 22.99H146.335C146.783 22.99 147.091 23.074 147.259 23.242C147.436 23.41 147.525 23.7133 147.525 24.152V25.706C147.525 26.098 147.502 26.4527 147.455 26.77C147.408 27.0873 147.32 27.3907 147.189 27.68C147.068 27.96 146.895 28.2353 146.671 28.506C146.447 28.7767 146.153 29.0613 145.789 29.36C145.425 29.6587 144.982 29.9807 144.459 30.326C143.946 30.6713 143.334 31.0587 142.625 31.488C142.429 31.6093 142.224 31.6327 142.009 31.558C141.804 31.474 141.645 31.348 141.533 31.18C141.421 31.012 141.365 30.816 141.365 30.592C141.365 30.368 141.468 30.1907 141.673 30.06C142.308 29.6773 142.849 29.3413 143.297 29.052C143.754 28.7533 144.132 28.4873 144.431 28.254C144.739 28.0207 144.977 27.806 145.145 27.61C145.322 27.414 145.453 27.218 145.537 27.022C145.63 26.8167 145.686 26.6067 145.705 26.392C145.733 26.1773 145.747 25.93 145.747 25.65V24.838C145.747 24.6233 145.64 24.516 145.425 24.516H142.121ZM151.543 33.518C151.543 33.7793 151.45 33.9707 151.263 34.092C151.086 34.2133 150.876 34.274 150.633 34.274C150.4 34.274 150.19 34.2133 150.003 34.092C149.826 33.9707 149.737 33.7793 149.737 33.518V22.794C149.737 22.5327 149.826 22.3413 150.003 22.22C150.19 22.0987 150.4 22.038 150.633 22.038C150.876 22.038 151.086 22.0987 151.263 22.22C151.45 22.3413 151.543 22.5327 151.543 22.794V33.518Z" fill="#2593BD"/>
<path d="M77.864 44.952C77.976 44.952 78.076 44.98 78.164 45.036C78.26 45.092 78.308 45.184 78.308 45.312V46.464C78.308 46.864 78.368 47.192 78.488 47.448C78.616 47.696 78.832 47.932 79.136 48.156C79.44 48.38 79.712 48.58 79.952 48.756C80.2 48.924 80.444 49.088 80.684 49.248C80.788 49.312 80.844 49.4 80.852 49.512C80.86 49.616 80.836 49.712 80.78 49.8C80.724 49.88 80.644 49.936 80.54 49.968C80.444 49.992 80.348 49.972 80.252 49.908C80.052 49.772 79.832 49.624 79.592 49.464C79.352 49.296 79.088 49.104 78.8 48.888C78.48 48.656 78.252 48.46 78.116 48.3C77.98 48.14 77.9 48 77.876 47.88H77.864C77.84 48.008 77.756 48.156 77.612 48.324C77.476 48.492 77.248 48.692 76.928 48.924C76.64 49.132 76.356 49.336 76.076 49.536C75.796 49.728 75.524 49.908 75.26 50.076C75.156 50.14 75.056 50.16 74.96 50.136C74.864 50.104 74.784 50.044 74.72 49.956C74.664 49.868 74.64 49.772 74.648 49.668C74.656 49.556 74.712 49.468 74.816 49.404C75.12 49.204 75.412 49.008 75.692 48.816C75.98 48.616 76.276 48.404 76.58 48.18C76.884 47.948 77.1 47.708 77.228 47.46C77.356 47.204 77.42 46.88 77.42 46.488V45.312C77.42 45.184 77.464 45.092 77.552 45.036C77.64 44.98 77.744 44.952 77.864 44.952ZM83 44.712C83.112 44.712 83.212 44.74 83.3 44.796C83.388 44.852 83.432 44.944 83.432 45.072V49.968C83.432 50.096 83.388 50.188 83.3 50.244C83.212 50.3 83.112 50.328 83 50.328C82.888 50.328 82.788 50.3 82.7 50.244C82.612 50.188 82.568 50.096 82.568 49.968V47.448H80.42C80.316 47.448 80.24 47.412 80.192 47.34C80.144 47.268 80.12 47.176 80.12 47.064C80.12 46.96 80.144 46.872 80.192 46.8C80.24 46.72 80.316 46.68 80.42 46.68H82.568V45.072C82.568 44.944 82.612 44.852 82.7 44.796C82.788 44.74 82.888 44.712 83 44.712ZM82.604 50.928C82.916 50.928 83.132 50.988 83.252 51.108C83.372 51.22 83.432 51.428 83.432 51.732V52.836C83.432 53.14 83.372 53.352 83.252 53.472C83.132 53.584 82.916 53.64 82.604 53.64H77.684C77.604 53.64 77.544 53.656 77.504 53.688C77.472 53.712 77.456 53.768 77.456 53.856V54.708C77.456 54.86 77.532 54.936 77.684 54.936H83.432C83.528 54.936 83.6 54.972 83.648 55.044C83.696 55.116 83.72 55.2 83.72 55.296C83.72 55.392 83.696 55.476 83.648 55.548C83.6 55.62 83.528 55.656 83.432 55.656H77.432C77.12 55.656 76.904 55.596 76.784 55.476C76.664 55.364 76.604 55.156 76.604 54.852V53.736C76.604 53.432 76.664 53.224 76.784 53.112C76.904 52.992 77.12 52.932 77.432 52.932H82.352C82.44 52.932 82.5 52.92 82.532 52.896C82.564 52.864 82.58 52.804 82.58 52.716V51.864C82.58 51.72 82.504 51.648 82.352 51.648H76.868C76.772 51.648 76.7 51.612 76.652 51.54C76.604 51.468 76.58 51.384 76.58 51.288C76.58 51.192 76.604 51.108 76.652 51.036C76.7 50.964 76.772 50.928 76.868 50.928H82.604ZM89.9019 45.324C90.2139 45.324 90.4299 45.384 90.5499 45.504C90.6699 45.616 90.7299 45.824 90.7299 46.128V49.416C90.7299 49.72 90.6699 49.932 90.5499 50.052C90.4299 50.164 90.2139 50.22 89.9019 50.22H86.7099C86.3979 50.22 86.1819 50.164 86.0619 50.052C85.9419 49.932 85.8819 49.72 85.8819 49.416V46.128C85.8819 45.824 85.9419 45.616 86.0619 45.504C86.1819 45.384 86.3979 45.324 86.7099 45.324H89.9019ZM86.9739 46.08C86.8859 46.08 86.8259 46.096 86.7939 46.128C86.7619 46.152 86.7459 46.208 86.7459 46.296V49.236C86.7459 49.388 86.8219 49.464 86.9739 49.464H89.6499C89.8019 49.464 89.8779 49.388 89.8779 49.236V46.296C89.8779 46.208 89.8579 46.152 89.8179 46.128C89.7859 46.096 89.7299 46.08 89.6499 46.08H86.9739ZM93.8019 44.712C93.9139 44.712 94.0139 44.74 94.1019 44.796C94.1899 44.852 94.2339 44.944 94.2339 45.072V50.916C94.2339 51.044 94.1899 51.136 94.1019 51.192C94.0139 51.248 93.9139 51.276 93.8019 51.276C93.6899 51.276 93.5899 51.248 93.5019 51.192C93.4139 51.136 93.3699 51.044 93.3699 50.916V49.236H91.6539C91.5499 49.236 91.4739 49.2 91.4259 49.128C91.3779 49.056 91.3539 48.964 91.3539 48.852C91.3539 48.748 91.3779 48.66 91.4259 48.588C91.4739 48.516 91.5499 48.48 91.6539 48.48H93.3699V47.112H91.6539C91.5499 47.112 91.4739 47.076 91.4259 47.004C91.3779 46.924 91.3539 46.832 91.3539 46.728C91.3539 46.624 91.3779 46.536 91.4259 46.464C91.4739 46.392 91.5499 46.356 91.6539 46.356H93.3699V45.072C93.3699 44.944 93.4139 44.852 93.5019 44.796C93.5899 44.74 93.6899 44.712 93.8019 44.712ZM90.8979 51.42C91.9939 51.42 92.8379 51.608 93.4299 51.984C94.0219 52.352 94.3179 52.896 94.3179 53.616C94.3179 54.336 94.0219 54.88 93.4299 55.248C92.8379 55.624 91.9939 55.812 90.8979 55.812C89.8019 55.812 88.9579 55.624 88.3659 55.248C87.7819 54.88 87.4899 54.336 87.4899 53.616C87.4899 52.896 87.7819 52.352 88.3659 51.984C88.9579 51.608 89.8019 51.42 90.8979 51.42ZM90.8979 52.14C90.0259 52.14 89.3819 52.272 88.9659 52.536C88.5579 52.8 88.3539 53.16 88.3539 53.616C88.3539 54.072 88.5579 54.432 88.9659 54.696C89.3819 54.96 90.0259 55.092 90.8979 55.092C91.7699 55.092 92.4139 54.96 92.8299 54.696C93.2459 54.432 93.4539 54.072 93.4539 53.616C93.4539 53.16 93.2459 52.8 92.8299 52.536C92.4139 52.272 91.7699 52.14 90.8979 52.14ZM106.668 45.156C106.98 45.156 107.196 45.216 107.316 45.336C107.436 45.448 107.496 45.656 107.496 45.96V48.276C107.496 48.58 107.436 48.792 107.316 48.912C107.196 49.024 106.98 49.08 106.668 49.08H101.22C100.908 49.08 100.692 49.024 100.572 48.912C100.452 48.792 100.392 48.58 100.392 48.276V45.96C100.392 45.656 100.452 45.448 100.572 45.336C100.692 45.216 100.908 45.156 101.22 45.156H106.668ZM101.484 45.9C101.396 45.9 101.336 45.916 101.304 45.948C101.272 45.972 101.256 46.028 101.256 46.116V48.12C101.256 48.208 101.272 48.268 101.304 48.3C101.336 48.324 101.396 48.336 101.484 48.336H106.404C106.492 48.336 106.552 48.324 106.584 48.3C106.616 48.268 106.632 48.208 106.632 48.12V46.116C106.632 46.028 106.616 45.972 106.584 45.948C106.552 45.916 106.492 45.9 106.404 45.9H101.484ZM108.648 50.364C108.752 50.364 108.828 50.4 108.876 50.472C108.924 50.544 108.948 50.632 108.948 50.736C108.948 50.84 108.924 50.928 108.876 51C108.828 51.072 108.752 51.108 108.648 51.108H104.496V53.04C104.496 53.16 104.452 53.248 104.364 53.304C104.284 53.352 104.184 53.376 104.064 53.376C103.952 53.376 103.852 53.352 103.764 53.304C103.676 53.248 103.632 53.16 103.632 53.04V51.108H99.2397C99.1357 51.108 99.0597 51.072 99.0117 51C98.9637 50.928 98.9397 50.84 98.9397 50.736C98.9397 50.632 98.9637 50.544 99.0117 50.472C99.0597 50.4 99.1357 50.364 99.2397 50.364H108.648ZM100.812 52.272C100.924 52.272 101.024 52.3 101.112 52.356C101.2 52.412 101.244 52.504 101.244 52.632V54.588C101.244 54.74 101.32 54.816 101.472 54.816H107.424C107.528 54.816 107.604 54.852 107.652 54.924C107.7 54.996 107.724 55.084 107.724 55.188C107.724 55.292 107.7 55.38 107.652 55.452C107.604 55.524 107.528 55.56 107.424 55.56H101.196C100.884 55.56 100.668 55.5 100.548 55.38C100.428 55.268 100.368 55.06 100.368 54.756V52.632C100.368 52.504 100.412 52.412 100.5 52.356C100.588 52.3 100.692 52.272 100.812 52.272ZM117.386 45.3C117.698 45.3 117.914 45.36 118.034 45.48C118.154 45.592 118.214 45.8 118.214 46.104V46.8C118.214 47.512 118.174 48.192 118.094 48.84C118.014 49.488 117.89 50.084 117.722 50.628L116.906 50.472C117.066 49.88 117.178 49.292 117.242 48.708C117.314 48.116 117.35 47.496 117.35 46.848V46.284C117.35 46.196 117.334 46.14 117.302 46.116C117.27 46.084 117.21 46.068 117.122 46.068H111.362C111.258 46.068 111.182 46.032 111.134 45.96C111.086 45.88 111.062 45.788 111.062 45.684C111.062 45.572 111.086 45.48 111.134 45.408C111.182 45.336 111.258 45.3 111.362 45.3H117.386ZM119.438 50.256C119.55 50.256 119.63 50.292 119.678 50.364C119.726 50.436 119.75 50.528 119.75 50.64C119.75 50.744 119.726 50.832 119.678 50.904C119.63 50.976 119.55 51.012 119.438 51.012H115.19V55.464C115.19 55.592 115.142 55.684 115.046 55.74C114.958 55.796 114.858 55.824 114.746 55.824C114.634 55.824 114.534 55.796 114.446 55.74C114.358 55.684 114.314 55.592 114.314 55.464V51.012H110.054C109.942 51.012 109.862 50.976 109.814 50.904C109.766 50.832 109.742 50.744 109.742 50.64C109.742 50.528 109.766 50.436 109.814 50.364C109.862 50.292 109.942 50.256 110.054 50.256H119.438Z" fill="#2593BD"/>
<g filter="url(#filter2_d_1181_3752)">
<rect x="16" y="73" width="148" height="32" rx="8" fill="white" fill-opacity="0.1" shape-rendering="crispEdges"/>
<rect x="16.5" y="73.5" width="147" height="31" rx="7.5" stroke="#3DAFD9" shape-rendering="crispEdges"/>
<path d="M57.2 89.904C56.816 89.904 56.548 89.832 56.396 89.688C56.252 89.544 56.18 89.284 56.18 88.908V84.756C56.18 84.54 56.26 84.38 56.42 84.276C56.58 84.164 56.756 84.108 56.948 84.108C57.14 84.108 57.316 84.164 57.476 84.276C57.636 84.38 57.716 84.54 57.716 84.756V85.92H62.204V84.756C62.204 84.54 62.284 84.38 62.444 84.276C62.604 84.164 62.78 84.108 62.972 84.108C63.164 84.108 63.34 84.164 63.5 84.276C63.66 84.38 63.74 84.54 63.74 84.756V88.908C63.74 89.284 63.664 89.544 63.512 89.688C63.368 89.832 63.104 89.904 62.72 89.904H57.2ZM61.928 88.62C62.112 88.62 62.204 88.528 62.204 88.344V87.204H57.716V88.344C57.716 88.528 57.808 88.62 57.992 88.62H61.928ZM55.424 93.108C55.24 93.108 55.104 93.044 55.016 92.916C54.928 92.788 54.884 92.636 54.884 92.46C54.884 92.284 54.928 92.132 55.016 92.004C55.104 91.876 55.24 91.812 55.424 91.812H59.192V89.172H60.728V91.812H64.496C64.68 91.812 64.816 91.876 64.904 92.004C64.992 92.132 65.036 92.284 65.036 92.46C65.036 92.636 64.992 92.788 64.904 92.916C64.816 93.044 64.68 93.108 64.496 93.108H55.424ZM69.7539 85.596C69.7539 85.964 69.8099 86.28 69.9219 86.544C70.0419 86.8 70.2299 87.04 70.4859 87.264C70.7499 87.488 70.9939 87.688 71.2179 87.864C71.4419 88.04 71.6459 88.196 71.8299 88.332C71.9979 88.452 72.0819 88.6 72.0819 88.776C72.0899 88.944 72.0379 89.104 71.9259 89.256C71.8379 89.384 71.7059 89.48 71.5299 89.544C71.3539 89.608 71.1739 89.576 70.9899 89.448C70.8459 89.344 70.6659 89.212 70.4499 89.052C70.2419 88.884 70.0219 88.7 69.7899 88.5C69.5099 88.268 69.3139 88.088 69.2019 87.96C69.0979 87.832 69.0299 87.708 68.9979 87.588H68.9859C68.9539 87.724 68.8779 87.868 68.7579 88.02C68.6379 88.164 68.4379 88.352 68.1579 88.584C67.6939 88.976 67.2339 89.336 66.7779 89.664C66.6019 89.792 66.4219 89.824 66.2379 89.76C66.0619 89.696 65.9299 89.6 65.8419 89.472C65.7379 89.328 65.6819 89.164 65.6739 88.98C65.6739 88.796 65.7659 88.636 65.9499 88.5C66.2139 88.308 66.4659 88.12 66.7059 87.936C66.9459 87.744 67.1979 87.536 67.4619 87.312C67.7179 87.088 67.9019 86.848 68.0139 86.592C68.1339 86.328 68.1939 86.012 68.1939 85.644V84.636C68.1939 84.404 68.2699 84.236 68.4219 84.132C68.5819 84.028 68.7659 83.976 68.9739 83.976C69.1819 83.976 69.3619 84.028 69.5139 84.132C69.6739 84.236 69.7539 84.404 69.7539 84.636V85.596ZM75.4899 86.184C75.6819 86.184 75.8219 86.248 75.9099 86.376C75.9979 86.504 76.0419 86.66 76.0419 86.844C76.0419 87.028 75.9979 87.188 75.9099 87.324C75.8219 87.452 75.6819 87.516 75.4899 87.516H74.3619V89.568C74.3619 89.792 74.2819 89.956 74.1219 90.06C73.9699 90.164 73.7939 90.216 73.5939 90.216C73.3939 90.216 73.2139 90.164 73.0539 90.06C72.9019 89.956 72.8259 89.792 72.8259 89.568V84.252C72.8259 84.028 72.9019 83.864 73.0539 83.76C73.2139 83.656 73.3939 83.604 73.5939 83.604C73.7939 83.604 73.9699 83.656 74.1219 83.76C74.2819 83.864 74.3619 84.028 74.3619 84.252V86.184H75.4899ZM67.3179 92.616C67.3179 91.84 67.6299 91.26 68.2539 90.876C68.8859 90.484 69.7539 90.288 70.8579 90.288C71.9619 90.288 72.8259 90.484 73.4499 90.876C74.0819 91.26 74.3979 91.84 74.3979 92.616C74.3979 93.4 74.0819 93.984 73.4499 94.368C72.8259 94.752 71.9619 94.944 70.8579 94.944C69.7539 94.944 68.8859 94.752 68.2539 94.368C67.6299 93.984 67.3179 93.4 67.3179 92.616ZM72.8739 92.616C72.8739 92.288 72.7179 92.024 72.4059 91.824C72.1019 91.616 71.5859 91.512 70.8579 91.512C70.4899 91.512 70.1779 91.54 69.9219 91.596C69.6659 91.644 69.4579 91.716 69.2979 91.812C69.1379 91.908 69.0219 92.024 68.9499 92.16C68.8779 92.296 68.8419 92.448 68.8419 92.616C68.8419 92.784 68.8779 92.936 68.9499 93.072C69.0219 93.208 69.1379 93.324 69.2979 93.42C69.4579 93.516 69.6659 93.588 69.9219 93.636C70.1779 93.692 70.4899 93.72 70.8579 93.72C71.5859 93.72 72.1019 93.616 72.4059 93.408C72.7179 93.208 72.8739 92.944 72.8739 92.616ZM83.1957 86.04C84.0197 86.04 84.6677 86.176 85.1397 86.448C85.6117 86.712 85.8477 87.104 85.8477 87.624C85.8477 88.144 85.6117 88.54 85.1397 88.812C84.6677 89.076 84.0197 89.208 83.1957 89.208C82.3717 89.208 81.7237 89.076 81.2517 88.812C80.7797 88.54 80.5437 88.144 80.5437 87.624C80.5437 87.104 80.7797 86.712 81.2517 86.448C81.7237 86.176 82.3717 86.04 83.1957 86.04ZM83.1957 88.128C84.0437 88.128 84.4677 87.96 84.4677 87.624C84.4677 87.288 84.0437 87.12 83.1957 87.12C82.3477 87.12 81.9237 87.288 81.9237 87.624C81.9237 87.96 82.3477 88.128 83.1957 88.128ZM80.3637 85.656C80.1957 85.656 80.0717 85.6 79.9917 85.488C79.9117 85.368 79.8717 85.228 79.8717 85.068C79.8717 84.908 79.9117 84.768 79.9917 84.648C80.0717 84.528 80.1957 84.468 80.3637 84.468H82.4277V84C82.4277 83.792 82.5037 83.636 82.6557 83.532C82.8077 83.428 82.9877 83.376 83.1957 83.376C83.3957 83.376 83.5717 83.428 83.7237 83.532C83.8837 83.636 83.9637 83.792 83.9637 84V84.468H85.9077C86.0757 84.468 86.1997 84.528 86.2797 84.648C86.3597 84.768 86.3997 84.908 86.3997 85.068C86.3997 85.228 86.3597 85.368 86.2797 85.488C86.1997 85.6 86.0757 85.656 85.9077 85.656H80.3637ZM87.2517 84.252C87.2517 84.028 87.3277 83.864 87.4797 83.76C87.6397 83.656 87.8197 83.604 88.0197 83.604C88.2117 83.604 88.3837 83.656 88.5358 83.76C88.6957 83.864 88.7757 84.028 88.7757 84.252V90.552C88.7757 90.776 88.6957 90.94 88.5358 91.044C88.3837 91.148 88.2117 91.2 88.0197 91.2C87.8197 91.2 87.6397 91.148 87.4797 91.044C87.3277 90.94 87.2517 90.776 87.2517 90.552V84.252ZM80.0157 89.892C80.4317 89.892 80.8397 89.892 81.2397 89.892C81.6477 89.892 82.0517 89.888 82.4517 89.88V88.668H83.9397V89.832C84.7077 89.808 85.4717 89.76 86.2317 89.688C86.4157 89.672 86.5517 89.716 86.6397 89.82C86.7357 89.916 86.7917 90.044 86.8077 90.204C86.8237 90.364 86.7957 90.512 86.7237 90.648C86.6597 90.776 86.5357 90.848 86.3517 90.864C85.9837 90.896 85.5637 90.928 85.0917 90.96C84.6197 90.984 84.1117 91.008 83.5677 91.032C83.0237 91.048 82.4517 91.064 81.8517 91.08C81.2517 91.088 80.6397 91.092 80.0157 91.092C79.8397 91.092 79.7077 91.032 79.6197 90.912C79.5397 90.792 79.4997 90.652 79.4997 90.492C79.4997 90.332 79.5397 90.192 79.6197 90.072C79.7077 89.952 79.8397 89.892 80.0157 89.892ZM87.2757 93.132C87.2757 92.948 87.1837 92.856 86.9997 92.856H81.5637C81.3877 92.856 81.2597 92.796 81.1797 92.676C81.0997 92.556 81.0597 92.416 81.0597 92.256C81.0597 92.096 81.0997 91.956 81.1797 91.836C81.2597 91.708 81.3877 91.644 81.5637 91.644H87.7557C88.1397 91.644 88.4037 91.716 88.5477 91.86C88.6997 92.004 88.7757 92.264 88.7757 92.64V94.272C88.7757 94.488 88.6957 94.648 88.5358 94.752C88.3837 94.856 88.2117 94.908 88.0197 94.908C87.8357 94.908 87.6637 94.856 87.5037 94.752C87.3517 94.648 87.2757 94.488 87.2757 94.272V93.132ZM92.5096 88.02C92.1256 88.02 91.8576 87.948 91.7056 87.804C91.5616 87.66 91.4896 87.4 91.4896 87.024V84.972C91.4896 84.596 91.5616 84.336 91.7056 84.192C91.8576 84.048 92.1256 83.976 92.5096 83.976H98.4256C98.6096 83.976 98.7416 84.04 98.8216 84.168C98.9096 84.288 98.9536 84.436 98.9536 84.612C98.9536 84.788 98.9096 84.94 98.8216 85.068C98.7416 85.188 98.6096 85.248 98.4256 85.248H93.3136C93.1296 85.248 93.0376 85.34 93.0376 85.524V86.472C93.0376 86.656 93.1296 86.748 93.3136 86.748H98.5456C98.7296 86.748 98.8616 86.812 98.9416 86.94C99.0296 87.06 99.0736 87.208 99.0736 87.384C99.0736 87.56 99.0296 87.712 98.9416 87.84C98.8616 87.96 98.7296 88.02 98.5456 88.02H92.5096ZM90.7096 90.18C90.5256 90.18 90.3896 90.116 90.3016 89.988C90.2136 89.86 90.1696 89.708 90.1696 89.532C90.1696 89.364 90.2136 89.216 90.3016 89.088C90.3896 88.96 90.5256 88.896 90.7096 88.896H99.7816C99.9656 88.896 100.102 88.96 100.19 89.088C100.278 89.216 100.322 89.364 100.322 89.532C100.322 89.708 100.278 89.86 100.19 89.988C100.102 90.116 99.9656 90.18 99.7816 90.18H90.7096ZM97.4896 92.616C97.4896 92.432 97.3976 92.34 97.2136 92.34H91.8496C91.6656 92.34 91.5296 92.28 91.4416 92.16C91.3616 92.032 91.3216 91.88 91.3216 91.704C91.3216 91.528 91.3616 91.38 91.4416 91.26C91.5296 91.132 91.6656 91.068 91.8496 91.068H98.0056C98.3896 91.068 98.6536 91.14 98.7976 91.284C98.9496 91.428 99.0256 91.688 99.0256 92.064V94.284C99.0256 94.508 98.9456 94.672 98.7856 94.776C98.6336 94.88 98.4576 94.932 98.2576 94.932C98.0576 94.932 97.8776 94.88 97.7176 94.776C97.5656 94.672 97.4896 94.508 97.4896 94.284V92.616ZM107.319 88.404C106.367 88.404 105.651 88.2 105.171 87.792C104.691 87.376 104.451 86.836 104.451 86.172C104.451 85.508 104.691 84.972 105.171 84.564C105.651 84.148 106.367 83.94 107.319 83.94C108.271 83.94 108.987 84.148 109.467 84.564C109.947 84.972 110.187 85.508 110.187 86.172C110.187 86.836 109.947 87.376 109.467 87.792C108.987 88.2 108.271 88.404 107.319 88.404ZM107.319 87.156C107.815 87.156 108.175 87.068 108.399 86.892C108.631 86.716 108.747 86.476 108.747 86.172C108.747 85.868 108.631 85.628 108.399 85.452C108.175 85.276 107.815 85.188 107.319 85.188C106.823 85.188 106.459 85.276 106.227 85.452C106.003 85.628 105.891 85.868 105.891 86.172C105.891 86.476 106.003 86.716 106.227 86.892C106.459 87.068 106.823 87.156 107.319 87.156ZM112.731 86.916H113.703C113.895 86.916 114.035 86.98 114.123 87.108C114.211 87.236 114.255 87.392 114.255 87.576C114.255 87.76 114.211 87.92 114.123 88.056C114.035 88.184 113.895 88.248 113.703 88.248H112.731V91.392C112.731 91.608 112.655 91.768 112.503 91.872C112.351 91.976 112.175 92.028 111.975 92.028C111.775 92.028 111.599 91.976 111.447 91.872C111.295 91.768 111.219 91.608 111.219 91.392V84.24C111.219 84.024 111.295 83.864 111.447 83.76C111.599 83.656 111.775 83.604 111.975 83.604C112.175 83.604 112.351 83.656 112.503 83.76C112.655 83.864 112.731 84.024 112.731 84.24V86.916ZM110.283 90.48C109.899 90.512 109.475 90.54 109.011 90.564C108.547 90.588 108.059 90.612 107.547 90.636C107.043 90.652 106.519 90.664 105.975 90.672C105.439 90.68 104.899 90.684 104.355 90.684C104.171 90.684 104.035 90.62 103.947 90.492C103.859 90.364 103.815 90.212 103.815 90.036C103.815 89.868 103.859 89.72 103.947 89.592C104.035 89.464 104.171 89.4 104.355 89.4C104.723 89.4 105.091 89.4 105.459 89.4C105.827 89.4 106.199 89.396 106.575 89.388V87.516H108.087V89.352C108.439 89.336 108.787 89.32 109.131 89.304C109.483 89.28 109.831 89.252 110.175 89.22C110.359 89.204 110.495 89.252 110.583 89.364C110.679 89.476 110.735 89.62 110.751 89.796C110.767 89.956 110.739 90.108 110.667 90.252C110.595 90.388 110.467 90.464 110.283 90.48ZM112.455 93.372C112.639 93.372 112.775 93.436 112.863 93.564C112.951 93.692 112.995 93.844 112.995 94.02C112.995 94.196 112.951 94.348 112.863 94.476C112.775 94.604 112.639 94.668 112.455 94.668H106.395C106.011 94.668 105.743 94.596 105.591 94.452C105.447 94.308 105.375 94.048 105.375 93.672V91.836C105.375 91.612 105.451 91.448 105.603 91.344C105.763 91.24 105.947 91.188 106.155 91.188C106.355 91.188 106.531 91.24 106.683 91.344C106.843 91.448 106.923 91.612 106.923 91.836V93.096C106.923 93.28 107.015 93.372 107.199 93.372H112.455ZM122.429 84.228C122.813 84.228 123.077 84.3 123.221 84.444C123.373 84.588 123.449 84.848 123.449 85.224V86.808C123.449 87.184 123.373 87.444 123.221 87.588C123.077 87.732 122.813 87.804 122.429 87.804H117.773C117.589 87.804 117.497 87.896 117.497 88.08V88.572C117.497 88.756 117.589 88.848 117.773 88.848H123.149C123.333 88.848 123.469 88.912 123.557 89.04C123.645 89.168 123.689 89.32 123.689 89.496C123.689 89.672 123.645 89.824 123.557 89.952C123.469 90.08 123.333 90.144 123.149 90.144H117.005C116.621 90.144 116.353 90.072 116.201 89.928C116.057 89.784 115.985 89.524 115.985 89.148V87.552C115.985 87.176 116.057 86.916 116.201 86.772C116.353 86.628 116.621 86.556 117.005 86.556H121.661C121.845 86.556 121.937 86.464 121.937 86.28V85.8C121.937 85.616 121.845 85.524 121.661 85.524H116.501C116.317 85.524 116.181 85.46 116.093 85.332C116.005 85.204 115.961 85.052 115.961 84.876C115.961 84.7 116.005 84.548 116.093 84.42C116.181 84.292 116.317 84.228 116.501 84.228H122.429ZM115.193 93.108C115.009 93.108 114.873 93.044 114.785 92.916C114.697 92.788 114.653 92.636 114.653 92.46C114.653 92.292 114.697 92.144 114.785 92.016C114.873 91.888 115.009 91.824 115.193 91.824H117.509V89.532H118.961V91.824H120.545V89.532H121.997V91.824H124.265C124.449 91.824 124.585 91.888 124.673 92.016C124.761 92.144 124.805 92.292 124.805 92.46C124.805 92.636 124.761 92.788 124.673 92.916C124.585 93.044 124.449 93.108 124.265 93.108H115.193Z" fill="#3DAFD9"/>
</g>
<rect y="-1" width="180" height="122" rx="8" fill="white" fill-opacity="0.6"/>
</g>
<rect x="1" y="1" width="178" height="118" rx="7" stroke="#5FC6F0" stroke-width="2"/>
</g>
<defs>
<filter id="filter0_d_1181_3752" x="0" y="0" width="180" height="124" filterUnits="userSpaceOnUse" color-interpolation-filters="sRGB">
<feFlood flood-opacity="0" result="BackgroundImageFix"/>
<feColorMatrix in="SourceAlpha" type="matrix" values="0 0 0 0 0 0 0 0 0 0 0 0 0 0 0 0 0 0 127 0" result="hardAlpha"/>
<feOffset dy="4"/>
<feComposite in2="hardAlpha" operator="out"/>
<feColorMatrix type="matrix" values="0 0 0 0 0.372549 0 0 0 0 0.776471 0 0 0 0 0.941176 0 0 0 1 0"/>
<feBlend mode="normal" in2="BackgroundImageFix" result="effect1_dropShadow_1181_3752"/>
<feBlend mode="normal" in="SourceGraphic" in2="effect1_dropShadow_1181_3752" result="shape"/>
</filter>
<filter id="filter1_d_1181_3752" x="15.884" y="12.884" width="50.5891" height="50.9462" filterUnits="userSpaceOnUse" color-interpolation-filters="sRGB">
<feFlood flood-opacity="0" result="BackgroundImageFix"/>
<feColorMatrix in="SourceAlpha" type="matrix" values="0 0 0 0 0 0 0 0 0 0 0 0 0 0 0 0 0 0 127 0" result="hardAlpha"/>
<feOffset dx="0.357143" dy="0.714286"/>
<feComposite in2="hardAlpha" operator="out"/>
<feColorMatrix type="matrix" values="0 0 0 0 0.12549 0 0 0 0 0.572549 0 0 0 0 0.768627 0 0 0 1 0"/>
<feBlend mode="normal" in2="BackgroundImageFix" result="effect1_dropShadow_1181_3752"/>
<feBlend mode="normal" in="SourceGraphic" in2="effect1_dropShadow_1181_3752" result="shape"/>
</filter>
<filter id="filter2_d_1181_3752" x="16" y="73" width="148" height="36" filterUnits="userSpaceOnUse" color-interpolation-filters="sRGB">
<feFlood flood-opacity="0" result="BackgroundImageFix"/>
<feColorMatrix in="SourceAlpha" type="matrix" values="0 0 0 0 0 0 0 0 0 0 0 0 0 0 0 0 0 0 127 0" result="hardAlpha"/>
<feOffset dy="4"/>
<feComposite in2="hardAlpha" operator="out"/>
<feColorMatrix type="matrix" values="0 0 0 0 0.239216 0 0 0 0 0.686275 0 0 0 0 0.85098 0 0 0 1 0"/>
<feBlend mode="normal" in2="BackgroundImageFix" result="effect1_dropShadow_1181_3752"/>
<feBlend mode="normal" in="SourceGraphic" in2="effect1_dropShadow_1181_3752" result="shape"/>
</filter>
<linearGradient id="paint0_linear_1181_3752" x1="38.9128" y1="12.9536" x2="43.0408" y2="62.7681" gradientUnits="userSpaceOnUse">
<stop stop-color="#A1DDF5"/>
<stop offset="1" stop-color="#AAE6FF"/>
</linearGradient>
<linearGradient id="paint1_linear_1181_3752" x1="30.6011" y1="26.1632" x2="51.705" y2="50.2356" gradientUnits="userSpaceOnUse">
<stop stop-color="#ABDDF4"/>
<stop offset="1" stop-color="#7CCCEA"/>
</linearGradient>
<clipPath id="clip0_1181_3752">
<rect width="180" height="120" rx="8" fill="white"/>
</clipPath>
</defs>
</svg>
