<svg width="180" height="126" viewBox="0 0 180 126" fill="none" xmlns="http://www.w3.org/2000/svg">
<g filter="url(#filter0_d_1181_3753)">
<rect width="180" height="122" rx="8" fill="#EBF9FF"/>
<rect x="1" y="1" width="178" height="120" rx="7" stroke="#5FC6F0" stroke-width="2"/>
<g filter="url(#filter1_d_1181_3753)">
<path d="M41 63C54.8071 63 66 51.8071 66 38C66 24.1929 54.8071 13 41 13C27.1929 13 16 24.1929 16 38C16 51.8071 27.1929 63 41 63Z" fill="url(#paint0_linear_1181_3753)" stroke="#2092C4" stroke-width="0.231911"/>
<path d="M41.0371 54.5028C50.1308 54.5028 57.5028 47.1308 57.5028 38.0371C57.5028 28.9433 50.1308 21.5714 41.0371 21.5714C31.9434 21.5714 24.5714 28.9433 24.5714 38.0371C24.5714 47.1308 31.9434 54.5028 41.0371 54.5028Z" fill="url(#paint1_linear_1181_3753)" stroke="#2092C4" stroke-width="0.231911"/>
<path d="M41 55.1429C50.4677 55.1429 58.1429 47.4678 58.1429 38C58.1429 28.5323 50.4677 20.8572 41 20.8572C31.5323 20.8572 23.8571 28.5323 23.8571 38C23.8571 47.4678 31.5323 55.1429 41 55.1429Z" stroke="#2092C4" stroke-width="0.231911" stroke-linecap="round" stroke-linejoin="round" stroke-dasharray="0.21 0.71"/>
<path d="M41.0805 29.2695C39.921 29.3159 38.3903 28.481 37.138 28.3882C35.2827 28.2491 32.9636 28.6665 31.8041 31.4031C30.6445 34.1396 31.4794 36.737 32.4998 39.2417C33.5202 41.7463 32.8245 48.6109 36.2104 49.0747C40.1529 49.6313 38.1121 43.5552 40.9414 43.6016C43.7707 43.648 41.869 50.2806 45.7651 49.0747C48.8727 48.147 48.3161 41.8391 49.1974 39.6127C49.7076 38.314 52.908 31.5422 47.9451 28.8057C44.9302 27.1823 42.2865 29.4086 40.9878 29.2695H41.0805Z" fill="#E1F9FF" stroke="#2092C4" stroke-width="0.231911"/>
<path d="M38.5295 34.8353C38.965 34.8353 39.318 34.3162 39.318 33.6758C39.318 33.0354 38.965 32.5162 38.5295 32.5162C38.094 32.5162 37.741 33.0354 37.741 33.6758C37.741 34.3162 38.094 34.8353 38.5295 34.8353Z" fill="#1F6084"/>
<path d="M43.5852 34.8353C44.0206 34.8353 44.3737 34.3162 44.3737 33.6758C44.3737 33.0354 44.0206 32.5162 43.5852 32.5162C43.1497 32.5162 42.7967 33.0354 42.7967 33.6758C42.7967 34.3162 43.1497 34.8353 43.5852 34.8353Z" fill="#1F6084"/>
<path d="M39.4107 35.6702C39.3644 36.5514 42.843 36.5978 42.843 35.6238" stroke="#1F6084" stroke-width="0.231911" stroke-linecap="round" stroke-linejoin="round"/>
<path d="M37.2772 37.2009C37.7895 37.2009 38.2048 36.7855 38.2048 36.2732C38.2048 35.7609 37.7895 35.3456 37.2772 35.3456C36.7648 35.3456 36.3495 35.7609 36.3495 36.2732C36.3495 36.7855 36.7648 37.2009 37.2772 37.2009Z" fill="#FEC4B4" stroke="#F4AEA6" stroke-width="0.231911" stroke-miterlimit="10"/>
<path d="M44.9302 37.2009C45.4425 37.2009 45.8579 36.7855 45.8579 36.2732C45.8579 35.7609 45.4425 35.3456 44.9302 35.3456C44.4179 35.3456 44.0026 35.7609 44.0026 36.2732C44.0026 36.7855 44.4179 37.2009 44.9302 37.2009Z" fill="#FEC4B4" stroke="#F4AEA6" stroke-width="0.231911" stroke-miterlimit="10"/>
<path d="M52.9991 52.2751C52.9063 52.1823 52.9063 52.1359 52.9991 52.0431C53.5556 51.2083 54.2514 50.6981 54.9471 50.5589C55.6428 50.4198 56.385 50.5589 57.0343 51.2083C57.4981 51.6257 57.73 52.0895 57.7764 52.5534C57.8228 53.0172 57.7764 53.481 57.4981 53.8984C57.2662 54.3159 56.9415 54.7333 56.5705 55.058C56.4777 55.1508 56.4313 55.1508 56.3386 55.058L55.5965 54.3623C55.5037 54.2695 55.5037 54.2231 55.5965 54.1303C55.9675 53.7593 56.1994 53.4346 56.2458 53.1099C56.2922 52.7853 56.1994 52.507 55.8748 52.1823C55.5965 51.9504 55.3182 51.8112 54.9935 51.904C54.6688 51.9504 54.3441 52.2287 53.9731 52.7389C53.8803 52.878 53.8339 52.8316 53.7412 52.7389L52.9527 52.1359L52.9991 52.2751Z" fill="#3A99D6"/>
<path d="M55.2254 55.9856C55.3645 56.1712 55.3181 56.2639 55.2254 56.3567L54.4369 56.9133C54.2977 57.006 54.205 57.006 54.0658 56.8205L53.231 55.661L52.4888 56.1712L53.2773 57.3307C53.4165 57.5162 53.3701 57.609 53.2773 57.7018L52.4888 58.2584C52.3497 58.3511 52.2569 58.3511 52.1178 58.1656L49.7059 54.7333C49.5668 54.5478 49.5668 54.455 49.7059 54.3623L50.4944 53.8057C50.6335 53.7129 50.7263 53.7129 50.8655 53.8984L51.7003 55.1044L52.3961 54.5942L51.5148 53.3882C51.3757 53.2027 51.3757 53.1099 51.5148 53.0172L52.3033 52.4606C52.4425 52.3678 52.5352 52.3678 52.6744 52.5534L55.1326 55.9393L55.2254 55.9856Z" fill="#3A99D6"/>
<path d="M50.9582 58.6759C51.051 58.8614 51.0046 58.9542 50.8655 59.0469L50.0306 59.418C49.8451 59.5108 49.7987 59.418 49.6595 59.2788L47.8506 55.5219C47.7579 55.3364 47.7579 55.2436 47.9434 55.1508L48.7783 54.7798C48.9638 54.687 49.0102 54.7798 49.1493 54.9189L50.9582 58.6759Z" fill="#3A99D6"/>
<path d="M48.5928 59.7889C48.6391 60.0208 48.5928 60.0672 48.4536 60.16L47.5723 60.4383C47.3868 60.4847 47.3404 60.4383 47.2477 60.2064L46.923 59.1396L46.2736 60.6702C46.2273 60.8093 46.0881 60.8557 45.949 60.8093L45.2069 60.5311C44.9749 60.4383 44.9749 60.3455 45.0213 60.2064L45.6707 58.6758L44.0937 57.1452C43.9545 57.006 43.9545 56.8669 44.0937 56.7741L44.743 56.2639C44.8822 56.1711 44.9749 56.1247 45.1141 56.2639L46.4592 57.5626L46.0417 56.1711C45.949 55.9392 46.0417 55.8928 46.1809 55.8001L47.0621 55.5218C47.2477 55.4754 47.2941 55.5218 47.3868 55.7537L48.5928 59.7426V59.7889Z" fill="#3A99D6"/>
<path d="M43.769 56.6349C43.9082 56.6349 44.0009 56.7277 43.9082 56.9132L42.795 60.9949C42.7486 61.2268 42.6558 61.3195 42.4703 61.3195H41.5427C41.3108 61.3659 41.2644 61.3195 41.1716 61.0876L39.5946 57.1451C39.5019 56.9596 39.5946 56.9132 39.7338 56.8205L40.5223 56.5422C40.6614 56.5422 40.7542 56.5422 40.8006 56.6813L41.0325 57.3307L42.5631 57.2379L42.7022 56.5885C42.7022 56.4494 42.8414 56.403 42.9341 56.4494L43.769 56.6349ZM41.9137 59.8817L42.2384 58.583H41.4499L41.9137 59.8817Z" fill="#3A99D6"/>
<path d="M36.2087 56.3566C36.2087 56.2175 36.2087 56.1711 36.3942 56.2175C37.4147 56.2175 38.2032 56.5421 38.7134 57.006C39.2236 57.5162 39.4555 58.2119 39.3163 59.0932C39.2236 59.6961 38.9917 60.16 38.6206 60.4846C38.2959 60.8093 37.8321 60.9484 37.3219 61.0412C36.8581 61.0876 36.3015 61.0412 35.8377 60.9484C35.6985 60.9484 35.6521 60.8557 35.6985 60.7629L35.8377 59.7889C35.8377 59.6961 35.884 59.6497 36.0232 59.6961C36.5334 59.7889 36.9508 59.7889 37.2291 59.6961C37.5538 59.557 37.6929 59.2787 37.7857 58.8612C37.8321 58.4902 37.7857 58.2119 37.5538 57.98C37.3219 57.7481 36.9045 57.6089 36.2551 57.6089C36.116 57.6089 36.0696 57.5625 36.0696 57.4698L36.1623 56.4958L36.2087 56.3566Z" fill="#3A99D6"/>
<path d="M32.5909 55.3363C33.1011 55.1044 33.7041 55.1044 34.2607 55.3363C34.8172 55.5218 35.2347 55.9393 35.4666 56.4495C35.6985 56.9597 35.6985 57.6554 35.4202 58.3975C35.1419 59.1396 34.6317 59.6498 34.1215 59.8817C33.6113 60.1136 33.0083 60.1136 32.4981 59.8817C31.9879 59.6498 31.5241 59.2788 31.2922 58.7686C31.0603 58.2584 31.0603 57.5626 31.3386 56.8205C31.6169 56.0784 32.1271 55.5682 32.6373 55.3363H32.5909ZM32.962 58.6294C33.3794 58.7686 33.7041 58.5367 33.9824 57.8409C34.2607 57.1452 34.1679 56.7278 33.7505 56.5886C33.333 56.4495 33.0083 56.635 32.7301 57.3771C32.4518 58.0728 32.5445 58.4903 32.962 58.6294Z" fill="#3A99D6"/>
<path d="M29.6224 58.1192C29.4833 58.3047 29.3905 58.3511 29.2514 58.2583L28.4629 57.7481C28.2774 57.6554 28.2774 57.5626 28.4165 57.3771L30.5501 53.7593C30.6429 53.5737 30.7356 53.5273 30.9211 53.6201L31.7096 54.1303C31.8488 54.2231 31.8952 54.3158 31.756 54.5014L29.6224 58.1192Z" fill="#3A99D6"/>
<path d="M27.8135 54.0839L29.0195 52.646C29.1586 52.5069 29.2514 52.4605 29.3905 52.5997L30.1326 53.249C30.3182 53.3881 30.2718 53.4809 30.1326 53.6201L27.4425 56.774C27.2569 56.9596 27.1642 56.9596 26.9787 56.8204L26.3757 56.3102C26.1902 56.1247 26.1438 56.0783 26.1902 55.8928L26.7931 53.7128L25.5408 55.1507C25.3553 55.3362 25.2625 55.3362 25.077 55.1971L24.474 54.6868C24.2885 54.5477 24.2885 54.4086 24.474 54.223L27.1642 51.1618C27.3497 50.9763 27.4425 50.9299 27.628 51.1154L28.0918 51.5329C28.2774 51.7184 28.3237 51.8112 28.231 52.0894L27.7672 54.1766L27.8135 54.0839Z" fill="#3A99D6"/>
<path d="M28.7737 23.8464C28.8665 23.9392 28.8665 23.9855 28.7737 24.0783C28.2172 24.9132 27.5214 25.4234 26.8257 25.5625C26.13 25.7017 25.3879 25.5625 24.7385 24.9132C24.2747 24.4958 24.0428 24.0319 23.9964 23.5681C23.95 23.1043 23.9964 22.6405 24.2747 22.223C24.5066 21.8056 24.8313 21.3881 25.2023 21.0635C25.2951 20.9707 25.3415 20.9707 25.4342 21.0635L26.1763 21.7592C26.2691 21.852 26.2691 21.8984 26.1763 21.9911C25.8053 22.3622 25.5734 22.6868 25.527 23.0115C25.4806 23.3362 25.5734 23.6145 25.8981 23.9392C26.1763 24.1711 26.4546 24.3102 26.7793 24.2175C27.104 24.1711 27.4287 23.8928 27.7997 23.3826C27.8925 23.2434 27.9389 23.2898 28.0316 23.3826L28.8201 23.9856L28.7737 23.8464Z" fill="#3A99D6"/>
<path d="M26.5474 20.1358C26.4083 19.9503 26.4547 19.8575 26.5474 19.7648L27.3359 19.2082C27.4751 19.1154 27.5678 19.1154 27.707 19.3009L28.5419 20.4605L29.284 19.9503L28.4955 18.7907C28.3563 18.6052 28.4027 18.5124 28.4955 18.4197L29.284 17.8631C29.4231 17.7703 29.5159 17.7703 29.655 17.9559L32.0669 21.3881C32.2061 21.5737 32.2061 21.6664 32.0669 21.7592L31.2784 22.3158C31.1393 22.4086 31.0465 22.4085 30.9074 22.223L30.0725 21.0171L29.3767 21.5273L30.258 22.7332C30.3971 22.9188 30.3971 23.0115 30.258 23.1043L29.4695 23.6609C29.3304 23.7536 29.2376 23.7536 29.0984 23.5681L26.6402 20.1822L26.5474 20.1358Z" fill="#3A99D6"/>
<path d="M30.8146 17.4456C30.7218 17.2601 30.7682 17.1673 30.9073 17.0745L31.7422 16.7035C31.9278 16.6107 31.9741 16.7035 32.1133 16.8426L33.9222 20.5996C34.015 20.7851 34.015 20.8779 33.8294 20.9706L32.9945 21.3417C32.809 21.4345 32.7626 21.3417 32.6235 21.2025L30.8146 17.4456Z" fill="#3A99D6"/>
<path d="M33.1801 16.3325C33.1337 16.1006 33.1801 16.0542 33.3192 15.9615L34.2005 15.6832C34.386 15.6368 34.4324 15.6832 34.5251 15.9151L34.8498 16.9819L35.4992 15.4513C35.5456 15.3121 35.6847 15.2657 35.8238 15.3121L36.566 15.5904C36.7979 15.6832 36.7979 15.7759 36.7515 15.9151L36.1021 17.4457L37.6791 18.9763C37.8183 19.1155 37.8183 19.2546 37.6791 19.3474L37.0298 19.8576C36.8906 19.9503 36.7979 19.9967 36.6587 19.8576L35.3136 18.5589L35.7311 19.9503C35.8238 20.1822 35.7311 20.2286 35.5919 20.3214L34.7107 20.5997C34.5251 20.6461 34.4788 20.5997 34.386 20.3678L33.1801 16.3789V16.3325Z" fill="#3A99D6"/>
<path d="M38.0038 19.4864C37.8647 19.4864 37.7719 19.3936 37.8647 19.2081L38.9778 15.1265C39.0242 14.8946 39.117 14.8018 39.3025 14.8018H40.2302C40.4621 14.7554 40.5084 14.8018 40.6012 15.0337L42.1782 18.9762C42.271 19.1617 42.1782 19.2081 42.0391 19.3009L41.2506 19.5792C41.1114 19.5792 41.0187 19.5792 40.9723 19.44L40.7404 18.7907L39.2097 18.8834L39.0706 19.5328C39.0706 19.6719 38.9315 19.7183 38.8387 19.6719L38.0038 19.4864ZM39.8591 16.2397L39.5344 17.5384H40.3229L39.8591 16.2397Z" fill="#3A99D6"/>
<path d="M45.5641 19.7647C45.5641 19.9039 45.5641 19.9503 45.3786 19.9039C44.3582 19.9039 43.5697 19.5792 43.0595 19.1154C42.5493 18.6052 42.3174 17.9094 42.4565 17.0282C42.5493 16.4252 42.7812 15.9614 43.1522 15.6367C43.4769 15.312 43.9407 15.1729 44.4509 15.0801C44.9148 15.0337 45.4713 15.0801 45.9352 15.1729C46.0743 15.1729 46.1207 15.2657 46.0743 15.3584L45.9352 16.3324C45.9352 16.4252 45.8888 16.4716 45.7496 16.4252C45.2394 16.3324 44.822 16.3324 44.5437 16.4252C44.219 16.5644 44.0799 16.8426 43.9871 17.2601C43.9407 17.6311 43.9871 17.9094 44.219 18.1414C44.4509 18.3733 44.8684 18.5124 45.5177 18.5124C45.6569 18.5124 45.7033 18.5588 45.7033 18.6516L45.6105 19.6256L45.5641 19.7647Z" fill="#3A99D6"/>
<path d="M49.1819 20.7852C48.6717 21.0171 48.0687 21.0171 47.5122 20.7852C46.9556 20.5996 46.5381 20.1822 46.3062 19.672C46.0743 19.1618 46.0743 18.4661 46.3526 17.7239C46.6309 16.9818 47.1411 16.4716 47.6513 16.2397C48.1615 16.0078 48.7645 16.0078 49.2747 16.2397C49.7849 16.4716 50.2487 16.8427 50.4806 17.3529C50.7125 17.8631 50.7125 18.5588 50.4342 19.3009C50.1559 20.0431 49.6457 20.5533 49.1355 20.7852H49.1819ZM48.8109 17.492C48.3934 17.3529 48.0687 17.5848 47.7905 18.2805C47.5122 18.9763 47.6049 19.3937 48.0224 19.5329C48.4398 19.672 48.7645 19.4865 49.0428 18.7444C49.3211 18.0486 49.2283 17.6312 48.8109 17.492Z" fill="#3A99D6"/>
<path d="M52.1504 18.0023C52.2895 17.8167 52.3823 17.7704 52.5214 17.8631L53.3099 18.3733C53.4955 18.4661 53.4955 18.5589 53.3563 18.7444L51.2227 22.3622C51.13 22.5477 51.0372 22.5941 50.8517 22.5013L50.0632 21.9911C49.924 21.8984 49.8776 21.8056 50.0168 21.6201L52.1504 18.0023Z" fill="#3A99D6"/>
<path d="M53.9593 22.0375L52.7534 23.4753C52.6142 23.6145 52.5214 23.6608 52.3823 23.5217L51.6402 22.8723C51.4547 22.7332 51.501 22.6404 51.6402 22.5013L54.3304 19.3473C54.5159 19.1618 54.6086 19.1618 54.7942 19.3009L55.3971 19.8111C55.5827 19.9966 55.6291 20.043 55.5827 20.2286L54.9797 22.4085L56.232 20.9707C56.4175 20.7851 56.5103 20.7851 56.6958 20.9243L57.2988 21.4345C57.4843 21.5736 57.4843 21.7128 57.2988 21.8983L54.6086 24.9595C54.4231 25.1451 54.3304 25.1914 54.1448 25.0059L53.681 24.5885C53.4955 24.403 53.4491 24.3102 53.5419 24.0319L54.0057 21.9447L53.9593 22.0375Z" fill="#3A99D6"/>
<path d="M63.7597 37.9893C63.1568 37.8038 62.2291 37.2936 61.9972 35.8557C61.9972 35.7629 61.8581 35.7629 61.8581 35.8557C61.7653 36.3195 61.5798 36.8761 61.2087 37.3399C60.9304 37.6646 60.5594 37.8965 60.0492 37.9893C59.9564 37.9893 59.9564 38.1284 60.0492 38.1284C60.6521 38.314 61.5798 38.8242 61.8117 40.262C61.8117 40.3548 61.9508 40.3548 61.9508 40.262C62.0436 39.7982 62.2291 39.2416 62.6002 38.7778C62.8785 38.4531 63.2495 38.2212 63.7597 38.1284C63.8525 38.1284 63.8525 37.9893 63.7597 37.9893Z" fill="#2092C4"/>
<path d="M21.923 37.9893C21.32 37.8038 20.3924 37.2936 20.1605 35.8557C20.1605 35.7629 20.0213 35.7629 20.0213 35.8557C19.9286 36.3195 19.743 36.8761 19.372 37.3399C19.0937 37.6646 18.7226 37.8965 18.2124 37.9893C18.1197 37.9893 18.1197 38.1284 18.2124 38.1284C18.8154 38.314 19.743 38.8242 19.9749 40.262C19.9749 40.3548 20.1141 40.3548 20.1141 40.262C20.2069 39.7982 20.3924 39.2416 20.7634 38.7778C21.0417 38.4531 21.4128 38.2212 21.923 38.1284C22.0158 38.1284 22.0158 37.9893 21.923 37.9893Z" fill="#2092C4"/>
<path d="M53.3649 59.6506C65.3222 52.7471 69.4191 37.4573 62.5155 25.5L19.2143 50.5C26.1178 62.4573 41.4076 66.5542 53.3649 59.6506Z" fill="#3DAFD9" fill-opacity="0.1"/>
</g>
<path d="M74.588 27.008C74.588 25.6173 74.868 24.5627 75.428 23.844C75.988 23.1253 76.828 22.766 77.948 22.766C79.068 22.766 79.908 23.1253 80.468 23.844C81.028 24.5627 81.308 25.6173 81.308 27.008C81.308 28.3987 81.028 29.4533 80.468 30.172C79.908 30.8907 79.068 31.25 77.948 31.25C76.828 31.25 75.988 30.8907 75.428 30.172C74.868 29.4533 74.588 28.3987 74.588 27.008ZM79.586 27.008C79.586 26.1213 79.4647 25.454 79.222 25.006C78.9793 24.5487 78.5547 24.32 77.948 24.32C77.3413 24.32 76.9167 24.5487 76.674 25.006C76.4313 25.454 76.31 26.1213 76.31 27.008C76.31 27.8947 76.4313 28.5667 76.674 29.024C76.9167 29.472 77.3413 29.696 77.948 29.696C78.5547 29.696 78.9793 29.472 79.222 29.024C79.4647 28.5667 79.586 27.8947 79.586 27.008ZM85.886 26.168C86.11 26.168 86.2733 26.2427 86.376 26.392C86.4787 26.5413 86.53 26.7233 86.53 26.938C86.53 27.1527 86.4787 27.3393 86.376 27.498C86.2733 27.6473 86.11 27.722 85.886 27.722H84.57V33.518C84.57 33.7793 84.4767 33.9707 84.29 34.092C84.1127 34.2133 83.9073 34.274 83.674 34.274C83.4407 34.274 83.2307 34.2133 83.044 34.092C82.8667 33.9707 82.778 33.7793 82.778 33.518V22.794C82.778 22.5327 82.8667 22.3413 83.044 22.22C83.2307 22.0987 83.4407 22.038 83.674 22.038C83.9073 22.038 84.1127 22.0987 84.29 22.22C84.4767 22.3413 84.57 22.5327 84.57 22.794V26.168H85.886ZM88.1562 25.02C87.9415 25.02 87.7829 24.9453 87.6802 24.796C87.5775 24.6467 87.5262 24.4693 87.5262 24.264C87.5262 24.0587 87.5775 23.8813 87.6802 23.732C87.7829 23.5827 87.9415 23.508 88.1562 23.508H90.3402V22.654C90.3402 22.3927 90.4289 22.2013 90.6062 22.08C90.7929 21.9587 91.0029 21.898 91.2362 21.898C91.4695 21.898 91.6749 21.9587 91.8522 22.08C92.0389 22.2013 92.1322 22.3927 92.1322 22.654V23.508H94.1762C94.3909 23.508 94.5495 23.5827 94.6522 23.732C94.7549 23.8813 94.8062 24.0587 94.8062 24.264C94.8062 24.4693 94.7549 24.6467 94.6522 24.796C94.5495 24.9453 94.3909 25.02 94.1762 25.02H92.1322V25.342C92.1322 25.6967 92.1975 25.9907 92.3282 26.224C92.4589 26.4573 92.6595 26.672 92.9302 26.868C93.2569 27.1013 93.5555 27.3067 93.8262 27.484C94.0969 27.6613 94.3162 27.8013 94.4842 27.904C94.6802 28.0253 94.7922 28.1933 94.8202 28.408C94.8482 28.6133 94.8062 28.8047 94.6942 28.982C94.5915 29.1313 94.4375 29.248 94.2322 29.332C94.0362 29.4067 93.8262 29.374 93.6022 29.234C93.4155 29.1127 93.2055 28.9773 92.9722 28.828C92.7389 28.6787 92.5102 28.5247 92.2862 28.366C91.9315 28.1233 91.6795 27.9273 91.5302 27.778C91.3902 27.6287 91.3015 27.4933 91.2642 27.372H91.2502C91.2129 27.5307 91.1149 27.694 90.9562 27.862C90.7975 28.0207 90.5409 28.2213 90.1862 28.464C89.9062 28.6507 89.6402 28.828 89.3882 28.996C89.1362 29.164 88.8655 29.3367 88.5762 29.514C88.4735 29.5793 88.3709 29.6167 88.2682 29.626C88.1655 29.626 88.0675 29.6073 87.9742 29.57C87.8809 29.5327 87.7969 29.4813 87.7222 29.416C87.6475 29.3507 87.5869 29.2807 87.5402 29.206C87.4375 29.0287 87.3909 28.8373 87.4002 28.632C87.4095 28.4173 87.5215 28.2447 87.7362 28.114C88.0349 27.9273 88.3289 27.7407 88.6182 27.554C88.9075 27.3673 89.2155 27.1573 89.5422 26.924C89.8129 26.728 90.0135 26.5133 90.1442 26.28C90.2749 26.0467 90.3402 25.7527 90.3402 25.398V25.02H88.1562ZM97.7742 28.94C97.7742 29.2013 97.6809 29.3927 97.4942 29.514C97.3169 29.6353 97.1115 29.696 96.8782 29.696C96.6449 29.696 96.4349 29.6353 96.2482 29.514C96.0709 29.3927 95.9822 29.2013 95.9822 28.94V22.794C95.9822 22.5327 96.0709 22.3413 96.2482 22.22C96.4349 22.0987 96.6449 22.038 96.8782 22.038C97.1115 22.038 97.3169 22.0987 97.4942 22.22C97.6809 22.3413 97.7742 22.5327 97.7742 22.794V28.94ZM90.5362 35.016C90.0882 35.016 89.7755 34.932 89.5982 34.764C89.4302 34.596 89.3462 34.2927 89.3462 33.854V31.376C89.3462 30.9373 89.4302 30.634 89.5982 30.466C89.7755 30.298 90.0882 30.214 90.5362 30.214H96.5842C97.0322 30.214 97.3402 30.298 97.5082 30.466C97.6855 30.634 97.7742 30.9373 97.7742 31.376V33.854C97.7742 34.2927 97.6855 34.596 97.5082 34.764C97.3402 34.932 97.0322 35.016 96.5842 35.016H90.5362ZM95.6742 33.546C95.8889 33.546 95.9962 33.4387 95.9962 33.224V32.006C95.9962 31.7913 95.8889 31.684 95.6742 31.684H91.4462C91.2315 31.684 91.1242 31.7913 91.1242 32.006V33.224C91.1242 33.4387 91.2315 33.546 91.4462 33.546H95.6742ZM103.152 25.748C103.152 25.2907 103.222 24.866 103.362 24.474C103.502 24.082 103.712 23.746 103.992 23.466C104.272 23.1767 104.622 22.9527 105.042 22.794C105.462 22.6353 105.948 22.556 106.498 22.556C107.049 22.556 107.534 22.6353 107.954 22.794C108.374 22.9527 108.724 23.1767 109.004 23.466C109.284 23.746 109.494 24.082 109.634 24.474C109.774 24.866 109.844 25.2907 109.844 25.748C109.844 26.2147 109.774 26.644 109.634 27.036C109.494 27.4187 109.284 27.7547 109.004 28.044C108.724 28.324 108.374 28.5433 107.954 28.702C107.534 28.8607 107.049 28.94 106.498 28.94C105.948 28.94 105.462 28.8607 105.042 28.702C104.622 28.5433 104.272 28.324 103.992 28.044C103.712 27.7547 103.502 27.4187 103.362 27.036C103.222 26.644 103.152 26.2147 103.152 25.748ZM108.136 25.748C108.136 25.5147 108.104 25.2953 108.038 25.09C107.982 24.8753 107.889 24.6933 107.758 24.544C107.628 24.3853 107.46 24.264 107.254 24.18C107.049 24.0867 106.797 24.04 106.498 24.04C106.2 24.04 105.948 24.0867 105.742 24.18C105.537 24.264 105.369 24.3853 105.238 24.544C105.108 24.6933 105.01 24.8753 104.944 25.09C104.888 25.2953 104.86 25.5147 104.86 25.748C104.86 25.9907 104.888 26.2147 104.944 26.42C105.01 26.6253 105.108 26.8073 105.238 26.966C105.369 27.1153 105.537 27.2367 105.742 27.33C105.948 27.414 106.2 27.456 106.498 27.456C106.797 27.456 107.049 27.414 107.254 27.33C107.46 27.2367 107.628 27.1153 107.758 26.966C107.889 26.8073 107.982 26.6253 108.038 26.42C108.104 26.2147 108.136 25.9907 108.136 25.748ZM113.134 23.844H114.338C114.553 23.844 114.712 23.9187 114.814 24.068C114.917 24.2173 114.968 24.3993 114.968 24.614C114.968 24.8193 114.917 24.9967 114.814 25.146C114.712 25.2953 114.553 25.37 114.338 25.37H113.134V26.224H114.338C114.553 26.224 114.712 26.2987 114.814 26.448C114.917 26.5973 114.968 26.7793 114.968 26.994C114.968 27.1993 114.917 27.3767 114.814 27.526C114.712 27.6753 114.553 27.75 114.338 27.75H113.134V28.996C113.134 29.2573 113.041 29.4487 112.854 29.57C112.677 29.6913 112.472 29.752 112.238 29.752C112.005 29.752 111.795 29.6913 111.608 29.57C111.431 29.4487 111.342 29.2573 111.342 28.996V22.794C111.342 22.5327 111.431 22.3413 111.608 22.22C111.795 22.0987 112.005 22.038 112.238 22.038C112.472 22.038 112.677 22.0987 112.854 22.22C113.041 22.3413 113.134 22.5327 113.134 22.794V23.844ZM104.916 32.552C104.916 31.6467 105.28 30.97 106.008 30.522C106.746 30.0647 107.758 29.836 109.046 29.836C110.334 29.836 111.342 30.0647 112.07 30.522C112.808 30.97 113.176 31.6467 113.176 32.552C113.176 33.4667 112.808 34.148 112.07 34.596C111.342 35.044 110.334 35.268 109.046 35.268C107.758 35.268 106.746 35.044 106.008 34.596C105.28 34.148 104.916 33.4667 104.916 32.552ZM111.398 32.552C111.398 32.1693 111.216 31.8613 110.852 31.628C110.498 31.3853 109.896 31.264 109.046 31.264C108.617 31.264 108.253 31.2967 107.954 31.362C107.656 31.418 107.413 31.502 107.226 31.614C107.04 31.726 106.904 31.8613 106.82 32.02C106.736 32.1787 106.694 32.356 106.694 32.552C106.694 32.748 106.736 32.9253 106.82 33.084C106.904 33.2427 107.04 33.378 107.226 33.49C107.413 33.602 107.656 33.686 107.954 33.742C108.253 33.8073 108.617 33.84 109.046 33.84C109.896 33.84 110.498 33.7187 110.852 33.476C111.216 33.2427 111.398 32.9347 111.398 32.552ZM120.697 25.272V25.972C120.697 26.2613 120.711 26.5133 120.739 26.728C120.776 26.9427 120.832 27.1433 120.907 27.33C120.981 27.5073 121.084 27.6847 121.215 27.862C121.345 28.03 121.509 28.212 121.705 28.408C121.985 28.688 122.251 28.9447 122.503 29.178C122.755 29.4113 122.993 29.626 123.217 29.822C123.385 29.9713 123.45 30.158 123.413 30.382C123.385 30.5967 123.301 30.774 123.161 30.914C123.021 31.054 122.848 31.1427 122.643 31.18C122.437 31.2173 122.251 31.1613 122.083 31.012C121.896 30.8533 121.695 30.6713 121.481 30.466C121.266 30.2513 121.033 30.018 120.781 29.766C120.594 29.5887 120.44 29.4347 120.319 29.304C120.207 29.1733 120.113 29.066 120.039 28.982C119.973 28.8887 119.922 28.8093 119.885 28.744C119.847 28.6693 119.824 28.5993 119.815 28.534H119.801C119.782 28.618 119.754 28.6973 119.717 28.772C119.689 28.8467 119.637 28.9353 119.563 29.038C119.497 29.1313 119.404 29.2433 119.283 29.374C119.171 29.4953 119.021 29.6447 118.835 29.822C118.583 30.0647 118.331 30.3027 118.079 30.536C117.836 30.7693 117.579 30.998 117.309 31.222C117.122 31.3713 116.921 31.418 116.707 31.362C116.492 31.2967 116.319 31.1893 116.189 31.04C116.058 30.8813 115.988 30.6993 115.979 30.494C115.969 30.2793 116.053 30.0973 116.231 29.948C116.529 29.696 116.809 29.4487 117.071 29.206C117.341 28.954 117.617 28.688 117.897 28.408C118.093 28.212 118.256 28.03 118.387 27.862C118.517 27.6847 118.62 27.5073 118.695 27.33C118.769 27.1433 118.821 26.9427 118.849 26.728C118.886 26.5133 118.905 26.2613 118.905 25.972V25.272H116.721C116.506 25.272 116.347 25.1973 116.245 25.048C116.142 24.8987 116.091 24.7213 116.091 24.516C116.091 24.3013 116.142 24.1193 116.245 23.97C116.347 23.8207 116.506 23.746 116.721 23.746H118.905V22.752C118.905 22.4907 118.993 22.2993 119.171 22.178C119.357 22.0567 119.567 21.996 119.801 21.996C120.034 21.996 120.239 22.0567 120.417 22.178C120.603 22.2993 120.697 22.4907 120.697 22.752V23.746H122.769C122.983 23.746 123.142 23.8207 123.245 23.97C123.347 24.1193 123.399 24.3013 123.399 24.516C123.399 24.7213 123.347 24.8987 123.245 25.048C123.142 25.1973 122.983 25.272 122.769 25.272H120.697ZM126.339 33.518C126.339 33.7793 126.245 33.9707 126.059 34.092C125.881 34.2133 125.671 34.274 125.429 34.274C125.195 34.274 124.985 34.2133 124.799 34.092C124.621 33.9707 124.533 33.7793 124.533 33.518V22.794C124.533 22.5327 124.621 22.3413 124.799 22.22C124.985 22.0987 125.195 22.038 125.429 22.038C125.671 22.038 125.881 22.0987 126.059 22.22C126.245 22.3413 126.339 22.5327 126.339 22.794V33.518ZM132.039 25.944C132.515 25.944 132.944 26.014 133.327 26.154C133.719 26.2847 134.045 26.4713 134.307 26.714C134.577 26.9567 134.783 27.2553 134.923 27.61C135.072 27.9553 135.147 28.338 135.147 28.758C135.147 29.178 135.072 29.5653 134.923 29.92C134.783 30.2653 134.577 30.5593 134.307 30.802C134.045 31.0447 133.719 31.236 133.327 31.376C132.944 31.5067 132.515 31.572 132.039 31.572C131.563 31.572 131.129 31.5067 130.737 31.376C130.354 31.236 130.027 31.0447 129.757 30.802C129.495 30.5593 129.29 30.2653 129.141 29.92C129.001 29.5653 128.931 29.178 128.931 28.758C128.931 28.338 129.001 27.9553 129.141 27.61C129.29 27.2553 129.495 26.9567 129.757 26.714C130.027 26.4713 130.354 26.2847 130.737 26.154C131.129 26.014 131.563 25.944 132.039 25.944ZM131.143 23.732V22.766C131.143 22.5047 131.231 22.3133 131.409 22.192C131.595 22.0707 131.805 22.01 132.039 22.01C132.272 22.01 132.477 22.0707 132.655 22.192C132.841 22.3133 132.935 22.5047 132.935 22.766V23.732H135.133C135.347 23.732 135.506 23.8067 135.609 23.956C135.711 24.1053 135.763 24.2827 135.763 24.488C135.763 24.6933 135.711 24.8707 135.609 25.02C135.506 25.1693 135.347 25.244 135.133 25.244H128.777C128.562 25.244 128.403 25.1693 128.301 25.02C128.198 24.8707 128.147 24.6933 128.147 24.488C128.147 24.2827 128.198 24.1053 128.301 23.956C128.403 23.8067 128.562 23.732 128.777 23.732H131.143ZM132.039 30.144C132.487 30.144 132.846 30.0227 133.117 29.78C133.387 29.528 133.523 29.1873 133.523 28.758C133.523 28.3287 133.387 27.9927 133.117 27.75C132.846 27.498 132.487 27.372 132.039 27.372C131.591 27.372 131.231 27.498 130.961 27.75C130.69 27.9927 130.555 28.3287 130.555 28.758C130.555 29.1873 130.69 29.528 130.961 29.78C131.231 30.0227 131.591 30.144 132.039 30.144ZM138.339 26.308H139.655C139.879 26.308 140.042 26.3827 140.145 26.532C140.247 26.6813 140.299 26.8633 140.299 27.078C140.299 27.2927 140.247 27.4793 140.145 27.638C140.042 27.7873 139.879 27.862 139.655 27.862H138.339V33.518C138.339 33.7793 138.245 33.9707 138.059 34.092C137.881 34.2133 137.681 34.274 137.457 34.274C137.223 34.274 137.013 34.2133 136.827 34.092C136.649 33.9707 136.561 33.7793 136.561 33.518V22.794C136.561 22.5327 136.649 22.3413 136.827 22.22C137.013 22.0987 137.223 22.038 137.457 22.038C137.681 22.038 137.881 22.0987 138.059 22.22C138.245 22.3413 138.339 22.5327 138.339 22.794V26.308ZM142.121 24.516C141.906 24.516 141.748 24.4413 141.645 24.292C141.542 24.1427 141.491 23.9653 141.491 23.76C141.491 23.5453 141.542 23.3633 141.645 23.214C141.748 23.0647 141.906 22.99 142.121 22.99H146.335C146.783 22.99 147.091 23.074 147.259 23.242C147.436 23.41 147.525 23.7133 147.525 24.152V25.706C147.525 26.098 147.502 26.4527 147.455 26.77C147.408 27.0873 147.32 27.3907 147.189 27.68C147.068 27.96 146.895 28.2353 146.671 28.506C146.447 28.7767 146.153 29.0613 145.789 29.36C145.425 29.6587 144.982 29.9807 144.459 30.326C143.946 30.6713 143.334 31.0587 142.625 31.488C142.429 31.6093 142.224 31.6327 142.009 31.558C141.804 31.474 141.645 31.348 141.533 31.18C141.421 31.012 141.365 30.816 141.365 30.592C141.365 30.368 141.468 30.1907 141.673 30.06C142.308 29.6773 142.849 29.3413 143.297 29.052C143.754 28.7533 144.132 28.4873 144.431 28.254C144.739 28.0207 144.977 27.806 145.145 27.61C145.322 27.414 145.453 27.218 145.537 27.022C145.63 26.8167 145.686 26.6067 145.705 26.392C145.733 26.1773 145.747 25.93 145.747 25.65V24.838C145.747 24.6233 145.64 24.516 145.425 24.516H142.121ZM151.543 33.518C151.543 33.7793 151.45 33.9707 151.263 34.092C151.086 34.2133 150.876 34.274 150.633 34.274C150.4 34.274 150.19 34.2133 150.003 34.092C149.826 33.9707 149.737 33.7793 149.737 33.518V22.794C149.737 22.5327 149.826 22.3413 150.003 22.22C150.19 22.0987 150.4 22.038 150.633 22.038C150.876 22.038 151.086 22.0987 151.263 22.22C151.45 22.3413 151.543 22.5327 151.543 22.794V33.518Z" fill="#2593BD"/>
<path d="M77.864 44.952C77.976 44.952 78.076 44.98 78.164 45.036C78.26 45.092 78.308 45.184 78.308 45.312V46.464C78.308 46.864 78.368 47.192 78.488 47.448C78.616 47.696 78.832 47.932 79.136 48.156C79.44 48.38 79.712 48.58 79.952 48.756C80.2 48.924 80.444 49.088 80.684 49.248C80.788 49.312 80.844 49.4 80.852 49.512C80.86 49.616 80.836 49.712 80.78 49.8C80.724 49.88 80.644 49.936 80.54 49.968C80.444 49.992 80.348 49.972 80.252 49.908C80.052 49.772 79.832 49.624 79.592 49.464C79.352 49.296 79.088 49.104 78.8 48.888C78.48 48.656 78.252 48.46 78.116 48.3C77.98 48.14 77.9 48 77.876 47.88H77.864C77.84 48.008 77.756 48.156 77.612 48.324C77.476 48.492 77.248 48.692 76.928 48.924C76.64 49.132 76.356 49.336 76.076 49.536C75.796 49.728 75.524 49.908 75.26 50.076C75.156 50.14 75.056 50.16 74.96 50.136C74.864 50.104 74.784 50.044 74.72 49.956C74.664 49.868 74.64 49.772 74.648 49.668C74.656 49.556 74.712 49.468 74.816 49.404C75.12 49.204 75.412 49.008 75.692 48.816C75.98 48.616 76.276 48.404 76.58 48.18C76.884 47.948 77.1 47.708 77.228 47.46C77.356 47.204 77.42 46.88 77.42 46.488V45.312C77.42 45.184 77.464 45.092 77.552 45.036C77.64 44.98 77.744 44.952 77.864 44.952ZM83 44.712C83.112 44.712 83.212 44.74 83.3 44.796C83.388 44.852 83.432 44.944 83.432 45.072V49.968C83.432 50.096 83.388 50.188 83.3 50.244C83.212 50.3 83.112 50.328 83 50.328C82.888 50.328 82.788 50.3 82.7 50.244C82.612 50.188 82.568 50.096 82.568 49.968V47.448H80.42C80.316 47.448 80.24 47.412 80.192 47.34C80.144 47.268 80.12 47.176 80.12 47.064C80.12 46.96 80.144 46.872 80.192 46.8C80.24 46.72 80.316 46.68 80.42 46.68H82.568V45.072C82.568 44.944 82.612 44.852 82.7 44.796C82.788 44.74 82.888 44.712 83 44.712ZM82.604 50.928C82.916 50.928 83.132 50.988 83.252 51.108C83.372 51.22 83.432 51.428 83.432 51.732V52.836C83.432 53.14 83.372 53.352 83.252 53.472C83.132 53.584 82.916 53.64 82.604 53.64H77.684C77.604 53.64 77.544 53.656 77.504 53.688C77.472 53.712 77.456 53.768 77.456 53.856V54.708C77.456 54.86 77.532 54.936 77.684 54.936H83.432C83.528 54.936 83.6 54.972 83.648 55.044C83.696 55.116 83.72 55.2 83.72 55.296C83.72 55.392 83.696 55.476 83.648 55.548C83.6 55.62 83.528 55.656 83.432 55.656H77.432C77.12 55.656 76.904 55.596 76.784 55.476C76.664 55.364 76.604 55.156 76.604 54.852V53.736C76.604 53.432 76.664 53.224 76.784 53.112C76.904 52.992 77.12 52.932 77.432 52.932H82.352C82.44 52.932 82.5 52.92 82.532 52.896C82.564 52.864 82.58 52.804 82.58 52.716V51.864C82.58 51.72 82.504 51.648 82.352 51.648H76.868C76.772 51.648 76.7 51.612 76.652 51.54C76.604 51.468 76.58 51.384 76.58 51.288C76.58 51.192 76.604 51.108 76.652 51.036C76.7 50.964 76.772 50.928 76.868 50.928H82.604ZM89.9019 45.324C90.2139 45.324 90.4299 45.384 90.5499 45.504C90.6699 45.616 90.7299 45.824 90.7299 46.128V49.416C90.7299 49.72 90.6699 49.932 90.5499 50.052C90.4299 50.164 90.2139 50.22 89.9019 50.22H86.7099C86.3979 50.22 86.1819 50.164 86.0619 50.052C85.9419 49.932 85.8819 49.72 85.8819 49.416V46.128C85.8819 45.824 85.9419 45.616 86.0619 45.504C86.1819 45.384 86.3979 45.324 86.7099 45.324H89.9019ZM86.9739 46.08C86.8859 46.08 86.8259 46.096 86.7939 46.128C86.7619 46.152 86.7459 46.208 86.7459 46.296V49.236C86.7459 49.388 86.8219 49.464 86.9739 49.464H89.6499C89.8019 49.464 89.8779 49.388 89.8779 49.236V46.296C89.8779 46.208 89.8579 46.152 89.8179 46.128C89.7859 46.096 89.7299 46.08 89.6499 46.08H86.9739ZM93.8019 44.712C93.9139 44.712 94.0139 44.74 94.1019 44.796C94.1899 44.852 94.2339 44.944 94.2339 45.072V50.916C94.2339 51.044 94.1899 51.136 94.1019 51.192C94.0139 51.248 93.9139 51.276 93.8019 51.276C93.6899 51.276 93.5899 51.248 93.5019 51.192C93.4139 51.136 93.3699 51.044 93.3699 50.916V49.236H91.6539C91.5499 49.236 91.4739 49.2 91.4259 49.128C91.3779 49.056 91.3539 48.964 91.3539 48.852C91.3539 48.748 91.3779 48.66 91.4259 48.588C91.4739 48.516 91.5499 48.48 91.6539 48.48H93.3699V47.112H91.6539C91.5499 47.112 91.4739 47.076 91.4259 47.004C91.3779 46.924 91.3539 46.832 91.3539 46.728C91.3539 46.624 91.3779 46.536 91.4259 46.464C91.4739 46.392 91.5499 46.356 91.6539 46.356H93.3699V45.072C93.3699 44.944 93.4139 44.852 93.5019 44.796C93.5899 44.74 93.6899 44.712 93.8019 44.712ZM90.8979 51.42C91.9939 51.42 92.8379 51.608 93.4299 51.984C94.0219 52.352 94.3179 52.896 94.3179 53.616C94.3179 54.336 94.0219 54.88 93.4299 55.248C92.8379 55.624 91.9939 55.812 90.8979 55.812C89.8019 55.812 88.9579 55.624 88.3659 55.248C87.7819 54.88 87.4899 54.336 87.4899 53.616C87.4899 52.896 87.7819 52.352 88.3659 51.984C88.9579 51.608 89.8019 51.42 90.8979 51.42ZM90.8979 52.14C90.0259 52.14 89.3819 52.272 88.9659 52.536C88.5579 52.8 88.3539 53.16 88.3539 53.616C88.3539 54.072 88.5579 54.432 88.9659 54.696C89.3819 54.96 90.0259 55.092 90.8979 55.092C91.7699 55.092 92.4139 54.96 92.8299 54.696C93.2459 54.432 93.4539 54.072 93.4539 53.616C93.4539 53.16 93.2459 52.8 92.8299 52.536C92.4139 52.272 91.7699 52.14 90.8979 52.14ZM106.668 45.156C106.98 45.156 107.196 45.216 107.316 45.336C107.436 45.448 107.496 45.656 107.496 45.96V48.276C107.496 48.58 107.436 48.792 107.316 48.912C107.196 49.024 106.98 49.08 106.668 49.08H101.22C100.908 49.08 100.692 49.024 100.572 48.912C100.452 48.792 100.392 48.58 100.392 48.276V45.96C100.392 45.656 100.452 45.448 100.572 45.336C100.692 45.216 100.908 45.156 101.22 45.156H106.668ZM101.484 45.9C101.396 45.9 101.336 45.916 101.304 45.948C101.272 45.972 101.256 46.028 101.256 46.116V48.12C101.256 48.208 101.272 48.268 101.304 48.3C101.336 48.324 101.396 48.336 101.484 48.336H106.404C106.492 48.336 106.552 48.324 106.584 48.3C106.616 48.268 106.632 48.208 106.632 48.12V46.116C106.632 46.028 106.616 45.972 106.584 45.948C106.552 45.916 106.492 45.9 106.404 45.9H101.484ZM108.648 50.364C108.752 50.364 108.828 50.4 108.876 50.472C108.924 50.544 108.948 50.632 108.948 50.736C108.948 50.84 108.924 50.928 108.876 51C108.828 51.072 108.752 51.108 108.648 51.108H104.496V53.04C104.496 53.16 104.452 53.248 104.364 53.304C104.284 53.352 104.184 53.376 104.064 53.376C103.952 53.376 103.852 53.352 103.764 53.304C103.676 53.248 103.632 53.16 103.632 53.04V51.108H99.2397C99.1357 51.108 99.0597 51.072 99.0117 51C98.9637 50.928 98.9397 50.84 98.9397 50.736C98.9397 50.632 98.9637 50.544 99.0117 50.472C99.0597 50.4 99.1357 50.364 99.2397 50.364H108.648ZM100.812 52.272C100.924 52.272 101.024 52.3 101.112 52.356C101.2 52.412 101.244 52.504 101.244 52.632V54.588C101.244 54.74 101.32 54.816 101.472 54.816H107.424C107.528 54.816 107.604 54.852 107.652 54.924C107.7 54.996 107.724 55.084 107.724 55.188C107.724 55.292 107.7 55.38 107.652 55.452C107.604 55.524 107.528 55.56 107.424 55.56H101.196C100.884 55.56 100.668 55.5 100.548 55.38C100.428 55.268 100.368 55.06 100.368 54.756V52.632C100.368 52.504 100.412 52.412 100.5 52.356C100.588 52.3 100.692 52.272 100.812 52.272ZM117.386 45.3C117.698 45.3 117.914 45.36 118.034 45.48C118.154 45.592 118.214 45.8 118.214 46.104V46.8C118.214 47.512 118.174 48.192 118.094 48.84C118.014 49.488 117.89 50.084 117.722 50.628L116.906 50.472C117.066 49.88 117.178 49.292 117.242 48.708C117.314 48.116 117.35 47.496 117.35 46.848V46.284C117.35 46.196 117.334 46.14 117.302 46.116C117.27 46.084 117.21 46.068 117.122 46.068H111.362C111.258 46.068 111.182 46.032 111.134 45.96C111.086 45.88 111.062 45.788 111.062 45.684C111.062 45.572 111.086 45.48 111.134 45.408C111.182 45.336 111.258 45.3 111.362 45.3H117.386ZM119.438 50.256C119.55 50.256 119.63 50.292 119.678 50.364C119.726 50.436 119.75 50.528 119.75 50.64C119.75 50.744 119.726 50.832 119.678 50.904C119.63 50.976 119.55 51.012 119.438 51.012H115.19V55.464C115.19 55.592 115.142 55.684 115.046 55.74C114.958 55.796 114.858 55.824 114.746 55.824C114.634 55.824 114.534 55.796 114.446 55.74C114.358 55.684 114.314 55.592 114.314 55.464V51.012H110.054C109.942 51.012 109.862 50.976 109.814 50.904C109.766 50.832 109.742 50.744 109.742 50.64C109.742 50.528 109.766 50.436 109.814 50.364C109.862 50.292 109.942 50.256 110.054 50.256H119.438Z" fill="#2593BD"/>
<g filter="url(#filter2_d_1181_3753)">
<rect x="16" y="75" width="148" height="32" rx="8" fill="#5FC6F0"/>
<path d="M56.504 88.784C56.504 88.392 56.564 88.028 56.684 87.692C56.804 87.356 56.984 87.068 57.224 86.828C57.464 86.58 57.764 86.388 58.124 86.252C58.484 86.116 58.9 86.048 59.372 86.048C59.844 86.048 60.26 86.116 60.62 86.252C60.98 86.388 61.28 86.58 61.52 86.828C61.76 87.068 61.94 87.356 62.06 87.692C62.18 88.028 62.24 88.392 62.24 88.784C62.24 89.184 62.18 89.552 62.06 89.888C61.94 90.216 61.76 90.504 61.52 90.752C61.28 90.992 60.98 91.18 60.62 91.316C60.26 91.452 59.844 91.52 59.372 91.52C58.9 91.52 58.484 91.452 58.124 91.316C57.764 91.18 57.464 90.992 57.224 90.752C56.984 90.504 56.804 90.216 56.684 89.888C56.564 89.552 56.504 89.184 56.504 88.784ZM60.776 88.784C60.776 88.584 60.748 88.396 60.692 88.22C60.644 88.036 60.564 87.88 60.452 87.752C60.34 87.616 60.196 87.512 60.02 87.44C59.844 87.36 59.628 87.32 59.372 87.32C59.116 87.32 58.9 87.36 58.724 87.44C58.548 87.512 58.404 87.616 58.292 87.752C58.18 87.88 58.096 88.036 58.04 88.22C57.992 88.396 57.968 88.584 57.968 88.784C57.968 88.992 57.992 89.184 58.04 89.36C58.096 89.536 58.18 89.692 58.292 89.828C58.404 89.956 58.548 90.06 58.724 90.14C58.9 90.212 59.116 90.248 59.372 90.248C59.628 90.248 59.844 90.212 60.02 90.14C60.196 90.06 60.34 89.956 60.452 89.828C60.564 89.692 60.644 89.536 60.692 89.36C60.748 89.184 60.776 88.992 60.776 88.784ZM65.06 87.152H66.092C66.276 87.152 66.412 87.216 66.5 87.344C66.588 87.472 66.632 87.628 66.632 87.812C66.632 87.988 66.588 88.14 66.5 88.268C66.412 88.396 66.276 88.46 66.092 88.46H65.06V89.192H66.092C66.276 89.192 66.412 89.256 66.5 89.384C66.588 89.512 66.632 89.668 66.632 89.852C66.632 90.028 66.588 90.18 66.5 90.308C66.412 90.436 66.276 90.5 66.092 90.5H65.06V91.568C65.06 91.792 64.98 91.956 64.82 92.06C64.668 92.164 64.492 92.216 64.292 92.216C64.092 92.216 63.912 92.164 63.752 92.06C63.6 91.956 63.524 91.792 63.524 91.568V86.252C63.524 86.028 63.6 85.864 63.752 85.76C63.912 85.656 64.092 85.604 64.292 85.604C64.492 85.604 64.668 85.656 64.82 85.76C64.98 85.864 65.06 86.028 65.06 86.252V87.152ZM58.016 94.616C58.016 93.84 58.328 93.26 58.952 92.876C59.584 92.484 60.452 92.288 61.556 92.288C62.66 92.288 63.524 92.484 64.148 92.876C64.78 93.26 65.096 93.84 65.096 94.616C65.096 95.4 64.78 95.984 64.148 96.368C63.524 96.752 62.66 96.944 61.556 96.944C60.452 96.944 59.584 96.752 58.952 96.368C58.328 95.984 58.016 95.4 58.016 94.616ZM63.572 94.616C63.572 94.288 63.416 94.024 63.104 93.824C62.8 93.616 62.284 93.512 61.556 93.512C61.188 93.512 60.876 93.54 60.62 93.596C60.364 93.644 60.156 93.716 59.996 93.812C59.836 93.908 59.72 94.024 59.648 94.16C59.576 94.296 59.54 94.448 59.54 94.616C59.54 94.784 59.576 94.936 59.648 95.072C59.72 95.208 59.836 95.324 59.996 95.42C60.156 95.516 60.364 95.588 60.62 95.636C60.876 95.692 61.188 95.72 61.556 95.72C62.284 95.72 62.8 95.616 63.104 95.408C63.416 95.208 63.572 94.944 63.572 94.616ZM71.5419 88.376V88.976C71.5419 89.224 71.5539 89.44 71.5779 89.624C71.6099 89.808 71.6579 89.98 71.7219 90.14C71.7859 90.292 71.8739 90.444 71.9859 90.596C72.0979 90.74 72.2379 90.896 72.4059 91.064C72.6459 91.304 72.8739 91.524 73.0899 91.724C73.3059 91.924 73.5099 92.108 73.7019 92.276C73.8459 92.404 73.9019 92.564 73.8699 92.756C73.8459 92.94 73.7739 93.092 73.6539 93.212C73.5339 93.332 73.3859 93.408 73.2099 93.44C73.0339 93.472 72.8739 93.424 72.7299 93.296C72.5699 93.16 72.3979 93.004 72.2139 92.828C72.0299 92.644 71.8299 92.444 71.6139 92.228C71.4539 92.076 71.3219 91.944 71.2179 91.832C71.1219 91.72 71.0419 91.628 70.9779 91.556C70.9219 91.476 70.8779 91.408 70.8459 91.352C70.8139 91.288 70.7939 91.228 70.7859 91.172H70.7739C70.7579 91.244 70.7339 91.312 70.7019 91.376C70.6779 91.44 70.6339 91.516 70.5699 91.604C70.5139 91.684 70.4339 91.78 70.3299 91.892C70.2339 91.996 70.1059 92.124 69.9459 92.276C69.7299 92.484 69.5139 92.688 69.2979 92.888C69.0899 93.088 68.8699 93.284 68.6379 93.476C68.4779 93.604 68.3059 93.644 68.1219 93.596C67.9379 93.54 67.7899 93.448 67.6779 93.32C67.5659 93.184 67.5059 93.028 67.4979 92.852C67.4899 92.668 67.5619 92.512 67.7139 92.384C67.9699 92.168 68.2099 91.956 68.4339 91.748C68.6659 91.532 68.9019 91.304 69.1419 91.064C69.3099 90.896 69.4499 90.74 69.5619 90.596C69.6739 90.444 69.7619 90.292 69.8259 90.14C69.8899 89.98 69.9339 89.808 69.9579 89.624C69.9899 89.44 70.0059 89.224 70.0059 88.976V88.376H68.1339C67.9499 88.376 67.8139 88.312 67.7259 88.184C67.6379 88.056 67.5939 87.904 67.5939 87.728C67.5939 87.544 67.6379 87.388 67.7259 87.26C67.8139 87.132 67.9499 87.068 68.1339 87.068H70.0059V86.216C70.0059 85.992 70.0819 85.828 70.2339 85.724C70.3939 85.62 70.5739 85.568 70.7739 85.568C70.9739 85.568 71.1499 85.62 71.3019 85.724C71.4619 85.828 71.5419 85.992 71.5419 86.216V87.068H73.3179C73.5019 87.068 73.6379 87.132 73.7259 87.26C73.8139 87.388 73.8579 87.544 73.8579 87.728C73.8579 87.904 73.8139 88.056 73.7259 88.184C73.6379 88.312 73.5019 88.376 73.3179 88.376H71.5419ZM76.3779 95.444C76.3779 95.668 76.2979 95.832 76.1379 95.936C75.9859 96.04 75.8059 96.092 75.5979 96.092C75.3979 96.092 75.2179 96.04 75.0579 95.936C74.9059 95.832 74.8299 95.668 74.8299 95.444V86.252C74.8299 86.028 74.9059 85.864 75.0579 85.76C75.2179 85.656 75.3979 85.604 75.5979 85.604C75.8059 85.604 75.9859 85.656 76.1379 85.76C76.2979 85.864 76.3779 86.028 76.3779 86.252V95.444ZM81.2638 88.952C81.6718 88.952 82.0398 89.012 82.3678 89.132C82.7038 89.244 82.9838 89.404 83.2078 89.612C83.4398 89.82 83.6158 90.076 83.7358 90.38C83.8638 90.676 83.9278 91.004 83.9278 91.364C83.9278 91.724 83.8638 92.056 83.7358 92.36C83.6158 92.656 83.4398 92.908 83.2078 93.116C82.9838 93.324 82.7038 93.488 82.3678 93.608C82.0398 93.72 81.6718 93.776 81.2638 93.776C80.8558 93.776 80.4838 93.72 80.1478 93.608C79.8198 93.488 79.5398 93.324 79.3078 93.116C79.0838 92.908 78.9078 92.656 78.7798 92.36C78.6598 92.056 78.5998 91.724 78.5998 91.364C78.5998 91.004 78.6598 90.676 78.7798 90.38C78.9078 90.076 79.0838 89.82 79.3078 89.612C79.5398 89.404 79.8198 89.244 80.1478 89.132C80.4838 89.012 80.8558 88.952 81.2638 88.952ZM80.4958 87.056V86.228C80.4958 86.004 80.5718 85.84 80.7238 85.736C80.8838 85.632 81.0638 85.58 81.2638 85.58C81.4638 85.58 81.6398 85.632 81.7918 85.736C81.9518 85.84 82.0318 86.004 82.0318 86.228V87.056H83.9158C84.0998 87.056 84.2358 87.12 84.3238 87.248C84.4118 87.376 84.4558 87.528 84.4558 87.704C84.4558 87.88 84.4118 88.032 84.3238 88.16C84.2358 88.288 84.0998 88.352 83.9158 88.352H78.4678C78.2838 88.352 78.1478 88.288 78.0598 88.16C77.9718 88.032 77.9278 87.88 77.9278 87.704C77.9278 87.528 77.9718 87.376 78.0598 87.248C78.1478 87.12 78.2838 87.056 78.4678 87.056H80.4958ZM81.2638 92.552C81.6478 92.552 81.9558 92.448 82.1878 92.24C82.4198 92.024 82.5358 91.732 82.5358 91.364C82.5358 90.996 82.4198 90.708 82.1878 90.5C81.9558 90.284 81.6478 90.176 81.2638 90.176C80.8798 90.176 80.5718 90.284 80.3398 90.5C80.1078 90.708 79.9918 90.996 79.9918 91.364C79.9918 91.732 80.1078 92.024 80.3398 92.24C80.5718 92.448 80.8798 92.552 81.2638 92.552ZM86.6638 89.264H87.7918C87.9838 89.264 88.1238 89.328 88.2118 89.456C88.2998 89.584 88.3438 89.74 88.3438 89.924C88.3438 90.108 88.2998 90.268 88.2118 90.404C88.1238 90.532 87.9838 90.596 87.7918 90.596H86.6638V95.444C86.6638 95.668 86.5838 95.832 86.4238 95.936C86.2718 96.04 86.0998 96.092 85.9078 96.092C85.7078 96.092 85.5278 96.04 85.3678 95.936C85.2158 95.832 85.1398 95.668 85.1398 95.444V86.252C85.1398 86.028 85.2158 85.864 85.3678 85.76C85.5278 85.656 85.7078 85.604 85.9078 85.604C86.0998 85.604 86.2718 85.656 86.4238 85.76C86.5838 85.864 86.6638 86.028 86.6638 86.252V89.264ZM89.8696 87.644C89.6856 87.644 89.5496 87.58 89.4616 87.452C89.3736 87.324 89.3296 87.172 89.3296 86.996C89.3296 86.82 89.3736 86.668 89.4616 86.54C89.5496 86.412 89.6856 86.348 89.8696 86.348H93.2536C93.6376 86.348 93.9016 86.42 94.0456 86.564C94.1976 86.708 94.2736 86.968 94.2736 87.344V89.564C94.2736 89.94 94.1976 90.2 94.0456 90.344C93.9016 90.488 93.6376 90.56 93.2536 90.56H91.1296C90.9456 90.56 90.8536 90.652 90.8536 90.836V92.012C90.8536 92.196 90.9456 92.288 91.1296 92.288C91.8016 92.288 92.4416 92.272 93.0496 92.24C93.6656 92.208 94.2536 92.152 94.8136 92.072C94.9976 92.048 95.1416 92.092 95.2456 92.204C95.3576 92.316 95.4216 92.456 95.4376 92.624C95.4536 92.808 95.4296 92.972 95.3656 93.116C95.3016 93.252 95.1816 93.332 95.0056 93.356C94.7736 93.388 94.5096 93.42 94.2136 93.452C93.9176 93.476 93.5816 93.5 93.2056 93.524C92.8296 93.54 92.4056 93.556 91.9336 93.572C91.4696 93.58 90.9456 93.584 90.3616 93.584C89.9776 93.584 89.7096 93.512 89.5576 93.368C89.4136 93.224 89.3416 92.964 89.3416 92.588V90.308C89.3416 89.932 89.4136 89.672 89.5576 89.528C89.7096 89.384 89.9776 89.312 90.3616 89.312H92.4856C92.6696 89.312 92.7616 89.22 92.7616 89.036V87.92C92.7616 87.736 92.6696 87.644 92.4856 87.644H89.8696ZM96.5296 90.44H95.3776C95.1856 90.44 95.0456 90.376 94.9576 90.248C94.8696 90.12 94.8256 89.964 94.8256 89.78C94.8256 89.596 94.8696 89.44 94.9576 89.312C95.0456 89.184 95.1856 89.12 95.3776 89.12H96.5296V86.252C96.5296 86.028 96.6056 85.864 96.7576 85.76C96.9176 85.656 97.0976 85.604 97.2976 85.604C97.4896 85.604 97.6616 85.656 97.8136 85.76C97.9736 85.864 98.0536 86.028 98.0536 86.252V95.444C98.0536 95.668 97.9736 95.832 97.8136 95.936C97.6616 96.04 97.4896 96.092 97.2976 96.092C97.0976 96.092 96.9176 96.04 96.7576 95.936C96.6056 95.832 96.5296 95.668 96.5296 95.444V90.44ZM103.348 87.74C103.164 87.74 103.028 87.676 102.94 87.548C102.852 87.42 102.808 87.268 102.808 87.092C102.808 86.908 102.852 86.752 102.94 86.624C103.028 86.496 103.164 86.432 103.348 86.432H106.936C107.32 86.432 107.584 86.504 107.728 86.648C107.88 86.792 107.956 87.052 107.956 87.428V88.736C107.956 89.24 107.908 89.68 107.812 90.056C107.716 90.424 107.52 90.784 107.224 91.136C106.928 91.488 106.504 91.864 105.952 92.264C105.408 92.656 104.684 93.132 103.78 93.692C103.612 93.796 103.436 93.816 103.252 93.752C103.076 93.68 102.94 93.572 102.844 93.428C102.748 93.284 102.7 93.116 102.7 92.924C102.7 92.732 102.788 92.58 102.964 92.468C103.508 92.14 103.972 91.852 104.356 91.604C104.74 91.348 105.06 91.12 105.316 90.92C105.572 90.72 105.772 90.536 105.916 90.368C106.068 90.2 106.18 90.032 106.252 89.864C106.332 89.688 106.38 89.508 106.396 89.324C106.42 89.14 106.432 88.928 106.432 88.688V88.016C106.432 87.832 106.34 87.74 106.156 87.74H103.348ZM112.276 89.144C112.468 89.144 112.608 89.208 112.696 89.336C112.784 89.464 112.828 89.62 112.828 89.804C112.828 89.988 112.784 90.148 112.696 90.284C112.608 90.412 112.468 90.476 112.276 90.476H111.148V95.444C111.148 95.668 111.068 95.832 110.908 95.936C110.756 96.04 110.58 96.092 110.38 96.092C110.18 96.092 110 96.04 109.84 95.936C109.688 95.832 109.612 95.668 109.612 95.444V86.252C109.612 86.028 109.688 85.864 109.84 85.76C110 85.656 110.18 85.604 110.38 85.604C110.58 85.604 110.756 85.656 110.908 85.76C111.068 85.864 111.148 86.028 111.148 86.252V89.144H112.276ZM114.389 87.728C114.205 87.728 114.069 87.664 113.981 87.536C113.893 87.408 113.849 87.256 113.849 87.08C113.849 86.896 113.893 86.74 113.981 86.612C114.069 86.484 114.205 86.42 114.389 86.42H118.001C118.385 86.42 118.649 86.492 118.793 86.636C118.945 86.78 119.021 87.04 119.021 87.416V88.748C119.021 89.084 119.001 89.388 118.961 89.66C118.921 89.932 118.845 90.192 118.733 90.44C118.629 90.68 118.481 90.916 118.289 91.148C118.097 91.38 117.845 91.624 117.533 91.88C117.221 92.136 116.841 92.412 116.393 92.708C115.953 93.004 115.429 93.336 114.821 93.704C114.653 93.808 114.477 93.828 114.293 93.764C114.117 93.692 113.981 93.584 113.885 93.44C113.789 93.296 113.741 93.128 113.741 92.936C113.741 92.744 113.829 92.592 114.005 92.48C114.549 92.152 115.013 91.864 115.397 91.616C115.789 91.36 116.113 91.132 116.369 90.932C116.633 90.732 116.837 90.548 116.981 90.38C117.133 90.212 117.245 90.044 117.317 89.876C117.397 89.7 117.445 89.52 117.461 89.336C117.485 89.152 117.497 88.94 117.497 88.7V88.004C117.497 87.82 117.405 87.728 117.221 87.728H114.389ZM122.465 95.444C122.465 95.668 122.385 95.832 122.225 95.936C122.073 96.04 121.893 96.092 121.685 96.092C121.485 96.092 121.305 96.04 121.145 95.936C120.993 95.832 120.917 95.668 120.917 95.444V86.252C120.917 86.028 120.993 85.864 121.145 85.76C121.305 85.656 121.485 85.604 121.685 85.604C121.893 85.604 122.073 85.656 122.225 85.76C122.385 85.864 122.465 86.028 122.465 86.252V95.444Z" fill="#FAFBFC"/>
</g>
</g>
<defs>
<filter id="filter0_d_1181_3753" x="0" y="0" width="180" height="126" filterUnits="userSpaceOnUse" color-interpolation-filters="sRGB">
<feFlood flood-opacity="0" result="BackgroundImageFix"/>
<feColorMatrix in="SourceAlpha" type="matrix" values="0 0 0 0 0 0 0 0 0 0 0 0 0 0 0 0 0 0 127 0" result="hardAlpha"/>
<feOffset dy="4"/>
<feComposite in2="hardAlpha" operator="out"/>
<feColorMatrix type="matrix" values="0 0 0 0 0.372549 0 0 0 0 0.776471 0 0 0 0 0.941176 0 0 0 1 0"/>
<feBlend mode="normal" in2="BackgroundImageFix" result="effect1_dropShadow_1181_3753"/>
<feBlend mode="normal" in="SourceGraphic" in2="effect1_dropShadow_1181_3753" result="shape"/>
</filter>
<filter id="filter1_d_1181_3753" x="15.884" y="12.884" width="50.589" height="50.9462" filterUnits="userSpaceOnUse" color-interpolation-filters="sRGB">
<feFlood flood-opacity="0" result="BackgroundImageFix"/>
<feColorMatrix in="SourceAlpha" type="matrix" values="0 0 0 0 0 0 0 0 0 0 0 0 0 0 0 0 0 0 127 0" result="hardAlpha"/>
<feOffset dx="0.357143" dy="0.714286"/>
<feComposite in2="hardAlpha" operator="out"/>
<feColorMatrix type="matrix" values="0 0 0 0 0.12549 0 0 0 0 0.572549 0 0 0 0 0.768627 0 0 0 1 0"/>
<feBlend mode="normal" in2="BackgroundImageFix" result="effect1_dropShadow_1181_3753"/>
<feBlend mode="normal" in="SourceGraphic" in2="effect1_dropShadow_1181_3753" result="shape"/>
</filter>
<filter id="filter2_d_1181_3753" x="16" y="75" width="148" height="36" filterUnits="userSpaceOnUse" color-interpolation-filters="sRGB">
<feFlood flood-opacity="0" result="BackgroundImageFix"/>
<feColorMatrix in="SourceAlpha" type="matrix" values="0 0 0 0 0 0 0 0 0 0 0 0 0 0 0 0 0 0 127 0" result="hardAlpha"/>
<feOffset dy="4"/>
<feComposite in2="hardAlpha" operator="out"/>
<feColorMatrix type="matrix" values="0 0 0 0 0.239216 0 0 0 0 0.686275 0 0 0 0 0.85098 0 0 0 1 0"/>
<feBlend mode="normal" in2="BackgroundImageFix" result="effect1_dropShadow_1181_3753"/>
<feBlend mode="normal" in="SourceGraphic" in2="effect1_dropShadow_1181_3753" result="shape"/>
</filter>
<linearGradient id="paint0_linear_1181_3753" x1="38.9128" y1="12.9536" x2="43.0408" y2="62.7681" gradientUnits="userSpaceOnUse">
<stop stop-color="#A1DDF5"/>
<stop offset="1" stop-color="#AAE6FF"/>
</linearGradient>
<linearGradient id="paint1_linear_1181_3753" x1="30.6011" y1="26.1632" x2="51.705" y2="50.2356" gradientUnits="userSpaceOnUse">
<stop stop-color="#ABDDF4"/>
<stop offset="1" stop-color="#7CCCEA"/>
</linearGradient>
</defs>
</svg>
