<svg width="200" height="200" viewBox="0 0 200 200" fill="none" xmlns="http://www.w3.org/2000/svg">
<rect width="200" height="200" fill="white"/>
<path d="M124.86 106.672C124.309 106.672 123.864 107.118 123.864 107.668C123.864 118.672 132.784 127.592 143.788 127.592H160.996C161.547 127.592 161.992 127.147 161.992 126.596C161.992 115.592 153.072 106.672 142.068 106.672H124.86Z" fill="#FCF9F5"/>
<path d="M160.99 85.7524C161.541 85.7524 161.986 86.1978 161.986 86.7483C161.986 97.7525 153.067 106.672 142.062 106.672H124.854C124.304 106.672 123.858 106.227 123.858 105.676C123.858 94.6721 132.778 85.7524 143.782 85.7524H160.99Z" fill="#FCF9F5"/>
<path d="M75.1401 106.672C75.6906 106.672 76.1359 107.118 76.1359 107.668C76.1359 118.672 67.2163 127.592 56.2121 127.592H39.0037C38.4532 127.592 38.0078 127.147 38.0078 126.596C38.0078 115.592 46.9275 106.672 57.9317 106.672H75.1339H75.1401Z" fill="#FCF9F5"/>
<path d="M39.0105 85.7529C38.46 85.7529 38.0146 86.1983 38.0146 86.7488C38.0146 97.753 46.9343 106.673 57.9385 106.673H75.1407C75.6912 106.673 76.1366 106.227 76.1366 105.677C76.1366 94.6726 67.2169 85.7529 56.2127 85.7529H39.0105Z" fill="#FCF9F5"/>
<path d="M145.112 163.55C151.004 161.731 154.305 155.48 152.486 149.588C150.667 143.696 144.416 140.395 138.524 142.214C132.632 144.034 129.331 150.285 131.15 156.177C132.969 162.068 139.22 165.37 145.112 163.55Z" fill="#C48F5F"/>
<path d="M99.9258 32.6304C121.087 32.6304 138.246 49.7831 138.246 70.9503V174.133H115.569V159.906C115.569 151.45 108.381 144.683 99.9258 144.683C91.47 144.683 84.6164 151.536 84.6164 159.992V164.57H61.6121V70.9503C61.6121 49.7893 78.7648 32.6304 99.9258 32.6304Z" fill="#FFDA9E"/>
<path d="M115.928 170.922H134.07C141.549 170.922 147.617 176.984 147.617 184.469H115.928V170.922Z" fill="#FFDA9E"/>
<path d="M123.963 164.434L115.569 164.23V184.469H123.963V164.434Z" fill="#C48F5F"/>
<path d="M84.6906 170.922H66.5482C59.0698 170.922 53.0017 176.984 53.0017 184.468H84.6906V170.922Z" fill="#FFDA9E"/>
<path d="M84.6847 164.433H61.6804V177.423H84.6847V164.433Z" fill="#FFDA9E"/>
<path d="M85.3091 164.433H76.0369V184.474H85.3091V164.433Z" fill="#C48F5F"/>
<path d="M100 106.703C113.231 106.703 123.963 114.126 123.963 136.215V168.083L115.569 167.941C114.072 161.05 107.602 156.034 100.266 156.034C92.9299 156.034 86.7999 161.192 85.303 168.083H76.0308V136.215C76.0308 122.984 86.7566 106.703 99.9938 106.703H100Z" fill="#C48F5F"/>
<path d="M133.168 105.961V133.895C133.168 138.979 129.048 143.099 123.963 143.099C118.879 143.099 114.759 138.979 114.759 133.895V105.961C114.759 100.876 118.879 96.7563 123.963 96.7563C129.048 96.7563 133.168 100.876 133.168 105.961Z" fill="#D1A371"/>
<path d="M84.3447 105.961V133.895C84.3447 138.979 80.2251 143.099 75.1405 143.099C70.0559 143.099 65.9363 138.979 65.9363 133.895V105.961C65.9363 100.876 70.0559 96.7563 75.1405 96.7563C80.2251 96.7563 84.3447 100.876 84.3447 105.961Z" fill="#D1A371"/>
<path d="M106.594 72.3979C118.39 69.5216 130.328 76.7464 133.26 88.5238C136.192 100.301 129.01 112.184 117.221 115.054L57.3563 129.64C56.2305 129.912 55.0986 129.225 54.814 128.106C49.2222 105.67 62.9048 83.0434 85.371 77.5691L106.594 72.3979Z" fill="#9A6CFF"/>
<path d="M49.2097 84.5831C49.2097 72.8119 58.7541 63.2737 70.5192 63.2737H129.332C141.103 63.2737 150.641 72.8181 150.641 84.5831C150.641 96.3543 141.097 105.893 129.332 105.893H70.5192C58.7479 105.893 49.2097 96.3482 49.2097 84.5831Z" fill="#FFDA9E"/>
<path d="M65.0208 86.1179C65.0208 75.2684 73.8167 66.4724 84.6663 66.4724H115.347C126.196 66.4724 134.992 75.2684 134.992 86.1179C134.992 96.9675 126.196 105.763 115.347 105.763H84.6663C73.8167 105.763 65.0208 96.9675 65.0208 86.1179Z" fill="#FFEED3"/>
<path d="M112.18 29.9078C111.883 29.9078 111.586 30.05 111.382 30.3284L106.359 37.2996L100.817 28.4356C100.408 27.7861 99.6228 27.7861 99.2145 28.4356L93.666 37.312L88.6371 30.3284C88.433 30.0439 88.1361 29.9078 87.833 29.9078V43.046H91.8722C91.9526 43.0708 92.0392 43.0893 92.1258 43.0893H107.899C107.992 43.0893 108.072 43.0708 108.153 43.046H112.18V29.9078Z" fill="#FFB67A"/>
<path d="M121.427 50.4204C115.174 46.5482 113.237 38.3337 117.11 32.0801C120.982 25.8264 129.196 23.8903 135.45 27.7625L141.444 31.4739C151.013 37.3997 153.97 49.9565 148.044 59.5257L145.409 63.7814C145.038 64.3752 144.258 64.5607 143.665 64.1896L121.421 50.4204H121.427Z" fill="#C48F5F"/>
<path d="M78.6288 51.0205C84.8825 47.1483 86.8186 38.9338 82.9464 32.6802C79.0742 26.4265 70.8597 24.4904 64.606 28.3626L58.6121 32.074C49.043 37.9998 46.0925 50.5566 52.0121 60.1258L54.6472 64.3815C55.0183 64.9753 55.7977 65.1608 56.3915 64.7897L78.635 51.0205H78.6288Z" fill="#C48F5F"/>
<path d="M108.085 70.591C108.085 74.8467 104.633 78.2983 100.377 78.2983H99.6414C95.3857 78.2983 91.9341 74.8467 91.9341 70.591C91.9341 70.3807 92.1073 70.2075 92.3176 70.2075H107.707C107.918 70.2075 108.091 70.3807 108.091 70.591H108.085Z" fill="#F05F83"/>
<path d="M96.3321 68.9832C96.3321 66.9605 97.9713 65.3213 99.994 65.3213C102.017 65.3213 103.656 66.9605 103.656 68.9832V70.2079H96.3259V68.9832H96.3321Z" fill="#2D3033"/>
<path d="M95.1506 70.2075H104.868V81.9973C104.868 84.6819 102.691 86.8592 100.006 86.8592C97.3218 86.8592 95.1506 84.6819 95.1506 81.9973V70.2075Z" fill="#FF7F9C"/>
<path d="M99.054 70.2075H100.934V76.3808C100.934 77.0736 100.514 77.6364 99.9942 77.6364C99.4746 77.6364 99.054 77.0736 99.054 76.3808V70.2075Z" fill="#F05F83"/>
<path d="M94.4081 61.9124C94.4081 63.7929 92.8802 65.3207 90.9998 65.3207C89.1194 65.3207 87.5916 63.7929 87.5916 61.9124C87.5916 60.032 89.1194 58.5042 90.9998 58.5042C92.8802 58.5042 94.4081 60.032 94.4081 61.9124Z" fill="#2D3033"/>
<path d="M112.495 61.9124C112.495 63.7929 110.967 65.3207 109.086 65.3207C107.206 65.3207 105.678 63.7929 105.678 61.9124C105.678 60.032 107.2 58.5042 109.086 58.5042C110.973 58.5042 112.495 60.032 112.495 61.9124Z" fill="#2D3033"/>
<path d="M161.047 189.444C161.047 192.188 158.645 194.413 155.681 194.413H44.3191C41.3556 194.413 38.9532 192.188 38.9532 189.444C38.9532 186.699 41.3556 184.474 44.3191 184.474H155.681C158.645 184.474 161.047 186.699 161.047 189.444Z" fill="#9A6CFF"/>
</svg>
