<svg width="200" height="200" viewBox="0 0 200 200" fill="none" xmlns="http://www.w3.org/2000/svg">
<rect width="200" height="200" fill="white"/>
<path d="M182.908 88.7617C179.628 80.1088 173.02 74.1286 164.367 71.1001C158.387 69.0067 151.89 68.1484 145.575 68.6299C130.412 69.7883 117.732 80.4508 110.287 93.2067C109.896 93.8696 109.512 94.5465 109.177 95.2373C109.177 95.2373 109.121 99.0055 109.038 104.86C94.4605 110.184 84.0562 124.175 84.0562 140.595C84.0562 161.599 101.083 178.625 122.087 178.625C143.091 178.625 160.117 161.599 160.117 140.595C160.117 133.903 158.387 127.623 155.351 122.159C157.103 122.57 158.931 122.801 160.815 122.801C168.316 122.801 175.001 119.319 179.349 113.883C179.628 113.562 179.914 113.248 180.179 112.913C185.622 106.088 185.922 96.6957 182.915 88.7686L182.908 88.7617Z" fill="#DB854B"/>
<path d="M120.756 107.708C120.213 107.708 119.775 108.146 119.775 108.688C119.775 119.524 128.558 128.308 139.394 128.308H156.34C156.882 128.308 157.321 127.869 157.321 127.327C157.321 116.491 148.537 107.708 137.701 107.708H120.756Z" fill="#FCEFE6"/>
<path d="M156.334 87.1082C156.876 87.1082 157.314 87.5467 157.314 88.0888C157.314 98.9249 148.531 107.708 137.695 107.708H120.749C120.207 107.708 119.769 107.27 119.769 106.728C119.769 95.8915 128.552 87.1082 139.388 87.1082H156.334Z" fill="#FCEFE6"/>
<path d="M95.4814 23.9477C95.8873 23.3019 96.6684 23.3019 97.0743 23.9477L104.916 36.4881C105.433 37.3122 104.959 38.5177 104.123 38.5177H88.4394C87.5968 38.5177 87.1294 37.3122 87.646 36.4881L95.4814 23.9477Z" fill="#D27FFF"/>
<path d="M108.372 38.4681H100.531C99.6881 38.4681 99.2207 37.4226 99.7373 36.7092L107.579 25.8294C107.782 25.5464 108.077 25.4111 108.372 25.4111V38.4743V38.4681Z" fill="#D27FFF"/>
<path d="M84.1711 38.4681H92.0127C92.8553 38.4681 93.3289 37.4226 92.8123 36.7092L84.9707 25.8294C84.7677 25.5464 84.4725 25.4111 84.1773 25.4111V38.4743L84.1711 38.4681Z" fill="#D27FFF"/>
<path d="M120.78 45.6759L121.973 43.3065C123.813 39.6518 122.345 35.1931 118.69 33.3536C115.036 31.5141 110.577 32.982 108.737 36.6367L107.836 38.4275C104.194 37.258 100.313 36.6184 96.2811 36.6184C92.2488 36.6184 88.3688 37.258 84.7263 38.4275L83.8248 36.6367C81.9853 32.982 77.5266 31.508 73.8719 33.3536C70.2172 35.1931 68.7432 39.6518 70.5888 43.3065L71.7827 45.6759C63.6937 52.5954 58.5588 62.8712 58.5588 74.3529V164.581H81.2117V160.372C81.2117 152.045 87.9607 145.296 96.2872 145.296C104.614 145.296 111.363 152.045 111.363 160.372V164.581H134.022V74.359C134.022 62.8772 128.887 52.6015 120.798 45.682L120.78 45.6759Z" fill="#F4A261"/>
<path d="M111.35 170.976H129.216C136.58 170.976 142.555 176.946 142.555 184.316H111.35V170.976Z" fill="#F4A261"/>
<path d="M134.003 164.587H111.35V177.378H134.003V164.587Z" fill="#F4A261"/>
<path d="M119.872 164.587H111.35V184.322H119.872V164.587Z" fill="#B77142"/>
<path d="M81.1994 170.977H63.3342C55.97 170.977 49.9946 176.946 49.9946 184.316H81.1994V170.977Z" fill="#F4A261"/>
<path d="M81.1995 164.587H58.5466V177.378H81.1995V164.587Z" fill="#F4A261"/>
<path d="M81.8088 164.587H72.6782V184.322H81.8088V164.587Z" fill="#B77142"/>
<path d="M96.275 109.834C109.304 109.834 119.872 118.361 119.872 136.799V168.181H111.271C109.797 161.395 103.761 156.315 96.5369 156.315C89.3128 156.315 83.2765 161.395 81.8025 168.181H72.6719V136.799C72.6719 123.77 83.2339 109.834 96.2689 109.834H96.275Z" fill="#B77142"/>
<path d="M71.7945 107.708C72.3366 107.708 72.7751 108.146 72.7751 108.688C72.7751 119.524 63.9918 128.308 53.1557 128.308H36.2102C35.6681 128.308 35.2295 127.869 35.2295 127.327C35.2295 116.491 44.0129 107.708 54.849 107.708H71.7884H71.7945Z" fill="#FCEFE6"/>
<path d="M36.216 87.1082C35.6739 87.1082 35.2354 87.5467 35.2354 88.0888C35.2354 98.9249 44.0187 107.708 54.8548 107.708H71.7943C72.3364 107.708 72.7749 107.27 72.7749 106.728C72.7749 95.8915 63.9915 87.1082 53.1554 87.1082H36.216Z" fill="#FCEFE6"/>
<path d="M128.935 107.008V134.515C128.935 139.522 124.879 143.579 119.872 143.579C114.865 143.579 110.808 139.522 110.808 134.515V107.008C110.808 102.001 114.865 97.9443 119.872 97.9443C124.879 97.9443 128.935 102.001 128.935 107.008Z" fill="#DB854B"/>
<path d="M81.364 107.008V134.515C81.364 139.522 77.3073 143.579 72.3004 143.579C67.2935 143.579 63.2368 139.522 63.2368 134.515V107.008C63.2368 102.001 67.2935 97.9443 72.3004 97.9443C77.3073 97.9443 81.364 102.001 81.364 107.008Z" fill="#DB854B"/>
<path d="M102.768 73.9571C114.384 71.1247 126.14 78.2392 129.027 89.8367C131.914 101.434 124.842 113.135 113.233 115.961L54.2827 130.324C53.1741 130.592 52.0595 129.916 51.7793 128.814C46.2729 106.721 59.7465 84.4399 81.8694 79.0493L102.768 73.9571Z" fill="#46AF71"/>
<path d="M124.33 54.1978H68.2189C53.9385 54.1978 42.3621 65.7729 42.3621 80.0515C42.3621 94.3301 53.9385 105.905 68.2189 105.905H124.33C138.611 105.905 150.187 94.3301 150.187 80.0515C150.187 65.7729 138.611 54.1978 124.33 54.1978Z" fill="#F4A261"/>
<path d="M54.752 88.3994C54.752 78.7267 62.5912 70.8875 72.2639 70.8875H120.286C129.959 70.8875 137.798 78.7267 137.798 88.3994C137.798 98.0721 129.959 105.911 120.286 105.911H72.2639C62.5912 105.911 54.752 98.0721 54.752 88.3994Z" fill="#FFD0AE"/>
<path d="M84.2996 38.1655L93.2657 54.5384C94.5753 56.9262 97.9985 56.9383 99.3203 54.5567L108.439 38.1655C100.502 35.4976 92.4556 35.4184 84.2996 38.1655Z" fill="#B77142"/>
<path d="M101.872 85.7863V85.0371C101.872 74.5726 110.357 66.0876 120.822 66.0876C131.286 66.0876 139.771 74.5726 139.771 85.0371V85.7863C139.771 96.2509 131.286 104.736 120.822 104.736C110.357 104.736 101.872 96.2509 101.872 85.7863Z" fill="#FFD0AE"/>
<path d="M50.9207 85.2995V84.5503C50.9207 74.0858 59.4056 65.6008 69.8701 65.6008C80.3347 65.6008 88.8196 74.0858 88.8196 84.5503V85.2995C88.8196 95.7641 80.3347 104.249 69.8701 104.249C59.4056 104.249 50.9207 95.7641 50.9207 85.2995Z" fill="#FFD0AE"/>
<path d="M92.6689 69.6992C92.6689 67.7074 94.2831 66.0933 96.2749 66.0933C98.2667 66.0933 99.8808 67.7074 99.8808 69.6992V70.9052H92.6628V69.6992H92.6689Z" fill="#3D4650"/>
<path d="M90.7686 62.731C90.7686 64.5827 89.2641 66.0872 87.4124 66.0872C85.5607 66.0872 84.0562 64.5827 84.0562 62.731C84.0562 60.8793 85.5607 59.3748 87.4124 59.3748C89.2641 59.3748 90.7686 60.8793 90.7686 62.731Z" fill="#3D4650"/>
<path d="M108.579 62.731C108.579 64.5827 107.074 66.0872 105.223 66.0872C103.371 66.0872 101.866 64.5827 101.866 62.731C101.866 60.8793 103.365 59.3748 105.223 59.3748C107.08 59.3748 108.579 60.8793 108.579 62.731Z" fill="#3D4650"/>
<path d="M108.548 71.3197C108.548 76.1438 104.254 80.0543 98.9548 80.0543H92.5591C87.2598 80.0543 82.9656 76.1438 82.9656 71.3197C82.9656 71.076 83.1788 70.8811 83.4468 70.8811H108.067C108.329 70.8811 108.548 71.076 108.548 71.3197Z" fill="#F05F83"/>
<path d="M88.0396 70.8989H97.2737V81.1807C97.2737 82.1736 96.4697 82.9776 95.4768 82.9776H89.8425C88.8497 82.9776 88.0456 82.1736 88.0456 81.1807V70.8989H88.0396Z" fill="#EBF9FF"/>
<path d="M151.084 189.133C151.084 191.79 148.928 193.944 146.267 193.944H46.2833C43.6226 193.944 41.4656 191.79 41.4656 189.133C41.4656 186.476 43.6226 184.322 46.2833 184.322H146.267C148.928 184.322 151.084 186.476 151.084 189.133Z" fill="#46AF71"/>
</svg>
