<svg width="80" height="44" viewBox="0 0 80 44" fill="none" xmlns="http://www.w3.org/2000/svg">
<path d="M72.2769 7.56262C72.3613 9.23024 73.6989 10.5679 75.3667 10.6525L75.5347 10.6564C73.7334 10.6564 72.2732 12.1162 72.2729 13.9171C72.2727 12.1725 70.9024 10.7477 69.1792 10.6603L69.0112 10.6564C70.7564 10.6563 72.1818 9.28583 72.269 7.56262L72.2729 7.39465L72.2769 7.56262Z" fill="#FFB67A"/>
<path d="M76.4739 12.7225C76.4739 13.7181 77.2764 14.5256 78.2698 14.535V14.536C77.2764 14.5454 76.4739 15.3539 76.4739 16.3495H76.4661C76.466 15.3493 75.6562 14.5381 74.6565 14.536V14.535C75.6562 14.533 76.466 13.7227 76.4661 12.7225H76.4739Z" fill="#FFB67A"/>
<path d="M67.889 23.2963L67.9169 24.2719H70.593C70.7881 24.2719 70.9322 24.3138 71.0251 24.3974C71.118 24.4717 71.1644 24.6018 71.1644 24.7877V26.5578C71.1644 26.7529 71.118 26.8876 71.0251 26.962C70.9322 27.0456 70.7881 27.0874 70.593 27.0874H65.5056C65.264 27.0874 65.1014 27.0317 65.0178 26.9202C64.9342 26.818 64.8877 26.6275 64.8784 26.3487L64.753 17.5678C64.7437 17.2983 64.7855 17.1125 64.8784 17.0103C64.9806 16.8988 65.1525 16.843 65.3941 16.843H71.039C71.2341 16.843 71.3782 16.8802 71.4711 16.9545C71.564 17.0288 71.6105 17.1636 71.6105 17.3587V19.1428C71.6105 19.3286 71.564 19.4633 71.4711 19.547C71.3782 19.6213 71.2341 19.6585 71.039 19.6585H67.8193L67.8333 20.4808H70.5512C70.7463 20.4808 70.8903 20.518 70.9833 20.5923C71.0762 20.6667 71.1226 20.8014 71.1226 20.9965V22.7806C71.1226 22.9757 71.0762 23.1104 70.9833 23.1848C70.8903 23.2591 70.7463 23.2963 70.5512 23.2963H67.889Z" fill="#5FC6F0"/>
<path d="M55.1297 26.7111C54.9717 26.6646 54.8649 26.5996 54.8091 26.516C54.7534 26.423 54.758 26.279 54.823 26.0839L57.7082 17.4702C57.7825 17.2379 57.8708 17.0753 57.973 16.9824C58.0752 16.8895 58.2378 16.843 58.4609 16.843H60.4819C60.7049 16.843 60.8675 16.8895 60.9697 16.9824C61.0719 17.0753 61.1602 17.2379 61.2345 17.4702L64.1197 26.0839C64.1847 26.279 64.1894 26.423 64.1336 26.516C64.0779 26.5996 63.971 26.6646 63.813 26.7111L62.0847 27.2129C61.8153 27.2872 61.6341 27.1803 61.5412 26.8923L61.1091 25.4985H57.8197L57.4016 26.8923C57.3086 27.1803 57.1275 27.2872 56.858 27.2129L55.1297 26.7111ZM59.4644 20.0487L58.6281 22.8224H60.3007L59.4644 20.0487Z" fill="#5FC6F0"/>
<path d="M45.907 17.4702C45.907 17.2286 45.9441 17.066 46.0185 16.9824C46.1021 16.8895 46.2415 16.843 46.4366 16.843H48.4437C48.6481 16.843 48.7829 16.8895 48.8479 16.9824C48.9222 17.066 48.964 17.2286 48.9733 17.4702L49.0152 20.4808H50.9247V17.4702C50.9247 17.2286 50.9618 17.066 51.0362 16.9824C51.1198 16.8895 51.2592 16.843 51.4543 16.843H53.4614C53.6658 16.843 53.8052 16.8895 53.8795 16.9824C53.9538 17.066 53.991 17.2286 53.991 17.4702V26.4602C53.991 26.7018 53.9538 26.8644 53.8795 26.948C53.8052 27.041 53.6658 27.0874 53.4614 27.0874H51.4543C51.2592 27.0874 51.1198 27.041 51.0362 26.948C50.9618 26.8644 50.9247 26.7018 50.9247 26.4602V23.2963H49.057L49.1127 26.4602C49.122 26.7018 49.0848 26.8644 49.0012 26.948C48.9269 27.041 48.7875 27.0874 48.5831 27.0874H46.576C46.3809 27.0874 46.2461 27.041 46.1718 26.948C46.0975 26.8644 46.0557 26.7018 46.0464 26.4602L45.907 17.4702Z" fill="#5FC6F0"/>
<path d="M36.3118 26.7111C36.1538 26.6646 36.047 26.5996 35.9912 26.516C35.9355 26.423 35.9401 26.279 36.0052 26.0839L38.8903 17.4702C38.9647 17.2379 39.0529 17.0753 39.1552 16.9824C39.2574 16.8895 39.42 16.843 39.643 16.843H41.664C41.887 16.843 42.0496 16.8895 42.1518 16.9824C42.254 17.0753 42.3423 17.2379 42.4166 17.4702L45.3018 26.0839C45.3668 26.279 45.3715 26.423 45.3157 26.516C45.26 26.5996 45.1531 26.6646 44.9952 26.7111L43.2669 27.2129C42.9974 27.2872 42.8162 27.1803 42.7233 26.8923L42.2912 25.4985H39.0018L38.5837 26.8923C38.4908 27.1803 38.3096 27.2872 38.0401 27.2129L36.3118 26.7111ZM40.6465 20.0487L39.8102 22.8224H41.4828L40.6465 20.0487Z" fill="#5FC6F0"/>
<path d="M28.0557 17.4702C28.0557 17.2286 28.0928 17.066 28.1672 16.9824C28.2508 16.8895 28.3902 16.843 28.5853 16.843H30.5924C30.7968 16.843 30.9315 16.8895 30.9966 16.9824C31.0709 17.066 31.1127 17.2286 31.122 17.4702L31.1499 19.8257L33.4078 17.0102C33.6309 16.7315 33.8771 16.6897 34.1466 16.8848L35.5125 17.9302C35.7169 18.0881 35.8284 18.2275 35.847 18.3483C35.8656 18.4598 35.8145 18.5899 35.6937 18.7386L33.4775 21.4843L35.8609 25.6239C35.9817 25.8376 36.0235 26.0049 35.9864 26.1257C35.9585 26.2372 35.847 26.3348 35.6519 26.4184L34.0211 27.0735C33.8353 27.1478 33.682 27.171 33.5612 27.1432C33.4404 27.1246 33.3335 27.0363 33.2406 26.8783L31.2056 23.366L31.2614 26.4602C31.2707 26.7018 31.2335 26.8644 31.1499 26.948C31.0756 27.0409 30.9362 27.0874 30.7318 27.0874H28.7247C28.5296 27.0874 28.3948 27.0409 28.3205 26.948C28.2462 26.8644 28.2043 26.7018 28.195 26.4602L28.0557 17.4702Z" fill="#5FC6F0"/>
<path d="M23.9187 17.4702C23.9187 17.2286 23.9559 17.066 24.0302 16.9824C24.1138 16.8895 24.2532 16.843 24.4483 16.843H26.4554C26.6598 16.843 26.7946 16.8895 26.8596 16.9824C26.934 17.066 26.9758 17.2286 26.9851 17.4702L27.1244 26.4602C27.1337 26.7018 27.0966 26.8644 27.0129 26.948C26.9386 27.041 26.7992 27.0874 26.5948 27.0874H24.5877C24.3926 27.0874 24.2579 27.041 24.1835 26.948C24.1092 26.8644 24.0674 26.7018 24.0581 26.4602L23.9187 17.4702Z" fill="#5FC6F0"/>
<path d="M14.6821 17.4702C14.6821 17.2286 14.7193 17.066 14.7936 16.9824C14.8773 16.8895 15.0166 16.843 15.2118 16.843H17.2188C17.4233 16.843 17.558 16.8895 17.623 16.9824C17.6974 17.066 17.7392 17.2286 17.7485 17.4702L17.7903 20.4808H19.6998V17.4702C19.6998 17.2286 19.737 17.066 19.8113 16.9824C19.8949 16.8895 20.0343 16.843 20.2294 16.843H22.2365C22.4409 16.843 22.5803 16.8895 22.6547 16.9824C22.729 17.066 22.7662 17.2286 22.7662 17.4702V26.4602C22.7662 26.7018 22.729 26.8644 22.6547 26.948C22.5803 27.041 22.4409 27.0874 22.2365 27.0874H20.2294C20.0343 27.0874 19.8949 27.041 19.8113 26.948C19.737 26.8644 19.6998 26.7018 19.6998 26.4602V23.2963H17.8321L17.8879 26.4602C17.8972 26.7018 17.86 26.8644 17.7764 26.948C17.702 27.041 17.5626 27.0874 17.3582 27.0874H15.3512C15.156 27.0874 15.0213 27.041 14.947 26.948C14.8726 26.8644 14.8308 26.7018 14.8215 26.4602L14.6821 17.4702Z" fill="#5FC6F0"/>
<path d="M13.9301 26.6135C13.9394 26.7436 13.9208 26.8365 13.8743 26.8923C13.8372 26.9573 13.735 26.9992 13.5677 27.0177C12.4991 27.1571 11.5235 27.1478 10.6407 26.9899C9.75799 26.8319 9.00534 26.5299 8.38278 26.0839C7.75092 25.6472 7.25845 25.0757 6.90535 24.3695C6.56155 23.654 6.38965 22.8085 6.38965 21.8328C6.38965 21.1638 6.47792 20.5691 6.65447 20.0487C6.84031 19.5284 7.09584 19.0731 7.42106 18.6828C7.73699 18.3019 8.10867 17.9859 8.5361 17.735C8.97282 17.4749 9.44207 17.2704 9.94383 17.1218C10.4456 16.9824 10.9706 16.8941 11.5188 16.8569C12.0671 16.8198 12.6153 16.8244 13.1635 16.8709C13.2936 16.8895 13.3865 16.922 13.4423 16.9685C13.5073 17.0149 13.5398 17.1032 13.5398 17.2333L13.5259 19.3658C13.5259 19.4866 13.498 19.5702 13.4423 19.6167C13.3865 19.6538 13.2936 19.6678 13.1635 19.6585C12.5967 19.6306 12.0949 19.6538 11.6582 19.7282C11.2308 19.7932 10.873 19.9187 10.585 20.1045C10.2876 20.2903 10.0646 20.5459 9.91596 20.8711C9.76729 21.1963 9.69295 21.5959 9.69295 22.0698C9.69295 22.4507 9.75335 22.7945 9.87414 23.1012C10.0042 23.3985 10.2133 23.6447 10.5014 23.8399C10.7801 24.035 11.1518 24.1697 11.6164 24.2441C12.081 24.3091 12.6571 24.2952 13.3447 24.2023C13.5027 24.1837 13.6049 24.2023 13.6513 24.258C13.7071 24.3138 13.7396 24.3927 13.7489 24.495L13.9301 26.6135Z" fill="#5FC6F0"/>
</svg>
