<svg width="25" height="24" viewBox="0 0 25 24" fill="none" xmlns="http://www.w3.org/2000/svg">
<rect width="24" height="24" transform="translate(0.64624)" fill="white"/>
<path d="M20.6462 19.7C20.6462 19.8656 20.5119 20 20.3462 20H13.9462C13.7806 20 13.6462 19.8656 13.6462 19.7V14.3C13.6462 14.1343 13.5119 14 13.3462 14H11.9462C11.7806 14 11.6462 14.1343 11.6462 14.3V19.7C11.6462 19.8656 11.5119 20 11.3462 20H4.94624C4.78055 20 4.64624 19.8656 4.64624 19.7V10.15C4.64624 10.0555 4.6907 9.96661 4.76624 9.90995L12.4662 4.13495C12.5729 4.05495 12.7196 4.05495 12.8262 4.13495L20.5262 9.90995C20.6018 9.96661 20.6462 10.0555 20.6462 10.15V19.7Z" fill="#4C98F5"/>
</svg>
