<svg width="200" height="201" viewBox="0 0 200 201" fill="none" xmlns="http://www.w3.org/2000/svg">
<rect width="200" height="200" transform="translate(0 0.17334)" fill="white"/>
<path d="M152.043 188.2C152.043 190.726 149.995 192.773 147.468 192.773H52.5322C50.0058 192.773 47.9577 190.726 47.9577 188.2C47.9577 185.674 50.0058 183.627 52.5322 183.627H147.468C149.995 183.627 152.043 185.674 152.043 188.2Z" fill="#72B6F9"/>
<path d="M122.009 115.347C121.522 115.347 121.127 115.742 121.127 116.229C121.127 125.971 129.025 133.868 138.766 133.868H153.999C154.486 133.868 154.881 133.473 154.881 132.986C154.881 123.245 146.984 115.347 137.242 115.347H122.009Z" fill="#FFF5F8"/>
<path d="M153.998 96.8271C154.486 96.8271 154.88 97.222 154.88 97.7091C154.88 107.451 146.983 115.348 137.242 115.348H122.009C121.522 115.348 121.127 114.953 121.127 114.466C121.127 104.724 129.024 96.8271 138.766 96.8271H153.998Z" fill="#FFF5F8"/>
<path d="M77.9926 115.347C78.4797 115.347 78.8745 115.742 78.8745 116.229C78.8745 125.971 70.9774 133.868 61.2359 133.868H46.0031C45.516 133.868 45.1211 133.473 45.1211 132.986C45.1211 123.245 53.0182 115.347 62.7598 115.347H77.9926Z" fill="#FFF5F8"/>
<path d="M46.0013 96.8279C45.5142 96.8279 45.1194 97.2227 45.1194 97.7098C45.1194 107.451 53.0165 115.348 62.758 115.348H77.9908C78.4779 115.348 78.8728 114.954 78.8728 114.467C78.8728 104.725 70.9757 96.8279 61.2341 96.8279H46.0013Z" fill="#FFF5F8"/>
<path d="M102.777 7.57324C115.306 7.57324 125.463 17.7298 125.463 30.2586V59.1324C125.463 65.71 120.13 71.0422 113.553 71.0422C106.975 71.0422 101.643 65.71 101.643 59.1324V8.70751C101.643 8.08107 102.151 7.57324 102.777 7.57324Z" fill="#FFA1B8"/>
<path d="M102.388 28.6025C110.634 28.6025 117.319 35.2872 117.319 43.5332V63.2032C117.319 67.5323 113.81 71.0418 109.48 71.0418C105.151 71.0418 101.642 67.5323 101.642 63.2032V29.3491C101.642 28.9368 101.976 28.6025 102.388 28.6025Z" fill="#F05F83"/>
<path d="M75.6745 7.57324C88.2033 7.57324 98.3599 17.7298 98.3599 30.2586V51.7574C98.3599 58.335 93.0277 63.6672 86.45 63.6672C79.8724 63.6672 74.5402 58.335 74.5402 51.7574V8.70751C74.5402 8.08107 75.0481 7.57324 75.6745 7.57324Z" fill="#FFA1B8"/>
<path d="M74.5384 28.6025C83.1967 28.6025 90.2156 35.6215 90.2156 44.2797V63.2032C90.2156 67.5323 86.7061 71.0418 82.377 71.0418C78.0478 71.0418 74.5384 67.5323 74.5384 63.2032V28.6025Z" fill="#F05F83"/>
<path d="M100.002 51.437C118.738 51.4372 133.926 66.626 133.926 85.3618V166.485H113.556V162.7C113.556 155.214 107.488 149.145 100.002 149.145C92.5165 149.145 86.4478 155.214 86.4478 162.7V166.485H66.0776V85.3618C66.0776 66.6259 81.2665 51.437 100.002 51.437Z" fill="#FFA1B8"/>
<ellipse cx="9.88429" cy="9.88233" rx="9.88429" ry="9.88233" transform="matrix(0.95549 -0.295023 0.295025 0.95549 124.745 147.6)" fill="#FFA1B8"/>
<path d="M86.4463 172.234H70.3847C63.7614 172.234 58.3921 177.603 58.3921 184.227H86.4463V172.234Z" fill="#FFA1B8"/>
<path d="M113.555 172.234H129.617C136.24 172.234 141.609 177.603 141.609 184.227H113.555V172.234Z" fill="#FFA1B8"/>
<rect width="20.3694" height="11.499" transform="matrix(-1 0 0 1 86.4463 166.485)" fill="#FFA1B8"/>
<rect width="20.3694" height="11.499" transform="matrix(-1 0 0 1 133.924 166.485)" fill="#FFA1B8"/>
<path d="M100.002 120.289C111.718 120.289 121.217 129.787 121.217 141.504V169.719H113.484C112.161 163.619 106.734 159.051 100.238 159.051C93.7432 159.051 88.3162 163.62 86.9932 169.719H78.7871V141.504C78.7871 129.787 88.2854 120.289 100.002 120.289Z" fill="#F05F83"/>
<rect x="86.9382" y="106.564" width="41.0344" height="16.3027" rx="8.15134" transform="rotate(90 86.9382 106.564)" fill="#FF7F9D"/>
<rect x="129.365" y="106.564" width="41.0344" height="16.3027" rx="8.15134" transform="rotate(90 129.365 106.564)" fill="#FF7F9D"/>
<path d="M89.2214 59.0259C89.2214 56.3364 91.4018 54.156 94.0914 54.156H105.91C108.6 54.156 110.78 56.3364 110.78 59.0259H89.2214Z" fill="#7FD8FF"/>
<path d="M99.2987 46.0936C99.6587 45.518 100.358 45.518 100.718 46.0936L107.701 57.2605C108.16 57.9957 107.74 59.0676 106.991 59.0676H93.0251C92.2767 59.0676 91.8558 57.9957 92.3156 57.2605L99.2987 46.0936Z" fill="#7FD8FF"/>
<path d="M110.781 59.0269H103.8C103.051 59.0268 102.631 58.0965 103.091 57.4585L110.073 47.769C110.253 47.5198 110.517 47.3955 110.781 47.395V59.0269Z" fill="#7FD8FF"/>
<path d="M89.2227 59.0269H96.2041C96.9524 59.0267 97.3728 58.0964 96.9131 57.4585L89.9307 47.769C89.7511 47.5199 89.4868 47.3956 89.2227 47.395V59.0269Z" fill="#7FD8FF"/>
<rect width="8.20967" height="17.7421" transform="matrix(-1 0 0 1 86.9961 166.485)" fill="#F05F83"/>
<rect width="7.66032" height="17.7416" transform="matrix(-1 0 0 1 121.213 166.485)" fill="#F05F83"/>
<path d="M105.838 85.0042C116.28 82.46 126.851 88.8515 129.448 99.2801C132.046 109.709 125.687 120.225 115.246 122.769L62.2442 135.684C61.2497 135.926 60.243 135.317 59.9956 134.324C55.0473 114.46 67.1593 94.4288 87.0484 89.5826L105.838 85.0042Z" fill="#4C98F5"/>
<rect x="55.0994" y="114.539" width="37.736" height="89.806" rx="18.868" transform="rotate(-90 55.0994 114.539)" fill="#FFA1B8"/>
<path d="M111.066 83.5044C111.066 88.5491 106.977 92.6387 101.932 92.6387H98.0766C93.0319 92.6387 88.9423 88.5491 88.9423 83.5044C88.9423 83.2522 89.1468 83.0477 89.3991 83.0477H110.609C110.862 83.0477 111.066 83.2522 111.066 83.5044Z" fill="#F05F83"/>
<path d="M96.7583 81.9803C96.7583 80.1886 98.2108 78.7361 100.002 78.7361C101.794 78.7361 103.247 80.1886 103.247 81.9803V83.0625H96.7583V81.9803Z" fill="#3D4650"/>
<path d="M92.0051 83.0623H100.832V91.2576C100.832 93.6951 98.8562 95.6711 96.4187 95.6711C93.9811 95.6711 92.0051 93.6951 92.0051 91.2576V83.0623Z" fill="#EBF9FF"/>
<rect x="104.592" y="114.539" width="37.7357" height="40.3135" rx="18.8679" transform="rotate(-90 104.592 114.539)" fill="#FFA1B8"/>
<path d="M95.0497 75.7209C95.0497 77.3863 93.6996 78.7364 92.0341 78.7364C90.3687 78.7364 89.0186 77.3863 89.0186 75.7209C89.0186 74.0554 90.3687 72.7053 92.0341 72.7053C93.6996 72.7053 95.0497 74.0554 95.0497 75.7209Z" fill="#3D4650"/>
<path d="M111.064 75.7209C111.064 77.3863 109.714 78.7364 108.049 78.7364C106.383 78.7364 105.033 77.3863 105.033 75.7209C105.033 74.0554 106.383 72.7053 108.049 72.7053C109.714 72.7053 111.064 74.0554 111.064 75.7209Z" fill="#3D4650"/>
</svg>
