<svg width="82" height="128" viewBox="0 0 82 128" fill="none" xmlns="http://www.w3.org/2000/svg">
<rect width="29.9127" height="18.0441" transform="matrix(0.431499 -0.902113 -0.902113 -0.431499 59.0026 60.7893)" fill="#97DDAE"/>
<rect width="4.77627" height="18.0441" transform="matrix(0.431499 -0.902113 -0.902113 -0.431499 60.6475 57.351)" fill="#EEFFF4"/>
<rect width="4.77627" height="18.0441" transform="matrix(0.431499 -0.902113 -0.902113 -0.431499 64.4259 49.4517)" fill="#EEFFF4"/>
<rect width="4.77627" height="18.0441" transform="matrix(0.431499 -0.902113 -0.902113 -0.431499 68.2031 41.5549)" fill="#EEFFF4"/>
<path d="M13.7988 121.133L59.8512 24.8533L56.4718 23.2369L61.3287 13.0828L58.6294 11.7917L53.7725 21.9457L50.394 20.3297L4.34157 116.609L13.7988 121.133ZM32.7418 46.0812C31.5953 48.4782 32.6092 51.3514 35.0062 52.4979L50.3931 20.3293C47.9961 19.1827 45.123 20.1966 43.9764 22.5937L32.7418 46.0812Z" fill="#34C163"/>
<path d="M64.5529 5.63306C64.7127 4.42926 63.2388 3.72422 62.4019 4.60417L60.5584 6.54255C60.1841 6.93608 59.599 7.04386 59.1091 6.80952L56.6959 5.65525C55.6004 5.13125 54.4744 6.31522 55.0527 7.38306L56.3265 9.73532C56.5852 10.2129 56.5069 10.8026 56.1326 11.1962L54.2891 13.1345C53.4522 14.0145 54.2303 15.4513 55.4246 15.2313L58.0553 14.7467C58.5894 14.6483 59.1261 14.905 59.3847 15.3826L60.6586 17.7348C61.2369 18.8027 62.8437 18.5067 63.0036 17.3029L63.3556 14.6511C63.4271 14.1127 63.8371 13.6816 64.3712 13.5832L67.002 13.0986C68.1962 12.8786 68.4113 11.2589 67.3158 10.7349L64.9026 9.58067C64.4127 9.34633 64.1294 8.82317 64.2009 8.28482L64.5529 5.63306Z" fill="#F78DC3"/>
</svg>
