<svg width="80" height="44" viewBox="0 0 80 44" fill="none" xmlns="http://www.w3.org/2000/svg">
<path d="M72.2769 7.56262C72.3614 9.23024 73.6989 10.5679 75.3668 10.6525L75.5347 10.6564C73.7335 10.6564 72.2733 12.1162 72.273 13.9171C72.2728 12.1725 70.9024 10.7477 69.1793 10.6603L69.0113 10.6564C70.7564 10.6563 72.1818 9.28583 72.2691 7.56262L72.273 7.39465L72.2769 7.56262Z" fill="#FFB67A"/>
<path d="M76.4738 12.7225C76.4739 13.7181 77.2763 14.5256 78.2697 14.535V14.536C77.2763 14.5454 76.4738 15.3539 76.4738 16.3495H76.466C76.466 15.3493 75.6562 14.538 74.6564 14.536V14.535C75.6562 14.533 76.4659 13.7227 76.466 12.7225H76.4738Z" fill="#FFB67A"/>
<path d="M67.8889 23.2963L67.9168 24.2719H70.5929C70.788 24.2719 70.9321 24.3137 71.025 24.3974C71.1179 24.4717 71.1644 24.6018 71.1644 24.7876V26.5578C71.1644 26.7529 71.1179 26.8876 71.025 26.962C70.9321 27.0456 70.788 27.0874 70.5929 27.0874H65.5055C65.2639 27.0874 65.1013 27.0317 65.0177 26.9201C64.9341 26.8179 64.8876 26.6275 64.8783 26.3487L64.7529 17.5678C64.7436 17.2983 64.7854 17.1125 64.8783 17.0102C64.9805 16.8987 65.1524 16.843 65.394 16.843H71.0389C71.234 16.843 71.3781 16.8802 71.471 16.9545C71.5639 17.0288 71.6104 17.1636 71.6104 17.3587V19.1428C71.6104 19.3286 71.5639 19.4633 71.471 19.547C71.3781 19.6213 71.234 19.6585 71.0389 19.6585H67.8192L67.8332 20.4808H70.5511C70.7462 20.4808 70.8902 20.518 70.9832 20.5923C71.0761 20.6666 71.1225 20.8014 71.1225 20.9965V22.7806C71.1225 22.9757 71.0761 23.1104 70.9832 23.1848C70.8902 23.2591 70.7462 23.2963 70.5511 23.2963H67.8889Z" fill="#3DAFD9"/>
<path d="M55.1297 26.7111C54.9717 26.6646 54.8649 26.5996 54.8091 26.5159C54.7534 26.423 54.758 26.279 54.823 26.0839L57.7082 17.4702C57.7825 17.2379 57.8708 17.0753 57.973 16.9824C58.0752 16.8894 58.2378 16.843 58.4609 16.843H60.4819C60.7049 16.843 60.8675 16.8894 60.9697 16.9824C61.0719 17.0753 61.1602 17.2379 61.2345 17.4702L64.1197 26.0839C64.1847 26.279 64.1894 26.423 64.1336 26.5159C64.0779 26.5996 63.971 26.6646 63.813 26.7111L62.0847 27.2128C61.8153 27.2872 61.6341 27.1803 61.5412 26.8923L61.1091 25.4985H57.8197L57.4016 26.8923C57.3086 27.1803 57.1275 27.2872 56.858 27.2128L55.1297 26.7111ZM59.4644 20.0487L58.6281 22.8224H60.3007L59.4644 20.0487Z" fill="#3DAFD9"/>
<path d="M45.9071 17.4702C45.9071 17.2286 45.9443 17.066 46.0186 16.9824C46.1022 16.8894 46.2416 16.843 46.4367 16.843H48.4438C48.6482 16.843 48.783 16.8894 48.848 16.9824C48.9223 17.066 48.9642 17.2286 48.9734 17.4702L49.0153 20.4808H50.9248V17.4702C50.9248 17.2286 50.9619 17.066 51.0363 16.9824C51.1199 16.8894 51.2593 16.843 51.4544 16.843H53.4615C53.6659 16.843 53.8053 16.8894 53.8796 16.9824C53.954 17.066 53.9911 17.2286 53.9911 17.4702V26.4602C53.9911 26.7018 53.954 26.8644 53.8796 26.948C53.8053 27.0409 53.6659 27.0874 53.4615 27.0874H51.4544C51.2593 27.0874 51.1199 27.0409 51.0363 26.948C50.9619 26.8644 50.9248 26.7018 50.9248 26.4602V23.2963H49.0571L49.1128 26.4602C49.1221 26.7018 49.0849 26.8644 49.0013 26.948C48.927 27.0409 48.7876 27.0874 48.5832 27.0874H46.5761C46.381 27.0874 46.2462 27.0409 46.1719 26.948C46.0976 26.8644 46.0558 26.7018 46.0465 26.4602L45.9071 17.4702Z" fill="#3DAFD9"/>
<path d="M36.3118 26.7111C36.1538 26.6646 36.047 26.5996 35.9912 26.5159C35.9355 26.423 35.9401 26.279 36.0051 26.0839L38.8903 17.4702C38.9646 17.2379 39.0529 17.0753 39.1551 16.9824C39.2573 16.8894 39.4199 16.843 39.643 16.843H41.664C41.887 16.843 42.0496 16.8894 42.1518 16.9824C42.254 17.0753 42.3423 17.2379 42.4166 17.4702L45.3018 26.0839C45.3668 26.279 45.3715 26.423 45.3157 26.5159C45.26 26.5996 45.1531 26.6646 44.9951 26.7111L43.2668 27.2128C42.9974 27.2872 42.8162 27.1803 42.7232 26.8923L42.2912 25.4985H39.0018L38.5837 26.8923C38.4907 27.1803 38.3096 27.2872 38.0401 27.2128L36.3118 26.7111ZM40.6465 20.0487L39.8102 22.8224H41.4828L40.6465 20.0487Z" fill="#3DAFD9"/>
<path d="M28.0556 17.4702C28.0556 17.2286 28.0928 17.066 28.1671 16.9824C28.2507 16.8895 28.3901 16.843 28.5852 16.843H30.5923C30.7967 16.843 30.9315 16.8895 30.9965 16.9824C31.0708 17.066 31.1127 17.2286 31.1219 17.4702L31.1498 19.8257L33.4078 17.0102C33.6308 16.7315 33.877 16.6897 34.1465 16.8848L35.5124 17.9302C35.7168 18.0881 35.8283 18.2275 35.8469 18.3483C35.8655 18.4598 35.8144 18.5899 35.6936 18.7386L33.4775 21.4843L35.8609 25.6239C35.9817 25.8376 36.0235 26.0049 35.9863 26.1257C35.9584 26.2372 35.8469 26.3348 35.6518 26.4184L34.021 27.0735C33.8352 27.1478 33.6819 27.171 33.5611 27.1432C33.4403 27.1246 33.3334 27.0363 33.2405 26.8783L31.2056 23.366L31.2613 26.4602C31.2706 26.7018 31.2334 26.8644 31.1498 26.948C31.0755 27.0409 30.9361 27.0874 30.7317 27.0874H28.7246C28.5295 27.0874 28.3947 27.0409 28.3204 26.948C28.2461 26.8644 28.2043 26.7018 28.195 26.4602L28.0556 17.4702Z" fill="#3DAFD9"/>
<path d="M23.9187 17.4702C23.9187 17.2286 23.9559 17.066 24.0302 16.9824C24.1139 16.8894 24.2532 16.843 24.4484 16.843H26.4554C26.6599 16.843 26.7946 16.8894 26.8596 16.9824C26.934 17.066 26.9758 17.2286 26.9851 17.4702L27.1245 26.4602C27.1338 26.7018 27.0966 26.8644 27.013 26.948C26.9386 27.0409 26.7992 27.0874 26.5948 27.0874H24.5878C24.3926 27.0874 24.2579 27.0409 24.1836 26.948C24.1092 26.8644 24.0674 26.7018 24.0581 26.4602L23.9187 17.4702Z" fill="#3DAFD9"/>
<path d="M14.6822 17.4702C14.6822 17.2286 14.7194 17.066 14.7937 16.9824C14.8773 16.8894 15.0167 16.843 15.2118 16.843H17.2189C17.4233 16.843 17.5581 16.8894 17.6231 16.9824C17.6975 17.066 17.7393 17.2286 17.7486 17.4702L17.7904 20.4808H19.6999V17.4702C19.6999 17.2286 19.737 17.066 19.8114 16.9824C19.895 16.8894 20.0344 16.843 20.2295 16.843H22.2366C22.441 16.843 22.5804 16.8894 22.6547 16.9824C22.7291 17.066 22.7662 17.2286 22.7662 17.4702V26.4602C22.7662 26.7018 22.7291 26.8644 22.6547 26.948C22.5804 27.0409 22.441 27.0874 22.2366 27.0874H20.2295C20.0344 27.0874 19.895 27.0409 19.8114 26.948C19.737 26.8644 19.6999 26.7018 19.6999 26.4602V23.2963H17.8322L17.8879 26.4602C17.8972 26.7018 17.8601 26.8644 17.7764 26.948C17.7021 27.0409 17.5627 27.0874 17.3583 27.0874H15.3512C15.1561 27.0874 15.0214 27.0409 14.947 26.948C14.8727 26.8644 14.8309 26.7018 14.8216 26.4602L14.6822 17.4702Z" fill="#3DAFD9"/>
<path d="M13.9301 26.6135C13.9394 26.7436 13.9208 26.8365 13.8743 26.8923C13.8372 26.9573 13.735 26.9991 13.5677 27.0177C12.4991 27.1571 11.5235 27.1478 10.6407 26.9898C9.75799 26.8319 9.00534 26.5299 8.38278 26.0839C7.75092 25.6472 7.25845 25.0757 6.90535 24.3695C6.56155 23.654 6.38965 22.8084 6.38965 21.8328C6.38965 21.1638 6.47792 20.5691 6.65447 20.0487C6.84031 19.5284 7.09584 19.0731 7.42106 18.6828C7.73699 18.3018 8.10867 17.9859 8.5361 17.735C8.97282 17.4748 9.44207 17.2704 9.94383 17.1218C10.4456 16.9824 10.9706 16.8941 11.5188 16.8569C12.0671 16.8198 12.6153 16.8244 13.1635 16.8709C13.2936 16.8895 13.3865 16.922 13.4423 16.9684C13.5073 17.0149 13.5398 17.1032 13.5398 17.2333L13.5259 19.3658C13.5259 19.4866 13.498 19.5702 13.4423 19.6167C13.3865 19.6538 13.2936 19.6678 13.1635 19.6585C12.5967 19.6306 12.0949 19.6538 11.6582 19.7282C11.2308 19.7932 10.873 19.9186 10.585 20.1045C10.2876 20.2903 10.0646 20.5459 9.91596 20.8711C9.76729 21.1963 9.69295 21.5958 9.69295 22.0697C9.69295 22.4507 9.75335 22.7945 9.87414 23.1011C10.0042 23.3985 10.2133 23.6447 10.5014 23.8399C10.7801 24.035 11.1518 24.1697 11.6164 24.2441C12.081 24.3091 12.6571 24.2952 13.3447 24.2022C13.5027 24.1837 13.6049 24.2022 13.6513 24.258C13.7071 24.3138 13.7396 24.3927 13.7489 24.4949L13.9301 26.6135Z" fill="#3DAFD9"/>
</svg>
