<svg width="232" height="65" viewBox="0 0 232 65" fill="none" xmlns="http://www.w3.org/2000/svg">
<path d="M202.484 50.0128L202.584 53.5267H212.222C212.925 53.5267 213.444 53.6773 213.779 53.9785C214.113 54.2462 214.281 54.7147 214.281 55.3841V61.7593C214.281 62.4621 214.113 62.9474 213.779 63.2151C213.444 63.5163 212.925 63.6669 212.222 63.6669H193.9C193.03 63.6669 192.444 63.4661 192.143 63.0645C191.842 62.6964 191.674 62.0103 191.641 61.0063L191.189 29.381C191.156 28.4105 191.306 27.7412 191.641 27.373C192.009 26.9715 192.628 26.7707 193.498 26.7707H213.829C214.532 26.7707 215.05 26.9045 215.385 27.1723C215.72 27.44 215.887 27.9252 215.887 28.628V35.0535C215.887 35.7228 215.72 36.2081 215.385 36.5093C215.05 36.777 214.532 36.9108 213.829 36.9108H202.233L202.283 39.8726H212.072C212.775 39.8726 213.293 40.0065 213.628 40.2742C213.963 40.5419 214.13 41.0272 214.13 41.7299V48.1554C214.13 48.8582 213.963 49.3435 213.628 49.6112C213.293 49.8789 212.775 50.0128 212.072 50.0128H202.484Z" fill="#3DAFD9"/>
<path d="M157.471 29.0296C157.471 28.1595 157.605 27.5738 157.872 27.2726C158.174 26.938 158.676 26.7707 159.378 26.7707H166.607C167.343 26.7707 167.829 26.938 168.063 27.2726C168.331 27.5738 168.481 28.1595 168.515 29.0296L168.665 39.8726H175.542V29.0296C175.542 28.1595 175.676 27.5738 175.944 27.2726C176.245 26.938 176.747 26.7707 177.45 26.7707H184.679C185.415 26.7707 185.917 26.938 186.185 27.2726C186.452 27.5738 186.586 28.1595 186.586 29.0296V61.4079C186.586 62.278 186.452 62.8637 186.185 63.1649C185.917 63.4996 185.415 63.6669 184.679 63.6669H177.45C176.747 63.6669 176.245 63.4996 175.944 63.1649C175.676 62.8637 175.542 62.278 175.542 61.4079V50.0128H168.816L169.017 61.4079C169.05 62.278 168.916 62.8637 168.615 63.1649C168.347 63.4996 167.845 63.6669 167.109 63.6669H159.88C159.178 63.6669 158.692 63.4996 158.425 63.1649C158.157 62.8637 158.006 62.278 157.973 61.4079L157.471 29.0296Z" fill="#3DAFD9"/>
<path d="M122.912 62.3115C122.343 62.1442 121.958 61.9099 121.758 61.6087C121.557 61.2741 121.574 60.7553 121.808 60.0526L132.199 29.0296C132.467 28.193 132.785 27.6073 133.153 27.2726C133.521 26.938 134.107 26.7707 134.91 26.7707H142.189C142.992 26.7707 143.577 26.938 143.946 27.2726C144.314 27.6073 144.632 28.193 144.899 29.0296L155.291 60.0526C155.525 60.7553 155.542 61.2741 155.341 61.6087C155.14 61.9099 154.755 62.1442 154.186 62.3115L147.961 64.1187C146.991 64.3864 146.338 64.0015 146.004 62.9641L144.448 57.9442H132.601L131.095 62.9641C130.76 64.0015 130.107 64.3864 129.137 64.1187L122.912 62.3115ZM138.524 38.3164L135.512 48.306H141.536L138.524 38.3164Z" fill="#3DAFD9"/>
<path d="M93.1772 29.0296C93.1772 28.1595 93.311 27.5739 93.5788 27.2727C93.88 26.938 94.3819 26.7707 95.0847 26.7707H102.313C103.05 26.7707 103.535 26.938 103.769 27.2727C104.037 27.5739 104.187 28.1595 104.221 29.0296L104.321 37.5133L112.454 27.3731C113.257 26.3691 114.144 26.2185 115.114 26.9213L120.034 30.6862C120.77 31.2551 121.171 31.7571 121.238 32.1922C121.305 32.5938 121.121 33.0623 120.686 33.5977L112.705 43.4869L121.289 58.396C121.724 59.1657 121.874 59.7681 121.74 60.2032C121.64 60.6048 121.238 60.9562 120.536 61.2574L114.662 63.6167C113.993 63.8844 113.441 63.9681 113.006 63.8677C112.571 63.8008 112.186 63.4829 111.851 62.9139L104.522 50.2638L104.723 61.408C104.756 62.2781 104.623 62.8637 104.321 63.1649C104.054 63.4996 103.552 63.6669 102.815 63.6669H95.5867C94.8839 63.6669 94.3987 63.4996 94.131 63.1649C93.8632 62.8637 93.7126 62.2781 93.6792 61.408L93.1772 29.0296Z" fill="#3DAFD9"/>
<path d="M78.2774 29.0296C78.2774 28.1595 78.4113 27.5738 78.679 27.2726C78.9802 26.938 79.4822 26.7707 80.185 26.7707H87.4136C88.1499 26.7707 88.6351 26.938 88.8694 27.2726C89.1371 27.5738 89.2877 28.1595 89.3212 29.0296L89.8232 61.4079C89.8567 62.278 89.7228 62.8637 89.4216 63.1649C89.1539 63.4996 88.6519 63.6669 87.9156 63.6669H80.687C79.9842 63.6669 79.4989 63.4996 79.2312 63.1649C78.9635 62.8637 78.8129 62.278 78.7794 61.4079L78.2774 29.0296Z" fill="#3DAFD9"/>
<path d="M45.0111 29.0296C45.0111 28.1595 45.145 27.5738 45.4127 27.2726C45.7139 26.938 46.2159 26.7707 46.9187 26.7707H54.1473C54.8836 26.7707 55.3688 26.938 55.6031 27.2726C55.8708 27.5738 56.0214 28.1595 56.0549 29.0296L56.2055 39.8726H63.0827V29.0296C63.0827 28.1595 63.2166 27.5738 63.4843 27.2726C63.7855 26.938 64.2875 26.7707 64.9903 26.7707H72.2189C72.9552 26.7707 73.4572 26.938 73.7249 27.2726C73.9926 27.5738 74.1265 28.1595 74.1265 29.0296V61.4079C74.1265 62.278 73.9926 62.8637 73.7249 63.1649C73.4572 63.4996 72.9552 63.6669 72.2189 63.6669H64.9903C64.2875 63.6669 63.7855 63.4996 63.4843 63.1649C63.2166 62.8637 63.0827 62.278 63.0827 61.4079V50.0128H56.3561L56.5569 61.4079C56.5903 62.278 56.4565 62.8637 56.1553 63.1649C55.8875 63.4996 55.3856 63.6669 54.6493 63.6669H47.4207C46.7179 63.6669 46.2326 63.4996 45.9649 63.1649C45.6972 62.8637 45.5466 62.278 45.5131 61.4079L45.0111 29.0296Z" fill="#3DAFD9"/>
<path d="M42.3026 61.9597C42.3361 62.4282 42.2692 62.7629 42.1018 62.9637C41.968 63.1979 41.5998 63.3485 40.9974 63.4154C37.1489 63.9174 33.6349 63.884 30.4557 63.315C27.2764 62.7461 24.5657 61.6585 22.3234 60.0521C20.0478 58.4792 18.2741 56.4211 17.0023 53.8776C15.7641 51.3008 15.145 48.2554 15.145 44.7414C15.145 42.3319 15.4629 40.1901 16.0988 38.316C16.7681 36.4419 17.6884 34.802 18.8597 33.3965C19.9976 32.0244 21.3362 30.8865 22.8756 29.9829C24.4485 29.0459 26.1386 28.3096 27.9457 27.7742C29.7529 27.2722 31.6437 26.9543 33.6182 26.8204C35.5927 26.6865 37.5672 26.7033 39.5417 26.8706C40.0102 26.9375 40.3449 27.0547 40.5457 27.222C40.7799 27.3893 40.897 27.7073 40.897 28.1758L40.8468 35.8562C40.8468 36.2913 40.7465 36.5925 40.5457 36.7598C40.3449 36.8937 40.0102 36.9439 39.5417 36.9104C37.5003 36.81 35.6931 36.8937 34.1202 37.1614C32.5808 37.3957 31.2923 37.8474 30.2549 38.5168C29.184 39.1861 28.3808 40.1064 27.8453 41.2777C27.3099 42.449 27.0421 43.8881 27.0421 45.5948C27.0421 46.9669 27.2597 48.2052 27.6947 49.3095C28.1632 50.3804 28.9162 51.2673 29.9537 51.9701C30.9577 52.6729 32.2963 53.1581 33.9696 53.4259C35.6429 53.6601 37.7178 53.6099 40.1943 53.2753C40.7632 53.2083 41.1313 53.2753 41.2986 53.4761C41.4994 53.6769 41.6166 53.9613 41.65 54.3294L42.3026 61.9597Z" fill="#3DAFD9"/>
<path d="M208.318 3C208.318 9.15753 213.306 14.1491 219.461 14.1572V14.1582C213.306 14.1664 208.318 19.1591 208.318 25.3164H208.288C208.287 19.1593 203.3 14.1666 197.145 14.1582V14.1572C203.3 14.1488 208.288 9.15735 208.288 3H208.318Z" fill="#FFB67A"/>
<path d="M225.712 19.106C225.713 22.5164 228.461 25.2833 231.865 25.314V25.3179C228.462 25.3486 225.713 28.1157 225.712 31.5259H225.693C225.692 28.0997 222.917 25.3219 219.492 25.3169V25.3149C222.81 25.3101 225.518 22.7034 225.684 19.4253L225.693 19.106H225.712Z" fill="#FFB67A"/>
</svg>
