<svg width="225" height="61" viewBox="0 0 225 61" fill="none" xmlns="http://www.w3.org/2000/svg">
<path d="M195.272 48.5385L195.36 51.6248H203.825C204.442 51.6248 204.898 51.757 205.192 52.0216C205.486 52.2567 205.633 52.6682 205.633 53.2561V58.8555C205.633 59.4727 205.486 59.8989 205.192 60.1341C204.898 60.3986 204.442 60.5309 203.825 60.5309H187.733C186.968 60.5309 186.454 60.3545 186.189 60.0018C185.925 59.6785 185.778 59.0759 185.748 58.1941L185.352 30.4177C185.322 29.5653 185.455 28.9774 185.748 28.6541C186.072 28.3014 186.616 28.125 187.38 28.125H205.236C205.853 28.125 206.309 28.2426 206.603 28.4777C206.897 28.7129 207.044 29.1391 207.044 29.7563V35.3998C207.044 35.9877 206.897 36.4139 206.603 36.6784C206.309 36.9135 205.853 37.0311 205.236 37.0311H195.051L195.095 39.6324H203.693C204.31 39.6324 204.766 39.75 205.06 39.9851C205.354 40.2203 205.501 40.6465 205.501 41.2637V46.9072C205.501 47.5244 205.354 47.9506 205.06 48.1858C204.766 48.4209 204.31 48.5385 203.693 48.5385H195.272Z" fill="#3DAFD9"/>
<path d="M154.911 59.3405C154.411 59.1935 154.073 58.9877 153.897 58.7232C153.721 58.4293 153.735 57.9737 153.941 57.3564L163.068 30.109C163.303 29.3742 163.582 28.8598 163.905 28.5659C164.229 28.272 164.743 28.125 165.448 28.125H171.841C172.547 28.125 173.061 28.272 173.384 28.5659C173.708 28.8598 173.987 29.3742 174.222 30.109L183.349 57.3564C183.555 57.9737 183.569 58.4293 183.393 58.7232C183.216 58.9877 182.878 59.1935 182.379 59.3405L176.912 60.9277C176.059 61.1628 175.486 60.8248 175.192 59.9136L173.825 55.5047H163.42L162.098 59.9136C161.804 60.8248 161.23 61.1628 160.378 60.9277L154.911 59.3405ZM168.623 38.2656L165.977 47.0395H171.268L168.623 38.2656Z" fill="#3DAFD9"/>
<path d="M125.737 30.109C125.737 29.3448 125.855 28.8304 126.09 28.5659C126.355 28.272 126.795 28.125 127.413 28.125H133.762C134.408 28.125 134.834 28.272 135.04 28.5659C135.275 28.8304 135.408 29.3448 135.437 30.109L135.569 39.6324H141.61V30.109C141.61 29.3448 141.727 28.8304 141.962 28.5659C142.227 28.272 142.668 28.125 143.285 28.125H149.634C150.281 28.125 150.721 28.272 150.957 28.5659C151.192 28.8304 151.309 29.3448 151.309 30.109V58.5469C151.309 59.3111 151.192 59.8255 150.957 60.09C150.721 60.3839 150.281 60.5309 149.634 60.5309H143.285C142.668 60.5309 142.227 60.3839 141.962 60.09C141.727 59.8255 141.61 59.3111 141.61 58.5469V48.5385H135.702L135.878 58.5469C135.907 59.3111 135.79 59.8255 135.525 60.09C135.29 60.3839 134.849 60.5309 134.203 60.5309H127.854C127.236 60.5309 126.81 60.3839 126.575 60.09C126.34 59.8255 126.208 59.3111 126.178 58.5469L125.737 30.109Z" fill="#3DAFD9"/>
<path d="M95.3847 59.3405C94.885 59.1935 94.547 58.9877 94.3706 58.7232C94.1943 58.4293 94.209 57.9737 94.4147 57.3564L103.541 30.109C103.776 29.3742 104.056 28.8598 104.379 28.5659C104.702 28.272 105.217 28.125 105.922 28.125H112.315C113.021 28.125 113.535 28.272 113.858 28.5659C114.182 28.8598 114.461 29.3742 114.696 30.109L123.823 57.3564C124.028 57.9737 124.043 58.4293 123.867 58.7232C123.69 58.9877 123.352 59.1935 122.853 59.3405L117.385 60.9277C116.533 61.1628 115.96 60.8248 115.666 59.9136L114.299 55.5047H103.894L102.571 59.9136C102.277 60.8248 101.704 61.1628 100.852 60.9277L95.3847 59.3405ZM109.097 38.2656L106.451 47.0395H111.742L109.097 38.2656Z" fill="#3DAFD9"/>
<path d="M69.2681 30.109C69.2681 29.3448 69.3856 28.8304 69.6208 28.5658C69.8853 28.2719 70.3262 28.125 70.9435 28.125H77.2924C77.939 28.125 78.3652 28.2719 78.571 28.5658C78.8061 28.8304 78.9384 29.3448 78.9678 30.109L79.056 37.5601L86.1985 28.654C86.9039 27.7722 87.6828 27.64 88.5352 28.2572L92.856 31.5639C93.5027 32.0636 93.8554 32.5045 93.9142 32.8866C93.973 33.2394 93.8113 33.6509 93.4292 34.1211L86.4189 42.8068L93.9583 55.9014C94.3404 56.5775 94.4726 57.1065 94.3551 57.4887C94.2669 57.8414 93.9142 58.15 93.2969 58.4145L88.1384 60.4868C87.5506 60.7219 87.0656 60.7954 86.6835 60.7072C86.3014 60.6484 85.9633 60.3692 85.6694 59.8695L79.2323 48.7589L79.4087 58.5468C79.4381 59.311 79.3205 59.8254 79.056 60.0899C78.8208 60.3839 78.3799 60.5308 77.7333 60.5308H71.3844C70.7671 60.5308 70.3409 60.3839 70.1058 60.0899C69.8706 59.8254 69.7384 59.311 69.709 58.5468L69.2681 30.109Z" fill="#3DAFD9"/>
<path d="M56.1821 30.109C56.1821 29.3448 56.2997 28.8304 56.5348 28.5659C56.7994 28.272 57.2403 28.125 57.8575 28.125H64.2064C64.8531 28.125 65.2793 28.272 65.485 28.5659C65.7202 28.8304 65.8525 29.3448 65.8819 30.109L66.3227 58.5469C66.3521 59.3111 66.2346 59.8255 65.97 60.09C65.7349 60.3839 65.294 60.5309 64.6473 60.5309H58.2984C57.6812 60.5309 57.255 60.3839 57.0198 60.09C56.7847 59.8255 56.6524 59.3111 56.623 58.5469L56.1821 30.109Z" fill="#3DAFD9"/>
<path d="M26.9645 30.109C26.9645 29.3448 27.0821 28.8304 27.3172 28.5659C27.5817 28.272 28.0226 28.125 28.6399 28.125H34.9888C35.6354 28.125 36.0616 28.272 36.2674 28.5659C36.5025 28.8304 36.6348 29.3448 36.6642 30.109L36.7965 39.6324H42.8367V30.109C42.8367 29.3448 42.9543 28.8304 43.1895 28.5659C43.454 28.272 43.8949 28.125 44.5122 28.125H50.8611C51.5077 28.125 51.9486 28.272 52.1838 28.5659C52.4189 28.8304 52.5365 29.3448 52.5365 30.109V58.5469C52.5365 59.3111 52.4189 59.8255 52.1838 60.09C51.9486 60.3839 51.5077 60.5309 50.8611 60.5309H44.5122C43.8949 60.5309 43.454 60.3839 43.1895 60.09C42.9543 59.8255 42.8367 59.3111 42.8367 58.5469V48.5385H36.9287L37.1051 58.5469C37.1345 59.3111 37.0169 59.8255 36.7524 60.09C36.5172 60.3839 36.0763 60.5309 35.4297 60.5309H29.0808C28.4635 60.5309 28.0373 60.3839 27.8022 60.09C27.567 59.8255 27.4348 59.3111 27.4054 58.5469L26.9645 30.109Z" fill="#3DAFD9"/>
<path d="M24.5854 59.032C24.6148 59.4435 24.556 59.7374 24.409 59.9137C24.2915 60.1195 23.9682 60.2518 23.4391 60.3106C20.0589 60.7514 16.9726 60.7221 14.1803 60.2224C11.3879 59.7227 9.00707 58.7674 7.03773 57.3565C5.039 55.9751 3.48116 54.1674 2.36423 51.9335C1.27668 49.6702 0.73291 46.9955 0.73291 43.9092C0.73291 41.7929 1.01214 39.9117 1.57061 38.2657C2.15848 36.6197 2.96679 35.1795 3.99554 33.9449C4.99491 32.7398 6.17063 31.7405 7.52272 30.9468C8.90419 30.1238 10.3885 29.4772 11.9758 29.0069C13.563 28.566 15.2237 28.2868 16.9579 28.1692C18.6921 28.0516 20.4263 28.0663 22.1605 28.2133C22.572 28.2721 22.8659 28.375 23.0423 28.5219C23.248 28.6689 23.3509 28.9481 23.3509 29.3596L23.3068 36.1053C23.3068 36.4874 23.2186 36.752 23.0423 36.8989C22.8659 37.0165 22.572 37.0606 22.1605 37.0312C20.3675 36.943 18.7803 37.0165 17.3988 37.2517C16.0467 37.4574 14.9151 37.8542 14.0039 38.4421C13.0633 39.0299 12.3579 39.8383 11.8876 40.867C11.4173 41.8958 11.1822 43.1597 11.1822 44.6587C11.1822 45.8638 11.3732 46.9514 11.7553 47.9214C12.1668 48.8619 12.8282 49.6409 13.7394 50.2581C14.6211 50.8754 15.7969 51.3016 17.2665 51.5367C18.7362 51.7425 20.5586 51.6984 22.7336 51.4044C23.2333 51.3457 23.5567 51.4044 23.7036 51.5808C23.88 51.7572 23.9828 52.007 24.0122 52.3303L24.5854 59.032Z" fill="#3DAFD9"/>
<path d="M204.234 0.387451C204.234 5.71932 208.489 10.0573 213.788 10.1915L214.041 10.1949C208.625 10.1949 204.234 14.5858 204.234 20.0023C204.234 14.6704 199.98 10.3324 194.681 10.1982L194.428 10.1949C199.844 10.1949 204.234 5.80389 204.234 0.387451Z" fill="#FFB67A"/>
<path d="M219.489 14.5334C219.489 17.5538 221.928 20.0022 224.937 20.0023C221.928 20.0023 219.489 22.4508 219.489 25.4711C219.489 22.4508 217.05 20.0023 214.041 20.0023C217.05 20.0023 219.489 17.5539 219.489 14.5334Z" fill="#FFB67A"/>
</svg>
