<svg width="25" height="25" viewBox="0 0 25 25" fill="none" xmlns="http://www.w3.org/2000/svg">
<path d="M20.5459 20.5957C20.5459 20.7614 20.4116 20.8957 20.2459 20.8957H13.8459C13.6802 20.8957 13.5459 20.7614 13.5459 20.5957V15.1957C13.5459 15.03 13.4116 14.8957 13.2459 14.8957H11.8459C11.6802 14.8957 11.5459 15.03 11.5459 15.1957V20.5957C11.5459 20.7614 11.4116 20.8957 11.2459 20.8957H4.8459C4.68021 20.8957 4.5459 20.7614 4.5459 20.5957V11.0457C4.5459 10.9513 4.59036 10.8624 4.6659 10.8057L12.3659 5.0307C12.4726 4.9507 12.6192 4.9507 12.7259 5.0307L20.4259 10.8057C20.5014 10.8624 20.5459 10.9513 20.5459 11.0457V20.5957Z" fill="currentColor"/>
</svg>
