<svg viewBox="0 0 48 48" fill="none" xmlns="http://www.w3.org/2000/svg">
<path d="M13.767 26.0044C13.767 20.3529 18.3484 15.7715 23.9999 15.7715V15.7715C29.6514 15.7715 34.2328 20.3529 34.2328 26.0044V38.2056C34.2328 39.1968 33.4293 40.0004 32.4381 40.0004H15.5617C14.5705 40.0004 13.767 39.1968 13.767 38.2056V26.0044Z" fill="#CC8753"/>
<path d="M9.5791 25.2749C9.5791 17.3105 16.0355 10.854 24 10.854V10.854C31.9644 10.854 38.4209 17.3105 38.4209 25.2749V27.2383C38.4209 27.9622 37.834 28.549 37.1101 28.549H10.8898C10.1659 28.549 9.5791 27.9622 9.5791 27.2383V25.2749Z" fill="#B03559"/>
<path d="M9.5791 22.4209C9.5791 14.4564 16.0355 8 24 8V8C31.9644 8 38.4209 14.4565 38.4209 22.4209V24.3843C38.4209 25.1082 37.834 25.695 37.1101 25.695H10.8898C10.1659 25.695 9.5791 25.1082 9.5791 24.3843V22.4209Z" fill="#E04E73"/>
<path d="M13.767 23.0445C13.767 17.393 18.3484 12.8115 23.9999 12.8115V12.8115C29.6514 12.8115 34.2328 17.393 34.2328 23.0445V35.2457C34.2328 36.2369 33.4293 37.0404 32.4381 37.0404H15.5617C14.5705 37.0404 13.767 36.2369 13.767 35.2457V23.0445Z" fill="#FFC49A"/>
<circle cx="23.9999" cy="22.9446" r="3.24339" fill="#CC8753"/>
<rect x="20.5367" y="28.5969" width="6.92621" height="1.95872" rx="0.97936" fill="#CC8753"/>
</svg>
