<svg width="320" height="49" viewBox="0 0 320 49" fill="none" xmlns="http://www.w3.org/2000/svg">
<g clip-path="url(#clip0_1482_4448)">
<path d="M0 8.20105C0 3.78277 3.58172 0.20105 8 0.20105H312C316.418 0.20105 320 3.78277 320 8.20105V40.201C320 44.6193 316.418 48.201 312 48.201H7.99999C3.58171 48.201 0 44.6193 0 40.201V8.20105Z" fill="#FEE500"/>
<path fill-rule="evenodd" clip-rule="evenodd" d="M103.5 15.201C98.1741 15.201 93.8571 18.5364 93.8571 22.6499C93.8571 25.2082 95.5269 27.4635 98.0695 28.8049L96.9997 32.713C96.9052 33.0583 97.3001 33.3336 97.6034 33.1335L102.293 30.0384C102.689 30.0766 103.091 30.0989 103.5 30.0989C108.826 30.0989 113.143 26.7637 113.143 22.6499C113.143 18.5364 108.826 15.201 103.5 15.201Z" fill="black"/>
<path d="M129.296 18.247C129.707 18.247 129.987 18.3217 130.136 18.471C130.295 18.6204 130.374 18.8957 130.374 19.297V21.061C130.374 21.481 130.346 21.859 130.29 22.195C130.243 22.5217 130.155 22.8297 130.024 23.119C129.893 23.399 129.711 23.6744 129.478 23.945C129.245 24.2064 128.941 24.4817 128.568 24.771C128.204 25.051 127.761 25.3544 127.238 25.681C126.715 26.0077 126.104 26.3764 125.404 26.787C125.255 26.871 125.101 26.8897 124.942 26.843C124.783 26.7964 124.657 26.6984 124.564 26.549C124.471 26.409 124.433 26.2504 124.452 26.073C124.471 25.8957 124.559 25.7604 124.718 25.667C125.446 25.247 126.057 24.8877 126.552 24.589C127.047 24.281 127.453 24.0057 127.77 23.763C128.097 23.5204 128.344 23.2917 128.512 23.077C128.689 22.8624 128.815 22.6337 128.89 22.391L124.788 22.629C124.62 22.6477 124.494 22.601 124.41 22.489C124.326 22.3677 124.275 22.223 124.256 22.055C124.247 21.9057 124.275 21.7657 124.34 21.635C124.415 21.5044 124.541 21.4344 124.718 21.425L129.016 21.229V19.745C129.016 19.633 128.993 19.5584 128.946 19.521C128.899 19.4744 128.825 19.451 128.722 19.451H125.096C124.919 19.451 124.788 19.3904 124.704 19.269C124.629 19.1477 124.592 19.0077 124.592 18.849C124.592 18.6904 124.629 18.5504 124.704 18.429C124.788 18.3077 124.919 18.247 125.096 18.247H129.296ZM133.244 17.309C133.431 17.309 133.594 17.3557 133.734 17.449C133.874 17.5424 133.944 17.6917 133.944 17.897V21.537H135.484C135.671 21.537 135.801 21.5977 135.876 21.719C135.96 21.831 136.002 21.971 136.002 22.139C136.002 22.307 135.96 22.4517 135.876 22.573C135.801 22.6944 135.671 22.755 135.484 22.755H133.944V28.817C133.944 29.0224 133.874 29.1717 133.734 29.265C133.594 29.3584 133.431 29.405 133.244 29.405C133.057 29.405 132.894 29.3584 132.754 29.265C132.614 29.1717 132.544 29.0224 132.544 28.817V17.897C132.544 17.6917 132.614 17.5424 132.754 17.449C132.894 17.3557 133.057 17.309 133.244 17.309ZM141.898 18.247C142.309 18.247 142.589 18.3217 142.738 18.471C142.897 18.6204 142.976 18.8957 142.976 19.297V21.061C142.976 21.481 142.948 21.859 142.892 22.195C142.846 22.5217 142.757 22.8297 142.626 23.119C142.496 23.399 142.314 23.6744 142.08 23.945C141.847 24.2064 141.544 24.4817 141.17 24.771C140.806 25.051 140.363 25.3544 139.84 25.681C139.318 26.0077 138.706 26.3764 138.006 26.787C137.857 26.871 137.703 26.8897 137.544 26.843C137.386 26.7964 137.26 26.6984 137.166 26.549C137.073 26.409 137.036 26.2504 137.054 26.073C137.073 25.8957 137.162 25.7604 137.32 25.667C138.048 25.247 138.66 24.8877 139.154 24.589C139.649 24.281 140.055 24.0057 140.372 23.763C140.699 23.5204 140.946 23.2917 141.114 23.077C141.292 22.8624 141.418 22.6337 141.492 22.391L137.39 22.629C137.222 22.6477 137.096 22.601 137.012 22.489C136.928 22.3677 136.877 22.223 136.858 22.055C136.849 21.9057 136.877 21.7657 136.942 21.635C137.017 21.5044 137.143 21.4344 137.32 21.425L141.618 21.229V19.745C141.618 19.633 141.595 19.5584 141.548 19.521C141.502 19.4744 141.427 19.451 141.324 19.451H137.698C137.521 19.451 137.39 19.3904 137.306 19.269C137.232 19.1477 137.194 19.0077 137.194 18.849C137.194 18.6904 137.232 18.5504 137.306 18.429C137.39 18.3077 137.521 18.247 137.698 18.247H141.898ZM145.846 17.309C146.033 17.309 146.196 17.3557 146.336 17.449C146.476 17.5424 146.546 17.6917 146.546 17.897V21.537H148.086C148.273 21.537 148.404 21.5977 148.478 21.719C148.562 21.831 148.604 21.971 148.604 22.139C148.604 22.307 148.562 22.4517 148.478 22.573C148.404 22.6944 148.273 22.755 148.086 22.755H146.546V28.817C146.546 29.0224 146.476 29.1717 146.336 29.265C146.196 29.3584 146.033 29.405 145.846 29.405C145.66 29.405 145.496 29.3584 145.356 29.265C145.216 29.1717 145.146 29.0224 145.146 28.817V17.897C145.146 17.6917 145.216 17.5424 145.356 17.449C145.496 17.3557 145.66 17.309 145.846 17.309ZM155.074 17.799C155.746 17.799 156.348 17.8784 156.88 18.037C157.422 18.1864 157.874 18.4104 158.238 18.709C158.612 18.9984 158.896 19.3577 159.092 19.787C159.288 20.207 159.386 20.683 159.386 21.215C159.386 21.747 159.288 22.2277 159.092 22.657C158.896 23.077 158.612 23.4364 158.238 23.735C157.874 24.0244 157.422 24.2484 156.88 24.407C156.348 24.5564 155.746 24.631 155.074 24.631C153.721 24.631 152.666 24.3324 151.91 23.735C151.154 23.1284 150.776 22.2884 150.776 21.215C150.776 20.1417 151.154 19.3064 151.91 18.709C152.666 18.1024 153.721 17.799 155.074 17.799ZM155.074 18.989C154.57 18.989 154.136 19.045 153.772 19.157C153.408 19.269 153.105 19.4277 152.862 19.633C152.629 19.829 152.456 20.0624 152.344 20.333C152.232 20.6037 152.176 20.8977 152.176 21.215C152.176 21.5324 152.232 21.8264 152.344 22.097C152.456 22.3677 152.629 22.6057 152.862 22.811C153.105 23.007 153.408 23.161 153.772 23.273C154.136 23.385 154.57 23.441 155.074 23.441C155.578 23.441 156.012 23.385 156.376 23.273C156.74 23.161 157.039 23.007 157.272 22.811C157.515 22.6057 157.692 22.3677 157.804 22.097C157.916 21.8264 157.972 21.5324 157.972 21.215C157.972 20.8977 157.916 20.6037 157.804 20.333C157.692 20.0624 157.515 19.829 157.272 19.633C157.039 19.4277 156.74 19.269 156.376 19.157C156.012 19.045 155.578 18.989 155.074 18.989ZM155.774 26.997H160.464C160.632 26.997 160.754 27.0577 160.828 27.179C160.912 27.291 160.954 27.4264 160.954 27.585C160.954 27.7437 160.912 27.8837 160.828 28.005C160.754 28.1264 160.632 28.187 160.464 28.187H149.684C149.516 28.187 149.39 28.1264 149.306 28.005C149.232 27.8837 149.194 27.7437 149.194 27.585C149.194 27.4264 149.232 27.291 149.306 27.179C149.39 27.0577 149.516 26.997 149.684 26.997H154.374V23.735H155.774V26.997ZM170.827 18.037C171.237 18.037 171.517 18.1117 171.667 18.261C171.825 18.4104 171.905 18.6857 171.905 19.087V20.949C171.905 21.341 171.825 21.6117 171.667 21.761C171.517 21.9104 171.237 21.985 170.827 21.985H165.101C164.905 21.985 164.807 22.083 164.807 22.279V23.329C164.807 23.5157 164.905 23.609 165.101 23.609H171.723C171.891 23.609 172.012 23.6697 172.087 23.791C172.171 23.9124 172.213 24.0524 172.213 24.211C172.213 24.3697 172.171 24.5097 172.087 24.631C172.012 24.743 171.891 24.799 171.723 24.799H164.513C164.102 24.799 163.817 24.7244 163.659 24.575C163.509 24.4257 163.435 24.1504 163.435 23.749V21.887C163.435 21.4857 163.509 21.215 163.659 21.075C163.817 20.9257 164.102 20.851 164.513 20.851H170.239C170.435 20.851 170.533 20.753 170.533 20.557V19.521C170.533 19.325 170.435 19.227 170.239 19.227H163.897C163.729 19.227 163.603 19.171 163.519 19.059C163.444 18.9377 163.407 18.7977 163.407 18.639C163.407 18.4804 163.444 18.3404 163.519 18.219C163.603 18.0977 163.729 18.037 163.897 18.037H170.827ZM168.377 26.997H173.067C173.235 26.997 173.356 27.0577 173.431 27.179C173.515 27.291 173.557 27.4264 173.557 27.585C173.557 27.7437 173.515 27.8837 173.431 28.005C173.356 28.1264 173.235 28.187 173.067 28.187H162.287C162.119 28.187 161.993 28.1264 161.909 28.005C161.834 27.8837 161.797 27.7437 161.797 27.585C161.797 27.4264 161.834 27.291 161.909 27.179C161.993 27.0577 162.119 26.997 162.287 26.997H166.977V24.197H168.377V26.997ZM181.875 17.953C182.061 17.953 182.225 17.9997 182.365 18.093C182.514 18.1864 182.589 18.3357 182.589 18.541V20.655C182.589 20.9537 182.607 21.2244 182.645 21.467C182.682 21.7004 182.747 21.9244 182.841 22.139C182.934 22.3537 183.051 22.5637 183.191 22.769C183.331 22.9744 183.508 23.189 183.723 23.413C184.003 23.7117 184.278 24.001 184.549 24.281C184.829 24.5517 185.09 24.799 185.333 25.023C185.473 25.1444 185.529 25.289 185.501 25.457C185.482 25.625 185.417 25.7697 185.305 25.891C185.202 26.003 185.062 26.073 184.885 26.101C184.717 26.129 184.567 26.0824 184.437 25.961C184.007 25.5597 183.527 25.079 182.995 24.519C182.789 24.3137 182.617 24.1317 182.477 23.973C182.346 23.8144 182.239 23.679 182.155 23.567C182.071 23.4457 182.005 23.343 181.959 23.259C181.921 23.1657 181.898 23.0817 181.889 23.007H181.875C181.856 23.091 181.823 23.1797 181.777 23.273C181.739 23.3664 181.679 23.4737 181.595 23.595C181.511 23.707 181.403 23.8424 181.273 24.001C181.142 24.1597 180.974 24.3417 180.769 24.547C180.498 24.827 180.232 25.0977 179.971 25.359C179.709 25.611 179.429 25.877 179.131 26.157C178.981 26.2877 178.823 26.3344 178.655 26.297C178.487 26.2504 178.351 26.1664 178.249 26.045C178.137 25.9144 178.076 25.7697 178.067 25.611C178.057 25.4524 178.118 25.3077 178.249 25.177C178.566 24.8784 178.874 24.5844 179.173 24.295C179.471 24.0057 179.761 23.7117 180.041 23.413C180.246 23.189 180.419 22.9744 180.559 22.769C180.708 22.5637 180.825 22.3537 180.909 22.139C181.002 21.9244 181.067 21.7004 181.105 21.467C181.142 21.2244 181.161 20.9537 181.161 20.655V18.541C181.161 18.3357 181.231 18.1864 181.371 18.093C181.52 17.9997 181.688 17.953 181.875 17.953ZM187.601 17.309C187.787 17.309 187.951 17.3557 188.091 17.449C188.24 17.5424 188.315 17.6917 188.315 17.897V28.817C188.315 29.0224 188.24 29.1717 188.091 29.265C187.951 29.3584 187.787 29.405 187.601 29.405C187.423 29.405 187.26 29.3584 187.111 29.265C186.971 29.1717 186.901 29.0224 186.901 28.817V17.897C186.901 17.6917 186.971 17.5424 187.111 17.449C187.26 17.3557 187.423 17.309 187.601 17.309ZM197.179 18.037C197.347 18.037 197.468 18.0977 197.543 18.219C197.627 18.3404 197.669 18.4804 197.669 18.639C197.669 18.7977 197.627 18.9377 197.543 19.059C197.468 19.171 197.347 19.227 197.179 19.227H194.911V19.857C194.911 20.3144 194.981 20.697 195.121 21.005C195.261 21.313 195.499 21.6024 195.835 21.873C196.162 22.1437 196.47 22.3864 196.759 22.601C197.048 22.8157 197.305 23.0024 197.529 23.161C197.688 23.273 197.772 23.4084 197.781 23.567C197.79 23.7257 197.744 23.875 197.641 24.015C197.548 24.127 197.422 24.2157 197.263 24.281C197.114 24.337 196.95 24.3044 196.773 24.183C196.605 24.0617 196.386 23.903 196.115 23.707C195.844 23.5017 195.56 23.2777 195.261 23.035C194.906 22.7457 194.654 22.517 194.505 22.349C194.365 22.1717 194.276 22.013 194.239 21.873H194.225C194.188 22.0317 194.09 22.2044 193.931 22.391C193.782 22.5777 193.53 22.811 193.175 23.091C192.867 23.3337 192.564 23.567 192.265 23.791C191.976 24.0057 191.691 24.211 191.411 24.407C191.252 24.519 191.089 24.547 190.921 24.491C190.762 24.435 190.641 24.3464 190.557 24.225C190.454 24.0944 190.408 23.945 190.417 23.777C190.426 23.609 190.51 23.4644 190.669 23.343C191.005 23.1097 191.327 22.881 191.635 22.657C191.952 22.4237 192.274 22.1764 192.601 21.915C192.928 21.6444 193.161 21.355 193.301 21.047C193.441 20.739 193.511 20.3564 193.511 19.899V19.227H191.145C190.968 19.227 190.837 19.171 190.753 19.059C190.678 18.9377 190.641 18.7977 190.641 18.639C190.641 18.4804 190.678 18.3404 190.753 18.219C190.837 18.0977 190.968 18.037 191.145 18.037H197.179ZM199.615 17.309C199.802 17.309 199.965 17.3557 200.105 17.449C200.245 17.5424 200.315 17.6917 200.315 17.897V20.333H201.855C202.042 20.333 202.172 20.3937 202.247 20.515C202.331 20.6364 202.373 20.7764 202.373 20.935C202.373 21.1124 202.331 21.2617 202.247 21.383C202.172 21.495 202.042 21.551 201.855 21.551H200.315V24.295C200.315 24.5004 200.245 24.6497 200.105 24.743C199.965 24.8364 199.802 24.883 199.615 24.883C199.428 24.883 199.265 24.8364 199.125 24.743C198.985 24.6497 198.915 24.5004 198.915 24.295V17.897C198.915 17.6917 198.985 17.5424 199.125 17.449C199.265 17.3557 199.428 17.309 199.615 17.309ZM199.237 25.485C199.648 25.485 199.928 25.5597 200.077 25.709C200.236 25.8584 200.315 26.1337 200.315 26.535V29.741C200.315 29.9464 200.245 30.0957 200.105 30.189C199.965 30.2824 199.802 30.329 199.615 30.329C199.428 30.329 199.265 30.2824 199.125 30.189C198.985 30.0957 198.915 29.9464 198.915 29.741V26.969C198.915 26.7824 198.817 26.689 198.621 26.689H192.531C192.354 26.689 192.223 26.6284 192.139 26.507C192.064 26.3857 192.027 26.2457 192.027 26.087C192.027 25.9284 192.064 25.7884 192.139 25.667C192.223 25.5457 192.354 25.485 192.531 25.485H199.237ZM206.785 21.173C207.252 21.173 207.672 21.243 208.045 21.383C208.418 21.5137 208.731 21.7004 208.983 21.943C209.244 22.1857 209.445 22.475 209.585 22.811C209.725 23.147 209.795 23.5204 209.795 23.931C209.795 24.3417 209.725 24.715 209.585 25.051C209.445 25.387 209.244 25.6764 208.983 25.919C208.731 26.1617 208.418 26.353 208.045 26.493C207.672 26.6237 207.252 26.689 206.785 26.689C206.318 26.689 205.898 26.6237 205.525 26.493C205.152 26.353 204.834 26.1617 204.573 25.919C204.312 25.6764 204.111 25.387 203.971 25.051C203.84 24.715 203.775 24.3417 203.775 23.931C203.775 23.5204 203.84 23.147 203.971 22.811C204.111 22.475 204.312 22.1857 204.573 21.943C204.834 21.7004 205.152 21.5137 205.525 21.383C205.898 21.243 206.318 21.173 206.785 21.173ZM206.785 17.281C206.972 17.281 207.135 17.3277 207.275 17.421C207.415 17.5144 207.485 17.6637 207.485 17.869V19.073H210.005C210.173 19.073 210.294 19.1337 210.369 19.255C210.453 19.367 210.495 19.5024 210.495 19.661C210.495 19.8197 210.453 19.9597 210.369 20.081C210.294 20.2024 210.173 20.263 210.005 20.263H203.411C203.243 20.263 203.117 20.2024 203.033 20.081C202.958 19.9597 202.921 19.8197 202.921 19.661C202.921 19.5024 202.958 19.367 203.033 19.255C203.117 19.1337 203.243 19.073 203.411 19.073H206.085V17.869C206.085 17.6637 206.155 17.5144 206.295 17.421C206.444 17.3277 206.608 17.281 206.785 17.281ZM206.785 22.307C206.253 22.307 205.828 22.4564 205.511 22.755C205.203 23.0444 205.049 23.4364 205.049 23.931C205.049 24.4164 205.203 24.8084 205.511 25.107C205.828 25.4057 206.253 25.555 206.785 25.555C207.317 25.555 207.737 25.4057 208.045 25.107C208.362 24.8084 208.521 24.4164 208.521 23.931C208.521 23.4364 208.362 23.0444 208.045 22.755C207.737 22.4564 207.317 22.307 206.785 22.307ZM212.217 17.309C212.404 17.309 212.567 17.3557 212.707 17.449C212.847 17.5424 212.917 17.6917 212.917 17.897V21.677H214.457C214.644 21.677 214.774 21.7377 214.849 21.859C214.933 21.971 214.975 22.111 214.975 22.279C214.975 22.447 214.933 22.5917 214.849 22.713C214.774 22.8344 214.644 22.895 214.457 22.895H212.917V28.817C212.917 29.0224 212.847 29.1717 212.707 29.265C212.567 29.3584 212.404 29.405 212.217 29.405C212.04 29.405 211.881 29.3584 211.741 29.265C211.601 29.1717 211.531 29.0224 211.531 28.817V17.897C211.531 17.6917 211.601 17.5424 211.741 17.449C211.881 17.3557 212.04 17.309 212.217 17.309ZM221.067 18.261C221.478 18.261 221.758 18.3357 221.907 18.485C222.066 18.6344 222.145 18.9097 222.145 19.311V20.893C222.145 21.285 222.122 21.6397 222.075 21.957C222.029 22.265 221.94 22.559 221.809 22.839C221.679 23.119 221.497 23.3944 221.263 23.665C221.03 23.9264 220.727 24.2064 220.353 24.505C219.989 24.7944 219.546 25.1117 219.023 25.457C218.501 25.8024 217.88 26.1944 217.161 26.633C217.003 26.7264 216.844 26.745 216.685 26.689C216.527 26.6237 216.401 26.5257 216.307 26.395C216.214 26.2644 216.167 26.1104 216.167 25.933C216.177 25.7557 216.261 25.6157 216.419 25.513C217.082 25.1117 217.647 24.7617 218.113 24.463C218.589 24.155 218.986 23.8797 219.303 23.637C219.621 23.385 219.873 23.1564 220.059 22.951C220.255 22.7364 220.405 22.5264 220.507 22.321C220.61 22.1064 220.675 21.8824 220.703 21.649C220.731 21.4064 220.745 21.1357 220.745 20.837V19.759C220.745 19.6564 220.722 19.5864 220.675 19.549C220.638 19.5024 220.563 19.479 220.451 19.479H216.811C216.634 19.479 216.503 19.4184 216.419 19.297C216.345 19.1757 216.307 19.0357 216.307 18.877C216.307 18.709 216.345 18.5644 216.419 18.443C216.503 18.3217 216.634 18.261 216.811 18.261H221.067ZM225.407 17.309C225.594 17.309 225.757 17.3557 225.897 17.449C226.047 17.5424 226.121 17.6917 226.121 17.897V28.817C226.121 29.0224 226.047 29.1717 225.897 29.265C225.757 29.3584 225.594 29.405 225.407 29.405C225.23 29.405 225.067 29.3584 224.917 29.265C224.777 29.1717 224.707 29.0224 224.707 28.817V17.897C224.707 17.6917 224.777 17.5424 224.917 17.449C225.067 17.3557 225.23 17.309 225.407 17.309Z" fill="black"/>
</g>
<defs>
<clipPath id="clip0_1482_4448">
<path d="M0 8.20105C0 3.78277 3.58172 0.20105 8 0.20105H312C316.418 0.20105 320 3.78277 320 8.20105V40.201C320 44.6193 316.418 48.201 312 48.201H7.99999C3.58171 48.201 0 44.6193 0 40.201V8.20105Z" fill="white"/>
</clipPath>
</defs>
</svg>
