<svg viewBox="0 0 48 48" fill="none" xmlns="http://www.w3.org/2000/svg">
<path d="M10.0005 12.6665C10.0005 10.6415 11.5326 9 13.4225 9H34.5775C36.4675 9 37.9996 10.6415 37.9996 12.6665V35.3335C37.9996 37.3585 36.4675 39 34.5775 39H13.4225C11.5326 39 10.0005 37.3585 10.0005 35.3335V12.6665Z" fill="#F05F83"/>
<path d="M10.0005 12.422C10.0005 10.5321 11.5326 9 13.4225 9H34.5775C36.4675 9 37.9995 10.5321 37.9995 12.422V33.578C37.9995 35.4679 36.4674 37 34.5775 37H13.4225C11.5326 37 10.0005 35.4679 10.0005 33.578V12.422Z" fill="#FFA1B8"/>
<path d="M29.906 24.6343C29.906 27.3276 27.7226 29.511 25.0293 29.511H22.971C20.2777 29.511 18.0943 27.3276 18.0943 24.6343C18.0943 24.4996 18.2035 24.3904 18.3381 24.3904H29.6622C29.7968 24.3904 29.906 24.4996 29.906 24.6343Z" fill="#F05F83"/>
<path d="M22.2681 23.8209C22.2681 22.8643 23.0435 22.0889 24.0001 22.0889V22.0889C24.9567 22.0889 25.7322 22.8643 25.7322 23.8209V24.3987H22.2681V23.8209Z" fill="#3D4650"/>
<path d="M19.7311 24.3987H24.4438V29.7866C24.4438 30.5288 23.8421 31.1305 23.0999 31.1305H21.075C20.3328 31.1305 19.7311 30.5288 19.7311 29.7866V24.3987Z" fill="#EBF9FF"/>
<path d="M21.3563 20.4791C21.3563 21.3683 20.6355 22.0891 19.7463 22.0891C18.8572 22.0891 18.1364 21.3683 18.1364 20.4791C18.1364 19.59 18.8572 18.8691 19.7463 18.8691C20.6355 18.8691 21.3563 19.59 21.3563 20.4791Z" fill="#3D4650"/>
<path d="M29.9059 20.4791C29.9059 21.3683 29.1851 22.0891 28.2959 22.0891C27.4067 22.0891 26.6859 21.3683 26.6859 20.4791C26.6859 19.59 27.4067 18.8691 28.2959 18.8691C29.1851 18.8691 29.9059 19.59 29.9059 20.4791Z" fill="#3D4650"/>
<path d="M37.9994 27.7648C37.9994 30.5991 35.7017 32.8968 32.8674 32.8968C30.033 32.8968 27.7354 30.5991 27.7354 27.7648C27.7354 24.9305 30.033 22.6328 32.8674 22.6328C35.7017 22.6328 37.9994 24.9305 37.9994 27.7648Z" fill="#FFA1B8"/>
</svg>
