<svg width="48" height="48" viewBox="0 0 48 48" fill="none" xmlns="http://www.w3.org/2000/svg">
<path d="M19 12.3333H15.6667C14.7462 12.3333 14 13.0795 14 14V34C14 34.9205 14.7462 35.6666 15.6667 35.6666H19C19.9205 35.6666 20.6667 34.9205 20.6667 34V14C20.6667 13.0795 19.9205 12.3333 19 12.3333Z" fill="#5FC6F0"/>
<path d="M32.3335 12.3333H29.0002C28.0797 12.3333 27.3335 13.0795 27.3335 14V34C27.3335 34.9205 28.0797 35.6666 29.0002 35.6666H32.3335C33.254 35.6666 34.0002 34.9205 34.0002 34V14C34.0002 13.0795 33.254 12.3333 32.3335 12.3333Z" fill="#5FC6F0"/>
</svg>
