<svg width="81" height="85" viewBox="0 0 81 85" fill="none" xmlns="http://www.w3.org/2000/svg">
<g filter="url(#filter0_d_2332_2194)">
<circle cx="40.5752" cy="40.2573" r="40" fill="#D6F3FF"/>
<circle cx="40.5752" cy="40.2573" r="39" stroke="#5FC6F0" stroke-width="2"/>
</g>
<path d="M35.5752 28.5907H32.2419C31.3214 28.5907 30.5752 29.3369 30.5752 30.2574V50.2574C30.5752 51.1778 31.3214 51.924 32.2419 51.924H35.5752C36.4957 51.924 37.2419 51.1778 37.2419 50.2574V30.2574C37.2419 29.3369 36.4957 28.5907 35.5752 28.5907Z" fill="#5FC6F0"/>
<path d="M48.9087 28.5907H45.5754C44.6549 28.5907 43.9087 29.3369 43.9087 30.2574V50.2574C43.9087 51.1778 44.6549 51.924 45.5754 51.924H48.9087C49.8292 51.924 50.5754 51.1778 50.5754 50.2574V30.2574C50.5754 29.3369 49.8292 28.5907 48.9087 28.5907Z" fill="#5FC6F0"/>
<defs>
<filter id="filter0_d_2332_2194" x="0.575195" y="0.257324" width="80" height="84" filterUnits="userSpaceOnUse" color-interpolation-filters="sRGB">
<feFlood flood-opacity="0" result="BackgroundImageFix"/>
<feColorMatrix in="SourceAlpha" type="matrix" values="0 0 0 0 0 0 0 0 0 0 0 0 0 0 0 0 0 0 127 0" result="hardAlpha"/>
<feOffset dy="4"/>
<feComposite in2="hardAlpha" operator="out"/>
<feColorMatrix type="matrix" values="0 0 0 0 0.372549 0 0 0 0 0.776471 0 0 0 0 0.941176 0 0 0 1 0"/>
<feBlend mode="normal" in2="BackgroundImageFix" result="effect1_dropShadow_2332_2194"/>
<feBlend mode="normal" in="SourceGraphic" in2="effect1_dropShadow_2332_2194" result="shape"/>
</filter>
</defs>
</svg>
