<svg width="25" height="24" viewBox="0 0 25 24" fill="none" xmlns="http://www.w3.org/2000/svg">
<rect width="24" height="24" transform="translate(0.69043)" fill="white"/>
<rect x="4.69043" y="4" width="16" height="16" rx="2" fill="#BAC3CB"/>
<path d="M11.6059 13.8102C11.6185 12.1413 12.0372 11.6164 12.7983 11.1184C13.3437 10.7416 13.7623 10.3244 13.7623 9.70525C13.7623 9.0323 13.2676 8.58816 12.6587 8.58816C12.0625 8.58816 11.5171 9.00538 11.4917 9.79946H9.69043C9.72848 7.90175 11.0477 7 12.6714 7C14.4346 7 15.6904 7.9825 15.6904 9.63795C15.6904 10.7416 15.1577 11.4549 14.3205 11.9798C13.6101 12.4374 13.293 12.8681 13.2803 13.8102V13.9583H11.6059V13.8102ZM12.4811 17C11.8849 17 11.4029 16.4886 11.4156 15.8694C11.4029 15.2503 11.8849 14.7524 12.4811 14.7524C13.0393 14.7524 13.534 15.2503 13.534 15.8694C13.534 16.4886 13.0393 17 12.4811 17Z" fill="white"/>
</svg>
