<svg viewBox="0 0 48 48" fill="none" xmlns="http://www.w3.org/2000/svg">
<path d="M10.0005 12.6665C10.0005 10.6415 11.5326 9 13.4225 9H34.5775C36.4675 9 37.9996 10.6415 37.9996 12.6665V35.3335C37.9996 37.3585 36.4675 39 34.5775 39H13.4225C11.5326 39 10.0005 37.3585 10.0005 35.3335V12.6665Z" fill="#199B6A"/>
<path d="M10.0005 12.422C10.0005 10.5321 11.5326 9 13.4225 9H34.5775C36.4675 9 37.9995 10.5321 37.9995 12.422V33.578C37.9995 35.4679 36.4674 37 34.5775 37H13.4225C11.5326 37 10.0005 35.4679 10.0005 33.578V12.422Z" fill="#2AC48A"/>
<path d="M28.6171 29.8774C29.4653 29.8774 30.1528 29.1899 30.1528 28.3417V17.6581C30.1528 16.8099 29.4653 16.1223 28.6171 16.1223V16.1223C27.7689 16.1223 27.0814 16.8099 27.0814 17.6581V28.3417C27.0814 29.1899 27.7689 29.8774 28.6171 29.8774V29.8774Z" fill="#E6F8F1"/>
<path d="M19.3822 29.8774C20.2304 29.8774 20.918 29.1899 20.918 28.3417V17.6581C20.918 16.8099 20.2304 16.1224 19.3822 16.1224V16.1224C18.5341 16.1224 17.8465 16.8099 17.8465 17.6581V28.3417C17.8465 29.1899 18.5341 29.8774 19.3822 29.8774V29.8774Z" fill="#E6F8F1"/>
<path d="M17.8467 17.6583C17.8467 16.8101 18.5342 16.1226 19.3824 16.1226H28.6173C29.4654 16.1226 30.153 16.8101 30.153 17.6583V17.6583C30.153 18.5064 29.4654 19.194 28.6173 19.194H19.3824C18.5342 19.194 17.8467 18.5064 17.8467 17.6583V17.6583Z" fill="#E6F8F1"/>
<path d="M17.8467 28.3419C17.8467 27.4937 18.5342 26.8062 19.3824 26.8062H28.6172C29.4654 26.8062 30.153 27.4937 30.153 28.3419V28.3419C30.153 29.19 29.4654 29.8776 28.6172 29.8776H19.3824C18.5342 29.8776 17.8467 29.19 17.8467 28.3419V28.3419Z" fill="#E6F8F1"/>
<path d="M31.0024 30.5298C30.4027 31.1295 29.4303 31.1295 28.8306 30.5298L25.0859 26.7851C24.4862 26.1854 24.4862 25.213 25.0859 24.6133V24.6133C25.6856 24.0135 26.658 24.0135 27.2577 24.6133L31.0024 28.358C31.6022 28.9577 31.6022 29.9301 31.0024 30.5298V30.5298Z" fill="#E6F8F1"/>
</svg>
