<svg width="25" height="25" viewBox="0 0 25 25" fill="none" xmlns="http://www.w3.org/2000/svg">
<rect x="4.5459" y="4.89648" width="16" height="16" rx="2" fill="currentColor"/>
<path d="M11.4613 14.7067C11.474 13.0378 11.8926 12.5129 12.6537 12.0149C13.1992 11.6381 13.6178 11.2208 13.6178 10.6017C13.6178 9.92879 13.1231 9.48464 12.5142 9.48464C11.918 9.48464 11.3725 9.90187 11.3472 10.6959H9.5459C9.58395 8.79823 10.9032 7.89648 12.5269 7.89648C14.2901 7.89648 15.5459 8.87899 15.5459 10.5344C15.5459 11.6381 15.0131 12.3514 14.1759 12.8763C13.4656 13.3339 13.1484 13.7646 13.1358 14.7067V14.8548H11.4613V14.7067ZM12.3366 17.8965C11.7404 17.8965 11.2584 17.385 11.2711 16.7659C11.2584 16.1468 11.7404 15.6488 12.3366 15.6488C12.8947 15.6488 13.3895 16.1468 13.3895 16.7659C13.3895 17.385 12.8947 17.8965 12.3366 17.8965Z" fill="white"/>
</svg>
