<svg viewBox="0 0 78 78" fill="current" xmlns="http://www.w3.org/2000/svg">
<path d="M1.70492 1.705C3.97816 -0.568158 7.66292 -0.5682 9.93613 1.705L39 30.7689L68.0639 1.705L68.2811 1.49809C70.5661 -0.566157 74.0931 -0.497077 76.2952 1.705C78.4969 3.90712 78.5662 7.43415 76.5021 9.71906L76.2952 9.9362L47.2313 39.0001L76.2952 68.0639L76.5021 68.2811C78.566 70.5661 78.4971 74.0931 76.2952 76.2951C74.0932 78.4971 70.5661 78.566 68.2811 76.5021L68.0639 76.2951L39 47.2313L9.93613 76.2951C7.66303 78.5682 3.97818 78.568 1.70492 76.2951C-0.568307 74.0219 -0.568307 70.3372 1.70492 68.0639L30.7688 39.0001L1.70492 9.9362C-0.568307 7.66298 -0.568307 3.97823 1.70492 1.705Z" fill="currentColor"/>
</svg>
