<svg width="72" height="120" viewBox="0 0 72 120" fill="none" xmlns="http://www.w3.org/2000/svg">
<path d="M69.2805 117.037C69.2805 118.673 67.9535 120 66.3165 120H4.80301C3.16603 120 1.83899 118.673 1.83899 117.037V117.037C1.83899 115.4 3.16603 114.073 4.80301 114.073H66.3165C67.9535 114.073 69.2805 115.4 69.2805 117.037V117.037Z" fill="#72B6F9"/>
<path d="M49.82 69.832C49.5044 69.832 49.2486 70.0879 49.2486 70.4035V70.4035C49.2486 76.7156 54.3656 81.8326 60.6777 81.8326H70.5478C70.8634 81.8326 71.1192 81.5767 71.1192 81.2611V81.2611C71.1192 74.949 66.0023 69.832 59.6902 69.832H49.82Z" fill="#FFF5F8"/>
<path d="M70.5472 57.8318C70.8628 57.8318 71.1187 58.0876 71.1187 58.4032V58.4032C71.1187 64.7153 66.0017 69.8323 59.6896 69.8323H49.8195C49.5039 69.8323 49.248 69.5765 49.248 69.2609V69.2609C49.248 62.9488 54.365 57.8318 60.6771 57.8318H70.5472Z" fill="#FFF5F8"/>
<path d="M21.2998 69.832C21.6154 69.832 21.8712 70.0878 21.8712 70.4034V70.4034C21.8712 76.7155 16.7542 81.8325 10.4421 81.8325H0.572021C0.256417 81.8325 0.00056839 81.5766 0.00056839 81.261V81.261C0.00056839 74.9489 5.11754 69.832 11.4296 69.832H21.2998Z" fill="#FFF5F8"/>
<path d="M0.57127 57.8322C0.255665 57.8322 -0.000183105 58.088 -0.000183105 58.4036V58.4036C-0.000183105 64.7157 5.11679 69.8327 11.4289 69.8327H21.299C21.6146 69.8327 21.8705 69.5768 21.8705 69.2612V69.2612C21.8705 62.9491 16.7535 57.8322 10.4414 57.8322H0.57127Z" fill="#FFF5F8"/>
<path d="M37.3586 0C45.4766 0 52.0576 6.581 52.0576 14.6991V33.4081C52.0576 37.6701 48.6026 41.1251 44.3406 41.1251V41.1251C40.0786 41.1251 36.6236 37.6701 36.6236 33.4081V0.734956C36.6236 0.329052 36.9527 0 37.3586 0V0Z" fill="#FFA1B8"/>
<path d="M37.1067 13.6261C42.4497 13.6261 46.7811 17.9575 46.7811 23.3005V36.0458C46.7811 38.8509 44.5071 41.1249 41.702 41.1249V41.1249C38.897 41.1249 36.623 38.8509 36.623 36.0458V14.1098C36.623 13.8427 36.8396 13.6261 37.1067 13.6261V13.6261Z" fill="#F05F83"/>
<path d="M19.7978 0C27.9159 0 34.4969 6.581 34.4969 14.6991V28.6294C34.4969 32.8914 31.0418 36.3464 26.7798 36.3464V36.3464C22.5179 36.3464 19.0628 32.8914 19.0628 28.6294V0.734955C19.0628 0.329051 19.3919 0 19.7978 0V0Z" fill="#FFA1B8"/>
<path d="M19.0613 13.6261C24.6715 13.6261 29.2194 18.174 29.2194 23.7842V36.0458C29.2194 38.8509 26.9455 41.1249 24.1404 41.1249V41.1249C21.3353 41.1249 19.0613 38.8509 19.0613 36.0458V13.6261V13.6261Z" fill="#F05F83"/>
<path d="M35.561 28.4214C47.7007 28.4216 57.5415 38.2631 57.5415 50.4028V102.966H44.3432V100.513C44.343 95.6628 40.4104 91.731 35.56 91.731C30.7098 91.7312 26.778 95.663 26.7778 100.513V102.966H13.5796V50.4028C13.5796 38.263 23.4211 28.4214 35.561 28.4214Z" fill="#FFA1B8"/>
<ellipse cx="59.6013" cy="94.9584" rx="6.40457" ry="6.40332" transform="rotate(-17.159 59.6013 94.9584)" fill="#FFA1B8"/>
<path d="M26.7772 106.691H16.37C12.0784 106.691 8.59931 110.17 8.59931 114.462V114.462H26.7772V106.691Z" fill="#FFA1B8"/>
<path d="M44.3423 106.691H54.7495C59.0411 106.691 62.5202 110.17 62.5202 114.462V114.462H44.3423V106.691Z" fill="#FFA1B8"/>
<rect width="13.1984" height="7.45087" transform="matrix(-1 0 0 1 26.7772 102.966)" fill="#FFA1B8"/>
<rect width="13.1984" height="7.45087" transform="matrix(-1 0 0 1 57.5399 102.966)" fill="#FFA1B8"/>
<path d="M35.5602 73.0337C43.1519 73.0337 49.3062 79.188 49.3062 86.7798V105.062H44.2955C43.4384 101.11 39.923 98.1491 35.7144 98.1489C31.5057 98.1489 27.9895 101.11 27.1324 105.062H21.8141V86.7798C21.8141 79.1882 27.9685 73.0339 35.5602 73.0337Z" fill="#F05F83"/>
<rect x="27.096" y="64.141" width="26.5885" height="10.5634" rx="5.2817" transform="rotate(90 27.096 64.141)" fill="#FF7F9D"/>
<rect x="54.5865" y="64.141" width="26.5885" height="10.5634" rx="5.2817" transform="rotate(90 54.5865 64.141)" fill="#FF7F9D"/>
<path d="M28.5757 33.3388C28.5757 31.5961 29.9884 30.1833 31.7312 30.1833H39.389C41.1318 30.1833 42.5445 31.5961 42.5445 33.3388V33.3388H28.5757V33.3388Z" fill="#7FD8FF"/>
<path d="M35.105 24.959C35.3382 24.586 35.7911 24.586 36.0244 24.959L40.5491 32.1947C40.847 32.6711 40.5743 33.3656 40.0894 33.3656H31.0399C30.555 33.3656 30.2823 32.6711 30.5802 32.1947L35.105 24.959Z" fill="#7FD8FF"/>
<path d="M42.5444 33.3389H38.021C37.5362 33.3387 37.2641 32.7366 37.562 32.3233L42.0864 26.045C42.2027 25.8837 42.3734 25.8023 42.5444 25.8018V33.3389Z" fill="#7FD8FF"/>
<path d="M28.5764 33.3389H33.0998C33.5847 33.3389 33.8575 32.7367 33.5598 32.3233L29.0354 26.045C28.919 25.8835 28.7475 25.8022 28.5764 25.8018V33.3389Z" fill="#7FD8FF"/>
<rect width="5.31949" height="11.4961" transform="matrix(-1 0 0 1 27.1336 102.966)" fill="#F05F83"/>
<rect width="4.96354" height="11.4958" transform="matrix(-1 0 0 1 49.3045 102.966)" fill="#F05F83"/>
<path d="M39.3421 50.1711C46.1079 48.5226 52.9572 52.664 54.6405 59.4212V59.4212C56.3237 66.1784 52.2036 72.9926 45.4378 74.6412L11.0955 83.0091C10.4511 83.1661 9.79882 82.7717 9.63851 82.1281V82.1281C6.43229 69.2573 14.2803 56.2778 27.1674 53.1377L39.3421 50.1711Z" fill="#4C98F5"/>
<rect x="6.46628" y="69.3083" width="24.4511" height="58.1898" rx="12.2256" transform="rotate(-90 6.46628 69.3083)" fill="#FFA1B8"/>
<path d="M42.7295 49.1993C42.7295 52.4681 40.0796 55.1179 36.8109 55.1179H34.3128C31.0441 55.1179 28.3942 52.4681 28.3942 49.1993V49.1993C28.3942 49.0359 28.5267 48.9034 28.6902 48.9034H42.4335C42.597 48.9034 42.7295 49.0359 42.7295 49.1993V49.1993Z" fill="#F05F83"/>
<path d="M33.4588 48.2118C33.4588 47.0508 34.3999 46.1097 35.5609 46.1097V46.1097C36.7218 46.1097 37.663 47.0508 37.663 48.2118V48.913H33.4588V48.2118Z" fill="#3D4650"/>
<path d="M30.379 48.9127H36.0986V55.0827C36.0986 56.1873 35.2032 57.0827 34.0986 57.0827H32.379C31.2745 57.0827 30.379 56.1873 30.379 55.0827V48.9127Z" fill="#EBF9FF"/>
<rect x="38.5347" y="69.3083" width="24.4511" height="26.1213" rx="12.2256" transform="rotate(-90 38.5347 69.3083)" fill="#FFA1B8"/>
<path d="M32.3517 44.1559C32.3517 45.2351 31.4769 46.1099 30.3977 46.1099C29.3186 46.1099 28.4438 45.2351 28.4438 44.1559C28.4438 43.0768 29.3186 42.202 30.3977 42.202C31.4769 42.202 32.3517 43.0768 32.3517 44.1559Z" fill="#3D4650"/>
<path d="M42.7283 44.1559C42.7283 45.2351 41.8535 46.1099 40.7744 46.1099C39.6952 46.1099 38.8204 45.2351 38.8204 44.1559C38.8204 43.0768 39.6952 42.202 40.7744 42.202C41.8535 42.202 42.7283 43.0768 42.7283 44.1559Z" fill="#3D4650"/>
</svg>
