<svg width="168" height="222" viewBox="0 0 168 222" fill="none" xmlns="http://www.w3.org/2000/svg">
<path d="M63.0592 128.665C63.6405 128.665 64.1118 129.136 64.1118 129.718C64.1118 141.343 54.6872 150.768 43.0615 150.768H24.8825C24.3012 150.768 23.83 150.297 23.83 149.715C23.83 138.09 33.2545 128.665 44.8802 128.665H63.0592Z" fill="#FFE1EA"/>
<path d="M24.8824 106.562C24.3012 106.562 23.8299 107.033 23.8299 107.615C23.8299 119.24 33.2545 128.665 44.8802 128.665H63.0592C63.6405 128.665 64.1117 128.194 64.1117 127.612C64.1117 115.987 54.6872 106.562 43.0614 106.562H24.8824Z" fill="#FFE1EA"/>
<rect x="27.6664" y="96.7876" width="48.9712" height="19.4559" rx="9.72793" transform="rotate(42.9753 27.6664 96.7876)" fill="#FF7F9D"/>
<path d="M115.593 128.664C115.011 128.664 114.54 129.135 114.54 129.717C114.54 141.342 123.965 150.767 135.591 150.767H153.77C154.351 150.767 154.822 150.296 154.822 149.714C154.822 138.089 145.398 128.664 133.772 128.664H115.593Z" fill="#FFE1EA"/>
<path d="M153.77 106.561C154.351 106.561 154.822 107.032 154.822 107.614C154.822 119.239 145.398 128.664 133.772 128.664H115.593C115.012 128.664 114.54 128.193 114.54 127.611C114.54 115.986 123.965 106.561 135.591 106.561H153.77Z" fill="#FFE1EA"/>
<path d="M92.6368 0.045166C107.589 0.045166 119.71 12.1662 119.71 27.1182V61.5769C119.71 69.4267 113.346 75.7903 105.496 75.7903C97.6467 75.7903 91.2831 69.4267 91.2831 61.5769V1.39882C91.2831 0.651216 91.8892 0.045166 92.6368 0.045166Z" fill="#FFA1B8"/>
<path d="M92.1739 25.1421C102.015 25.1421 109.992 33.1197 109.992 42.9606V66.4352C109.992 71.6017 105.804 75.7899 100.638 75.7899C95.4712 75.7899 91.283 71.6017 91.283 66.4352V26.033C91.283 25.541 91.6818 25.1421 92.1739 25.1421Z" fill="#F05F83"/>
<path d="M60.2957 0.045166C75.2477 0.045166 87.3687 12.1662 87.3687 27.1182V52.7754C87.3687 60.6252 81.0052 66.9888 73.1554 66.9888C65.3055 66.9888 58.942 60.6252 58.942 52.7754V1.39882C58.942 0.651219 59.5481 0.045166 60.2957 0.045166Z" fill="#FFA1B8"/>
<path d="M59.8328 25.1423C69.6736 25.1423 77.6512 33.1199 77.6512 42.9608V66.4354C77.6512 71.6019 73.463 75.7901 68.2965 75.7901C63.1301 75.7901 58.9418 71.6019 58.9418 66.4354V26.0333C58.9418 25.5412 59.3407 25.1423 59.8328 25.1423Z" fill="#F05F83"/>
<path d="M89.3255 52.3926C111.685 52.3926 129.811 70.5185 129.811 92.8779V189.69H105.501V185.173C105.501 176.239 98.2592 168.997 89.3255 168.997C80.3917 168.997 73.1498 176.239 73.1497 185.173V189.69H48.8401V92.8779C48.8401 70.5185 66.9661 52.3926 89.3255 52.3926Z" fill="#FFA1B8"/>
<ellipse cx="133.609" cy="174.943" rx="11.7961" ry="11.7938" transform="rotate(-17.159 133.609 174.943)" fill="#FFA1B8"/>
<path d="M73.1495 196.553H53.9813C46.0769 196.553 39.6692 202.961 39.6692 210.865H73.1495V196.553Z" fill="#FFA1B8"/>
<path d="M105.502 196.553H124.671C132.575 196.553 138.983 202.961 138.983 210.865H105.502V196.553Z" fill="#FFA1B8"/>
<rect width="24.3091" height="13.7232" transform="matrix(-1 0 0 1 73.1495 189.691)" fill="#FFA1B8"/>
<rect width="24.3091" height="13.7232" transform="matrix(-1 0 0 1 129.812 189.691)" fill="#FFA1B8"/>
<path d="M89.3271 134.561C103.31 134.561 114.645 145.896 114.645 159.879V193.551H105.417C103.838 186.272 97.3612 180.818 89.6094 180.818C81.8576 180.818 75.3803 186.272 73.8018 193.551H64.0088V159.879C64.0088 145.896 75.3444 134.561 89.3271 134.561Z" fill="#F05F83"/>
<path d="M151.434 216.322C151.434 219.337 148.99 221.78 145.975 221.78H32.6779C29.6629 221.78 27.2187 219.337 27.2187 216.322C27.2187 213.308 29.6629 210.864 32.6779 210.864H145.975C148.99 210.864 151.434 213.308 151.434 216.322Z" fill="#72B6F9"/>
<rect x="124.372" y="118.183" width="48.9712" height="19.4559" rx="9.72793" transform="rotate(90 124.372 118.183)" fill="#FF7F9D"/>
<path d="M76.4632 61.4491C76.4632 58.2393 79.0652 55.6372 82.275 55.6372H96.3794C99.5893 55.6372 102.191 58.2393 102.191 61.4491H76.4632Z" fill="#7FD8FF"/>
<path d="M88.4876 46.0148C88.9172 45.3278 89.7514 45.3278 90.181 46.0148L98.5147 59.3415C99.0634 60.219 98.5612 61.4982 97.668 61.4982H81.0006C80.1075 61.4982 79.6052 60.219 80.1539 59.3415L88.4876 46.0148Z" fill="#7FD8FF"/>
<path d="M102.191 61.4495H93.8587C92.9655 61.4495 92.4633 60.3397 93.012 59.5784L101.346 48.0149C101.56 47.7173 101.875 47.5681 102.191 47.5676V61.4495Z" fill="#7FD8FF"/>
<path d="M76.4625 61.4495H84.7955C85.6887 61.4495 86.1909 60.3397 85.6422 59.5784L77.3092 48.0149C77.0945 47.717 76.7783 47.5678 76.4625 47.5676V61.4495Z" fill="#7FD8FF"/>
<rect width="9.79754" height="21.1737" transform="matrix(-1 0 0 1 73.8055 189.691)" fill="#F05F83"/>
<rect width="9.14194" height="21.1732" transform="matrix(-1 0 0 1 114.645 189.691)" fill="#F05F83"/>
<path d="M96.2952 92.4519C108.757 89.4155 121.372 97.0432 124.472 109.489C127.572 121.934 119.984 134.485 107.522 137.521L44.27 152.933C43.0832 153.223 41.8818 152.496 41.5865 151.311C35.6812 127.605 50.1357 103.699 73.8716 97.9157L96.2952 92.4519Z" fill="#4C98F5"/>
<rect x="35.7385" y="125.82" width="45.0345" height="107.175" rx="22.5173" transform="rotate(-90 35.7385 125.82)" fill="#FFA1B8"/>
<path d="M102.528 88.7821C102.528 94.8026 97.647 99.6831 91.6266 99.6831H87.0256C81.0052 99.6831 76.1246 94.8026 76.1246 88.7821C76.1246 88.4811 76.3687 88.2371 76.6697 88.2371H101.982C102.284 88.2371 102.528 88.4811 102.528 88.7821Z" fill="#F05F83"/>
<path d="M85.4541 86.9639C85.4541 84.8257 87.1875 83.0923 89.3257 83.0923C91.464 83.0923 93.1974 84.8257 93.1974 86.964V88.2555H85.4541V86.9639Z" fill="#3D4650"/>
<path d="M79.7834 88.2554H90.3178V99.1402C90.3178 101.439 88.454 103.303 86.1549 103.303H83.9462C81.6471 103.303 79.7834 101.439 79.7834 99.1402V88.2554Z" fill="#EBF9FF"/>
<rect x="94.8036" y="125.82" width="45.0345" height="48.1107" rx="22.5173" transform="rotate(-90 94.8036 125.82)" fill="#FFA1B8"/>
<path d="M95.0068 79.6363C95.1845 77.5121 97.0504 75.934 99.1747 76.1116C101.299 76.2892 102.877 78.1552 102.699 80.2794L102.64 80.9852C102.63 81.1109 102.519 81.2043 102.394 81.1938L95.1564 80.5887C95.0307 80.5782 94.9373 80.4677 94.9478 80.342L95.0068 79.6363Z" fill="#3D4650"/>
<path d="M75.9522 80.2798C75.7746 78.1556 77.3526 76.2896 79.4768 76.112C81.601 75.9343 83.467 77.5124 83.6447 79.6366L83.7037 80.3423C83.7142 80.468 83.6208 80.5785 83.4951 80.589L76.2579 81.1941C76.1322 81.2047 76.0217 81.1113 76.0112 80.9856L75.9522 80.2798Z" fill="#3D4650"/>
<rect x="69.7803" y="94.6548" width="27.4298" height="16.5464" transform="rotate(4.09417 69.7803 94.6548)" fill="#A6D3FD"/>
<rect x="73.2678" y="94.9043" width="4.37981" height="16.5464" transform="rotate(4.09417 73.2678 94.9043)" fill="#EAF4FF"/>
<rect x="81.2759" y="95.4775" width="4.37981" height="16.5464" transform="rotate(4.09417 81.2759 95.4775)" fill="#EAF4FF"/>
<rect x="89.2841" y="96.0513" width="4.37981" height="16.5464" transform="rotate(4.09417 89.2841 96.0513)" fill="#EAF4FF"/>
<rect x="1.18484" y="103.298" width="97.8677" height="9.61347" transform="rotate(4.09417 1.18484 103.298)" fill="#72B6F9"/>
<path d="M65.5008 117.539C65.3268 119.97 67.156 122.081 69.5864 122.255L93.4009 123.96C95.8313 124.134 97.9425 122.304 98.1165 119.874L65.5008 117.539Z" fill="#72B6F9"/>
<rect x="108.655" y="117.185" width="14.1789" height="2.74418" transform="rotate(-175.906 108.655 117.185)" fill="#72B6F9"/>
<path d="M114.414 114.511C116.024 115.165 115.857 117.497 114.17 117.915C113.415 118.102 112.867 118.753 112.811 119.529C112.687 121.263 110.417 121.825 109.498 120.349C109.088 119.689 108.299 119.369 107.544 119.556C105.857 119.973 104.621 117.988 105.74 116.658C106.241 116.064 106.302 115.214 105.891 114.554C104.972 113.079 106.478 111.29 108.089 111.943C108.809 112.236 109.636 112.031 110.136 111.436C111.256 110.107 113.423 110.986 113.299 112.72C113.243 113.496 113.693 114.219 114.414 114.511Z" fill="#FFB67A"/>
<circle cx="36.8424" cy="77.6943" r="7.32124" fill="#94E0FF"/>
<circle cx="42.4938" cy="71.8818" r="3.54391" fill="#94E0FF"/>
<circle cx="52.7555" cy="79.3959" r="2.27142" fill="#94E0FF"/>
<circle cx="34.7922" cy="76.239" r="3.15695" fill="#D6F3FF"/>
<circle cx="154.764" cy="39.2855" r="5.26014" fill="#94E0FF"/>
<circle cx="158.825" cy="35.109" r="2.54622" fill="#94E0FF"/>
<circle cx="166.197" cy="40.5077" r="1.63196" fill="#94E0FF"/>
<circle cx="153.291" cy="38.2391" r="2.2682" fill="#D6F3FF"/>
<circle cx="96.5849" cy="98.0448" r="5.81577" fill="#94E0FF"/>
<circle cx="92.2241" cy="99.4149" r="4.85093" fill="#94E0FF"/>
<circle cx="100.841" cy="102.775" r="3.76653" fill="#94E0FF"/>
<circle cx="107.077" cy="89.0238" r="2.47009" fill="#94E0FF"/>
<circle cx="108.031" cy="91.5368" r="1.26967" fill="#94E0FF"/>
<circle cx="111.871" cy="86.2858" r="1.26967" fill="#94E0FF"/>
<circle cx="87.0219" cy="96.2026" r="2.22355" fill="#94E0FF"/>
<circle cx="98.1889" cy="96.7875" r="2.22355" fill="#D6F3FF"/>
<circle cx="90.6847" cy="97.5691" r="1.43924" fill="#D6F3FF"/>
<circle cx="106.476" cy="88.499" r="0.94385" fill="#D6F3FF"/>
</svg>
