<svg width="65" height="32" viewBox="0 0 65 32" fill="none" xmlns="http://www.w3.org/2000/svg">
<path d="M14.6122 16.7889C14.6122 17.0662 14.5748 17.2475 14.5002 17.3329C14.4255 17.4182 14.2708 17.4662 14.0362 17.4769L12.1322 17.5249V19.1249C12.1322 19.3169 12.1482 19.4929 12.1802 19.6529C12.2122 19.8129 12.2815 19.9675 12.3882 20.1169L14.8042 23.4449C14.9108 23.5942 14.9642 23.7329 14.9642 23.8609C14.9642 23.9782 14.8895 24.0955 14.7402 24.2129L12.9322 25.5569C12.6762 25.7382 12.4522 25.6902 12.2602 25.4129L10.3722 22.9169L8.45218 25.7969C8.35618 25.9462 8.24951 26.0209 8.13218 26.0209C8.01484 26.0315 7.88684 25.9835 7.74818 25.8769L5.97218 24.5329C5.66284 24.3089 5.61484 24.0369 5.82818 23.7169L8.35618 20.0369C8.45218 19.8875 8.51618 19.7329 8.54818 19.5729C8.59084 19.4129 8.61218 19.2369 8.61218 19.0449V17.6049L6.67618 17.6369C6.45218 17.6475 6.29751 17.6049 6.21218 17.5089C6.13751 17.4129 6.10018 17.2262 6.10018 16.9489V15.0929C6.10018 14.8155 6.13751 14.6342 6.21218 14.5489C6.29751 14.4635 6.45218 14.4155 6.67618 14.4049L8.61218 14.3729V13.5089C8.61218 13.2315 8.66551 13.0342 8.77218 12.9169C8.87884 12.7995 9.04418 12.7409 9.26818 12.7409H11.4762C11.7002 12.7409 11.8655 12.7995 11.9722 12.9169C12.0788 13.0342 12.1322 13.2315 12.1322 13.5089V14.2929L14.0362 14.2449C14.2708 14.2342 14.4255 14.2769 14.5002 14.3729C14.5748 14.4689 14.6122 14.6555 14.6122 14.9329V16.7889ZM15.3802 14.7249C15.3802 14.1915 15.6095 13.9249 16.0682 13.9249H18.2122C18.6708 13.9249 18.9002 14.1915 18.9002 14.7249V24.7409C18.9002 25.2742 18.6708 25.5409 18.2122 25.5409H16.0682C15.6095 25.5409 15.3802 25.2742 15.3802 24.7409V14.7249ZM24.3944 21.8929L21.2104 21.9729C20.8264 21.9942 20.6344 21.8235 20.6344 21.4609V19.2529C20.6344 19.0715 20.6824 18.9435 20.7784 18.8689C20.8744 18.7942 21.0184 18.7515 21.2104 18.7409L24.6664 18.6289L24.8104 17.0449L20.8424 17.1569C20.4584 17.1782 20.2664 17.0075 20.2664 16.6449V14.2769C20.2664 14.0955 20.3144 13.9675 20.4104 13.8929C20.5064 13.8182 20.6504 13.7755 20.8424 13.7649L27.8024 13.6049C28.2824 13.5835 28.5011 13.8395 28.4584 14.3729L27.6424 25.0929C27.6211 25.3702 27.5624 25.5675 27.4664 25.6849C27.3811 25.8022 27.2211 25.8609 26.9864 25.8609H24.7944C24.5704 25.8609 24.3998 25.8022 24.2824 25.6849C24.1651 25.5675 24.1171 25.3702 24.1384 25.0929L24.3944 21.8929ZM29.1464 14.7249C29.1464 14.1915 29.3758 13.9249 29.8344 13.9249H31.9784C32.4371 13.9249 32.6664 14.1915 32.6664 14.7249V18.0689L33.4984 18.0369C33.9038 18.0155 34.1064 18.1969 34.1064 18.5809V20.7249C34.1064 21.0662 33.9038 21.2475 33.4984 21.2689L32.6664 21.3009V24.7409C32.6664 25.2742 32.4371 25.5409 31.9784 25.5409H29.8344C29.3758 25.5409 29.1464 25.2742 29.1464 24.7409V14.7249ZM47.4893 21.1249L46.7213 21.1409V24.7409C46.7213 25.2742 46.492 25.5409 46.0333 25.5409H44.2893C43.8306 25.5409 43.6013 25.2742 43.6013 24.7409V14.7249C43.6013 14.1915 43.8306 13.9249 44.2893 13.9249H46.0333C46.492 13.9249 46.7213 14.1915 46.7213 14.7249V17.9089L47.4893 17.8929V14.5649C47.4893 14.0315 47.7186 13.7649 48.1773 13.7649H49.9213C50.38 13.7649 50.6093 14.0315 50.6093 14.5649V24.5809C50.6093 25.1142 50.38 25.3809 49.9213 25.3809H48.1773C47.7186 25.3809 47.4893 25.1142 47.4893 24.5809V21.1249ZM39.0253 24.9649C38.4493 24.9649 37.9213 24.8795 37.4413 24.7089C36.972 24.5275 36.5613 24.2715 36.2093 23.9409C35.868 23.6102 35.6013 23.2102 35.4093 22.7409C35.228 22.2609 35.1373 21.7275 35.1373 21.1409C35.1373 20.5542 35.228 20.0262 35.4093 19.5569C35.6013 19.0769 35.868 18.6715 36.2093 18.3409C36.5613 18.0102 36.972 17.7542 37.4413 17.5729C37.9213 17.3915 38.4493 17.3009 39.0253 17.3009C39.6013 17.3009 40.124 17.3915 40.5933 17.5729C41.0733 17.7542 41.484 18.0102 41.8253 18.3409C42.1773 18.6715 42.444 19.0769 42.6253 19.5569C42.8173 20.0262 42.9133 20.5542 42.9133 21.1409C42.9133 21.7275 42.8173 22.2609 42.6253 22.7409C42.444 23.2102 42.1773 23.6102 41.8253 23.9409C41.484 24.2715 41.0733 24.5275 40.5933 24.7089C40.124 24.8795 39.6013 24.9649 39.0253 24.9649ZM42.8653 16.1169C42.8653 16.3942 42.8226 16.5809 42.7373 16.6769C42.652 16.7729 42.492 16.8262 42.2573 16.8369L35.6013 16.9969C35.3773 17.0075 35.2173 16.9595 35.1213 16.8529C35.036 16.7462 34.9933 16.5542 34.9933 16.2769V14.8049C34.9933 14.5275 35.036 14.3409 35.1213 14.2449C35.2173 14.1489 35.3773 14.0955 35.6013 14.0849L37.1853 14.0529V13.4609C37.1853 13.1835 37.2386 12.9969 37.3453 12.9009C37.452 12.7942 37.6173 12.7409 37.8413 12.7409H40.0493C40.2733 12.7409 40.4386 12.7942 40.5453 12.9009C40.652 12.9969 40.7053 13.1835 40.7053 13.4609V13.9729L42.2573 13.9249C42.492 13.9142 42.652 13.9622 42.7373 14.0689C42.8226 14.1755 42.8653 14.3675 42.8653 14.6449V16.1169ZM39.0253 22.1009C39.3666 22.1009 39.628 22.0102 39.8093 21.8289C39.9906 21.6475 40.0813 21.4182 40.0813 21.1409C40.0813 20.8529 39.9906 20.6182 39.8093 20.4369C39.628 20.2555 39.3666 20.1649 39.0253 20.1649C38.684 20.1649 38.4226 20.2555 38.2413 20.4369C38.06 20.6182 37.9693 20.8529 37.9693 21.1409C37.9693 21.4182 38.06 21.6475 38.2413 21.8289C38.4226 22.0102 38.684 22.1009 39.0253 22.1009Z" fill="#02B1F1"/>
<path d="M49.7271 1.61914C49.7271 4.04945 51.6664 6.02676 54.0818 6.08792L54.1971 6.08945C51.7284 6.08945 49.7271 8.0909 49.7271 10.5598C49.7271 8.12944 47.7878 6.15212 45.3724 6.09098L45.2571 6.08945C47.7258 6.08945 49.7271 4.088 49.7271 1.61914Z" fill="#FFB67A"/>
<path d="M56.6803 8.06689C56.6803 9.44361 57.7921 10.5596 59.1635 10.5596C57.7922 10.5597 56.6804 11.6757 56.6803 13.0524C56.6802 11.6757 55.5685 10.5596 54.1971 10.5596C55.5685 10.5596 56.6803 9.44363 56.6803 8.06689Z" fill="#FFB67A"/>
</svg>
