<svg width="210" height="200" viewBox="0 0 210 200" fill="none" xmlns="http://www.w3.org/2000/svg">
<g clip-path="url(#clip0_2272_8197)">
<path d="M167.906 193.427C167.906 196.885 165.101 199.69 161.644 199.69H31.6312C28.1737 199.69 25.3687 196.885 25.3687 193.427C25.3687 189.97 28.1737 187.165 31.6312 187.165H161.644C165.101 187.165 167.906 189.97 167.906 193.427Z" fill="#34C163"/>
<path d="M207.499 74.6275C203.974 65.3275 196.871 58.9 187.571 55.645C181.144 53.395 174.161 52.4725 167.374 52.99C151.076 54.235 137.449 65.695 129.446 79.405C129.026 80.1175 128.614 80.845 128.254 81.5875C128.254 81.5875 128.194 85.6375 128.104 91.93C112.436 97.6525 101.254 112.69 101.254 130.337C101.254 152.912 119.554 171.212 142.129 171.212C164.704 171.212 183.004 152.912 183.004 130.337C183.004 123.145 181.144 116.395 177.881 110.522C179.764 110.965 181.729 111.212 183.754 111.212C191.816 111.212 199.001 107.47 203.674 101.627C203.974 101.282 204.281 100.945 204.566 100.585C210.416 93.25 210.739 83.155 207.506 74.635L207.499 74.6275Z" fill="#DB854B"/>
<path d="M126.806 16.4575L128.276 13.54C130.541 9.03998 128.734 3.54998 124.234 1.28498C119.734 -0.980015 114.244 0.827484 111.979 5.32748L110.869 7.53248C106.384 6.09248 101.606 5.30498 96.6413 5.30498C91.6763 5.30498 86.8988 6.09248 82.4138 7.53248L81.3039 5.32748C79.0389 0.827484 73.5488 -0.987515 69.0488 1.28498C64.5488 3.54998 62.7338 9.03998 65.0063 13.54L66.4763 16.4575C56.5163 24.9775 50.1938 37.63 50.1938 51.7675V162.865H78.0863V157.682C78.0863 147.43 86.3963 139.12 96.6488 139.12C106.901 139.12 115.211 147.43 115.211 157.682V162.865H143.111V51.775C143.111 37.6375 136.789 24.985 126.829 16.465L126.806 16.4575Z" fill="#F4A261"/>
<path d="M115.196 170.74H137.194C146.261 170.74 153.619 178.09 153.619 187.165H115.196V170.74Z" fill="#F4A261"/>
<path d="M143.089 162.872H115.196V178.622H143.089V162.872Z" fill="#F4A261"/>
<path d="M125.689 162.872H115.196V187.172H125.689V162.872Z" fill="#B77142"/>
<path d="M78.0712 170.74H56.0737C47.0062 170.74 39.6487 178.09 39.6487 187.165H78.0712V170.74Z" fill="#F4A261"/>
<path d="M78.0712 162.872H50.1787V178.622H78.0712V162.872Z" fill="#F4A261"/>
<path d="M78.8211 162.872H67.5786V187.172H78.8211V162.872Z" fill="#B77142"/>
<path d="M96.6338 95.455C112.676 95.455 125.689 105.955 125.689 128.657V167.297H115.099C113.284 158.942 105.851 152.687 96.9563 152.687C88.0613 152.687 80.6288 158.942 78.8138 167.297H67.5713V128.657C67.5713 112.615 80.5763 95.455 96.6263 95.455H96.6338Z" fill="#B77142"/>
<path d="M126.776 92.8375C126.109 92.8375 125.569 93.3775 125.569 94.045C125.569 107.387 136.384 118.202 149.726 118.202H170.591C171.259 118.202 171.799 117.662 171.799 116.995C171.799 103.652 160.984 92.8375 147.641 92.8375H126.776Z" fill="#FCEFE6"/>
<path d="M170.584 67.4725C171.251 67.4725 171.791 68.0125 171.791 68.68C171.791 82.0225 160.976 92.8375 147.634 92.8375H126.769C126.101 92.8375 125.561 92.2975 125.561 91.63C125.561 78.2875 136.376 67.4725 149.719 67.4725H170.584Z" fill="#FCEFE6"/>
<path d="M66.4913 92.8375C67.1588 92.8375 67.6988 93.3775 67.6988 94.045C67.6988 107.387 56.8838 118.202 43.5413 118.202H22.6762C22.0087 118.202 21.4688 117.662 21.4688 116.995C21.4688 103.652 32.2837 92.8375 45.6262 92.8375H66.4838H66.4913Z" fill="#FCEFE6"/>
<path d="M22.6838 67.4724C22.0163 67.4724 21.4763 68.0124 21.4763 68.6799C21.4763 82.0224 32.2913 92.8374 45.6338 92.8374H66.4913C67.1588 92.8374 67.6988 92.2974 67.6988 91.6299C67.6988 78.2874 56.8838 67.4724 43.5413 67.4724H22.6838Z" fill="#FCEFE6"/>
<path d="M31.3841 65.7712C27.0259 61.4129 19.9598 61.4129 15.6015 65.7712C11.2433 70.1294 11.2433 77.1955 15.6015 81.5538L39.5459 105.498C43.9042 109.856 50.9703 109.856 55.3285 105.498C59.6868 101.14 59.6868 94.0738 55.3285 89.7156L31.3841 65.7712Z" fill="#DB854B"/>
<path d="M136.849 91.975V125.845C136.849 132.01 131.854 137.005 125.689 137.005C119.524 137.005 114.529 132.01 114.529 125.845V91.975C114.529 85.81 119.524 80.815 125.689 80.815C131.854 80.815 136.849 85.81 136.849 91.975Z" fill="#DB854B"/>
<path d="M104.629 51.28C118.931 47.7925 133.406 56.5525 136.961 70.8325C140.516 85.1125 131.809 99.52 117.514 103L44.9287 120.685C43.5637 121.015 42.1912 120.182 41.8462 118.825C35.0662 91.6225 51.6562 64.1875 78.8962 57.55L104.629 51.28Z" fill="#46AF71"/>
<path d="M131.179 26.95H62.0887C44.5054 26.95 30.2512 41.2025 30.2512 58.7838C30.2512 76.3651 44.5054 90.6175 62.0887 90.6175H131.179C148.762 90.6175 163.016 76.3651 163.016 58.7838C163.016 41.2025 148.762 26.95 131.179 26.95Z" fill="#F4A261"/>
<path d="M45.5063 69.0625C45.5063 57.1525 55.1588 47.5 67.0688 47.5H126.199C138.109 47.5 147.761 57.1525 147.761 69.0625C147.761 80.9725 138.109 90.625 126.199 90.625H67.0688C55.1588 90.625 45.5063 80.9725 45.5063 69.0625Z" fill="#FCEADB"/>
<path d="M81.8887 7.21001L92.9287 27.37C94.5412 30.31 98.7562 30.325 100.384 27.3925L111.611 7.21001C101.839 3.92501 91.9312 3.82751 81.8887 7.21001Z" fill="#B77142"/>
<path d="M103.526 65.845V64.9225C103.526 52.0375 113.974 41.59 126.859 41.59C139.744 41.59 150.191 52.0375 150.191 64.9225V65.845C150.191 78.73 139.744 89.1775 126.859 89.1775C113.974 89.1775 103.526 78.73 103.526 65.845Z" fill="#FCEADB"/>
<path d="M40.7888 65.245V64.3225C40.7888 51.4375 51.2363 40.99 64.1213 40.99C77.0063 40.99 87.4538 51.4375 87.4538 64.3225V65.245C87.4538 78.13 77.0063 88.5775 64.1213 88.5775C51.2363 88.5775 40.7888 78.13 40.7888 65.245Z" fill="#FCEADB"/>
<path d="M92.1935 46.0375C92.1935 43.585 94.181 41.5975 96.6335 41.5975C99.086 41.5975 101.074 43.585 101.074 46.0375V47.5225H92.186V46.0375H92.1935Z" fill="#3D4650"/>
<path d="M89.8536 37.4575C89.8536 39.7375 88.0011 41.59 85.7211 41.59C83.4411 41.59 81.5886 39.7375 81.5886 37.4575C81.5886 35.1775 83.4411 33.325 85.7211 33.325C88.0011 33.325 89.8536 35.1775 89.8536 37.4575Z" fill="#3D4650"/>
<path d="M111.784 37.4575C111.784 39.7375 109.931 41.59 107.651 41.59C105.371 41.59 103.519 39.7375 103.519 37.4575C103.519 35.1775 105.364 33.325 107.651 33.325C109.939 33.325 111.784 35.1775 111.784 37.4575Z" fill="#3D4650"/>
<path d="M111.746 48.0326C111.746 53.9726 106.459 58.7876 99.9336 58.7876H92.0586C85.5336 58.7876 80.2461 53.9726 80.2461 48.0326C80.2461 47.7326 80.5086 47.4926 80.8386 47.4926H111.154C111.476 47.4926 111.746 47.7326 111.746 48.0326Z" fill="#F05F83"/>
<path d="M86.4937 47.515H97.8637V60.175C97.8637 61.3975 96.8737 62.3875 95.6512 62.3875H88.7137C87.4912 62.3875 86.5012 61.3975 86.5012 60.175V47.515H86.4937Z" fill="#EBF9FF"/>
<path d="M79.9315 55.3111L78.5776 74.2452L109.967 76.4898L111.321 57.5556L79.9315 55.3111Z" fill="#97DDAE"/>
<path d="M83.9318 55.5987L82.5779 74.5328L87.5901 74.8912L88.944 55.9571L83.9318 55.5987Z" fill="#EEFFF4"/>
<path d="M93.1205 56.2542L91.7666 75.1884L96.7788 75.5468L98.1327 56.6126L93.1205 56.2542Z" fill="#EEFFF4"/>
<path d="M102.317 56.9097L100.963 75.8438L105.975 76.2022L107.329 57.2681L102.317 56.9097Z" fill="#EEFFF4"/>
<path d="M124.541 81.16L124.766 78.0175L112.954 77.17L113.239 73.24L1.24111 65.23L0.453613 76.2325L75.0336 81.5725C74.8311 84.3625 76.9311 86.785 79.7211 86.98L107.044 88.9375C109.834 89.14 112.256 87.04 112.451 84.25L112.736 80.32L124.549 81.1675L124.541 81.16Z" fill="#34C163"/>
<path d="M134.884 79.6075C135.559 79.8775 135.484 80.8525 134.779 81.0325L129.949 82.2325C129.634 82.3075 129.401 82.585 129.379 82.9075L129.026 87.8725C128.974 88.6 128.029 88.8325 127.639 88.2175L125.006 83.9875C124.834 83.71 124.504 83.575 124.189 83.6575L119.359 84.85C118.654 85.0225 118.136 84.1975 118.601 83.6425L121.811 79.8325C122.021 79.585 122.044 79.2325 121.871 78.955L119.239 74.725C118.856 74.11 119.486 73.36 120.154 73.6375L124.766 75.5125C125.066 75.6325 125.411 75.55 125.621 75.3025L128.824 71.4925C129.289 70.9375 130.196 71.305 130.144 72.025L129.791 76.99C129.769 77.3125 129.956 77.6125 130.256 77.74L134.869 79.615L134.884 79.6075Z" fill="#F78DC3"/>
<path d="M95.7266 1.12769C96.2216 0.340222 97.174 0.340198 97.6689 1.12769L104.388 11.8718L110.479 3.42261C110.726 3.07761 111.086 2.91284 111.446 2.91284V18.8347H106.609C106.501 18.8735 106.386 18.8953 106.264 18.8953H87.1387C87.0158 18.8953 86.8996 18.8735 86.791 18.8347H81.9414V2.91284C82.3013 2.91294 82.6608 3.07777 82.9082 3.42261L89.0059 11.8826L95.7266 1.12769ZM81.9414 18.8425L81.9336 18.8347H81.9414V18.8425Z" fill="#FEE500"/>
<path d="M161.914 48.16C165.248 48.16 167.951 45.4569 167.951 42.1225C167.951 38.7881 165.248 36.085 161.914 36.085C158.579 36.085 155.876 38.7881 155.876 42.1225C155.876 45.4569 158.579 48.16 161.914 48.16Z" fill="#94E0FF"/>
<path d="M166.571 40.255C168.187 40.255 169.496 38.9454 169.496 37.33C169.496 35.7146 168.187 34.405 166.571 34.405C164.956 34.405 163.646 35.7146 163.646 37.33C163.646 38.9454 164.956 40.255 166.571 40.255Z" fill="#94E0FF"/>
<path d="M175.031 45.4C176.067 45.4 176.906 44.5605 176.906 43.525C176.906 42.4895 176.067 41.65 175.031 41.65C173.996 41.65 173.156 42.4895 173.156 43.525C173.156 44.5605 173.996 45.4 175.031 45.4Z" fill="#94E0FF"/>
<path d="M160.226 43.525C161.664 43.525 162.829 42.3598 162.829 40.9225C162.829 39.4852 161.664 38.32 160.226 38.32C158.789 38.32 157.624 39.4852 157.624 40.9225C157.624 42.3598 158.789 43.525 160.226 43.525Z" fill="#D6F3FF"/>
<path d="M190.835 80.4325C192.401 80.4325 193.67 79.1632 193.67 77.5975C193.67 76.0318 192.401 74.7625 190.835 74.7625C189.269 74.7625 188 76.0318 188 77.5975C188 79.1632 189.269 80.4325 190.835 80.4325Z" fill="#94E0FF"/>
<path d="M191.93 81.9325C192.734 81.9325 193.385 81.2811 193.385 80.4775C193.385 79.6739 192.734 79.0225 191.93 79.0225C191.127 79.0225 190.475 79.6739 190.475 80.4775C190.475 81.2811 191.127 81.9325 191.93 81.9325Z" fill="#94E0FF"/>
<path d="M196.34 75.91C197.144 75.91 197.795 75.2586 197.795 74.455C197.795 73.6514 197.144 73 196.34 73C195.536 73 194.885 73.6514 194.885 74.455C194.885 75.2586 195.536 75.91 196.34 75.91Z" fill="#94E0FF"/>
<path d="M190.145 78.07C190.741 78.07 191.225 77.5865 191.225 76.99C191.225 76.3936 190.741 75.91 190.145 75.91C189.548 75.91 189.065 76.3936 189.065 76.99C189.065 77.5865 189.548 78.07 190.145 78.07Z" fill="#D6F3FF"/>
<path d="M125.675 127.35C129.362 127.35 132.35 124.361 132.35 120.675C132.35 116.988 129.362 114 125.675 114C121.989 114 119 116.988 119 120.675C119 124.361 121.989 127.35 125.675 127.35Z" fill="#94E0FF"/>
<path d="M130.557 130.418C132.943 130.418 134.877 128.483 134.877 126.098C134.877 123.712 132.943 121.778 130.557 121.778C128.171 121.778 126.237 123.712 126.237 126.098C126.237 128.483 128.171 130.418 130.557 130.418Z" fill="#94E0FF"/>
<path d="M127.52 121.778C128.928 121.778 130.07 120.636 130.07 119.228C130.07 117.819 128.928 116.678 127.52 116.678C126.111 116.678 124.97 117.819 124.97 119.228C124.97 120.636 126.111 121.778 127.52 121.778Z" fill="#D6F3FF"/>
<path d="M62.5125 118.805C65.586 118.805 68.0775 116.313 68.0775 113.24C68.0775 110.167 65.586 107.675 62.5125 107.675C59.439 107.675 56.9475 110.167 56.9475 113.24C56.9475 116.313 59.439 118.805 62.5125 118.805Z" fill="#94E0FF"/>
<path d="M56.55 112.1C57.9583 112.1 59.1 110.958 59.1 109.55C59.1 108.142 57.9583 107 56.55 107C55.1417 107 54 108.142 54 109.55C54 110.958 55.1417 112.1 56.55 112.1Z" fill="#94E0FF"/>
<path d="M60.7501 112.767C61.6614 112.767 62.4001 112.029 62.4001 111.117C62.4001 110.206 61.6614 109.467 60.7501 109.467C59.8388 109.467 59.1001 110.206 59.1001 111.117C59.1001 112.029 59.8388 112.767 60.7501 112.767Z" fill="#D6F3FF"/>
<path d="M23.4 45.14C28.0392 45.14 31.8 41.3792 31.8 36.74C31.8 32.1008 28.0392 28.34 23.4 28.34C18.7608 28.34 15 32.1008 15 36.74C15 41.3792 18.7608 45.14 23.4 45.14Z" fill="#94E0FF"/>
<path d="M29.8875 34.13C32.1325 34.13 33.9525 32.31 33.9525 30.065C33.9525 27.82 32.1325 26 29.8875 26C27.6425 26 25.8225 27.82 25.8225 30.065C25.8225 32.31 27.6425 34.13 29.8875 34.13Z" fill="#94E0FF"/>
<path d="M41.655 41.2925C43.0923 41.2925 44.2575 40.1273 44.2575 38.69C44.2575 37.2527 43.0923 36.0875 41.655 36.0875C40.2177 36.0875 39.0525 37.2527 39.0525 38.69C39.0525 40.1273 40.2177 41.2925 41.655 41.2925Z" fill="#94E0FF"/>
<path d="M21.0449 38.69C23.0455 38.69 24.6674 37.0682 24.6674 35.0675C24.6674 33.0669 23.0455 31.445 21.0449 31.445C19.0442 31.445 17.4224 33.0669 17.4224 35.0675C17.4224 37.0682 19.0442 38.69 21.0449 38.69Z" fill="#D6F3FF"/>
</g>
<defs>
<clipPath id="clip0_2272_8197">
<rect width="209.092" height="199.38" fill="white" transform="translate(0.453613 0.310028)"/>
</clipPath>
</defs>
</svg>
