<svg width="400" height="401" viewBox="0 0 400 401" fill="none" xmlns="http://www.w3.org/2000/svg">
<rect width="400" height="400" transform="translate(0 0.294434)" fill="white"/>
<path d="M245.696 215.062C244.684 215.062 243.866 215.88 243.866 216.892C243.866 237.119 260.261 253.515 280.488 253.515H312.12C313.132 253.515 313.95 252.696 313.95 251.684C313.95 231.457 297.555 215.062 277.328 215.062H245.696Z" fill="#FCF9F5"/>
<path d="M312.109 176.608C313.121 176.608 313.939 177.426 313.939 178.438C313.939 198.666 297.544 215.061 277.317 215.061H245.685C244.673 215.061 243.854 214.242 243.854 213.231C243.854 193.003 260.25 176.608 280.477 176.608H312.109Z" fill="#FCF9F5"/>
<path d="M154.304 215.062C155.316 215.062 156.135 215.88 156.135 216.892C156.135 237.119 139.739 253.515 119.512 253.515H87.8802C86.8683 253.515 86.0496 252.696 86.0496 251.684C86.0496 231.457 102.445 215.062 122.673 215.062H154.293H154.304Z" fill="#FCF9F5"/>
<path d="M87.8916 176.609C86.8797 176.609 86.061 177.427 86.061 178.439C86.061 198.667 102.457 215.062 122.684 215.062H154.304C155.316 215.062 156.135 214.243 156.135 213.232C156.135 193.004 139.739 176.609 119.512 176.609H87.8916Z" fill="#FCF9F5"/>
<path d="M282.923 319.611C293.753 316.267 299.821 304.777 296.477 293.947C293.133 283.117 281.642 277.049 270.812 280.393C259.982 283.737 253.914 295.227 257.258 306.057C260.602 316.887 272.093 322.955 282.923 319.611Z" fill="#C48F5F"/>
<path d="M199.864 78.9617C238.761 78.9617 270.301 110.491 270.301 149.399V339.063H228.619V312.912C228.619 297.369 215.407 284.93 199.864 284.93C184.321 284.93 171.723 297.528 171.723 313.071V321.485H129.438V149.399C129.438 110.502 160.967 78.9617 199.864 78.9617Z" fill="#FFDA9E"/>
<path d="M229.278 333.161H262.626C276.372 333.161 287.526 344.304 287.526 358.062H229.278V333.161Z" fill="#FFDA9E"/>
<path d="M244.047 321.235L228.618 320.86V358.063H244.047V321.235Z" fill="#C48F5F"/>
<path d="M171.859 333.161H138.511C124.764 333.161 113.61 344.304 113.61 358.062H171.859V333.161Z" fill="#FFDA9E"/>
<path d="M171.848 321.234H129.563V345.111H171.848V321.234Z" fill="#FFDA9E"/>
<path d="M172.996 321.234H155.952V358.073H172.996V321.234Z" fill="#C48F5F"/>
<path d="M200 215.118C224.32 215.118 244.047 228.762 244.047 269.365V327.943L228.618 327.682C225.867 315.015 213.974 305.794 200.489 305.794C187.004 305.794 175.736 315.277 172.985 327.943H155.941V269.365C155.941 245.044 175.657 215.118 199.988 215.118H200Z" fill="#C48F5F"/>
<path d="M260.967 213.753V265.1C260.967 274.446 253.394 282.019 244.048 282.019C234.702 282.019 227.129 274.446 227.129 265.1V213.753C227.129 204.407 234.702 196.834 244.048 196.834C253.394 196.834 260.967 204.407 260.967 213.753Z" fill="#D1A371"/>
<path d="M171.223 213.753V265.1C171.223 274.446 163.65 282.019 154.304 282.019C144.958 282.019 137.385 274.446 137.385 265.1V213.753C137.385 204.407 144.958 196.834 154.304 196.834C163.65 196.834 171.223 204.407 171.223 213.753Z" fill="#D1A371"/>
<path d="M212.12 152.06C233.803 146.773 255.747 160.053 261.137 181.702C266.526 203.35 253.325 225.192 231.654 230.468L121.615 257.278C119.545 257.778 117.465 256.516 116.942 254.458C106.663 213.219 131.814 171.628 173.11 161.565L212.12 152.06Z" fill="#9A6CFF"/>
<path d="M106.641 174.459C106.641 152.821 124.184 135.289 145.81 135.289H253.917C275.554 135.289 293.086 152.833 293.086 174.459C293.086 196.096 275.542 213.628 253.917 213.628H145.81C124.173 213.628 106.641 196.084 106.641 174.459Z" fill="#FFDA9E"/>
<path d="M135.703 177.279C135.703 157.336 151.871 141.168 171.814 141.168H228.209C248.152 141.168 264.321 157.336 264.321 177.279C264.321 197.222 248.152 213.39 228.209 213.39H171.814C151.871 213.39 135.703 197.222 135.703 177.279Z" fill="#FFEED3"/>
<path d="M222.388 73.9569C221.842 73.9569 221.296 74.2184 220.921 74.7301L211.689 87.5441L201.501 71.2509C200.751 70.057 199.307 70.057 198.556 71.2509L188.357 87.5669L179.114 74.7301C178.738 74.2071 178.193 73.9569 177.635 73.9569V98.1069H185.06C185.208 98.1524 185.367 98.1865 185.526 98.1865H214.52C214.69 98.1865 214.838 98.1524 214.986 98.1069H222.388V73.9569Z" fill="#FFB67A"/>
<path d="M239.386 111.662C227.891 104.544 224.332 89.445 231.45 77.9499C238.567 66.4548 253.667 62.896 265.162 70.0136L276.18 76.8357C293.769 87.7282 299.204 110.809 288.311 128.399L283.468 136.221C282.786 137.313 281.353 137.654 280.261 136.972L239.375 111.662H239.386Z" fill="#C48F5F"/>
<path d="M160.716 112.765C172.212 105.647 175.77 90.5481 168.653 79.0529C161.535 67.5578 146.436 63.999 134.941 71.1167L123.923 77.9387C106.334 88.8312 100.91 111.912 111.791 129.502L116.635 137.324C117.317 138.416 118.75 138.757 119.841 138.075L160.728 112.765H160.716Z" fill="#C48F5F"/>
<path d="M214.861 148.739C214.861 156.562 208.516 162.906 200.694 162.906H199.341C191.518 162.906 185.174 156.562 185.174 148.739C185.174 148.353 185.492 148.034 185.879 148.034H214.167C214.554 148.034 214.872 148.353 214.872 148.739H214.861Z" fill="#F05F83"/>
<path d="M193.258 145.783C193.258 142.065 196.271 139.052 199.989 139.052C203.707 139.052 206.72 142.065 206.72 145.783V148.035H193.246V145.783H193.258Z" fill="#2D3033"/>
<path d="M191.086 148.034H208.948V169.705C208.948 174.64 204.946 178.642 200.011 178.642C195.077 178.642 191.086 174.64 191.086 169.705V148.034Z" fill="#FF7F9C"/>
<path d="M198.261 148.034H201.717V159.381C201.717 160.655 200.944 161.69 199.989 161.69C199.034 161.69 198.261 160.655 198.261 159.381V148.034Z" fill="#F05F83"/>
<path d="M189.721 132.787C189.721 136.243 186.913 139.052 183.456 139.052C180 139.052 177.191 136.243 177.191 132.787C177.191 129.33 180 126.522 183.456 126.522C186.913 126.522 189.721 129.33 189.721 132.787Z" fill="#2D3033"/>
<path d="M222.967 132.787C222.967 136.243 220.159 139.052 216.703 139.052C213.246 139.052 210.438 136.243 210.438 132.787C210.438 129.33 213.235 126.522 216.703 126.522C220.17 126.522 222.967 129.33 222.967 132.787Z" fill="#2D3033"/>
<path d="M312.213 367.207C312.213 372.252 307.797 376.342 302.35 376.342H97.6503C92.2029 376.342 87.7869 372.252 87.7869 367.207C87.7869 362.162 92.2029 358.073 97.6503 358.073H302.35C307.797 358.073 312.213 362.162 312.213 367.207Z" fill="#9A6CFF"/>
</svg>
