<svg width="400" height="401" viewBox="0 0 400 401" fill="none" xmlns="http://www.w3.org/2000/svg">
<rect width="400" height="400" transform="translate(0 0.294434)" fill="white"/>
<path d="M352.87 189.942C347.083 174.673 335.422 164.121 320.154 158.777C309.601 155.083 298.137 153.568 286.994 154.418C260.237 156.462 237.863 175.276 224.725 197.785C224.035 198.955 223.358 200.15 222.767 201.369C222.767 201.369 222.668 208.018 222.521 218.349C196.798 227.744 178.439 252.432 178.439 281.406C178.439 318.469 208.483 348.513 245.547 348.513C282.61 348.513 312.655 318.469 312.655 281.406C312.655 269.597 309.601 258.515 304.245 248.874C307.335 249.6 310.561 250.006 313.886 250.006C327.123 250.006 338.919 243.862 346.59 234.27C347.083 233.703 347.588 233.149 348.056 232.558C357.66 220.516 358.19 203.942 352.882 189.954L352.87 189.942Z" fill="#DB854B"/>
<path d="M243.198 223.374C242.241 223.374 241.467 224.148 241.467 225.104C241.467 244.225 256.966 259.724 276.087 259.724H305.989C306.946 259.724 307.72 258.951 307.72 257.994C307.72 238.873 292.221 223.374 273.099 223.374H243.198Z" fill="#FCEFE6"/>
<path d="M305.978 187.024C306.934 187.024 307.708 187.798 307.708 188.755C307.708 207.876 292.209 223.375 273.088 223.375H243.186C242.23 223.375 241.456 222.601 241.456 221.645C241.456 202.523 256.955 187.024 276.076 187.024H305.978Z" fill="#FCEFE6"/>
<path d="M198.6 75.5724C199.316 74.4329 200.694 74.4329 201.411 75.5724L215.248 97.7009C216.159 99.1552 215.324 101.282 213.848 101.282H186.174C184.687 101.282 183.862 99.1552 184.774 97.7009L198.6 75.5724Z" fill="#D27FFF"/>
<path d="M221.347 101.195H207.51C206.023 101.195 205.198 99.3502 206.11 98.0913L219.947 78.893C220.305 78.3938 220.826 78.155 221.347 78.155V101.206V101.195Z" fill="#D27FFF"/>
<path d="M178.642 101.195H192.479C193.966 101.195 194.801 99.3502 193.89 98.0913L180.053 78.893C179.695 78.3938 179.174 78.155 178.653 78.155V101.206L178.642 101.195Z" fill="#D27FFF"/>
<path d="M243.24 113.914L245.347 109.733C248.593 103.284 246.002 95.4159 239.553 92.1699C233.105 88.924 225.237 91.5143 221.991 97.9633L220.4 101.123C213.973 99.0596 207.126 97.931 200.011 97.931C192.895 97.931 186.049 99.0596 179.621 101.123L178.03 97.9633C174.784 91.5143 166.917 88.9132 160.468 92.1699C154.019 95.4159 151.418 103.284 154.674 109.733L156.781 113.914C142.507 126.124 133.447 144.256 133.447 164.517V323.731H173.419V316.304C173.419 301.611 185.328 289.702 200.021 289.702C214.714 289.702 226.623 301.611 226.623 316.304V323.731H266.607V164.527C266.607 144.267 257.546 126.134 243.272 113.924L243.24 113.914Z" fill="#F4A261"/>
<path d="M226.602 335.016H258.126C271.121 335.016 281.665 345.549 281.665 358.555H226.602V335.016Z" fill="#F4A261"/>
<path d="M266.574 323.742H226.602V346.313H266.574V323.742Z" fill="#F4A261"/>
<path d="M241.639 323.742H226.602V358.566H241.639V323.742Z" fill="#B77142"/>
<path d="M173.398 335.017H141.873C128.878 335.017 118.334 345.55 118.334 358.555H173.398V335.017Z" fill="#F4A261"/>
<path d="M173.398 323.742H133.425V346.313H173.398V323.742Z" fill="#F4A261"/>
<path d="M174.473 323.742H158.362V358.566H174.473V323.742Z" fill="#B77142"/>
<path d="M200 227.125C222.991 227.125 241.639 242.173 241.639 274.708V330.083H226.462C223.861 318.11 213.21 309.146 200.462 309.146C187.715 309.146 177.063 318.11 174.462 330.083H158.35V274.708C158.35 251.718 176.988 227.125 199.989 227.125H200Z" fill="#B77142"/>
<path d="M156.802 223.374C157.759 223.374 158.533 224.148 158.533 225.104C158.533 244.225 143.034 259.724 123.912 259.724H94.0107C93.0541 259.724 92.2803 258.951 92.2803 257.994C92.2803 238.873 107.779 223.374 126.9 223.374H156.791H156.802Z" fill="#FCEFE6"/>
<path d="M94.0211 187.024C93.0645 187.024 92.2906 187.798 92.2906 188.755C92.2906 207.876 107.79 223.375 126.911 223.375H156.802C157.758 223.375 158.532 222.601 158.532 221.645C158.532 202.523 143.033 187.024 123.912 187.024H94.0211Z" fill="#FCEFE6"/>
<path d="M257.632 222.139V270.678C257.632 279.513 250.474 286.671 241.639 286.671C232.803 286.671 225.645 279.513 225.645 270.678V222.139C225.645 213.304 232.803 206.145 241.639 206.145C250.474 206.145 257.632 213.304 257.632 222.139Z" fill="#DB854B"/>
<path d="M173.688 222.139V270.678C173.688 279.513 166.53 286.671 157.695 286.671C148.86 286.671 141.701 279.513 141.701 270.678V222.139C141.701 213.304 148.86 206.145 157.695 206.145C166.53 206.145 173.688 213.304 173.688 222.139Z" fill="#DB854B"/>
<path d="M211.457 163.818C231.954 158.82 252.698 171.374 257.793 191.838C262.888 212.303 250.409 232.951 229.923 237.938L125.901 263.282C123.945 263.755 121.978 262.562 121.483 260.617C111.767 221.633 135.542 182.315 174.58 172.803L211.457 163.818Z" fill="#46AF71"/>
<path d="M249.506 128.951H150.493C125.294 128.951 104.867 149.376 104.867 174.572C104.867 199.768 125.294 220.193 150.493 220.193H249.506C274.705 220.193 295.133 199.768 295.133 174.572C295.133 149.376 274.705 128.951 249.506 128.951Z" fill="#F4A261"/>
<path d="M126.729 189.303C126.729 172.235 140.562 158.402 157.63 158.402H242.37C259.438 158.402 273.271 172.235 273.271 189.303C273.271 206.371 259.438 220.204 242.37 220.204H157.63C140.562 220.204 126.729 206.371 126.729 189.303Z" fill="#FFD0AE"/>
<path d="M178.869 100.661L194.69 129.553C197.001 133.766 203.042 133.787 205.374 129.585L221.464 100.661C207.459 95.9535 193.261 95.8138 178.869 100.661Z" fill="#B77142"/>
<path d="M209.877 184.692V183.37C209.877 164.904 224.85 149.932 243.315 149.932C261.781 149.932 276.753 164.904 276.753 183.37V184.692C276.753 203.157 261.781 218.13 243.315 218.13C224.85 218.13 209.877 203.157 209.877 184.692Z" fill="#FFD0AE"/>
<path d="M119.969 183.833V182.511C119.969 164.045 134.941 149.073 153.407 149.073C171.872 149.073 186.844 164.045 186.844 182.511V183.833C186.844 202.298 171.872 217.271 153.407 217.271C134.941 217.271 119.969 202.298 119.969 183.833Z" fill="#FFD0AE"/>
<path d="M193.637 156.305C193.637 152.79 196.485 149.942 200 149.942C203.514 149.942 206.363 152.79 206.363 156.305V158.433H193.626V156.305H193.637Z" fill="#3D4650"/>
<path d="M190.283 144.008C190.283 147.276 187.628 149.931 184.361 149.931C181.094 149.931 178.439 147.276 178.439 144.008C178.439 140.741 181.094 138.086 184.361 138.086C187.628 138.086 190.283 140.741 190.283 144.008Z" fill="#3D4650"/>
<path d="M221.711 144.008C221.711 147.276 219.057 149.931 215.789 149.931C212.522 149.931 209.867 147.276 209.867 144.008C209.867 140.741 212.511 138.086 215.789 138.086C219.067 138.086 221.711 140.741 221.711 144.008Z" fill="#3D4650"/>
<path d="M221.657 159.164C221.657 167.677 214.08 174.577 204.729 174.577H193.443C184.092 174.577 176.515 167.677 176.515 159.164C176.515 158.734 176.891 158.39 177.364 158.39H220.808C221.27 158.39 221.657 158.734 221.657 159.164Z" fill="#F05F83"/>
<path d="M185.468 158.422H201.763V176.565C201.763 178.317 200.344 179.736 198.592 179.736H188.65C186.898 179.736 185.479 178.317 185.479 176.565V158.422H185.468Z" fill="#EBF9FF"/>
<path d="M296.716 367.055C296.716 371.744 292.91 375.544 288.214 375.544H111.786C107.09 375.544 103.284 371.744 103.284 367.055C103.284 362.367 107.09 358.566 111.786 358.566H288.214C292.91 358.566 296.716 362.367 296.716 367.055Z" fill="#46AF71"/>
</svg>
