<svg width="225" height="296" viewBox="0 0 225 296" fill="none" xmlns="http://www.w3.org/2000/svg">
<rect width="71.7905" height="43.3059" transform="matrix(-0.535893 -0.844286 -0.844286 0.535893 129.052 107.431)" fill="#A6D3FD"/>
<rect width="11.4631" height="43.3059" transform="matrix(-0.535893 -0.844286 -0.844286 0.535893 124.15 99.7075)" fill="#EAF4FF"/>
<rect width="11.4631" height="43.3059" transform="matrix(-0.535893 -0.844286 -0.844286 0.535893 112.888 81.9641)" fill="#EAF4FF"/>
<rect width="11.4631" height="43.3059" transform="matrix(-0.535893 -0.844286 -0.844286 0.535893 101.63 64.2266)" fill="#EAF4FF"/>
<path d="M194.283 276.217L57.0174 59.9586L49.4262 64.777L34.9498 41.9697L28.8864 45.8183L43.3629 68.6255L35.7742 73.4423L173.04 289.701L194.283 276.217ZM65.6986 142.138C69.116 147.522 76.2512 149.117 81.6353 145.699L35.7731 73.4442C30.3891 76.8616 28.7944 83.996 32.2116 89.3801L65.6986 142.138Z" fill="#72B6F9"/>
<path d="M23.8969 25.9258C21.6512 24.0683 18.3404 26.1697 19.0654 28.9926L20.6625 35.2108C20.9867 36.4732 20.4612 37.8009 19.3607 38.4993L13.9404 41.9398C11.4797 43.5017 12.4552 47.2998 15.364 47.4826L21.7714 47.8852C23.0722 47.9669 24.1725 48.877 24.4967 50.1394L26.0938 56.3577C26.8188 59.1805 30.7325 59.4264 31.8052 56.7165L34.1681 50.7471C34.6478 49.5352 35.8534 48.77 37.1542 48.8518L43.5616 49.2544C46.4704 49.4372 47.9137 45.791 45.6679 43.9334L40.7208 39.8415C39.7164 39.0108 39.3612 37.6278 39.841 36.4159L42.2039 30.4465C43.2766 27.7366 40.2549 25.2372 37.7942 26.7991L32.3738 30.2396C31.2734 30.938 29.8484 30.8485 28.844 30.0178L23.8969 25.9258Z" fill="#FFB67A"/>
</svg>
