<svg width="400" height="400" viewBox="0 0 400 400" fill="none" xmlns="http://www.w3.org/2000/svg">
<rect width="400" height="400" fill="white"/>
<path d="M299.481 368.264C299.481 373.092 295.566 377.006 290.737 377.006H109.265C104.436 377.006 100.521 373.092 100.521 368.264C100.521 363.436 104.436 359.522 109.265 359.522H290.737C295.566 359.522 299.481 363.436 299.481 368.264Z" fill="#72B6F9"/>
<path d="M242.071 229.005C241.14 229.005 240.385 229.76 240.385 230.691C240.385 249.312 255.48 264.408 274.101 264.408H303.219C304.15 264.408 304.905 263.653 304.905 262.722C304.905 244.101 289.809 229.005 271.188 229.005H242.071Z" fill="#FFF5F8"/>
<path d="M303.218 193.604C304.149 193.604 304.904 194.359 304.904 195.29C304.904 213.911 289.809 229.006 271.188 229.006H242.07C241.139 229.006 240.384 228.251 240.384 227.32C240.384 208.699 255.479 193.604 274.101 193.604H303.218Z" fill="#FFF5F8"/>
<path d="M157.932 229.005C158.864 229.005 159.618 229.76 159.618 230.691C159.618 249.312 144.523 264.408 125.902 264.408H96.7842C95.8531 264.408 95.0984 263.653 95.0984 262.722C95.0984 244.101 110.194 229.005 128.815 229.005H157.932Z" fill="#FFF5F8"/>
<path d="M96.7813 193.605C95.8502 193.605 95.0955 194.36 95.0955 195.291C95.0955 213.912 110.191 229.007 128.812 229.007H157.93C158.861 229.007 159.615 228.252 159.615 227.321C159.615 208.7 144.52 193.605 125.899 193.605H96.7813Z" fill="#FFF5F8"/>
<path d="M205.309 22.9941C229.257 22.9941 248.672 42.4086 248.672 66.3574V121.55C248.672 134.123 238.479 144.316 225.906 144.316C213.333 144.316 203.14 134.123 203.14 121.55V25.1623C203.14 23.9649 204.111 22.9941 205.309 22.9941Z" fill="#FFA1B8"/>
<path d="M204.565 63.1924C220.328 63.1924 233.105 75.9702 233.105 91.7325V129.332C233.105 137.607 226.397 144.315 218.122 144.315C209.847 144.315 203.138 137.607 203.138 129.332V64.6194C203.138 63.8313 203.777 63.1924 204.565 63.1924Z" fill="#F05F83"/>
<path d="M153.502 22.9941C177.451 22.9941 196.865 42.4086 196.865 66.3574V107.453C196.865 120.026 186.673 130.218 174.1 130.218C161.526 130.218 151.334 120.026 151.334 107.453V25.1623C151.334 23.9649 152.305 22.9941 153.502 22.9941Z" fill="#FFA1B8"/>
<path d="M151.329 63.1924C167.88 63.1924 181.297 76.6091 181.297 93.1595V129.332C181.297 137.607 174.588 144.315 166.313 144.315C158.038 144.315 151.329 137.607 151.329 129.332V63.1924Z" fill="#F05F83"/>
<path d="M200.004 106.84C235.818 106.84 264.85 135.874 264.85 171.688V326.755H225.913V319.52C225.913 305.21 214.313 293.61 200.004 293.61C185.694 293.61 174.094 305.21 174.094 319.52V326.755H135.157V171.688C135.157 135.874 164.19 106.84 200.004 106.84Z" fill="#FFA1B8"/>
<ellipse cx="18.8939" cy="18.8902" rx="18.8939" ry="18.8902" transform="matrix(0.95549 -0.295023 0.295025 0.95549 247.3 290.656)" fill="#FFA1B8"/>
<path d="M174.091 337.745H143.39C130.729 337.745 120.466 348.008 120.466 360.669H174.091V337.745Z" fill="#FFA1B8"/>
<path d="M225.911 337.745H256.613C269.273 337.745 279.537 348.008 279.537 360.669H225.911V337.745Z" fill="#FFA1B8"/>
<rect width="38.9362" height="21.9805" transform="matrix(-1 0 0 1 174.091 326.755)" fill="#FFA1B8"/>
<rect width="38.9362" height="21.9805" transform="matrix(-1 0 0 1 264.845 326.755)" fill="#FFA1B8"/>
<path d="M200.003 238.451C222.399 238.451 240.555 256.607 240.555 279.003V332.935H225.775C223.245 321.277 212.872 312.545 200.456 312.545C188.041 312.545 177.666 321.277 175.137 332.935H159.451V279.003C159.452 256.607 177.607 238.451 200.003 238.451Z" fill="#F05F83"/>
<rect x="175.032" y="212.217" width="78.4376" height="31.1627" rx="15.5814" transform="rotate(90 175.032 212.217)" fill="#FF7F9D"/>
<rect x="256.132" y="212.217" width="78.4376" height="31.1627" rx="15.5814" transform="rotate(90 256.132 212.217)" fill="#FF7F9D"/>
<path d="M179.397 121.347C179.397 116.206 183.565 112.038 188.706 112.038H211.297C216.438 112.038 220.606 116.206 220.606 121.347H179.397Z" fill="#7FD8FF"/>
<path d="M198.659 96.6261C199.347 95.5257 200.683 95.5257 201.371 96.6261L214.72 117.972C215.598 119.377 214.794 121.426 213.363 121.426H186.667C185.236 121.426 184.432 119.377 185.311 117.972L198.659 96.6261Z" fill="#7FD8FF"/>
<path d="M220.608 121.348H207.263C205.832 121.348 205.028 119.571 205.906 118.351L219.255 99.8286C219.598 99.3525 220.103 99.1149 220.608 99.1138V121.348Z" fill="#7FD8FF"/>
<path d="M179.398 121.348H192.744C194.174 121.348 194.978 119.57 194.1 118.351L180.752 99.8296C180.408 99.3531 179.903 99.1147 179.398 99.1138V121.348Z" fill="#7FD8FF"/>
<rect width="15.6929" height="33.9141" transform="matrix(-1 0 0 1 175.143 326.755)" fill="#F05F83"/>
<rect width="14.6428" height="33.9133" transform="matrix(-1 0 0 1 240.55 326.755)" fill="#F05F83"/>
<path d="M211.16 171.004C231.119 166.141 251.325 178.358 256.291 198.293C261.257 218.227 249.102 238.33 229.143 243.193L127.83 267.879C125.929 268.342 124.004 267.179 123.531 265.28C114.073 227.31 137.225 189.019 175.243 179.756L211.16 171.004Z" fill="#4C98F5"/>
<rect x="114.172" y="227.46" width="72.1327" height="171.665" rx="36.0663" transform="rotate(-90 114.172 227.46)" fill="#FFA1B8"/>
<path d="M221.153 168.137C221.153 177.78 213.335 185.598 203.692 185.598H196.323C186.68 185.598 178.863 177.78 178.863 168.137C178.863 167.655 179.254 167.264 179.736 167.264H220.28C220.762 167.264 221.153 167.655 221.153 168.137Z" fill="#F05F83"/>
<path d="M193.803 165.224C193.803 161.799 196.58 159.022 200.004 159.022C203.429 159.022 206.206 161.799 206.206 165.224V167.292H193.803V165.224Z" fill="#3D4650"/>
<path d="M184.718 167.292H201.591V186.018C201.591 188.987 199.184 191.394 196.215 191.394H190.094C187.124 191.394 184.718 188.987 184.718 186.018V167.292Z" fill="#EBF9FF"/>
<rect x="208.778" y="227.46" width="72.1322" height="77.0595" rx="36.0661" transform="rotate(-90 208.778 227.46)" fill="#FFA1B8"/>
<path d="M190.537 153.259C190.537 156.442 187.956 159.023 184.773 159.023C181.589 159.023 179.008 156.442 179.008 153.259C179.008 150.075 181.589 147.494 184.773 147.494C187.956 147.494 190.537 150.075 190.537 153.259Z" fill="#3D4650"/>
<path d="M221.149 153.259C221.149 156.442 218.568 159.023 215.385 159.023C212.201 159.023 209.62 156.442 209.62 153.259C209.62 150.075 212.201 147.494 215.385 147.494C218.568 147.494 221.149 150.075 221.149 153.259Z" fill="#3D4650"/>
</svg>
