<svg width="71" height="71" viewBox="0 0 71 71" fill="none" xmlns="http://www.w3.org/2000/svg">
<mask id="mask0_2401_6236" style="mask-type:alpha" maskUnits="userSpaceOnUse" x="0" y="0" width="71" height="71">
<circle cx="35.5" cy="35.2944" r="35" fill="#D9D9D9"/>
</mask>
<g mask="url(#mask0_2401_6236)">
<path d="M46.6074 58.6807C46.3734 58.6807 46.1841 58.87 46.1841 59.1039C46.1841 63.781 49.9751 67.572 54.6522 67.572H61.9661C62.2001 67.572 62.3894 67.3827 62.3894 67.1488C62.3894 62.4717 58.5983 58.6807 53.9213 58.6807H46.6074Z" fill="#FCF9F5"/>
<path d="M61.9636 49.7893C62.1975 49.7893 62.3868 49.9786 62.3868 50.2126C62.3868 54.8896 58.5958 58.6807 53.9187 58.6807H46.6048C46.3708 58.6807 46.1815 58.4914 46.1815 58.2574C46.1815 53.5804 49.9726 49.7893 54.6496 49.7893H61.9636Z" fill="#FCF9F5"/>
<path d="M25.4753 58.6807C25.7093 58.6807 25.8986 58.87 25.8986 59.1039C25.8986 63.781 22.1075 67.572 17.4305 67.572H10.1165C9.88256 67.572 9.69327 67.3827 9.69327 67.1488C9.69327 62.4717 13.4843 58.6807 18.1614 58.6807H25.4727H25.4753Z" fill="#FCF9F5"/>
<path d="M10.119 49.7893C9.88506 49.7893 9.69577 49.9786 9.69577 50.2126C9.69577 54.8896 13.4868 58.6807 18.1639 58.6807H25.4752C25.7092 58.6807 25.8985 58.4914 25.8985 58.2574C25.8985 53.5804 22.1074 49.7893 17.4304 49.7893H10.119Z" fill="#FCF9F5"/>
<path d="M36.0098 27.2114C45.0037 27.2114 52.2966 34.5017 52.2966 43.4982V87.353H42.6586V81.3063C42.6586 77.7124 39.6037 74.8362 36.0098 74.8362C32.4159 74.8362 29.5029 77.7492 29.5029 81.3431V83.2886H19.7256V43.4982C19.7256 34.5043 27.0159 27.2114 36.0098 27.2114Z" fill="#FFDA9E"/>
<path d="M36.0414 58.6941C41.6648 58.6941 46.2262 61.8489 46.2262 71.2372V84.7819L42.6586 84.7215C42.0224 81.7927 39.2724 79.6606 36.1544 79.6606C33.0364 79.6606 30.431 81.8532 29.7948 84.7819H25.8539V71.2372C25.8539 65.6137 30.4126 58.6941 36.0387 58.6941H36.0414Z" fill="#C48F5F"/>
<path d="M50.1382 58.3785V70.2512C50.1382 72.4123 48.3873 74.1632 46.2262 74.1632C44.0651 74.1632 42.3142 72.4123 42.3142 70.2512V58.3785C42.3142 56.2175 44.0651 54.4666 46.2262 54.4666C48.3873 54.4666 50.1382 56.2175 50.1382 58.3785Z" fill="#D1A371"/>
<path d="M29.3873 58.3785V70.2512C29.3873 72.4123 27.6364 74.1632 25.4753 74.1632C23.3143 74.1632 21.5634 72.4123 21.5634 70.2512V58.3785C21.5634 56.2175 23.3143 54.4666 25.4753 54.4666C27.6364 54.4666 29.3873 56.2175 29.3873 58.3785Z" fill="#D1A371"/>
<path d="M38.8439 44.1133C43.8574 42.8908 48.9315 45.9615 50.1776 50.9672C51.4238 55.9728 48.3715 61.0232 43.3605 62.2431L17.9168 68.4423C17.4383 68.558 16.9572 68.2662 16.8363 67.7903C14.4597 58.2548 20.2751 48.6378 29.8237 46.3112L38.8439 44.1133Z" fill="#9A6CFF"/>
<path d="M14.4543 49.2923C14.4543 44.2893 18.5109 40.2354 23.5113 40.2354H48.5081C53.5112 40.2354 57.5651 44.2919 57.5651 49.2923C57.5651 54.2954 53.5085 58.3493 48.5081 58.3493H23.5113C18.5083 58.3493 14.4543 54.2928 14.4543 49.2923Z" fill="#FFDA9E"/>
<path d="M21.1742 49.9445C21.1742 45.3332 24.9127 41.5947 29.524 41.5947H42.564C47.1753 41.5947 50.9137 45.3332 50.9137 49.9445C50.9137 54.5558 47.1753 58.2943 42.564 58.2943H29.524C24.9127 58.2943 21.1742 54.5558 21.1742 49.9445Z" fill="#FFEED3"/>
<path d="M41.2178 26.1863C41.0916 26.1863 40.9655 26.2467 40.8787 26.365L38.7439 29.3279L36.3883 25.5606C36.2148 25.2845 35.8809 25.2845 35.7074 25.5606L33.3492 29.3332L31.2118 26.365C31.125 26.2441 30.9988 26.1863 30.87 26.1863V31.7703H32.5867C32.6209 31.7808 32.6577 31.7887 32.6945 31.7887H39.3986C39.438 31.7887 39.4722 31.7808 39.5063 31.7703H41.2178V26.1863Z" fill="#FFB67A"/>
<path d="M45.1484 34.7726C42.4904 33.1268 41.6676 29.6354 43.3133 26.9775C44.9591 24.3195 48.4505 23.4967 51.1084 25.1424L53.6559 26.7199C57.723 29.2385 58.9797 34.5754 56.4611 38.6425L55.3411 40.4513C55.1834 40.7036 54.8521 40.7825 54.5997 40.6248L45.1458 34.7726H45.1484Z" fill="#C48F5F"/>
<path d="M26.9581 35.0274C29.616 33.3817 30.4389 29.8903 28.7931 27.2324C27.1473 24.5744 23.656 23.7515 20.9981 25.3973L18.4505 26.9747C14.3834 29.4933 13.1294 34.8303 15.6454 38.8974L16.7653 40.7061C16.9231 40.9585 17.2543 41.0374 17.5067 40.8797L26.9607 35.0274H26.9581Z" fill="#C48F5F"/>
<path d="M39.4774 43.3459C39.4774 45.1546 38.0104 46.6216 36.2017 46.6216H35.8888C34.08 46.6216 32.613 45.1546 32.613 43.3459C32.613 43.2565 32.6867 43.1829 32.776 43.1829H39.3171C39.4064 43.1829 39.4801 43.2565 39.4801 43.3459H39.4774Z" fill="#F05F83"/>
<path d="M34.4823 42.6621C34.4823 41.8024 35.179 41.1057 36.0387 41.1057C36.8984 41.1057 37.5951 41.8024 37.5951 42.6621V43.1826H34.4797V42.6621H34.4823Z" fill="#2D3033"/>
<path d="M33.9801 43.1829H38.1103V48.1938C38.1103 49.3348 37.1849 50.2602 36.0439 50.2602C34.9029 50.2602 33.9801 49.3348 33.9801 48.1938V43.1829Z" fill="#FF7F9C"/>
<path d="M35.6392 43.1829H36.4384V45.8066C36.4384 46.1011 36.2596 46.3403 36.0388 46.3403C35.818 46.3403 35.6392 46.1011 35.6392 45.8066V43.1829Z" fill="#F05F83"/>
<path d="M33.6646 39.6573C33.6646 40.4566 33.0153 41.1059 32.216 41.1059C31.4168 41.1059 30.7675 40.4566 30.7675 39.6573C30.7675 38.8581 31.4168 38.2087 32.216 38.2087C33.0153 38.2087 33.6646 38.8581 33.6646 39.6573Z" fill="#2D3033"/>
<path d="M41.3519 39.6573C41.3519 40.4566 40.7026 41.1059 39.9033 41.1059C39.1041 41.1059 38.4547 40.4566 38.4547 39.6573C38.4547 38.8581 39.1015 38.2087 39.9033 38.2087C40.7052 38.2087 41.3519 38.8581 41.3519 39.6573Z" fill="#2D3033"/>
</g>
</svg>
