<svg width="70" height="70" viewBox="0 0 70 70" fill="none" xmlns="http://www.w3.org/2000/svg">
<mask id="mask0_2386_9919" style="mask-type:alpha" maskUnits="userSpaceOnUse" x="0" y="0" width="70" height="70">
<circle cx="35" cy="35" r="35" fill="#D9D9D9"/>
</mask>
<g mask="url(#mask0_2386_9919)">
<path d="M56.1145 44.3559L43.1121 52.2014L30.1055 30.6455L43.1079 22.8L56.1145 44.3559Z" fill="#97DDAE"/>
<path d="M54.4558 41.6095L41.4534 49.455L39.3766 46.013L52.379 38.1675L54.4558 41.6095Z" fill="#EEFFF4"/>
<path d="M50.6496 35.2989L37.6472 43.1444L35.5703 39.7024L48.5727 31.8569L50.6496 35.2989Z" fill="#EEFFF4"/>
<path d="M46.8406 28.983L33.8382 36.8285L31.7614 33.3865L44.7638 25.541L46.8406 28.983Z" fill="#EEFFF4"/>
<path d="M21.4809 21.9559L23.6388 20.6535L28.5354 28.7643L31.2328 27.1331L77.6409 104.043L70.0855 108.603L39.1777 57.3898C37.2628 58.548 34.7732 57.9317 33.6203 56.0141L22.2964 37.2527C21.1382 35.3378 21.7545 32.8482 23.6721 31.6953L26.3695 30.064L21.4728 21.9532L21.4809 21.9559Z" fill="#34C163"/>
<path d="M18.829 14.0206C18.3912 13.6376 17.7236 14.0454 17.8515 14.6132L18.7515 18.4917C18.8125 18.7434 18.6992 19.01 18.4775 19.1432L15.0671 21.1987C14.5677 21.5005 14.7454 22.2585 15.3254 22.3129L19.2968 22.652C19.5572 22.6741 19.7734 22.8602 19.829 23.1147L20.7343 26.9904C20.8676 27.5555 21.6436 27.6245 21.8702 27.0915L23.4191 23.4191C23.5192 23.1795 23.7622 23.0354 24.0227 23.0575L27.994 23.3965C28.5714 23.4456 28.8769 22.7241 28.4366 22.3492L25.4241 19.7432C25.2296 19.573 25.163 19.2972 25.2631 19.0576L26.8147 15.3906C27.0413 14.8575 26.4496 14.3443 25.9555 14.6433L22.5451 16.6988C22.3234 16.8321 22.0414 16.8074 21.8415 16.64L18.8291 14.034L18.829 14.0206Z" fill="#F78DC3"/>
</g>
</svg>
