<svg width="70" height="70" viewBox="0 0 70 70" fill="none" xmlns="http://www.w3.org/2000/svg">
<mask id="mask0_2386_10674" style="mask-type:alpha" maskUnits="userSpaceOnUse" x="0" y="0" width="70" height="70">
<circle cx="35" cy="35" r="35" fill="#D9D9D9"/>
</mask>
<g mask="url(#mask0_2386_10674)">
<path d="M46.1582 59.084C45.9228 59.084 45.732 59.2748 45.732 59.5102V59.5102C45.732 64.2181 49.5485 68.0345 54.2563 68.0345H61.6179C61.8533 68.0345 62.0441 67.8437 62.0441 67.6083V67.6083C62.0441 62.9005 58.2277 59.084 53.5198 59.084H46.1582Z" fill="#FFF5F8"/>
<path d="M61.6175 50.1335C61.8529 50.1335 62.0437 50.3244 62.0437 50.5598V50.5598C62.0437 55.2676 58.2272 59.0841 53.5194 59.0841H46.1578C45.9224 59.0841 45.7316 58.8933 45.7316 58.6579V58.6579C45.7316 53.95 49.548 50.1335 54.2559 50.1335H61.6175Z" fill="#FFF5F8"/>
<path d="M24.8864 59.0841C25.1218 59.0841 25.3126 59.2749 25.3126 59.5103V59.5103C25.3126 64.2182 21.4962 68.0346 16.7883 68.0346H9.42671C9.19132 68.0346 9.00049 67.8438 9.00049 67.6084V67.6084C9.00049 62.9006 12.817 59.0841 17.5248 59.0841H24.8864Z" fill="#FFF5F8"/>
<path d="M9.42616 50.134C9.19076 50.134 8.99994 50.3249 8.99994 50.5602V50.5602C8.99994 55.2681 12.8164 59.0846 17.5243 59.0846H24.8859C25.1212 59.0846 25.3121 58.8938 25.3121 58.6584V58.6584C25.3121 53.9505 21.4956 50.134 16.7877 50.134H9.42616Z" fill="#FFF5F8"/>
<path d="M36.8638 7C42.9187 7 47.8271 11.9084 47.8271 17.9632V31.9173C47.8271 35.0961 45.2502 37.673 42.0714 37.673V37.673C38.8926 37.673 36.3157 35.0961 36.3157 31.9173V7.54816C36.3157 7.24542 36.5611 7 36.8638 7V7Z" fill="#FFA1B8"/>
<path d="M36.676 17.163C40.6611 17.163 43.8916 20.3935 43.8916 24.3786V33.8846C43.8916 35.9768 42.1956 37.6728 40.1034 37.6728V37.6728C38.0112 37.6728 36.3152 35.9768 36.3152 33.8846V17.5237C36.3152 17.3245 36.4767 17.163 36.676 17.163V17.163Z" fill="#F05F83"/>
<path d="M23.7662 7C29.821 7 34.7294 11.9084 34.7294 17.9632V28.3531C34.7294 31.5319 32.1525 34.1088 28.9737 34.1088V34.1088C25.7949 34.1088 23.218 31.5319 23.218 28.3531V7.54816C23.218 7.24542 23.4634 7 23.7662 7V7Z" fill="#FFA1B8"/>
<path d="M23.2169 17.163C27.4012 17.163 30.7933 20.555 30.7933 24.7393V33.8846C30.7933 35.9768 29.0972 37.6728 27.0051 37.6728V37.6728C24.9129 37.6728 23.2169 35.9768 23.2169 33.8846V17.163V17.163Z" fill="#F05F83"/>
<path d="M35.5229 28.1981C44.5773 28.1982 51.9174 35.5383 51.9175 44.5927V83.7968H42.0737V81.9677C42.0737 78.35 39.1406 75.417 35.5229 75.4169C31.9052 75.4169 28.9722 78.3499 28.9722 81.9677V83.7968H19.1284V44.5927C19.1285 35.5383 26.4685 28.1981 35.5229 28.1981Z" fill="#FFA1B8"/>
<path d="M35.5224 61.4719C41.1847 61.4719 45.7753 66.0625 45.7753 71.7249V85.3596H42.037C41.3975 82.4124 38.7763 80.2045 35.6376 80.2043C32.4988 80.2043 29.8768 82.4123 29.2372 85.3596H25.2704V71.7249C25.2704 66.0627 29.8603 61.4721 35.5224 61.4719Z" fill="#F05F83"/>
<rect x="29.2095" y="54.8394" width="19.8309" height="7.87866" rx="3.93933" transform="rotate(90 29.2095 54.8394)" fill="#FF7F9D"/>
<rect x="49.7133" y="54.8394" width="19.8309" height="7.87866" rx="3.93933" transform="rotate(90 49.7133 54.8394)" fill="#FF7F9D"/>
<path d="M30.3132 31.8656C30.3132 30.5658 31.3669 29.5121 32.6667 29.5121H38.3783C39.6781 29.5121 40.7318 30.5658 40.7318 31.8656V31.8656H30.3132V31.8656Z" fill="#7FD8FF"/>
<path d="M35.183 25.6156C35.3569 25.3374 35.6947 25.3374 35.8687 25.6156L39.2434 31.0123C39.4656 31.3676 39.2623 31.8857 38.9006 31.8857H32.1511C31.7894 31.8857 31.586 31.3676 31.8082 31.0123L35.183 25.6156Z" fill="#7FD8FF"/>
<path d="M40.7318 31.8662H37.3578C36.9964 31.8658 36.7932 31.4166 37.015 31.1084L40.39 26.4258C40.4767 26.3054 40.6042 26.2445 40.7318 26.2441V31.8662Z" fill="#7FD8FF"/>
<path d="M30.3138 31.8662H33.6878C34.0492 31.8659 34.2524 31.4166 34.0306 31.1084L30.6556 26.4258C30.5689 26.3054 30.4414 26.2445 30.3138 26.2441V31.8662Z" fill="#7FD8FF"/>
<path d="M38.3433 44.4199C43.3895 43.1904 48.498 46.2792 49.7535 51.319V51.319C51.0089 56.3589 47.9359 61.4413 42.8897 62.6708L17.2756 68.912C16.7951 69.0291 16.3085 68.7349 16.189 68.2549V68.2549C13.7976 58.6552 19.651 48.9745 29.2628 46.6325L38.3433 44.4199Z" fill="#4C98F5"/>
<rect x="13.823" y="58.6934" width="18.2368" height="43.4006" rx="9.11838" transform="rotate(-90 13.823 58.6934)" fill="#FFA1B8"/>
<path d="M40.8698 43.6953C40.8698 46.1332 38.8934 48.1096 36.4554 48.1096H34.5922C32.1543 48.1096 30.1779 46.1332 30.1779 43.6953V43.6953C30.1779 43.5734 30.2767 43.4745 30.3986 43.4745H40.649C40.7709 43.4745 40.8698 43.5734 40.8698 43.6953V43.6953Z" fill="#F05F83"/>
<path d="M33.9553 42.9587C33.9553 42.0928 34.6572 41.3909 35.5231 41.3909V41.3909C36.389 41.3909 37.0909 42.0928 37.0909 42.9587V43.4817H33.9553V42.9587Z" fill="#3D4650"/>
<path d="M31.6581 43.4813H35.9241V48.0832C35.9241 48.907 35.2562 49.5749 34.4324 49.5749H33.1498C32.326 49.5749 31.6581 48.907 31.6581 48.0832V43.4813Z" fill="#EBF9FF"/>
<rect x="37.7411" y="58.6934" width="18.2368" height="19.4824" rx="9.11838" transform="rotate(-90 37.7411 58.6934)" fill="#FFA1B8"/>
<path d="M33.1295 39.9335C33.1295 40.7384 32.4771 41.3909 31.6722 41.3909C30.8673 41.3909 30.2148 40.7384 30.2148 39.9335C30.2148 39.1287 30.8673 38.4762 31.6722 38.4762C32.4771 38.4762 33.1295 39.1287 33.1295 39.9335Z" fill="#3D4650"/>
<path d="M40.8689 39.9335C40.8689 40.7384 40.2164 41.3909 39.4116 41.3909C38.6067 41.3909 37.9542 40.7384 37.9542 39.9335C37.9542 39.1287 38.6067 38.4762 39.4116 38.4762C40.2164 38.4762 40.8689 39.1287 40.8689 39.9335Z" fill="#3D4650"/>
</g>
</svg>
