<svg width="71" height="71" viewBox="0 0 71 71" fill="none" xmlns="http://www.w3.org/2000/svg">
<mask id="mask0_2401_6281" style="mask-type:alpha" maskUnits="userSpaceOnUse" x="0" y="0" width="71" height="71">
<circle cx="35.6115" cy="35.2944" r="35" fill="#D9D9D9"/>
</mask>
<g mask="url(#mask0_2401_6281)">
<path d="M33.3702 18.5104C33.5514 18.2221 33.9002 18.2221 34.0814 18.5104L37.5826 24.1096C37.8133 24.4775 37.6018 25.0157 37.2284 25.0157H30.226C29.8498 25.0157 29.6411 24.4775 29.8718 24.1096L33.3702 18.5104Z" fill="#D27FFF"/>
<path d="M39.1258 24.9936H35.6247C35.2485 24.9936 35.0398 24.5268 35.2704 24.2082L38.7716 19.3505C38.8622 19.2242 38.994 19.1638 39.1258 19.1638V24.9963V24.9936Z" fill="#D27FFF"/>
<path d="M28.3203 24.9936H31.8214C32.1977 24.9936 32.4091 24.5268 32.1784 24.2082L28.6773 19.3505C28.5866 19.2242 28.4548 19.1638 28.323 19.1638V24.9963L28.3203 24.9936Z" fill="#D27FFF"/>
<path d="M74.418 49.5065C73.1273 46.1015 70.5269 43.7481 67.1218 42.5564C64.7685 41.7326 62.2119 41.3948 59.7268 41.5843C53.7597 42.0401 48.7702 46.236 45.8402 51.2557C45.6864 51.5166 45.5354 51.783 45.4036 52.0548C45.4036 52.0548 45.3816 53.5377 45.3487 55.8416C39.6123 57.9368 35.5179 63.4425 35.5179 69.9039C35.5179 78.1694 42.2182 84.8697 50.4837 84.8697C58.7492 84.8697 65.4495 78.1694 65.4495 69.9039C65.4495 67.2705 64.7685 64.7991 63.574 62.6489C64.2632 62.8109 64.9827 62.9016 65.7241 62.9016C68.676 62.9016 71.3067 61.5313 73.0175 59.3922C73.1273 59.2658 73.2399 59.1423 73.3443 59.0105C75.4862 56.3249 75.6042 52.6287 74.4207 49.5093L74.418 49.5065Z" fill="#DB854B"/>
<path d="M44.8735 28.2085L45.4117 27.1403C46.241 25.4927 45.5792 23.4826 43.9316 22.6533C42.284 21.824 40.2739 22.4858 39.4447 24.1334L39.0382 24.9407C37.3961 24.4135 35.6469 24.1251 33.8291 24.1251C32.0112 24.1251 30.262 24.4135 28.6199 24.9407L28.2135 24.1334C27.3842 22.4858 25.3741 21.8212 23.7265 22.6533C22.0789 23.4826 21.4143 25.4927 22.2464 27.1403L22.7846 28.2085C19.1379 31.3279 16.823 35.9605 16.823 41.1367V81.8134H27.0354V79.9159C27.0354 76.1621 30.078 73.1195 33.8318 73.1195C37.5856 73.1195 40.6282 76.1621 40.6282 79.9159V81.8134H50.8434V41.1394C50.8434 35.9632 48.5285 31.3307 44.8818 28.2112L44.8735 28.2085Z" fill="#F4A261"/>
<path d="M33.8263 57.1323C39.7001 57.1323 44.4644 60.9767 44.4644 69.2889V83.4364H40.587C39.9225 80.3773 37.2012 78.0871 33.9444 78.0871C30.6877 78.0871 27.9664 80.3773 27.3018 83.4364H23.1855V69.2889C23.1855 63.4152 27.9471 57.1323 33.8236 57.1323H33.8263Z" fill="#B77142"/>
<path d="M44.8627 56.1738C44.6183 56.1738 44.4206 56.3715 44.4206 56.6159C44.4206 61.5011 48.3803 65.4608 53.2655 65.4608H60.9049C61.1493 65.4608 61.347 65.2631 61.347 65.0187C61.347 60.1336 57.3873 56.1738 52.5021 56.1738H44.8627Z" fill="#FCEFE6"/>
<path d="M60.902 46.887C61.1464 46.887 61.3441 47.0847 61.3441 47.3291C61.3441 52.2142 57.3844 56.174 52.4992 56.174H44.8598C44.6154 56.174 44.4177 55.9763 44.4177 55.7319C44.4177 50.8467 48.3775 46.887 53.2626 46.887H60.902Z" fill="#FCEFE6"/>
<path d="M22.79 56.1738C23.0344 56.1738 23.2321 56.3715 23.2321 56.6159C23.2321 61.5011 19.2724 65.4608 14.3872 65.4608H6.7478C6.50341 65.4608 6.30569 65.2631 6.30569 65.0187C6.30569 60.1336 10.2654 56.1738 15.1506 56.1738H22.7873H22.79Z" fill="#FCEFE6"/>
<path d="M6.75043 46.887C6.50603 46.887 6.30832 47.0847 6.30832 47.3291C6.30832 52.2142 10.2681 56.174 15.1532 56.174H22.7899C23.0343 56.174 23.232 55.9763 23.232 55.7319C23.232 50.8467 19.2722 46.887 14.3871 46.887H6.75043Z" fill="#FCEFE6"/>
<path d="M48.5504 55.8583V68.2593C48.5504 70.5165 46.7216 72.3453 44.4644 72.3453C42.2071 72.3453 40.3783 70.5165 40.3783 68.2593V55.8583C40.3783 53.6011 42.2071 51.7722 44.4644 51.7722C46.7216 51.7722 48.5504 53.6011 48.5504 55.8583Z" fill="#DB854B"/>
<path d="M27.1041 55.8583V68.2593C27.1041 70.5165 25.2753 72.3453 23.0181 72.3453C20.7608 72.3453 18.932 70.5165 18.932 68.2593V55.8583C18.932 53.6011 20.7608 51.7722 23.0181 51.7722C25.2753 51.7722 27.1041 53.6011 27.1041 55.8583Z" fill="#DB854B"/>
<path d="M36.7536 40.9582C41.9902 39.6813 47.29 42.8887 48.5916 48.1171C49.8932 53.3455 46.7051 58.6206 41.4712 59.8947L14.8953 66.3698C14.3955 66.4907 13.893 66.1859 13.7667 65.6888C11.2843 55.729 17.3585 45.6841 27.332 43.2539L36.7536 40.9582Z" fill="#46AF71"/>
<path d="M46.4745 32.0503H21.1782C14.7403 32.0503 9.52136 37.2686 9.52136 43.7057C9.52136 50.1429 14.7403 55.3612 21.1782 55.3612H46.4745C52.9123 55.3612 58.1313 50.1429 58.1313 43.7057C58.1313 37.2686 52.9123 32.0503 46.4745 32.0503Z" fill="#F4A261"/>
<path d="M15.1068 47.4693C15.1068 43.1086 18.6409 39.5745 23.0016 39.5745H44.6512C49.0118 39.5745 52.5459 43.1086 52.5459 47.4693C52.5459 51.8299 49.0118 55.364 44.6512 55.364H23.0016C18.6409 55.364 15.1068 51.8299 15.1068 47.4693Z" fill="#FFD0AE"/>
<path d="M28.4277 24.8225L32.4699 32.2038C33.0603 33.2802 34.6035 33.2857 35.1994 32.212L39.3102 24.8225C35.7321 23.6197 32.1046 23.584 28.4277 24.8225Z" fill="#B77142"/>
<path d="M36.3499 46.2912V45.9535C36.3499 41.2358 40.175 37.4106 44.8927 37.4106C49.6103 37.4106 53.4355 41.2358 53.4355 45.9535V46.2912C53.4355 51.0089 49.6103 54.8341 44.8927 54.8341C40.175 54.8341 36.3499 51.0089 36.3499 46.2912Z" fill="#FFD0AE"/>
<path d="M13.3796 46.0718V45.734C13.3796 41.0164 17.2048 37.1912 21.9225 37.1912C26.6401 37.1912 30.4653 41.0164 30.4653 45.734V46.0718C30.4653 50.7894 26.6401 54.6146 21.9225 54.6146C17.2048 54.6146 13.3796 50.7894 13.3796 46.0718Z" fill="#FFD0AE"/>
<path d="M32.2006 39.039C32.2006 38.141 32.9283 37.4133 33.8263 37.4133C34.7242 37.4133 35.4519 38.141 35.4519 39.039V39.5827H32.1979V39.039H32.2006Z" fill="#3D4650"/>
<path d="M31.3439 35.8973C31.3439 36.7321 30.6657 37.4104 29.8309 37.4104C28.9961 37.4104 28.3178 36.7321 28.3178 35.8973C28.3178 35.0625 28.9961 34.3843 29.8309 34.3843C30.6657 34.3843 31.3439 35.0625 31.3439 35.8973Z" fill="#3D4650"/>
<path d="M39.3733 35.8973C39.3733 36.7321 38.6951 37.4104 37.8603 37.4104C37.0255 37.4104 36.3472 36.7321 36.3472 35.8973C36.3472 35.0625 37.0227 34.3843 37.8603 34.3843C38.6978 34.3843 39.3733 35.0625 39.3733 35.8973Z" fill="#3D4650"/>
<path d="M39.3595 39.7692C39.3595 41.9441 37.4235 43.707 35.0345 43.707H32.1512C29.7621 43.707 27.8262 41.9441 27.8262 39.7692C27.8262 39.6594 27.9223 39.5715 28.0431 39.5715H39.1425C39.2606 39.5715 39.3595 39.6594 39.3595 39.7692Z" fill="#F05F83"/>
<path d="M30.1137 39.5796H34.2767V44.2149C34.2767 44.6625 33.9142 45.0249 33.4666 45.0249H30.9265C30.4789 45.0249 30.1165 44.6625 30.1165 44.2149V39.5796H30.1137Z" fill="#EBF9FF"/>
</g>
</svg>
