<svg width="70" height="70" viewBox="0 0 70 70" fill="none" xmlns="http://www.w3.org/2000/svg">
<mask id="mask0_2386_9920" style="mask-type:alpha" maskUnits="userSpaceOnUse" x="0" y="0" width="70" height="70">
<circle cx="35" cy="35" r="35" fill="#D9D9D9"/>
</mask>
<g mask="url(#mask0_2386_9920)">
<path d="M55.1128 45.3555L42.1106 53.202L29.1023 31.6465L42.1045 23.8L55.1128 45.3555Z" fill="#C7BDF9"/>
<path d="M53.4562 42.6012L40.454 50.4478L38.3769 47.0058L51.3791 39.1593L53.4562 42.6012Z" fill="#E9E3FF"/>
<path d="M49.6472 36.2986L36.6451 44.1451L34.5679 40.7032L47.5701 32.8567L49.6472 36.2986Z" fill="#E9E3FF"/>
<path d="M45.8405 29.9882L32.8383 37.8347L30.7612 34.3928L43.7634 26.5463L45.8405 29.9882Z" fill="#E9E3FF"/>
<path d="M20.4759 22.9593L22.6338 21.6568L27.531 29.7675L30.2283 28.136L76.6477 105.042L69.0925 109.602L38.1807 58.3902C36.2659 59.5485 33.7762 58.9323 32.6232 57.0147L21.2978 38.2536C20.1394 36.3388 20.7556 33.8491 22.6732 32.6961L25.3704 31.0646L20.4732 22.9539L20.4759 22.9593Z" fill="#A483FF"/>
<path d="M17.8234 15.0241C17.3857 14.6412 16.718 15.049 16.846 15.6169L17.7462 19.4953C17.8073 19.7471 17.694 20.0136 17.4723 20.1469L14.0619 22.2026C13.5625 22.5044 13.7403 23.2624 14.3203 23.3169L18.2918 23.6556C18.5523 23.6777 18.7684 23.8638 18.8241 24.1183L19.7297 27.9941C19.863 28.5592 20.639 28.6282 20.8656 28.0951L22.4142 24.4226C22.5143 24.1829 22.7574 24.0388 23.0178 24.0609L26.9893 24.3997C27.5666 24.4487 27.8722 23.7272 27.4318 23.3523L24.4191 20.7465C24.2245 20.5763 24.1579 20.3004 24.258 20.0608L25.8094 16.3936C26.036 15.8605 25.4442 15.3473 24.9502 15.6464L21.5398 17.7022C21.3181 17.8354 21.0361 17.8108 20.8362 17.6434L17.8235 15.0375L17.8234 15.0241Z" fill="#F96464"/>
</g>
</svg>
