<svg width="36" height="42" viewBox="0 0 36 42" fill="none" xmlns="http://www.w3.org/2000/svg">
<rect x="14" y="2" width="8" height="8" fill="#CC8753"/>
<rect x="11" width="14" height="4" rx="2" fill="#CC8753"/>
<path d="M3.17096 14.4857C1.60886 12.9236 1.60886 10.3909 3.17096 8.8288C4.73305 7.2667 7.26571 7.2667 8.82781 8.8288L11.6562 11.6572L5.99938 17.3141L3.17096 14.4857Z" fill="#FFB67A"/>
<path d="M32.8284 14.4853C34.3905 12.9232 34.3905 10.3905 32.8284 8.82843C31.2663 7.26634 28.7337 7.26634 27.1716 8.82843L24.3432 11.6569L30 17.3137L32.8284 14.4853Z" fill="#FFB67A"/>
<circle cx="18" cy="24" r="18" fill="#FFB67A"/>
<circle cx="18" cy="24" r="14" fill="#E69F66"/>
<circle cx="18" cy="24" r="12" fill="#FFE8D7"/>
<path d="M9.51458 15.5147C14.2009 10.8284 21.7988 10.8284 26.4851 15.5147L9.51458 32.4853C4.82829 27.799 4.82829 20.201 9.51458 15.5147Z" fill="#FFD0AE"/>
<circle cx="18" cy="24" r="3" fill="#854D33"/>
<path d="M19 12V15C19 15.5523 18.5523 16 18 16C17.4477 16 17 15.5523 17 15V12H19Z" fill="#CC8753"/>
<path d="M18 32C18.5523 32 19 32.4477 19 33V36H17V33C17 32.4477 17.4477 32 18 32Z" fill="#CC8753"/>
<path d="M30 25H27C26.4477 25 26 24.5523 26 24C26 23.4477 26.4477 23 27 23H30V25Z" fill="#CC8753"/>
<path d="M10 24C10 24.5523 9.55228 25 9 25H6V23H9C9.55228 23 10 23.4477 10 24Z" fill="#CC8753"/>
</svg>
