<svg width="82" height="128" viewBox="0 0 82 128" fill="none" xmlns="http://www.w3.org/2000/svg">
<rect width="15.4624" height="2.99258" transform="matrix(-0.431499 0.902113 0.902113 0.431499 58.6289 11.7918)" fill="#4C98F5"/>
<rect width="29.9127" height="18.0441" transform="matrix(0.431499 -0.902113 -0.902113 -0.431499 59.0026 60.7893)" fill="#A6D3FD"/>
<rect width="4.77627" height="18.0441" transform="matrix(0.431499 -0.902113 -0.902113 -0.431499 60.6474 57.351)" fill="#EAF4FF"/>
<rect width="4.77627" height="18.0441" transform="matrix(0.431499 -0.902113 -0.902113 -0.431499 64.4259 49.4517)" fill="#EAF4FF"/>
<rect width="4.77627" height="18.0441" transform="matrix(0.431499 -0.902113 -0.902113 -0.431499 68.2031 41.5549)" fill="#EAF4FF"/>
<rect width="106.727" height="10.4837" transform="matrix(0.431499 -0.902113 -0.902113 -0.431499 13.7988 121.133)" fill="#72B6F9"/>
<path d="M35.006 52.4978C32.609 51.3513 31.5953 48.4786 32.7418 46.0816L43.9766 22.5935C45.1232 20.1965 47.9958 19.1828 50.3929 20.3293V20.3293L35.006 52.4978V52.4978Z" fill="#72B6F9"/>
<path d="M64.5529 5.63306C64.7128 4.42926 63.2388 3.72422 62.4019 4.60417L60.5584 6.54255C60.1841 6.93608 59.5991 7.04386 59.1091 6.80952L56.696 5.65525C55.6005 5.13125 54.4744 6.31522 55.0527 7.38306L56.3266 9.73532C56.5852 10.2129 56.5069 10.8026 56.1326 11.1962L54.2891 13.1345C53.4522 14.0145 54.2303 15.4513 55.4246 15.2313L58.0553 14.7467C58.5894 14.6483 59.1261 14.905 59.3848 15.3826L60.6586 17.7348C61.2369 18.8027 62.8438 18.5067 63.0036 17.3029L63.3556 14.6511C63.4271 14.1127 63.8371 13.6816 64.3712 13.5832L67.002 13.0986C68.1963 12.8786 68.4113 11.2589 67.3158 10.7349L64.9026 9.58067C64.4127 9.34633 64.1294 8.82317 64.2009 8.28482L64.5529 5.63306Z" fill="#FFB67A"/>
</svg>
