<svg width="60" height="12" viewBox="0 0 60 12" fill="none" xmlns="http://www.w3.org/2000/svg">
<path d="M55.1285 6.86795L55.1578 7.89436H57.9731C58.1784 7.89436 58.3299 7.93835 58.4277 8.02633C58.5254 8.10453 58.5743 8.24139 58.5743 8.43689V10.2991C58.5743 10.5044 58.5254 10.6461 58.4277 10.7243C58.3299 10.8123 58.1784 10.8563 57.9731 10.8563H52.6211C52.367 10.8563 52.1959 10.7976 52.1079 10.6803C52.0199 10.5728 51.9711 10.3724 51.9613 10.0792L51.8293 0.841456C51.8195 0.557971 51.8635 0.362464 51.9613 0.254936C52.0688 0.137632 52.2497 0.0789795 52.5038 0.0789795H58.4423C58.6476 0.0789795 58.7991 0.118081 58.8969 0.196284C58.9946 0.274487 59.0435 0.416229 59.0435 0.621511V2.49838C59.0435 2.69388 58.9946 2.83562 58.8969 2.9236C58.7991 3.00181 58.6476 3.04091 58.4423 3.04091H55.0552L55.0698 3.90602H57.9291C58.1344 3.90602 58.2859 3.94513 58.3837 4.02333C58.4814 4.10153 58.5303 4.24327 58.5303 4.44856V6.32542C58.5303 6.5307 58.4814 6.67245 58.3837 6.75065C58.2859 6.82885 58.1344 6.86795 57.9291 6.86795H55.1285Z" fill="#3DAFD9"/>
<path d="M41.9803 0.738815C41.9803 0.484656 42.0194 0.313588 42.0976 0.225609C42.1856 0.127856 42.3322 0.0789795 42.5375 0.0789795H44.649C44.864 0.0789795 45.0058 0.127856 45.0742 0.225609C45.1524 0.313588 45.1964 0.484656 45.2062 0.738815L45.2502 3.90602H47.259V0.738815C47.259 0.484656 47.2981 0.313588 47.3763 0.225609C47.4643 0.127856 47.6109 0.0789795 47.8162 0.0789795H49.9277C50.1427 0.0789795 50.2894 0.127856 50.3676 0.225609C50.4458 0.313588 50.4849 0.484656 50.4849 0.738815V10.1965C50.4849 10.4506 50.4458 10.6217 50.3676 10.7097C50.2894 10.8074 50.1427 10.8563 49.9277 10.8563H47.8162C47.6109 10.8563 47.4643 10.8074 47.3763 10.7097C47.2981 10.6217 47.259 10.4506 47.259 10.1965V6.86795H45.2942L45.3528 10.1965C45.3626 10.4506 45.3235 10.6217 45.2355 10.7097C45.1573 10.8074 45.0107 10.8563 44.7956 10.8563H42.6841C42.4789 10.8563 42.3371 10.8074 42.2589 10.7097C42.1807 10.6217 42.1367 10.4506 42.1269 10.1965L41.9803 0.738815Z" fill="#3DAFD9"/>
<path d="M31.8858 10.4604C31.7196 10.4115 31.6072 10.3431 31.5486 10.2551C31.4899 10.1574 31.4948 10.0058 31.5632 9.80055L34.5985 0.738815C34.6767 0.494431 34.7695 0.323363 34.8771 0.225609C34.9846 0.127856 35.1557 0.0789795 35.3903 0.0789795H37.5164C37.751 0.0789795 37.9221 0.127856 38.0296 0.225609C38.1371 0.323363 38.23 0.494431 38.3082 0.738815L41.3434 9.80055C41.4119 10.0058 41.4168 10.1574 41.3581 10.2551C41.2995 10.3431 41.187 10.4115 41.0209 10.4604L39.2026 10.9883C38.9192 11.0665 38.7285 10.954 38.6308 10.651L38.1762 9.18471H34.7158L34.2759 10.651C34.1781 10.954 33.9875 11.0665 33.704 10.9883L31.8858 10.4604ZM36.446 3.45147L35.5662 6.36941H37.3258L36.446 3.45147Z" fill="#3DAFD9"/>
<path d="M23.2003 0.738824C23.2003 0.484665 23.2394 0.313596 23.3176 0.225618C23.4055 0.127865 23.5522 0.078988 23.7575 0.078988H25.8689C26.084 0.078988 26.2257 0.127865 26.2942 0.225618C26.3724 0.313596 26.4163 0.484665 26.4261 0.738824L26.4554 3.21687L28.8309 0.254945C29.0655 -0.038316 29.3245 -0.082305 29.608 0.122977L31.045 1.2227C31.26 1.38888 31.3773 1.53551 31.3969 1.66259C31.4164 1.7799 31.3627 1.91675 31.2356 2.07316L28.9042 4.96177L31.4115 9.31668C31.5386 9.54152 31.5826 9.71747 31.5435 9.84455C31.5142 9.96186 31.3969 10.0645 31.1916 10.1525L29.476 10.8416C29.2805 10.9198 29.1192 10.9443 28.9921 10.915C28.8651 10.8954 28.7526 10.8025 28.6549 10.6364L26.5141 6.94128L26.5727 10.1965C26.5825 10.4506 26.5434 10.6217 26.4554 10.7097C26.3772 10.8074 26.2306 10.8563 26.0156 10.8563H23.9041C23.6988 10.8563 23.5571 10.8074 23.4789 10.7097C23.4007 10.6217 23.3567 10.4506 23.3469 10.1965L23.2003 0.738824Z" fill="#3DAFD9"/>
<path d="M18.8481 0.738815C18.8481 0.484656 18.8872 0.313588 18.9654 0.225609C19.0534 0.127856 19.2 0.0789795 19.4053 0.0789795H21.5167C21.7318 0.0789795 21.8736 0.127856 21.942 0.225609C22.0202 0.313588 22.0642 0.484656 22.0739 0.738815L22.2206 10.1965C22.2304 10.4506 22.1912 10.6217 22.1033 10.7097C22.0251 10.8074 21.8784 10.8563 21.6634 10.8563H19.5519C19.3466 10.8563 19.2049 10.8074 19.1267 10.7097C19.0485 10.6217 19.0045 10.4506 18.9947 10.1965L18.8481 0.738815Z" fill="#3DAFD9"/>
<path d="M9.13106 0.738815C9.13106 0.484656 9.17016 0.313588 9.24836 0.225609C9.33634 0.127856 9.48297 0.0789795 9.68825 0.0789795H11.7997C12.0148 0.0789795 12.1565 0.127856 12.225 0.225609C12.3032 0.313588 12.3471 0.484656 12.3569 0.738815L12.4009 3.90602H14.4097V0.738815C14.4097 0.484656 14.4488 0.313588 14.527 0.225609C14.615 0.127856 14.7617 0.0789795 14.9669 0.0789795H17.0784C17.2935 0.0789795 17.4401 0.127856 17.5183 0.225609C17.5965 0.313588 17.6356 0.484656 17.6356 0.738815V10.1965C17.6356 10.4506 17.5965 10.6217 17.5183 10.7097C17.4401 10.8074 17.2935 10.8563 17.0784 10.8563H14.9669C14.7617 10.8563 14.615 10.8074 14.527 10.7097C14.4488 10.6217 14.4097 10.4506 14.4097 10.1965V6.86795H12.4449L12.5035 10.1965C12.5133 10.4506 12.4742 10.6217 12.3862 10.7097C12.308 10.8074 12.1614 10.8563 11.9464 10.8563H9.83488C9.6296 10.8563 9.48786 10.8074 9.40965 10.7097C9.33145 10.6217 9.28746 10.4506 9.27769 10.1965L9.13106 0.738815Z" fill="#3DAFD9"/>
<path d="M8.33991 10.3576C8.34969 10.4945 8.33014 10.5922 8.28126 10.6509C8.24216 10.7193 8.13463 10.7633 7.95867 10.7828C6.83451 10.9295 5.8081 10.9197 4.87944 10.7535C3.95079 10.5873 3.15898 10.2696 2.50404 9.80042C1.83931 9.34098 1.32122 8.7398 0.949758 7.99687C0.58807 7.24417 0.407227 6.35462 0.407227 5.32821C0.407227 4.62438 0.500092 3.99876 0.685824 3.45134C0.88133 2.90392 1.15015 2.42493 1.49229 2.01437C1.82465 1.61358 2.21566 1.28121 2.66533 1.01728C3.12477 0.743571 3.61843 0.528514 4.14629 0.372108C4.67416 0.225478 5.22647 0.132612 5.80321 0.0935109C6.37996 0.0544101 6.9567 0.059298 7.53345 0.108175C7.6703 0.127725 7.76806 0.161939 7.82671 0.210815C7.89514 0.259692 7.92935 0.352558 7.92935 0.489412L7.91469 2.73285C7.91469 2.85993 7.88536 2.94791 7.82671 2.99679C7.76806 3.03589 7.6703 3.05055 7.53345 3.04078C6.93715 3.01145 6.40928 3.03589 5.94984 3.11409C5.50018 3.18252 5.12383 3.31449 4.82079 3.50999C4.50798 3.7055 4.27337 3.97432 4.11697 4.31646C3.96056 4.65859 3.88236 5.07893 3.88236 5.57748C3.88236 5.97826 3.9459 6.33995 4.07298 6.66254C4.20983 6.97535 4.42978 7.2344 4.73281 7.43968C5.02607 7.64496 5.41709 7.7867 5.90585 7.86491C6.39462 7.93333 7.00069 7.91867 7.72407 7.82092C7.89025 7.80137 7.99778 7.82092 8.04665 7.87957C8.10531 7.93822 8.13952 8.02131 8.14929 8.12884L8.33991 10.3576Z" fill="#3DAFD9"/>
</svg>
