<svg width="25" height="24" viewBox="0 0 25 24" fill="none" xmlns="http://www.w3.org/2000/svg">
<path d="M17.2171 9C17.2171 7.67392 16.6903 6.40215 15.7526 5.46447C14.815 4.52678 13.5432 4 12.2171 4C10.891 4 9.61925 4.52678 8.68157 5.46447C7.74389 6.40215 7.2171 7.67392 7.2171 9C7.2171 14.8333 4.7171 16.5 4.7171 16.5H19.7171C19.7171 16.5 17.2171 14.8333 17.2171 9Z" stroke="#181B1F" stroke-width="1.5" stroke-linecap="round" stroke-linejoin="round"/>
<path d="M13.659 18.5C13.5125 18.7526 13.3022 18.9622 13.0492 19.1079C12.7962 19.2537 12.5093 19.3304 12.2174 19.3304C11.9254 19.3304 11.6385 19.2537 11.3855 19.1079C11.1325 18.9622 10.9222 18.7526 10.7757 18.5" stroke="#181B1F" stroke-width="1.5" stroke-linecap="round" stroke-linejoin="round"/>
</svg>
